<svg fill="none" xmlns="http://www.w3.org/2000/svg" viewBox="0 0 500 500"><path d="M59.17 114.56a3.09 3.09 0 1 1-1.906-2.857 3.069 3.069 0 0 1 1.673 1.673c.155.375.234.778.233 1.184Z" fill="#E6E6E6"/><path d="M33.9 193.19a3.092 3.092 0 0 1 3.042 3.687 3.087 3.087 0 0 1-2.425 2.433 3.095 3.095 0 0 1-3.176-1.312 3.091 3.091 0 0 1 2.559-4.808Zm0-1a4.095 4.095 0 0 0-3.771 2.532 4.088 4.088 0 0 0 2.987 5.57 4.089 4.089 0 0 0 3.686-6.904 4.09 4.09 0 0 0-2.892-1.198h-.01Zm41.37-98.62-4.72 7.21-4.72-7.21 4.72-7.21 4.72 7.21Zm-34.34-1.09L36.53 95a.75.75 0 0 0-.28 1 .76.76 0 0 0 1 .27l4.4-2.54a.75.75 0 0 0 .27-1 .74.74 0 0 0-.99-.25Zm5.72-1.69c.13 0 .258-.035.37-.1l4.4-2.54a.75.75 0 0 0 .28-1 .76.76 0 0 0-1-.28l-4.4 2.54a.75.75 0 0 0 .38 1.4l-.03-.02ZM51.42 95 47 92.48a.75.75 0 1 0-.75 1.3l4.4 2.54a.76.76 0 0 0 1-.27.757.757 0 0 0-.016-.844.76.76 0 0 0-.214-.206Zm-9.74-5.63-4.4-2.54a.76.76 0 0 0-1 .28.74.74 0 0 0 .28 1l4.4 2.54a.75.75 0 0 0 1.02-.27.76.76 0 0 0-.3-.99v-.02ZM44 93.92a.76.76 0 0 0-.75.75v5.09a.748.748 0 0 0 .75.75.75.75 0 0 0 .75-.75v-5.09a.75.75 0 0 0-.75-.75Zm0-11.25a.76.76 0 0 0-.75.75v5.08a.75.75 0 0 0 1.5 0v-5.08a.75.75 0 0 0-.75-.75Z" fill="#F5F5F5"/><path d="M422.12 76.73a4.673 4.673 0 0 0 5.587 4.57 4.672 4.672 0 0 0 3.397-6.37 4.672 4.672 0 0 0-7.62-1.509 4.68 4.68 0 0 0-1.364 3.309Z" fill="#E0E0E0"/><path d="M432.6 104.13a3.09 3.09 0 1 1 .001 6.181 3.09 3.09 0 0 1-.001-6.181Zm0-1a4.09 4.09 0 1 0 0 8.178 4.09 4.09 0 0 0 0-8.178Zm26.74 84.26 4.72 7.21 4.72-7.21-4.72-7.21-4.72 7.21Zm-3.96-96.9a.76.76 0 0 0 .28 1l4.4 2.54a.71.71 0 0 0 .37.1.759.759 0 0 0 .65-.38.736.736 0 0 0-.27-1l-4.4-2.54a.752.752 0 0 0-1.03.28Zm-4-2.33a.76.76 0 0 0-.28-1l-4.4-2.54a.75.75 0 1 0-.75 1.3l4.4 2.54a.751.751 0 0 0 .38.1.757.757 0 0 0 .61-.4h.04Zm-5.7 5.62a.742.742 0 0 0 1 .28l4.4-2.54a.758.758 0 0 0 .28-1 .751.751 0 0 0-1-.27l-4.4 2.54a.74.74 0 0 0-.32.99h.04Zm9.74-5.62a.76.76 0 0 0 1 .27l4.4-2.54a.754.754 0 0 0 .275-1.025.748.748 0 0 0-1.025-.275l-4.4 2.54a.76.76 0 0 0-.29 1.03h.04Zm-2.77 4.25v5.08a.75.75 0 1 0 1.5 0v-5.08a.749.749 0 1 0-1.5 0Zm0-11.25v5.08a.75.75 0 1 0 1.5 0v-5.08a.749.749 0 1 0-1.5 0Z" fill="#F5F5F5"/><path d="m53 212.76-4.4 2.54a.76.76 0 0 0-.27 1 .752.752 0 0 0 1.02.27l4.4-2.54a.737.737 0 0 0 .086-1.221.747.747 0 0 0-.558-.146.762.762 0 0 0-.278.097Zm5.73-1.68a.855.855 0 0 0 .37-.1l4.4-2.54a.76.76 0 0 0 .28-1 .748.748 0 0 0-1-.27l-4.4 2.54a.752.752 0 0 0-.08 1.248c.133.1.294.153.46.152l-.03-.03Zm4.77 4.22-4.4-2.54a.754.754 0 0 0-1.1.845.749.749 0 0 0 .35.455l4.4 2.54a.76.76 0 0 0 .78-1.3h-.03Zm-9.75-5.62-4.4-2.54a.736.736 0 0 0-1 .27.76.76 0 0 0 .27 1L53 211a.855.855 0 0 0 .38.1.752.752 0 0 0 .65-.38.738.738 0 0 0-.25-1.04h-.03Zm2.3 4.53a.749.749 0 0 0-.75.75V220a.748.748 0 0 0 .75.75.749.749 0 0 0 .75-.75v-5a.738.738 0 0 0-.72-.79h-.03Zm0-11.26a.762.762 0 0 0-.75.75v5.08a.748.748 0 0 0 .75.75.749.749 0 0 0 .75-.75v-5.08a.749.749 0 0 0-.72-.7l-.03-.05ZM437 205.91l-4.4 2.54a.758.758 0 0 0-.28 1 .76.76 0 0 0 1 .27l4.4-2.54a.753.753 0 0 0 .275-1.025.753.753 0 0 0-1.025-.275l.03.03Zm5.72-1.69a.689.689 0 0 0 .37-.1l4.41-2.54a.752.752 0 0 0-.181-1.375.754.754 0 0 0-.569.075l-4.41 2.55a.75.75 0 0 0 .38 1.39Zm4.78 4.23-4.41-2.54a.754.754 0 0 0-1.025.275.752.752 0 0 0 .275 1.025l4.41 2.54c.111.068.24.102.37.1a.744.744 0 0 0 .65-.37.762.762 0 0 0-.26-1.03h-.01Zm-9.75-5.62-4.4-2.55a.759.759 0 0 0-1 .28.752.752 0 0 0 .28 1l4.4 2.54a.744.744 0 0 0 1.02-.27.743.743 0 0 0-.29-1h-.01Zm2.3 4.52a.747.747 0 0 0-.53.22.747.747 0 0 0-.22.53v5.09c0 .199.079.39.22.53a.747.747 0 0 0 1.06 0 .747.747 0 0 0 .22-.53v-5.09a.763.763 0 0 0-.74-.75h-.01Zm0-11.25a.747.747 0 0 0-.53.22.747.747 0 0 0-.22.53v5.08c0 .199.079.39.22.53a.747.747 0 0 0 1.06 0 .747.747 0 0 0 .22-.53v-5.08a.763.763 0 0 0-.74-.75h-.01Z" fill="#E6E6E6"/><path d="M45.76 351.17a6.77 6.77 0 0 0-6.42-3.37c-3.54.16-6.87 2-7 2.37-.13.37 2.7 2.92 6.83 3.25a8.007 8.007 0 0 0 6.59-2.25Zm7.03 5.28a6.8 6.8 0 0 0-7.26-.07c-3.07 1.76-5.22 4.88-5.13 5.3.09.42 3.73 1.37 7.55-.23a7.995 7.995 0 0 0 4.84-5Z" fill="#15803D"/><path opacity=".4" d="M52.79 356.45a6.8 6.8 0 0 0-7.26-.07c-3.07 1.76-5.22 4.88-5.13 5.3.09.42 3.73 1.37 7.55-.23a7.995 7.995 0 0 0 4.84-5Z" fill="#fff"/><path d="M58.55 352.93a6.822 6.822 0 0 0-1.19-7.16c-2.27-2.72-5.33-4.35-5.72-4.19-.39.16-.81 4.32 1 7.59 1.92 3.56 4.92 3.51 5.91 3.76Z" fill="#15803D"/><path d="M81.55 372.34a27.756 27.756 0 0 0-6.28-7.18 54.12 54.12 0 0 0-7.12-5.3 69.625 69.625 0 0 0-16.8-7.64c-3.75-1.12-7.79-2.17-11.73-2-.09 0-.13.21 0 .22A55.634 55.634 0 0 1 50.06 353a63.47 63.47 0 0 1 9 3.49 66.432 66.432 0 0 1 13.8 8.88 92.611 92.611 0 0 1 7.72 7.63.603.603 0 0 0 .752.062.598.598 0 0 0 .218-.722Z" fill="#37474F"/><path d="M59.92 355.46a21.846 21.846 0 0 0-1.79-4.46 12.235 12.235 0 0 0-2.75-3.67c-.16-.14-.09.18 0 .3a35.75 35.75 0 0 1 2 3.59 15.47 15.47 0 0 1 1.28 4.15 1 1 0 0 0 .8.78.52.52 0 0 0 .407-.227.51.51 0 0 0 .053-.463Z" fill="#37474F"/><path d="M59.33 355.33a17.722 17.722 0 0 0-6.66.58c-.998.224-1.978.525-2.93.9a11.989 11.989 0 0 0-3.16 1.79s-.18.29-.1.25a34.318 34.318 0 0 1 3.3-1.32 18.383 18.383 0 0 1 3.14-.81 28.648 28.648 0 0 1 6.43-.49c.45.01.36-.84-.02-.9Z" fill="#37474F"/><path d="M64.61 362.12a6.792 6.792 0 0 0-7.08-1.58c-3.37 1.08-6.13 3.69-6.13 4.11 0 .42 3.37 2.12 7.44 1.36a7.994 7.994 0 0 0 5.77-3.89Z" fill="#15803D"/><path d="M71.24 362.39a17.49 17.49 0 0 0-6.63-.82c-1.026.01-2.049.1-3.06.27a12.08 12.08 0 0 0-3.46 1.08s-.24.26-.15.24a33.11 33.11 0 0 1 3.51-.61 18.26 18.26 0 0 1 3.23-.14c2.158.052 4.304.34 6.4.86.43.11.53-.74.16-.88Z" fill="#37474F"/><path d="M58.19 323.43a7.45 7.45 0 0 1-2.42-7.58c.84-3.79 3.42-7.06 3.89-7.1.47-.04 2.65 3.47 2.21 8a8.756 8.756 0 0 1-3.68 6.68Zm4.37 8.57a7.44 7.44 0 0 1 1.31-7.85c2.48-3 6.27-4.71 6.7-4.54.43.17.78 4.29-1.68 8.12a8.71 8.71 0 0 1-6.33 4.27Zm-4.9 5.58a7.446 7.446 0 0 1-7.5-2.64c-2.51-3-3.69-6.58-3.45-7 .24-.42 4.83-.06 8 2.49 3.5 2.8 2.88 6.04 2.95 7.15Z" fill="#15803D"/><path opacity=".2" d="M57.66 337.58a7.446 7.446 0 0 1-7.5-2.64c-2.51-3-3.69-6.58-3.45-7 .24-.42 4.83-.06 8 2.49 3.5 2.8 2.88 6.04 2.95 7.15Z" fill="#fff"/><path d="M74.28 366.14c-2.74-2.17-4.75-5.21-6.57-8.15a59.148 59.148 0 0 1-4.38-8.71 76.41 76.41 0 0 1-5.06-19.61c-.5-4.27-.87-8.84 0-13.07 0-.09.25-.09.25 0a60.54 60.54 0 0 0 .82 11.82 72.175 72.175 0 0 0 2.06 10.41 73.52 73.52 0 0 0 7 16.6 99.902 99.902 0 0 0 6.8 9.79c.51.69-.2 1.47-.92.92Z" fill="#37474F"/><path d="M60.14 339.54a23.328 23.328 0 0 1-4.49-2.78 13.371 13.371 0 0 1-3.45-3.66c-.11-.2.22-.07.33 0A38.447 38.447 0 0 0 56 336c1.309.92 2.74 1.654 4.25 2.18a1.075 1.075 0 0 1 .69 1 .553.553 0 0 1-.313.373.552.552 0 0 1-.487-.013Z" fill="#37474F"/><path d="M60.12 338.89A19.222 19.222 0 0 1 62 331.8a21.2 21.2 0 0 1 1.54-3 13.237 13.237 0 0 1 2.52-3.08s.36-.13.3-.05A35.251 35.251 0 0 0 64.3 329a20.413 20.413 0 0 0-1.47 3.24 31.463 31.463 0 0 0-1.75 6.86c-.08.47-.98.21-.96-.21Z" fill="#37474F"/><path d="M66.44 345.88a7.46 7.46 0 0 1-.35-7.95c1.8-3.44 5.14-5.92 5.6-5.84.46.08 1.66 4 0 8.29a8.712 8.712 0 0 1-5.25 5.5Z" fill="#15803D"/><path opacity=".4" d="M66.44 345.88a7.46 7.46 0 0 1-.35-7.95c1.8-3.44 5.14-5.92 5.6-5.84.46.08 1.66 4 0 8.29a8.712 8.712 0 0 1-5.25 5.5Z" fill="#fff"/><path d="M65.49 353.1a19.26 19.26 0 0 1 .36-7.33c.209-1.105.503-2.191.88-3.25a13.355 13.355 0 0 1 1.83-3.52s.32-.2.28-.11a33.672 33.672 0 0 0-1.33 3.67 19.905 19.905 0 0 0-.76 3.47 31.328 31.328 0 0 0-.28 7.08c.03.47-.91.41-.98-.01Z" fill="#37474F"/><path d="M452.62 350.33a6.815 6.815 0 0 1 6.23-3.73c3.54 0 7 1.58 7.1 2 .1.42-2.52 3.08-6.63 3.63a8 8 0 0 1-6.7-1.9ZM445.9 356a6.806 6.806 0 0 1 7.24-.47c3.17 1.59 5.48 4.59 5.42 5-.06.41-3.65 1.58-7.55.2a8 8 0 0 1-5.11-4.73Z" fill="#15803D"/><path opacity=".4" d="M445.9 356a6.806 6.806 0 0 1 7.24-.47c3.17 1.59 5.48 4.59 5.42 5-.06.41-3.65 1.58-7.55.2a8 8 0 0 1-5.11-4.73Z" fill="#fff"/><path d="M440 352.8a6.802 6.802 0 0 1 .8-7.21c2.1-2.84 5.07-4.64 5.47-4.51.4.13 1 4.27-.55 7.63-1.79 3.67-4.79 3.79-5.72 4.09Z" fill="#15803D"/><path d="M418.06 373.46a27.778 27.778 0 0 1 5.88-7.51 53.066 53.066 0 0 1 6.81-5.7 69.705 69.705 0 0 1 16.36-8.56c3.68-1.33 7.65-2.6 11.59-2.68.09 0 .14.2.05.22a55.54 55.54 0 0 0-10.31 3.18 65.744 65.744 0 0 0-8.81 4 67.484 67.484 0 0 0-13.29 9.59 95.994 95.994 0 0 0-7.27 8.07.599.599 0 0 1-1.01-.61Z" fill="#37474F"/><path d="M438.73 355.4a21.657 21.657 0 0 1 1.54-4.56 12.251 12.251 0 0 1 2.53-3.84c.16-.14.11.18 0 .3a34.852 34.852 0 0 0-1.79 3.69 15.806 15.806 0 0 0-1.06 4.22.997.997 0 0 1-.74.82.48.48 0 0 1-.22-.053.49.49 0 0 1-.268-.351.493.493 0 0 1 .008-.226Z" fill="#37474F"/><path d="M439.31 355.24a17.486 17.486 0 0 1 6.68.21c1.018.165 2.022.413 3 .74 1.159.363 2.255.903 3.25 1.6 0 0 .19.29.11.25a33.272 33.272 0 0 0-3.35-1.14 18.302 18.302 0 0 0-3.17-.63 28.748 28.748 0 0 0-6.45-.13c-.49.04-.45-.82-.07-.9Z" fill="#37474F"/><path d="M434.42 362.31a6.775 6.775 0 0 1 7-2c3.42.89 6.32 3.34 6.34 3.76.02.42-3.24 2.31-7.35 1.77a7.941 7.941 0 0 1-5.99-3.53Z" fill="#15803D"/><path d="M427.81 363a17.302 17.302 0 0 1 6.58-1.2 20.847 20.847 0 0 1 3.06.1c1.211.118 2.398.418 3.52.89 0 0 .25.24.16.23a32.185 32.185 0 0 0-3.53-.42 18.076 18.076 0 0 0-3.24.05 29.36 29.36 0 0 0-6.34 1.21c-.43.14-.57-.75-.21-.86Z" fill="#37474F"/><path d="M438.67 323.33a7.458 7.458 0 0 0 2-7.71c-1.06-3.74-3.82-6.85-4.28-6.87-.46-.02-2.45 3.61-1.77 8.1a8.786 8.786 0 0 0 4.05 6.48Zm-3.89 8.82a7.438 7.438 0 0 0-1.74-7.77c-2.64-2.84-6.52-4.36-6.94-4.16-.42.2-.54 4.33 2.13 8a8.746 8.746 0 0 0 6.55 3.93Zm5.22 5.28a7.45 7.45 0 0 0 7.35-3.06c2.34-3.1 3.32-6.78 3.05-7.16-.27-.38-4.82.21-7.86 2.94-3.34 2.96-2.54 6.16-2.54 7.28Z" fill="#15803D"/><path opacity=".2" d="M440 337.43a7.45 7.45 0 0 0 7.35-3.06c2.34-3.1 3.32-6.78 3.05-7.16-.27-.38-4.82.21-7.86 2.94-3.34 2.96-2.54 6.16-2.54 7.28Z" fill="#fff"/><path d="M425 366.86c2.62-2.32 4.46-5.46 6.11-8.5a60.26 60.26 0 0 0 3.89-8.94 76.409 76.409 0 0 0 4-19.86c.26-4.29.37-8.87-.76-13.05 0-.09-.25-.08-.25 0 .334 3.946.28 7.915-.16 11.85a71.61 71.61 0 0 1-1.48 10.5 73.624 73.624 0 0 1-6 17A101.607 101.607 0 0 1 424 366a.66.66 0 1 0 1 .86Z" fill="#37474F"/><path d="M437.62 339.52c1.551-.83 3-1.837 4.32-3a13.11 13.11 0 0 0 3.24-3.84c.11-.21-.21-.06-.32 0a38.174 38.174 0 0 1-3.33 3 17.024 17.024 0 0 1-4.13 2.42 1.074 1.074 0 0 0-.63 1 .564.564 0 0 0 .309.445.563.563 0 0 0 .541-.025Z" fill="#37474F"/><path d="M437.61 338.86a19.303 19.303 0 0 0-2.28-7 22.375 22.375 0 0 0-1.7-2.91 13.5 13.5 0 0 0-2.69-2.93c-.05 0-.37-.11-.3 0a36.542 36.542 0 0 1 2.24 3.19c.64 1 1.192 2.054 1.65 3.15a32.062 32.062 0 0 1 2.13 6.75c.1.49.99.18.95-.25Z" fill="#37474F"/><path d="M431.68 346.2a7.453 7.453 0 0 0-.09-8c-2-3.33-5.46-5.62-5.92-5.52-.46.1-1.43 4.13.41 8.29a8.73 8.73 0 0 0 5.6 5.23Z" fill="#15803D"/><path opacity=".4" d="M431.68 346.2a7.453 7.453 0 0 0-.09-8c-2-3.33-5.46-5.62-5.92-5.52-.46.1-1.43 4.13.41 8.29a8.73 8.73 0 0 0 5.6 5.23Z" fill="#fff"/><path d="M433 353.36a19.28 19.28 0 0 0-.77-7.3 22.214 22.214 0 0 0-1.06-3.2 13.43 13.43 0 0 0-2-3.43s-.33-.18-.29-.09a35.89 35.89 0 0 1 1.53 3.59c.415 1.11.733 2.255.95 3.42a31.9 31.9 0 0 1 .68 7c.01.55.96.43.96.01Z" fill="#37474F"/><path d="M249.35 196.93c-1.57-3.53-1.69-7.05-1.69-10.58l-.12-10.57c-.12-7.05-.08-14.1-.08-21.15.07-14.09.29-28.19.49-42.29.2-14.1.43-28.19.75-42.29l.5-21.14c.21-7 .38-14.1.64-21.15h.32c.26 7.05.43 14.1.64 21.15l.5 21.14c.32 14.1.49 28.2.75 42.29s.42 28.2.49 42.29c0 7.05 0 14.1-.08 21.15l-.12 10.57c0 3.53-.12 7.05-1.69 10.58h-1.3Z" fill="#15803D"/><path d="M249.36 197c-2.16-3.2-2.89-6.65-3.5-10.12l-2-10.39c-1.34-6.92-2.52-13.87-3.74-20.81-2.38-13.9-4.61-27.82-6.86-41.74-2.25-13.92-4.48-27.84-6.61-41.78l-3.15-20.87c-1-7-2.06-13.95-3-20.93l.31-.06c1.48 6.9 2.87 13.81 4.31 20.71l4.16 20.74c2.76 13.83 5.38 27.68 8.08 41.52 2.7 13.84 5.31 27.7 7.83 41.57 1.22 6.94 2.49 13.87 3.59 20.83l1.72 10.44c.61 3.47 1.1 7 .17 10.7l-1.31.19Z" fill="#15803D"/><path d="M249.39 197.15c-2.68-2.78-4-6.05-5.21-9.36l-3.73-9.89c-2.52-6.58-4.89-13.22-7.3-19.85-4.76-13.27-9.37-26.59-14-39.91-4.63-13.32-9.24-26.64-13.76-40l-6.77-20c-2.21-6.7-4.46-13.38-6.63-20.09l.3-.11c2.66 6.53 5.23 13.1 7.84 19.65l7.7 19.7c5.17 13.11 10.1 26.29 15.17 39.45 5.07 13.16 10 26.35 14.93 39.58 2.41 6.62 4.87 13.23 7.16 19.89l3.5 10c1.21 3.31 2.3 6.67 2 10.51l-1.2.43Z" fill="#15803D"/><path d="M249.44 197.25c-3.12-2.27-5-5.26-6.75-8.31l-5.4-9.1c-3.63-6-7.11-12.17-10.63-18.27-7-12.24-13.85-24.56-20.72-36.87-6.87-12.31-13.73-24.63-20.5-37l-10.15-18.56c-3.33-6.21-6.71-12.4-10-18.64l.27-.15c3.75 6 7.42 12 11.14 18l11 18.07c7.32 12 14.52 24.17 21.79 36.25 7.27 12.08 14.46 24.21 21.57 36.38 3.53 6.11 7.09 12.19 10.51 18.35l5.18 9.22c1.76 3.05 3.42 6.16 3.82 10l-1.13.63Z" fill="#15803D"/><path d="M249.51 197.34c-3.47-1.69-5.83-4.31-8.1-7l-6.89-8c-4.62-5.32-9.12-10.75-13.65-16.15-9-10.84-17.9-21.78-26.81-32.71s-17.79-21.88-26.61-32.88l-13.21-16.55c-4.37-5.54-8.77-11-13.1-16.61l.24-.2c4.73 5.23 9.39 10.52 14.09 15.78l14 15.88c9.31 10.59 18.5 21.28 27.76 31.92 9.26 10.64 18.45 21.32 27.56 32.08 4.53 5.4 9.1 10.77 13.54 16.24l6.7 8.18c2.26 2.7 4.43 5.48 5.49 9.19l-1.01.83Z" fill="#15803D"/><path d="M249.58 197.42c-3.71-1.06-6.48-3.23-9.18-5.5l-8.18-6.7c-5.48-4.44-10.85-9-16.25-13.53-10.75-9.12-21.41-18.35-32.08-27.57-10.67-9.22-21.32-18.45-31.89-27.75l-15.88-14c-5.26-4.7-10.55-9.36-15.78-14.09l.2-.24c5.57 4.33 11.08 8.73 16.62 13.09l16.51 13.22c11 8.81 21.92 17.74 32.88 26.61 10.96 8.87 21.87 17.8 32.71 26.81 5.4 4.53 10.83 9 16.16 13.65l8 6.89c2.7 2.26 5.32 4.62 7 8.09l-.84 1.02Z" fill="#15803D"/><path d="M249.68 197.48c-3.84-.4-7-2-10-3.81l-9.21-5.18c-6.17-3.42-12.25-7-18.35-10.51-12.18-7.11-24.28-14.35-36.38-21.57-12.1-7.22-24.21-14.47-36.26-21.8l-18.06-11c-6-3.71-12-7.38-18-11.13l.16-.27c6.23 3.29 12.42 6.67 18.63 10l18.56 10.14c12.37 6.77 24.67 13.67 37 20.5 12.33 6.83 24.63 13.73 36.87 20.72 6.11 3.53 12.24 7 18.28 10.64l9.09 5.39c3.06 1.76 6.05 3.63 8.31 6.76l-.64 1.12Z" fill="#15803D"/><path d="M249.78 197.53c-3.85.27-7.2-.82-10.52-2l-10-3.5c-6.67-2.3-13.28-4.75-19.9-7.16-13.22-4.89-26.39-9.92-39.57-14.93s-26.35-10-39.49-15.17l-19.7-7.69c-6.55-2.62-13.11-5.19-19.65-7.85l.11-.29c6.71 2.16 13.39 4.42 20.09 6.62l20 6.77c13.36 4.52 26.66 9.18 40 13.76s26.64 9.25 39.91 14c6.62 2.41 13.26 4.77 19.84 7.3l9.9 3.73c3.31 1.2 6.58 2.53 9.35 5.21l-.37 1.2Z" fill="#15803D"/><path d="M249.89 197.56c-3.75.94-7.24.45-10.71-.17l-10.43-1.71c-7-1.11-13.9-2.38-20.84-3.6-13.87-2.51-27.72-5.18-41.56-7.83-13.84-2.65-27.7-5.31-41.52-8.08L104.09 172c-6.9-1.43-13.82-2.82-20.71-4.31l.05-.3c7 1 14 2 20.94 3l20.91 3.19c13.94 2.13 27.85 4.41 41.78 6.6 13.93 2.19 27.84 4.48 41.73 6.86 6.94 1.23 13.89 2.4 20.81 3.75l10.4 1.99c3.48.62 6.92 1.35 10.12 3.51l-.23 1.27Z" fill="#15803D"/><path d="M250 197.57c-3.52 1.57-7.05 1.7-10.57 1.7l-10.58.12c-7 .12-14.09.07-21.14.07-14.1-.07-28.2-.29-42.29-.49s-28.2-.42-42.29-.75l-21.13-.49c-7-.22-14.1-.39-21.15-.65v-.31c7-.26 14.1-.43 21.15-.65l21.15-.49c14.09-.32 28.19-.5 42.29-.75 14.1-.25 28.19-.42 42.29-.49 7 0 14.1 0 21.14.07l10.58.13c3.52 0 7 .12 10.57 1.69l-.02 1.29Z" fill="#15803D"/><path d="M250.11 197.56c-3.2 2.16-6.64 2.9-10.12 3.51l-10.39 2c-6.92 1.35-13.87 2.52-20.81 3.75-13.89 2.38-27.81 4.61-41.73 6.86a5335.97 5335.97 0 0 1-41.78 6.61l-20.91 3.18c-7 1-14 2.07-20.94 3l-.05-.3c6.89-1.49 13.81-2.88 20.71-4.31l20.74-4.16c13.82-2.77 27.68-5.38 41.52-8.08 13.84-2.7 27.69-5.31 41.56-7.83 6.94-1.22 13.88-2.49 20.84-3.6l10.43-1.71c3.47-.62 7-1.11 10.71-.17l.22 1.25Z" fill="#15803D"/><path d="M250.22 197.53c-2.77 2.68-6 4-9.35 5.21l-9.9 3.73c-6.58 2.53-13.22 4.89-19.84 7.31-13.27 4.75-26.6 9.37-39.91 14-13.31 4.63-26.64 9.24-40 13.76l-20 6.77c-6.7 2.2-13.38 4.46-20.09 6.62l-.11-.29c6.54-2.66 13.1-5.23 19.65-7.84l19.7-7.7c13.14-5.12 26.33-10.11 39.49-15.17 13.16-5.06 26.35-10 39.57-14.93 6.62-2.41 13.23-4.86 19.9-7.16l10-3.5c3.32-1.2 6.67-2.29 10.52-2l.37 1.19Z" fill="#15803D"/><path d="M250.32 197.48c-2.26 3.13-5.25 5-8.31 6.76l-9.09 5.39c-6 3.63-12.17 7.11-18.28 10.64-12.24 7-24.56 13.85-36.87 20.72-12.31 6.87-24.63 13.73-37 20.5l-18.56 10.14c-6.21 3.34-12.4 6.72-18.63 10l-.16-.27c6-3.75 12-7.42 18-11.13l18.06-11c12.05-7.33 24.18-14.53 36.26-21.79 12.08-7.26 24.2-14.47 36.38-21.58 6.1-3.52 12.18-7.09 18.35-10.51l9.21-5.17c3.06-1.77 6.17-3.42 10-3.82l.64 1.12Z" fill="#15803D"/><path d="M250.41 197.42c-1.68 3.47-4.3 5.83-7 8.09l-8 6.9c-5.33 4.62-10.76 9.11-16.16 13.64-10.84 9-21.78 17.91-32.71 26.81-10.93 8.9-21.87 17.8-32.88 26.61l-16.51 13.22c-5.54 4.36-11 8.76-16.62 13.09l-.2-.24c5.23-4.73 10.52-9.39 15.78-14.09l15.88-14c10.6-9.3 21.29-18.5 31.92-27.75a3233.53 3233.53 0 0 1 32.08-27.56c5.4-4.53 10.77-9.1 16.25-13.54l8.18-6.7c2.7-2.27 5.47-4.44 9.18-5.5l.81 1.02Z" fill="#15803D"/><path d="M250.49 197.34c-1.06 3.71-3.23 6.49-5.49 9.19l-6.7 8.18c-4.44 5.48-9 10.84-13.54 16.24-9.11 10.76-18.35 21.42-27.56 32.08-9.21 10.66-18.45 21.33-27.76 31.97l-14 15.88c-4.7 5.26-9.36 10.55-14.09 15.78l-.24-.2c4.33-5.57 8.73-11.07 13.1-16.61l13.21-16.52c8.82-11 17.75-21.91 26.61-32.87 8.86-10.96 17.8-21.88 26.81-32.72 4.53-5.4 9-10.83 13.65-16.15l6.89-8c2.27-2.7 4.63-5.32 8.1-7l1.01.75Z" fill="#15803D"/><path d="M250.56 197.25c-.4 3.84-2.06 6.95-3.82 10l-5.18 9.22c-3.42 6.16-7 12.25-10.51 18.35-7.11 12.17-14.35 24.27-21.57 36.38-7.22 12.11-14.48 24.2-21.79 36.25l-11 18.07c-3.72 6-7.39 12-11.14 18l-.27-.16c3.3-6.24 6.68-12.42 10-18.64l10.15-18.56c6.77-12.37 13.67-24.66 20.5-37s13.73-24.63 20.72-36.87c3.52-6.1 7-12.23 10.63-18.27l5.4-9.1c1.76-3 3.63-6 6.75-8.31l1.13.64Z" fill="#15803D"/><path d="M250.61 197.15c.27 3.85-.82 7.2-2 10.51l-3.5 10c-2.29 6.66-4.75 13.27-7.16 19.89C233 250.76 228 263.93 223 277.11c-5 13.18-10 26.35-15.16 39.48l-7.7 19.7c-2.61 6.55-5.18 13.12-7.84 19.65l-.3-.1c2.17-6.72 4.42-13.4 6.63-20.1l6.77-20c4.52-13.35 9.18-26.66 13.76-40s9.24-26.64 14-39.91c2.41-6.62 4.78-13.26 7.3-19.85l3.73-9.89c1.21-3.31 2.53-6.58 5.21-9.36l1.21.42Z" fill="#15803D"/><path d="M250.64 197c.93 3.74.44 7.23-.17 10.7l-1.72 10.44c-1.1 7-2.37 13.89-3.59 20.84-2.52 13.87-5.19 27.71-7.83 41.56-2.64 13.85-5.32 27.69-8.08 41.52l-4.16 20.74c-1.44 6.9-2.83 13.81-4.31 20.71l-.31-.06c1-7 2-13.95 3-20.93l3.19-20.91c2.13-13.94 4.41-27.85 6.61-41.78s4.48-27.84 6.86-41.74c1.22-6.94 2.4-13.89 3.74-20.81l2-10.39c.61-3.47 1.34-6.92 3.5-10.12l1.27.23Z" fill="#15803D"/><path d="M250.65 196.93c1.57 3.52 1.69 7 1.69 10.57l.12 10.57c.12 7.05.08 14.1.08 21.15-.07 14.09-.29 28.19-.49 42.29-.2 14.1-.43 28.19-.75 42.29l-.5 21.2c-.21 7-.38 14.09-.64 21.14h-.32c-.26-7-.43-14.1-.64-21.14l-.5-21.15c-.32-14.1-.49-28.19-.75-42.29-.26-14.1-.42-28.2-.49-42.29 0-7.05 0-14.1.08-21.15l.12-10.57c0-3.53.12-7.05 1.69-10.57l1.3-.05Z" fill="#15803D"/><path d="M250.64 196.81c2.16 3.2 2.89 6.65 3.5 10.12l2 10.39c1.34 6.92 2.52 13.87 3.74 20.81 2.38 13.9 4.61 27.82 6.86 41.74 2.25 13.92 4.48 27.84 6.61 41.78l3.19 20.91c1 7 2.06 13.95 3 20.93l-.31.06c-1.48-6.9-2.87-13.81-4.31-20.71l-4.16-20.74c-2.76-13.83-5.38-27.68-8.08-41.52-2.7-13.84-5.31-27.69-7.83-41.56-1.22-7-2.49-13.88-3.59-20.84l-1.72-10.44c-.61-3.47-1.1-7-.17-10.7l1.27-.23Z" fill="#15803D"/><path d="M250.61 196.7c2.68 2.78 4 6.05 5.21 9.36l3.73 9.89c2.52 6.59 4.89 13.23 7.3 19.85 4.76 13.27 9.37 26.59 14 39.91 4.63 13.32 9.24 26.64 13.76 40l6.77 20c2.21 6.7 4.46 13.38 6.63 20.1l-.3.1c-2.66-6.53-5.23-13.1-7.84-19.65l-7.7-19.7c-5.12-13.13-10.1-26.32-15.16-39.48-5.06-13.16-10-26.35-14.93-39.58-2.41-6.62-4.87-13.23-7.16-19.89l-3.5-10c-1.21-3.31-2.3-6.66-2-10.51l1.19-.4Z" fill="#15803D"/><path d="M250.56 196.6c3.12 2.27 5 5.26 6.75 8.31l5.4 9.1c3.63 6 7.11 12.17 10.63 18.27 7 12.24 13.85 24.56 20.72 36.87 6.87 12.31 13.73 24.63 20.5 37l10.15 18.56c3.33 6.22 6.71 12.4 10 18.64l-.27.16c-3.75-6-7.42-12-11.14-18l-11-18.07c-7.32-12.05-14.52-24.17-21.79-36.25-7.27-12.08-14.45-24.19-21.51-36.37-3.53-6.1-7.09-12.19-10.51-18.35l-5.18-9.22c-1.76-3.05-3.42-6.16-3.82-10l1.07-.65Z" fill="#15803D"/><path d="M250.49 196.51c3.47 1.69 5.83 4.31 8.1 7l6.89 8c4.62 5.32 9.12 10.75 13.65 16.15 9 10.84 17.9 21.79 26.81 32.72s17.79 21.87 26.61 32.87l13.21 16.52c4.37 5.54 8.77 11 13.1 16.61l-.24.2c-4.73-5.23-9.39-10.52-14.09-15.78l-14-15.88c-9.31-10.59-18.5-21.28-27.76-31.92-9.26-10.64-18.42-21.29-27.53-32-4.53-5.4-9.1-10.76-13.54-16.24l-6.7-8.18c-2.26-2.7-4.43-5.48-5.49-9.19l.98-.88Z" fill="#15803D"/><path d="M250.41 196.43c3.72 1.06 6.49 3.23 9.19 5.5l8.18 6.7c5.48 4.44 10.85 9 16.25 13.54 10.75 9.11 21.41 18.34 32.08 27.56 10.67 9.22 21.32 18.45 31.92 27.75l15.88 14c5.26 4.7 10.55 9.36 15.78 14.09l-.2.24c-5.57-4.33-11.08-8.73-16.62-13.09l-16.51-13.22c-11-8.81-21.92-17.74-32.88-26.61-10.96-8.87-21.87-17.8-32.71-26.81-5.4-4.53-10.83-9-16.16-13.64l-8-6.9c-2.7-2.26-5.32-4.62-7-8.09l.8-1.02Z" fill="#15803D"/><path d="M250.32 196.37c3.84.4 6.95 2 10 3.82l9.21 5.17c6.17 3.42 12.25 7 18.35 10.51 12.18 7.11 24.28 14.35 36.38 21.58 12.1 7.23 24.21 14.46 36.26 21.79l18.06 11c6 3.71 12 7.38 18 11.13l-.16.27c-6.23-3.29-12.42-6.67-18.63-10l-18.56-10.14c-12.37-6.77-24.67-13.67-37-20.5-12.33-6.83-24.63-13.73-36.87-20.72-6.11-3.53-12.24-7-18.28-10.64l-9.08-5.4c-3.06-1.76-6.05-3.63-8.31-6.76l.63-1.11Z" fill="#15803D"/><path d="M250.22 196.32c3.85-.27 7.2.82 10.52 2l10 3.5c6.67 2.3 13.28 4.75 19.9 7.16 13.22 4.89 26.39 9.92 39.57 14.93s26.35 10 39.49 15.17l19.7 7.7c6.55 2.61 13.11 5.18 19.65 7.84l-.11.29c-6.71-2.16-13.39-4.42-20.09-6.62l-20-6.77c-13.36-4.52-26.66-9.18-40-13.76s-26.64-9.25-39.91-14c-6.62-2.42-13.26-4.78-19.84-7.31l-9.9-3.73c-3.31-1.2-6.58-2.53-9.35-5.21l.37-1.19Z" fill="#15803D"/><path d="M250.11 196.29c3.75-.94 7.24-.45 10.71.17l10.43 1.71c7 1.11 13.9 2.38 20.84 3.6 13.87 2.52 27.72 5.18 41.56 7.83 13.84 2.65 27.69 5.31 41.52 8.08l20.74 4.16c6.9 1.43 13.82 2.82 20.71 4.31l-.05.3c-7-1-14-2-20.94-3l-20.91-3.18c-13.94-2.14-27.85-4.41-41.78-6.61s-27.84-4.48-41.73-6.86c-6.94-1.23-13.89-2.4-20.81-3.75l-10.39-2c-3.48-.61-6.92-1.35-10.12-3.51l.22-1.25Z" fill="#15803D"/><path d="M250 196.28c3.52-1.57 7.05-1.7 10.57-1.69l10.58-.13c7-.12 14.09-.07 21.14-.07 14.1.07 28.2.29 42.29.49s28.2.43 42.29.75l21.15.49c7.05.22 14.1.39 21.15.65v.31c-7.05.26-14.1.43-21.15.65l-21.15.49c-14.09.33-28.19.5-42.29.75-14.1.25-28.19.42-42.29.49-7.05 0-14.1 0-21.14-.07l-10.58-.12c-3.52 0-7-.13-10.57-1.7v-1.29Z" fill="#15803D"/><path d="M249.89 196.29c3.2-2.16 6.64-2.89 10.12-3.51l10.39-1.95c6.92-1.35 13.87-2.52 20.81-3.75 13.89-2.38 27.81-4.61 41.73-6.86 13.92-2.25 27.84-4.47 41.78-6.6l20.91-3.19c7-1 13.95-2.07 20.94-3l.05.3c-6.89 1.49-13.81 2.88-20.71 4.31l-20.74 4.16c-13.83 2.77-27.68 5.38-41.52 8.08-13.84 2.7-27.69 5.32-41.56 7.83-6.94 1.22-13.88 2.49-20.84 3.6l-10.43 1.71c-3.47.62-7 1.11-10.71.17l-.22-1.3Z" fill="#15803D"/><path d="M249.78 196.32c2.77-2.68 6-4 9.35-5.21l9.9-3.73c6.58-2.53 13.22-4.89 19.84-7.3 13.27-4.76 26.6-9.37 39.91-14 13.31-4.63 26.64-9.24 40-13.76l20-6.77c6.7-2.2 13.38-4.46 20.09-6.62l.11.29c-6.54 2.66-13.1 5.23-19.65 7.85l-19.7 7.69c-13.14 5.13-26.33 10.11-39.49 15.17-13.16 5.06-26.35 10-39.57 14.93-6.62 2.41-13.23 4.86-19.9 7.16l-10 3.5c-3.32 1.2-6.67 2.29-10.52 2l-.37-1.2Z" fill="#15803D"/><path d="M249.68 196.37c2.26-3.13 5.25-5 8.31-6.76l9.09-5.39c6-3.63 12.17-7.11 18.28-10.64 12.24-7 24.56-13.84 36.87-20.72 12.31-6.88 24.63-13.73 37-20.5l18.56-10.14c6.21-3.34 12.4-6.72 18.63-10l.16.27c-6 3.75-12 7.42-18 11.13l-18.06 11c-12 7.33-24.18 14.53-36.26 21.8-12.08 7.27-24.2 14.46-36.38 21.57-6.1 3.52-12.18 7.09-18.35 10.51l-9.21 5.18c-3.06 1.76-6.17 3.41-10 3.81l-.64-1.12Z" fill="#15803D"/><path d="M249.58 196.43c1.69-3.47 4.31-5.83 7-8.09l8-6.89c5.33-4.63 10.76-9.12 16.16-13.65 10.84-9 21.78-17.9 32.71-26.81s21.87-17.8 32.88-26.61l16.51-13.22c5.54-4.36 11.05-8.76 16.62-13.09l.2.24c-5.23 4.73-10.52 9.39-15.78 14.09l-15.88 14c-10.6 9.3-21.29 18.5-31.92 27.75A3034.8 3034.8 0 0 1 284 171.69c-5.4 4.53-10.77 9.09-16.25 13.53l-8.18 6.7c-2.7 2.27-5.47 4.44-9.19 5.5l-.8-.99Z" fill="#15803D"/><path d="M249.51 196.51c1.06-3.71 3.23-6.49 5.49-9.19l6.7-8.18c4.44-5.47 9-10.84 13.54-16.24 9.11-10.76 18.34-21.41 27.56-32.08 9.22-10.67 18.45-21.33 27.76-31.92l14-15.88c4.7-5.26 9.36-10.55 14.09-15.78l.24.2c-4.33 5.57-8.73 11.07-13.1 16.61l-13.21 16.52c-8.82 11-17.75 21.91-26.61 32.88-8.86 10.97-17.8 21.87-26.81 32.71-4.53 5.4-9 10.83-13.65 16.15l-6.89 8c-2.27 2.7-4.63 5.32-8.1 7l-1.01-.8Z" fill="#15803D"/><path d="M249.44 196.6c.4-3.84 2.06-6.95 3.82-10l5.18-9.22c3.42-6.16 7-12.24 10.51-18.35 7.11-12.17 14.35-24.27 21.57-36.38 7.22-12.11 14.48-24.2 21.79-36.25l11-18.07c3.72-6 7.39-12 11.14-18l.27.15c-3.3 6.24-6.68 12.43-10 18.64L314.56 87.7c-6.77 12.37-13.67 24.66-20.5 37s-13.73 24.63-20.72 36.87c-3.52 6.1-7 12.23-10.63 18.27l-5.4 9.1c-1.76 3.05-3.63 6-6.75 8.31l-1.12-.65Z" fill="#15803D"/><path d="M249.39 196.7c-.27-3.84.82-7.2 2-10.51l3.5-10c2.29-6.66 4.75-13.27 7.16-19.89C267 143.09 272 129.92 277 116.74c5-13.18 10-26.34 15.16-39.48l7.7-19.7c2.61-6.55 5.18-13.12 7.84-19.65l.3.11c-2.17 6.71-4.42 13.39-6.63 20.09l-6.77 20c-4.52 13.35-9.18 26.66-13.76 40s-9.24 26.64-14 39.91c-2.41 6.63-4.78 13.27-7.3 19.85l-3.73 9.89c-1.21 3.31-2.53 6.58-5.21 9.36l-1.21-.42Z" fill="#15803D"/><path d="M249.36 196.81c-.93-3.74-.44-7.23.17-10.7l1.72-10.44c1.1-7 2.37-13.89 3.59-20.83 2.52-13.87 5.19-27.72 7.83-41.57 2.64-13.85 5.32-27.69 8.08-41.52L274.91 51c1.44-6.9 2.83-13.81 4.31-20.71l.31.06c-1 7-2 14-3 20.93l-3.22 20.92c-2.13 13.94-4.41 27.86-6.61 41.78-2.2 13.92-4.48 27.84-6.86 41.74-1.22 6.94-2.4 13.89-3.74 20.81l-2 10.39c-.61 3.47-1.34 6.92-3.5 10.12l-1.24-.23Z" fill="#15803D"/><g opacity=".85" fill="#fff"><path d="M249.35 196.93c-1.57-3.53-1.69-7.05-1.69-10.58l-.12-10.57c-.12-7.05-.08-14.1-.08-21.15.07-14.09.29-28.19.49-42.29.2-14.1.43-28.19.75-42.29l.5-21.14c.21-7 .38-14.1.64-21.15h.32c.26 7.05.43 14.1.64 21.15l.5 21.14c.32 14.1.49 28.2.75 42.29s.42 28.2.49 42.29c0 7.05 0 14.1-.08 21.15l-.12 10.57c0 3.53-.12 7.05-1.69 10.58h-1.3Z"/><path d="M249.36 197c-2.16-3.2-2.89-6.65-3.5-10.12l-2-10.39c-1.34-6.92-2.52-13.87-3.74-20.81-2.38-13.9-4.61-27.82-6.86-41.74-2.25-13.92-4.48-27.84-6.61-41.78l-3.15-20.87c-1-7-2.06-13.95-3-20.93l.31-.06c1.48 6.9 2.87 13.81 4.31 20.71l4.16 20.74c2.76 13.83 5.38 27.68 8.08 41.52 2.7 13.84 5.31 27.7 7.83 41.57 1.22 6.94 2.49 13.87 3.59 20.83l1.72 10.44c.61 3.47 1.1 7 .17 10.7l-1.31.19Z"/><path d="M249.39 197.15c-2.68-2.78-4-6.05-5.21-9.36l-3.73-9.89c-2.52-6.58-4.89-13.22-7.3-19.85-4.76-13.27-9.37-26.59-14-39.91-4.63-13.32-9.24-26.64-13.76-40l-6.77-20c-2.21-6.7-4.46-13.38-6.63-20.09l.3-.11c2.66 6.53 5.23 13.1 7.84 19.65l7.7 19.7c5.17 13.11 10.1 26.29 15.17 39.45 5.07 13.16 10 26.35 14.93 39.58 2.41 6.62 4.87 13.23 7.16 19.89l3.5 10c1.21 3.31 2.3 6.67 2 10.51l-1.2.43Z"/><path d="M249.44 197.25c-3.12-2.27-5-5.26-6.75-8.31l-5.4-9.1c-3.63-6-7.11-12.17-10.63-18.27-7-12.24-13.85-24.56-20.72-36.87-6.87-12.31-13.73-24.63-20.5-37l-10.15-18.56c-3.33-6.21-6.71-12.4-10-18.64l.27-.15c3.75 6 7.42 12 11.14 18l11 18.07c7.32 12 14.52 24.17 21.79 36.25 7.27 12.08 14.46 24.21 21.57 36.38 3.53 6.11 7.09 12.19 10.51 18.35l5.18 9.22c1.76 3.05 3.42 6.16 3.82 10l-1.13.63Z"/><path d="M249.51 197.34c-3.47-1.69-5.83-4.31-8.1-7l-6.89-8c-4.62-5.32-9.12-10.75-13.65-16.15-9-10.84-17.9-21.78-26.81-32.71s-17.79-21.88-26.61-32.88l-13.21-16.55c-4.37-5.54-8.77-11-13.1-16.61l.24-.2c4.73 5.23 9.39 10.52 14.09 15.78l14 15.88c9.31 10.59 18.5 21.28 27.76 31.92 9.26 10.64 18.45 21.32 27.56 32.08 4.53 5.4 9.1 10.77 13.54 16.24l6.7 8.18c2.26 2.7 4.43 5.48 5.49 9.19l-1.01.83Z"/><path d="M249.58 197.42c-3.71-1.06-6.48-3.23-9.18-5.5l-8.18-6.7c-5.48-4.44-10.85-9-16.25-13.53-10.75-9.12-21.41-18.35-32.08-27.57-10.67-9.22-21.32-18.45-31.89-27.75l-15.88-14c-5.26-4.7-10.55-9.36-15.78-14.09l.2-.24c5.57 4.33 11.08 8.73 16.62 13.09l16.51 13.22c11 8.81 21.92 17.74 32.88 26.61 10.96 8.87 21.87 17.8 32.71 26.81 5.4 4.53 10.83 9 16.16 13.65l8 6.89c2.7 2.26 5.32 4.62 7 8.09l-.84 1.02Z"/><path d="M249.68 197.48c-3.84-.4-7-2-10-3.81l-9.21-5.18c-6.17-3.42-12.25-7-18.35-10.51-12.18-7.11-24.28-14.35-36.38-21.57-12.1-7.22-24.21-14.47-36.26-21.8l-18.06-11c-6-3.71-12-7.38-18-11.13l.16-.27c6.23 3.29 12.42 6.67 18.63 10l18.56 10.14c12.37 6.77 24.67 13.67 37 20.5 12.33 6.83 24.63 13.73 36.87 20.72 6.11 3.53 12.24 7 18.28 10.64l9.09 5.39c3.06 1.76 6.05 3.63 8.31 6.76l-.64 1.12Z"/><path d="M249.78 197.53c-3.85.27-7.2-.82-10.52-2l-10-3.5c-6.67-2.3-13.28-4.75-19.9-7.16-13.22-4.89-26.39-9.92-39.57-14.93s-26.35-10-39.49-15.17l-19.7-7.69c-6.55-2.62-13.11-5.19-19.65-7.85l.11-.29c6.71 2.16 13.39 4.42 20.09 6.62l20 6.77c13.36 4.52 26.66 9.18 40 13.76s26.64 9.25 39.91 14c6.62 2.41 13.26 4.77 19.84 7.3l9.9 3.73c3.31 1.2 6.58 2.53 9.35 5.21l-.37 1.2Z"/><path d="M249.89 197.56c-3.75.94-7.24.45-10.71-.17l-10.43-1.71c-7-1.11-13.9-2.38-20.84-3.6-13.87-2.51-27.72-5.18-41.56-7.83-13.84-2.65-27.7-5.31-41.52-8.08L104.09 172c-6.9-1.43-13.82-2.82-20.71-4.31l.05-.3c7 1 14 2 20.94 3l20.91 3.19c13.94 2.13 27.85 4.41 41.78 6.6 13.93 2.19 27.84 4.48 41.73 6.86 6.94 1.23 13.89 2.4 20.81 3.75l10.4 1.99c3.48.62 6.92 1.35 10.12 3.51l-.23 1.27Z"/><path d="M250 197.57c-3.52 1.57-7.05 1.7-10.57 1.7l-10.58.12c-7 .12-14.09.07-21.14.07-14.1-.07-28.2-.29-42.29-.49s-28.2-.42-42.29-.75l-21.13-.49c-7-.22-14.1-.39-21.15-.65v-.31c7-.26 14.1-.43 21.15-.65l21.15-.49c14.09-.32 28.19-.5 42.29-.75 14.1-.25 28.19-.42 42.29-.49 7 0 14.1 0 21.14.07l10.58.13c3.52 0 7 .12 10.57 1.69l-.02 1.29Z"/><path d="M250.11 197.56c-3.2 2.16-6.64 2.9-10.12 3.51l-10.39 2c-6.92 1.35-13.87 2.52-20.81 3.75-13.89 2.38-27.81 4.61-41.73 6.86a5335.97 5335.97 0 0 1-41.78 6.61l-20.91 3.18c-7 1-14 2.07-20.94 3l-.05-.3c6.89-1.49 13.81-2.88 20.71-4.31l20.74-4.16c13.82-2.77 27.68-5.38 41.52-8.08 13.84-2.7 27.69-5.31 41.56-7.83 6.94-1.22 13.88-2.49 20.84-3.6l10.43-1.71c3.47-.62 7-1.11 10.71-.17l.22 1.25Z"/><path d="M250.22 197.53c-2.77 2.68-6 4-9.35 5.21l-9.9 3.73c-6.58 2.53-13.22 4.89-19.84 7.31-13.27 4.75-26.6 9.37-39.91 14-13.31 4.63-26.64 9.24-40 13.76l-20 6.77c-6.7 2.2-13.38 4.46-20.09 6.62l-.11-.29c6.54-2.66 13.1-5.23 19.65-7.84l19.7-7.7c13.14-5.12 26.33-10.11 39.49-15.17 13.16-5.06 26.35-10 39.57-14.93 6.62-2.41 13.23-4.86 19.9-7.16l10-3.5c3.32-1.2 6.67-2.29 10.52-2l.37 1.19Z"/><path d="M250.32 197.48c-2.26 3.13-5.25 5-8.31 6.76l-9.09 5.39c-6 3.63-12.17 7.11-18.28 10.64-12.24 7-24.56 13.85-36.87 20.72-12.31 6.87-24.63 13.73-37 20.5l-18.56 10.14c-6.21 3.34-12.4 6.72-18.63 10l-.16-.27c6-3.75 12-7.42 18-11.13l18.06-11c12.05-7.33 24.18-14.53 36.26-21.79 12.08-7.26 24.2-14.47 36.38-21.58 6.1-3.52 12.18-7.09 18.35-10.51l9.21-5.17c3.06-1.77 6.17-3.42 10-3.82l.64 1.12Z"/><path d="M250.41 197.42c-1.68 3.47-4.3 5.83-7 8.09l-8 6.9c-5.33 4.62-10.76 9.11-16.16 13.64-10.84 9-21.78 17.91-32.71 26.81-10.93 8.9-21.87 17.8-32.88 26.61l-16.51 13.22c-5.54 4.36-11 8.76-16.62 13.09l-.2-.24c5.23-4.73 10.52-9.39 15.78-14.09l15.88-14c10.6-9.3 21.29-18.5 31.92-27.75a3233.53 3233.53 0 0 1 32.08-27.56c5.4-4.53 10.77-9.1 16.25-13.54l8.18-6.7c2.7-2.27 5.47-4.44 9.18-5.5l.81 1.02Z"/><path d="M250.49 197.34c-1.06 3.71-3.23 6.49-5.49 9.19l-6.7 8.18c-4.44 5.48-9 10.84-13.54 16.24-9.11 10.76-18.35 21.42-27.56 32.08-9.21 10.66-18.45 21.33-27.76 31.97l-14 15.88c-4.7 5.26-9.36 10.55-14.09 15.78l-.24-.2c4.33-5.57 8.73-11.07 13.1-16.61l13.21-16.52c8.82-11 17.75-21.91 26.61-32.87 8.86-10.96 17.8-21.88 26.81-32.72 4.53-5.4 9-10.83 13.65-16.15l6.89-8c2.27-2.7 4.63-5.32 8.1-7l1.01.75Z"/><path d="M250.56 197.25c-.4 3.84-2.06 6.95-3.82 10l-5.18 9.22c-3.42 6.16-7 12.25-10.51 18.35-7.11 12.17-14.35 24.27-21.57 36.38-7.22 12.11-14.48 24.2-21.79 36.25l-11 18.07c-3.72 6-7.39 12-11.14 18l-.27-.16c3.3-6.24 6.68-12.42 10-18.64l10.15-18.56c6.77-12.37 13.67-24.66 20.5-37s13.73-24.63 20.72-36.87c3.52-6.1 7-12.23 10.63-18.27l5.4-9.1c1.76-3 3.63-6 6.75-8.31l1.13.64Z"/><path d="M250.61 197.15c.27 3.85-.82 7.2-2 10.51l-3.5 10c-2.29 6.66-4.75 13.27-7.16 19.89C233 250.76 228 263.93 223 277.11c-5 13.18-10 26.35-15.16 39.48l-7.7 19.7c-2.61 6.55-5.18 13.12-7.84 19.65l-.3-.1c2.17-6.72 4.42-13.4 6.63-20.1l6.77-20c4.52-13.35 9.18-26.66 13.76-40s9.24-26.64 14-39.91c2.41-6.62 4.78-13.26 7.3-19.85l3.73-9.89c1.21-3.31 2.53-6.58 5.21-9.36l1.21.42Z"/><path d="M250.64 197c.93 3.74.44 7.23-.17 10.7l-1.72 10.44c-1.1 7-2.37 13.89-3.59 20.84-2.52 13.87-5.19 27.71-7.83 41.56-2.64 13.85-5.32 27.69-8.08 41.52l-4.16 20.74c-1.44 6.9-2.83 13.81-4.31 20.71l-.31-.06c1-7 2-13.95 3-20.93l3.19-20.91c2.13-13.94 4.41-27.85 6.61-41.78s4.48-27.84 6.86-41.74c1.22-6.94 2.4-13.89 3.74-20.81l2-10.39c.61-3.47 1.34-6.92 3.5-10.12l1.27.23Z"/><path d="M250.65 196.93c1.57 3.52 1.69 7 1.69 10.57l.12 10.57c.12 7.05.08 14.1.08 21.15-.07 14.09-.29 28.19-.49 42.29-.2 14.1-.43 28.19-.75 42.29l-.5 21.2c-.21 7-.38 14.09-.64 21.14h-.32c-.26-7-.43-14.1-.64-21.14l-.5-21.15c-.32-14.1-.49-28.19-.75-42.29-.26-14.1-.42-28.2-.49-42.29 0-7.05 0-14.1.08-21.15l.12-10.57c0-3.53.12-7.05 1.69-10.57l1.3-.05Z"/><path d="M250.64 196.81c2.16 3.2 2.89 6.65 3.5 10.12l2 10.39c1.34 6.92 2.52 13.87 3.74 20.81 2.38 13.9 4.61 27.82 6.86 41.74 2.25 13.92 4.48 27.84 6.61 41.78l3.19 20.91c1 7 2.06 13.95 3 20.93l-.31.06c-1.48-6.9-2.87-13.81-4.31-20.71l-4.16-20.74c-2.76-13.83-5.38-27.68-8.08-41.52-2.7-13.84-5.31-27.69-7.83-41.56-1.22-7-2.49-13.88-3.59-20.84l-1.72-10.44c-.61-3.47-1.1-7-.17-10.7l1.27-.23Z"/><path d="M250.61 196.7c2.68 2.78 4 6.05 5.21 9.36l3.73 9.89c2.52 6.59 4.89 13.23 7.3 19.85 4.76 13.27 9.37 26.59 14 39.91 4.63 13.32 9.24 26.64 13.76 40l6.77 20c2.21 6.7 4.46 13.38 6.63 20.1l-.3.1c-2.66-6.53-5.23-13.1-7.84-19.65l-7.7-19.7c-5.12-13.13-10.1-26.32-15.16-39.48-5.06-13.16-10-26.35-14.93-39.58-2.41-6.62-4.87-13.23-7.16-19.89l-3.5-10c-1.21-3.31-2.3-6.66-2-10.51l1.19-.4Z"/><path d="M250.56 196.6c3.12 2.27 5 5.26 6.75 8.31l5.4 9.1c3.63 6 7.11 12.17 10.63 18.27 7 12.24 13.85 24.56 20.72 36.87 6.87 12.31 13.73 24.63 20.5 37l10.15 18.56c3.33 6.22 6.71 12.4 10 18.64l-.27.16c-3.75-6-7.42-12-11.14-18l-11-18.07c-7.32-12.05-14.52-24.17-21.79-36.25-7.27-12.08-14.45-24.19-21.51-36.37-3.53-6.1-7.09-12.19-10.51-18.35l-5.18-9.22c-1.76-3.05-3.42-6.16-3.82-10l1.07-.65Z"/><path d="M250.49 196.51c3.47 1.69 5.83 4.31 8.1 7l6.89 8c4.62 5.32 9.12 10.75 13.65 16.15 9 10.84 17.9 21.79 26.81 32.72s17.79 21.87 26.61 32.87l13.21 16.52c4.37 5.54 8.77 11 13.1 16.61l-.24.2c-4.73-5.23-9.39-10.52-14.09-15.78l-14-15.88c-9.31-10.59-18.5-21.28-27.76-31.92-9.26-10.64-18.42-21.29-27.53-32-4.53-5.4-9.1-10.76-13.54-16.24l-6.7-8.18c-2.26-2.7-4.43-5.48-5.49-9.19l.98-.88Z"/><path d="M250.41 196.43c3.72 1.06 6.49 3.23 9.19 5.5l8.18 6.7c5.48 4.44 10.85 9 16.25 13.54 10.75 9.11 21.41 18.34 32.08 27.56 10.67 9.22 21.32 18.45 31.92 27.75l15.88 14c5.26 4.7 10.55 9.36 15.78 14.09l-.2.24c-5.57-4.33-11.08-8.73-16.62-13.09l-16.51-13.22c-11-8.81-21.92-17.74-32.88-26.61-10.96-8.87-21.87-17.8-32.71-26.81-5.4-4.53-10.83-9-16.16-13.64l-8-6.9c-2.7-2.26-5.32-4.62-7-8.09l.8-1.02Z"/><path d="M250.32 196.37c3.84.4 6.95 2 10 3.82l9.21 5.17c6.17 3.42 12.25 7 18.35 10.51 12.18 7.11 24.28 14.35 36.38 21.58 12.1 7.23 24.21 14.46 36.26 21.79l18.06 11c6 3.71 12 7.38 18 11.13l-.16.27c-6.23-3.29-12.42-6.67-18.63-10l-18.56-10.14c-12.37-6.77-24.67-13.67-37-20.5-12.33-6.83-24.63-13.73-36.87-20.72-6.11-3.53-12.24-7-18.28-10.64l-9.08-5.4c-3.06-1.76-6.05-3.63-8.31-6.76l.63-1.11Z"/><path d="M250.22 196.32c3.85-.27 7.2.82 10.52 2l10 3.5c6.67 2.3 13.28 4.75 19.9 7.16 13.22 4.89 26.39 9.92 39.57 14.93s26.35 10 39.49 15.17l19.7 7.7c6.55 2.61 13.11 5.18 19.65 7.84l-.11.29c-6.71-2.16-13.39-4.42-20.09-6.62l-20-6.77c-13.36-4.52-26.66-9.18-40-13.76s-26.64-9.25-39.91-14c-6.62-2.42-13.26-4.78-19.84-7.31l-9.9-3.73c-3.31-1.2-6.58-2.53-9.35-5.21l.37-1.19Z"/><path d="M250.11 196.29c3.75-.94 7.24-.45 10.71.17l10.43 1.71c7 1.11 13.9 2.38 20.84 3.6 13.87 2.52 27.72 5.18 41.56 7.83 13.84 2.65 27.69 5.31 41.52 8.08l20.74 4.16c6.9 1.43 13.82 2.82 20.71 4.31l-.05.3c-7-1-14-2-20.94-3l-20.91-3.18c-13.94-2.14-27.85-4.41-41.78-6.61s-27.84-4.48-41.73-6.86c-6.94-1.23-13.89-2.4-20.81-3.75l-10.39-2c-3.48-.61-6.92-1.35-10.12-3.51l.22-1.25Z"/><path d="M250 196.28c3.52-1.57 7.05-1.7 10.57-1.69l10.58-.13c7-.12 14.09-.07 21.14-.07 14.1.07 28.2.29 42.29.49s28.2.43 42.29.75l21.15.49c7.05.22 14.1.39 21.15.65v.31c-7.05.26-14.1.43-21.15.65l-21.15.49c-14.09.33-28.19.5-42.29.75-14.1.25-28.19.42-42.29.49-7.05 0-14.1 0-21.14-.07l-10.58-.12c-3.52 0-7-.13-10.57-1.7v-1.29Z"/><path d="M249.89 196.29c3.2-2.16 6.64-2.89 10.12-3.51l10.39-1.95c6.92-1.35 13.87-2.52 20.81-3.75 13.89-2.38 27.81-4.61 41.73-6.86 13.92-2.25 27.84-4.47 41.78-6.6l20.91-3.19c7-1 13.95-2.07 20.94-3l.05.3c-6.89 1.49-13.81 2.88-20.71 4.31l-20.74 4.16c-13.83 2.77-27.68 5.38-41.52 8.08-13.84 2.7-27.69 5.32-41.56 7.83-6.94 1.22-13.88 2.49-20.84 3.6l-10.43 1.71c-3.47.62-7 1.11-10.71.17l-.22-1.3Z"/><path d="M249.78 196.32c2.77-2.68 6-4 9.35-5.21l9.9-3.73c6.58-2.53 13.22-4.89 19.84-7.3 13.27-4.76 26.6-9.37 39.91-14 13.31-4.63 26.64-9.24 40-13.76l20-6.77c6.7-2.2 13.38-4.46 20.09-6.62l.11.29c-6.54 2.66-13.1 5.23-19.65 7.85l-19.7 7.69c-13.14 5.13-26.33 10.11-39.49 15.17-13.16 5.06-26.35 10-39.57 14.93-6.62 2.41-13.23 4.86-19.9 7.16l-10 3.5c-3.32 1.2-6.67 2.29-10.52 2l-.37-1.2Z"/><path d="M249.68 196.37c2.26-3.13 5.25-5 8.31-6.76l9.09-5.39c6-3.63 12.17-7.11 18.28-10.64 12.24-7 24.56-13.84 36.87-20.72 12.31-6.88 24.63-13.73 37-20.5l18.56-10.14c6.21-3.34 12.4-6.72 18.63-10l.16.27c-6 3.75-12 7.42-18 11.13l-18.06 11c-12 7.33-24.18 14.53-36.26 21.8-12.08 7.27-24.2 14.46-36.38 21.57-6.1 3.52-12.18 7.09-18.35 10.51l-9.21 5.18c-3.06 1.76-6.17 3.41-10 3.81l-.64-1.12Z"/><path d="M249.58 196.43c1.69-3.47 4.31-5.83 7-8.09l8-6.89c5.33-4.63 10.76-9.12 16.16-13.65 10.84-9 21.78-17.9 32.71-26.81s21.87-17.8 32.88-26.61l16.51-13.22c5.54-4.36 11.05-8.76 16.62-13.09l.2.24c-5.23 4.73-10.52 9.39-15.78 14.09l-15.88 14c-10.6 9.3-21.29 18.5-31.92 27.75A3034.8 3034.8 0 0 1 284 171.69c-5.4 4.53-10.77 9.09-16.25 13.53l-8.18 6.7c-2.7 2.27-5.47 4.44-9.19 5.5l-.8-.99Z"/><path d="M249.51 196.51c1.06-3.71 3.23-6.49 5.49-9.19l6.7-8.18c4.44-5.47 9-10.84 13.54-16.24 9.11-10.76 18.34-21.41 27.56-32.08 9.22-10.67 18.45-21.33 27.76-31.92l14-15.88c4.7-5.26 9.36-10.55 14.09-15.78l.24.2c-4.33 5.57-8.73 11.07-13.1 16.61l-13.21 16.52c-8.82 11-17.75 21.91-26.61 32.88-8.86 10.97-17.8 21.87-26.81 32.71-4.53 5.4-9 10.83-13.65 16.15l-6.89 8c-2.27 2.7-4.63 5.32-8.1 7l-1.01-.8Z"/><path d="M249.44 196.6c.4-3.84 2.06-6.95 3.82-10l5.18-9.22c3.42-6.16 7-12.24 10.51-18.35 7.11-12.17 14.35-24.27 21.57-36.38 7.22-12.11 14.48-24.2 21.79-36.25l11-18.07c3.72-6 7.39-12 11.14-18l.27.15c-3.3 6.24-6.68 12.43-10 18.64L314.56 87.7c-6.77 12.37-13.67 24.66-20.5 37s-13.73 24.63-20.72 36.87c-3.52 6.1-7 12.23-10.63 18.27l-5.4 9.1c-1.76 3.05-3.63 6-6.75 8.31l-1.12-.65Z"/><path d="M249.39 196.7c-.27-3.84.82-7.2 2-10.51l3.5-10c2.29-6.66 4.75-13.27 7.16-19.89C267 143.09 272 129.92 277 116.74c5-13.18 10-26.34 15.16-39.48l7.7-19.7c2.61-6.55 5.18-13.12 7.84-19.65l.3.11c-2.17 6.71-4.42 13.39-6.63 20.09l-6.77 20c-4.52 13.35-9.18 26.66-13.76 40s-9.24 26.64-14 39.91c-2.41 6.63-4.78 13.27-7.3 19.85l-3.73 9.89c-1.21 3.31-2.53 6.58-5.21 9.36l-1.21-.42Z"/><path d="M249.36 196.81c-.93-3.74-.44-7.23.17-10.7l1.72-10.44c1.1-7 2.37-13.89 3.59-20.83 2.52-13.87 5.19-27.72 7.83-41.57 2.64-13.85 5.32-27.69 8.08-41.52L274.91 51c1.44-6.9 2.83-13.81 4.31-20.71l.31.06c-1 7-2 14-3 20.93l-3.22 20.92c-2.13 13.94-4.41 27.86-6.61 41.78-2.2 13.92-4.48 27.84-6.86 41.74-1.22 6.94-2.4 13.89-3.74 20.81l-2 10.39c-.61 3.47-1.34 6.92-3.5 10.12l-1.24-.23Z"/></g><path d="M385.27 440.13c36.683 0 66.42-17.17 66.42-38.35s-29.737-38.35-66.42-38.35c-36.683 0-66.42 17.17-66.42 38.35s29.737 38.35 66.42 38.35Zm-269.06 0c36.683 0 66.42-17.17 66.42-38.35s-29.737-38.35-66.42-38.35c-36.683 0-66.42 17.17-66.42 38.35s29.737 38.35 66.42 38.35Zm165.49-41.69c-36.25-5.19-63.5 8.6-77.44 19.22-8.37 6.38-11.1 20.3 14.19 20.52 25.29.22 39.9-9.85 50.87-4.45 10.63 5.23 17.94 23.59 34.32 21.79 12.15-1.34 14.73-13.88 10.05-29.87-4.15-14.19-11.84-24.32-31.99-27.21Z" fill="#E0E0E0"/><path d="M413.3 368c.2-5 3.07-60 3.07-60l-25.2 18.15c3.93 28.69 5.59 41.89 5.87 46.67-.1.402-.131.818-.09 1.23.24 5.67 7.11 8.5 12.51 12.1a99.968 99.968 0 0 0 14.54 8.33c3.9 1.69 11.66 1.59 12.53-.78-6.58-4.42-14.19-9.24-19.49-14.37-2.5-2.44-3.99-5.33-3.74-11.33Z" fill="#F0F0F0"/><path d="M444.23 399.5c.3 0 .9 3.41-.71 4.93-1.86 1.75-7.4 4.73-14.89 4-7.49-.73-11.62-2.91-14.7-5.35-3.08-2.44-7.39-5.86-10.79-6.5-3.16-.59-6.62-1.91-7.66-2.86s-1.07-5.33-1.07-5.33l49.82 11.11Z" fill="#E0E0E0"/><path opacity=".3" d="M444.23 399.5c.3 0 .9 3.41-.71 4.93-1.86 1.75-7.4 4.73-14.89 4-7.49-.73-11.62-2.91-14.7-5.35-3.08-2.44-7.39-5.86-10.79-6.5-3.16-.59-6.62-1.91-7.66-2.86s-1.07-5.33-1.07-5.33l49.82 11.11Z" fill="#000"/><path d="M396.94 371.43a.997.997 0 0 0-1 1c-.18 1.22-.4 4.76-.82 6.75-.58 2.78-1 8.48-.54 10.71.46 2.23 5.66 3.6 9 4.75a41.329 41.329 0 0 1 10.83 6.42c3.62 2.81 11.1 5.49 16 5.39 7.42-.15 12.15-2.37 13.53-5.14 1.71-3.42 1.05-5.78-7.62-9.5a100.821 100.821 0 0 1-9.68-5.32 28.561 28.561 0 0 1-11.23-12.94 3.316 3.316 0 0 0-1.29-1.77 2.694 2.694 0 0 0-1.66-.09c-1.42.25-5.51.92-6.78 1.59-1.12.6-2.72 1.3-2.63 2.79a5.01 5.01 0 0 0 .37 1.51c.12.3.21.7 0 .89-.21.19-.58 0-.81-.2a23.14 23.14 0 0 1-2.4-2.72 8.133 8.133 0 0 0-1.4-1.35 13.704 13.704 0 0 1-1.5-.91s-.31-1.16-.37-1.86Z" fill="#E0E0E0"/><path opacity=".1" d="M396.94 371.43a.997.997 0 0 0-1 1c-.18 1.22-.4 4.76-.82 6.75-.58 2.78-1 8.48-.54 10.71.46 2.23 5.66 3.6 9 4.75a41.329 41.329 0 0 1 10.83 6.42c3.62 2.81 11.1 5.49 16 5.39 7.42-.15 12.15-2.37 13.53-5.14 1.71-3.42 1.05-5.78-7.62-9.5a100.821 100.821 0 0 1-9.68-5.32 28.561 28.561 0 0 1-11.23-12.94 3.316 3.316 0 0 0-1.29-1.77 2.694 2.694 0 0 0-1.66-.09c-1.42.25-5.51.92-6.78 1.59-1.12.6-2.72 1.3-2.63 2.79a5.01 5.01 0 0 0 .37 1.51c.12.3.21.7 0 .89-.21.19-.58 0-.81-.2a23.14 23.14 0 0 1-2.4-2.72 8.133 8.133 0 0 0-1.4-1.35 13.704 13.704 0 0 1-1.5-.91s-.31-1.16-.37-1.86Z" fill="#000"/><path d="M436.52 391.82c-10.71 1.18-15.19 8.18-13.84 13.28a24.776 24.776 0 0 0 7.69 1.36c7.42-.15 12.45-2.38 13.83-5.15 1.61-3.22.05-6.82-7.68-9.49Z" fill="#FAFAFA"/><path d="M421.94 393.37a.478.478 0 0 1-.34-.11.531.531 0 0 1-.1-.74 12.488 12.488 0 0 1 9.56-4.25.538.538 0 0 1 .314.936.522.522 0 0 1-.384.134 11.582 11.582 0 0 0-4.737.987 11.587 11.587 0 0 0-3.923 2.833.463.463 0 0 1-.39.21Zm-4.33-2.61a.527.527 0 0 1-.543-.464.538.538 0 0 1 .103-.396 12.438 12.438 0 0 1 9.56-4.24.516.516 0 0 1 .459.365.508.508 0 0 1 .021.205.51.51 0 0 1-.55.49 11.608 11.608 0 0 0-8.66 3.83.514.514 0 0 1-.39.21Zm-4.28-3.35a.478.478 0 0 1-.34-.11.531.531 0 0 1-.1-.74 12.516 12.516 0 0 1 9.56-4.25.54.54 0 0 1 .49.57.513.513 0 0 1-.173.37.533.533 0 0 1-.387.13 11.568 11.568 0 0 0-8.66 3.82.478.478 0 0 1-.39.21Zm-4.23-3.36a.535.535 0 0 1-.543-.452.528.528 0 0 1 .103-.398c1.95-2.71 6.53-4.62 10.45-4.33a.542.542 0 0 1 .28.915.535.535 0 0 1-.35.155c-3.53-.26-7.8 1.49-9.54 3.89a.495.495 0 0 1-.4.22ZM370.17 329l-24.84-5c-.85 15-.46 39.57-.43 53.46 0 2.66-1.76 20.59-1.07 26.11 1 8.31 12.16 7.92 13.14 3.05.98-4.87 2.07-25.7 2.28-27.85.028-.651.101-1.299.22-1.94 2.75-12.67 10.53-47.08 10.7-47.83Z" fill="#F0F0F0"/><path d="M360.85 410.3c-.16 4.83-.91 8.6-2.76 11.48-1.85 2.88-5.32 4-9.06 3.25s-8.7-3.55-9.9-7.68c-1.2-4.13-1.07-7-.38-11.49l22.1 4.44Z" fill="#E0E0E0"/><path opacity=".3" d="M360.85 410.3c-.16 4.83-.91 8.6-2.76 11.48-1.85 2.88-5.32 4-9.06 3.25s-8.7-3.55-9.9-7.68c-1.2-4.13-1.07-7-.38-11.49l22.1 4.44Z" fill="#000"/><path d="M344.89 375.91c-1.52.15-1.68 6.44-2.35 12.94-.72 7-3 9.9-3.64 15.62-.76 6.53-.27 9.43 2.44 13.31 2.71 3.88 12 7.52 16.32 1.78 3.53-4.68 3.52-9.78 3-16.28a145.582 145.582 0 0 1-.87-16.53c.14-4.89 1-9.42-.3-9.93-.08.72-.15 1.63-.24 2.33-.06.54-.13 3.19-1 3.23a8.619 8.619 0 0 1-.08-1.83 1.997 1.997 0 0 0-.47-1.57 5.85 5.85 0 0 0-2.39-.82c-1.51-.23-3-.43-4.56-.52-.76 0-1.53-.05-2.29 0a6.93 6.93 0 0 0-1.93.29 1.278 1.278 0 0 0-.8.68 1.732 1.732 0 0 0-.06.75c.01.451-.04.902-.15 1.34-.05.19-.19.43-.41.39a.368.368 0 0 1-.26-.39c0-.78.06-1.36.07-2.27v-1.25c0-.42-.04-.85-.03-1.27Z" fill="#E0E0E0"/><path opacity=".1" d="M344.89 375.91c-1.52.15-1.68 6.44-2.35 12.94-.72 7-3 9.9-3.64 15.62-.76 6.53-.27 9.43 2.44 13.31 2.71 3.88 12 7.52 16.32 1.78 3.53-4.68 3.52-9.78 3-16.28a145.582 145.582 0 0 1-.87-16.53c.14-4.89 1-9.42-.3-9.93-.08.72-.15 1.63-.24 2.33-.06.54-.13 3.19-1 3.23a8.619 8.619 0 0 1-.08-1.83 1.997 1.997 0 0 0-.47-1.57 5.85 5.85 0 0 0-2.39-.82c-1.51-.23-3-.43-4.56-.52-.76 0-1.53-.05-2.29 0a6.93 6.93 0 0 0-1.93.29 1.278 1.278 0 0 0-.8.68 1.732 1.732 0 0 0-.06.75c.01.451-.04.902-.15 1.34-.05.19-.19.43-.41.39a.368.368 0 0 1-.26-.39c0-.78.06-1.36.07-2.27v-1.25c0-.42-.04-.85-.03-1.27Z" fill="#000"/><path d="M338.6 408.25c-.14 4.05.21 6.81 2.34 9.85 2.71 3.87 12.73 7.52 17.06 1.77 2.15-2.85 2.65-6.18 2.85-9.58-2.85-4.29-18.11-5.83-22.25-2.04Z" fill="#FAFAFA"/><path d="M356.7 403.31h-.19a25.004 25.004 0 0 0-13.21-.89.598.598 0 0 1-.69-.36.485.485 0 0 1 .064-.394.486.486 0 0 1 .336-.216 26.07 26.07 0 0 1 14 .94.497.497 0 0 1 .176.1.491.491 0 0 1 .159.363.48.48 0 0 1-.045.197.591.591 0 0 1-.6.26Zm-13.19-5.79a.578.578 0 0 1-.49-.33.477.477 0 0 1 .156-.553.48.48 0 0 1 .184-.087c6.78-2.21 13.64.7 13.93.83a.455.455 0 0 1 .173.106.461.461 0 0 1 .144.369.473.473 0 0 1-.057.195.63.63 0 0 1-.76.23c-.06 0-6.73-2.85-13-.79l-.28.03Zm.25-4.59a.555.555 0 0 1-.49-.32.476.476 0 0 1 .017-.391.478.478 0 0 1 .303-.249 19.66 19.66 0 0 1 14.21.78.488.488 0 0 1 .267.295.473.473 0 0 1-.047.395.609.609 0 0 1-.78.18 18.691 18.691 0 0 0-13.24-.72.545.545 0 0 1-.24.03Z" fill="#F0F0F0"/><path d="M344.06 387.78a.58.58 0 0 1-.49-.31.482.482 0 0 1 .31-.65c7-2.5 14 .78 14.32.92a.47.47 0 0 1 .23.68.6.6 0 0 1-.77.2c-.06 0-6.87-3.19-13.35-.87a.532.532 0 0 1-.25.03Z" fill="#EBEBEB"/><path d="M352 213.11c-1.55 28.35-3.94 80.69-3.94 80.69-.34 3.3-3.36 17.89-3.67 29.79-.5 19.12.27 36.81.27 36.81s11 4.68 18.57 1.66c0 0 10-43.22 12.57-55.67 3-14.83 9.47-44.35 9.47-44.35l5.07 39.18s-1.59 13.95 0 25.48c1.08 7.85 5.13 34 5.13 34s10.12 2.16 18.4-.48c0 0 3.87-55.5 4.36-62.74.49-7.24 1.89-44.49.11-90.16L352 213.11Z" fill="#E0E0E0"/><path d="m394.51 355.46 1.41 8.22c3.31 1.92 13.06 2.29 17.95-1.06l.39-7.55c-4.08 2.98-15.12 2.83-19.75.39Zm-50.07-.39v8c2.68 2.69 13 4 18.51 1.93l1.52-7.78c-5.75 2.53-16.62 1.05-20.03-2.15Zm59.27-124.49a22.77 22.77 0 0 1-14.22 6.08L385.27 262l5.07 39.18-2.49-40 3.88-21.06c11.32-3.69 11.98-9.54 11.98-9.54Z" fill="#E0E0E0"/><path opacity=".1" d="m394.51 355.46 1.41 8.22c3.31 1.92 13.06 2.29 17.95-1.06l.39-7.55c-4.08 2.98-15.12 2.83-19.75.39Zm-50.07-.39v8c2.68 2.69 13 4 18.51 1.93l1.52-7.78c-5.75 2.53-16.62 1.05-20.03-2.15Zm59.27-124.49a22.77 22.77 0 0 1-14.22 6.08L385.27 262l5.07 39.18-2.49-40 3.88-21.06c11.32-3.69 11.98-9.54 11.98-9.54Z" fill="#000"/><path d="M403.8 127.35c6.91 2.05 7.79 3.58 20.32 14.17 10.22 8.63 15.69 12.29 15.69 12.29s10.66 12.65 11.12 15.13a13.738 13.738 0 0 1-5.14 12.06c-2.62 2-5.63 1.21-8.49-.3-3.47-1.84-5.21-2.83-6.92-3.82-11.54-6.69-20.81-12.8-20.81-12.8l-5.77-36.73Z" fill="#E0E0E0"/><path d="M477.14 119.46c-1.73-1-2 .6-2.6.82 0 0 1.74-2.07-1.24-3.79-1.84-1.06-2.69 1.51-2.74 1.17 0-.15 2.13-5.39 3.87-9.85 1.65-4.22.16-5.4-.53-5.73-.69-.33-1.38 0-2.92 3s-6.07 12.3-7.1 14.22c-1.03 1.92-1.78 2.82-2.49.35-.66-2.31-1.27-4.5-2.63-5.9-2.27-2.33-4-1.27-3.63.54.53 2.55.54 5.55 1 9.72.21 2.18.29 4.22.56 5.71.84 5.24-2.18 7.68-5.75 11.85-2.92 3.41-5.94 6.2-12.66 13.06-6.37 6.5-5.53 20.77.51 24.15 6.67 3.73 8.49 1.54 15.43-9.19 4.48-6.93 10.44-19.63 12.09-22.57 1.65-2.94 2.24-4.73 4.55-6.19 3.15-2 4.54-4.09 6.25-7.19.82-1.49 2.38-4.21 3.39-6.42 1.01-2.21 1.1-3.77-.16-4.69-1.72-1.26-2.19.64-2.36.45-.17-.19 1.63-2.1-.84-3.52Z" fill="#EBEBEB"/><path d="M474.9 130.49c-.59-.84 0-2.37 0-2.37-.32.537-.803.958-1.38 1.2a2.131 2.131 0 0 1-2.44-1.06 3.139 3.139 0 0 1 .32-2 3.458 3.458 0 0 1-1.47.83c-.94.26-1.78-.32-2.14-1.46-.36-1.14.93-4 2.28-6.58A12.629 12.629 0 0 0 468 122a6.867 6.867 0 0 0-1.18 3.53 7.242 7.242 0 0 0-2.75-2.22c2.4 2.3 4.17 8.6 3.2 12.78a9.226 9.226 0 0 0 .8-8.29 1.86 1.86 0 0 0 2.19-.18 2.227 2.227 0 0 0 1.32 2.32 2.18 2.18 0 0 0 2.42 0s-.28.94 1 1.57c1.28.63 2.22-.07 2.9-1.28a2.001 2.001 0 0 1-3 .26Z" fill="#E0E0E0"/><path opacity=".1" d="M474.9 130.49c-.59-.84 0-2.37 0-2.37-.32.537-.803.958-1.38 1.2a2.131 2.131 0 0 1-2.44-1.06 3.139 3.139 0 0 1 .32-2 3.458 3.458 0 0 1-1.47.83c-.94.26-1.78-.32-2.14-1.46-.36-1.14.93-4 2.28-6.58A12.629 12.629 0 0 0 468 122a6.867 6.867 0 0 0-1.18 3.53 7.242 7.242 0 0 0-2.75-2.22c2.4 2.3 4.17 8.6 3.2 12.78a9.226 9.226 0 0 0 .8-8.29 1.86 1.86 0 0 0 2.19-.18 2.227 2.227 0 0 0 1.32 2.32 2.18 2.18 0 0 0 2.42 0s-.28.94 1 1.57c1.28.63 2.22-.07 2.9-1.28a2.001 2.001 0 0 1-3 .26Z" fill="#000"/><path d="M372.17 126.81c-10.35 2.31-13.46 3.31-18.36 4.44 0 0-9.12 25.68-4.73 43.57 1 4.12 3.32 17.36 3.31 24.92 0 7.22-.08 7-.85 17.24 0 0 13.85 9.66 42.81 6.71 22.75-2.31 24.33-10.32 24.33-10.32s-1.25-28.71-1.79-45.43c-.54-17-2.5-24.38-7-34.06-1.36-2.92-2.94-6-6.1-6.53-4.54-.71-12.31-.22-12.31-.22l-19.31-.32Z" fill="#EBEBEB"/><path d="M323.42 183.84c-1.72 5.67-1.46 8.07.39 13.71 1.16 3.53 2.29 7.08 3.41 10.62 1.5 4.71 4.08 12.57 4.55 14.42.611 1.893.852 3.886.71 5.87a35.57 35.57 0 0 0-.37 6.1 25.357 25.357 0 0 0 1.27 7.16c.52 1.6.81 3.33 1.44 4.89.429.899.931 1.762 1.5 2.58.274.689.71 1.303 1.27 1.79 1.33 1 3 1.44 4.19 2.68.43.46.75 1 1.17 1.48 1.58 1.79 4.26 2.17 6.07 3.73 1 .88 1.73 2.1 2.82 2.91.35.25.84.46 1.19.21.131-.115.233-.259.3-.42a3.785 3.785 0 0 0 .65-1.74 6.541 6.541 0 0 0-.53-2 19.67 19.67 0 0 0-1.82-3.57 52.69 52.69 0 0 1-3.17-5.31 10.129 10.129 0 0 1-.69-4.15c0-1.6-.06-3.19 0-4.79 0-.59.08-1.29.59-1.6a18.697 18.697 0 0 0 3.39 6.15c.67.72 4.44 3 4.8.71a1.144 1.144 0 0 0-.11-.57c-.45-1.27-1-2.5-1.49-3.77a33.62 33.62 0 0 1-1.28-3.86c-.87-4.11-1.74-7.5-4-11-4.05-6.26-7.39-35.73-7.39-35.73l8.09-23s6.72-9.23 7.08-20.83c.36-11.6-3.86-15-3.86-15-9.77 1.61-14.5 4.42-17.44 12.53-2.94 8.11-10.97 34.06-12.73 39.8Z" fill="#EBEBEB"/><path d="M321.71 187.77c.4-2.13 3.36-14.48 8.21-29.64 4.85-15.16 5.92-16.33 9.59-20.77 3.67-4.44 9.55-5.19 14.35-6.13 0 0 3.87 3.12 4.06 13.41A47.54 47.54 0 0 1 353 167l-10.41 23.42.35 3.71c-10.43-2.58-19 6.12-19 6.12-2.87-8.99-2.63-10.36-2.23-12.48Z" fill="#E0E0E0"/><path d="M391.68 126.06s7 6.05 4.8 11.88c-2.2 5.83-12.06 7-19.89 1.68s-7.27-11.77-7.27-11.77l2.89-1a9.471 9.471 0 0 0 1.67 3.89c1.24 1.43 15.66 7.14 16 8.88 0 0 2.13-4.26 2.75-5.85.62-1.59-2.65-8-2.65-8l1.7.29Z" fill="#F5F5F5"/><path d="M402.35 90.15c2-5.71-.91-12.87-4.05-16.1-4.53-4.66-11.17-6.33-20.89-5-7.4 1-14.47 4.64-15.29 12.37-5.84 2.22-4.43 12-2.62 16.19 3.66 8.55 10.16 15.75 10.59 20.23l32.26-27.69Z" fill="#E0E0E0"/><path opacity=".2" d="M402.35 90.15c2-5.71-.91-12.87-4.05-16.1-4.53-4.66-11.17-6.33-20.89-5-7.4 1-14.47 4.64-15.29 12.37-5.84 2.22-4.43 12-2.62 16.19 3.66 8.55 10.16 15.75 10.59 20.23l32.26-27.69Z" fill="#000"/><path d="M402.8 110.23c-.86 4.33-1.64 8.47-6.47 9.86a20.934 20.934 0 0 1-5.58.5v6.75c2.88 3.49 1.47 7.93-.86 12.32-4.06-4.87-15.6-6.78-20.32-12.63l-.39-17.41s-2.19 2.9-6.34.62a8.644 8.644 0 0 1-3.47-10.35c1.65-4.28 5.7-2.87 7-1.7 1.3 1.17 2.88 3.42 3.86 3a3.637 3.637 0 0 0 2.24-2.67c.728-2.634.962-5.38.69-8.1a9.147 9.147 0 0 0 2.62-2.38c1.54-2 1.51-4.26 1.43-6.3 8.27-3.28 19.15-3 22.87-.55 2.29 3.42 2.59 7.77 2.92 12.56.46 6.65.52 12.86-.2 16.48Z" fill="#EBEBEB"/><path d="M390.75 120.59c-4.36.08-13.22-2.08-15.73-4.33s-3.85-7.12-3.85-7.12.58 5.22 2.58 7.85 6.88 3.86 9.66 4.48c2.414.512 4.873.783 7.34.81v-1.69Zm-5.67-24.91a1.807 1.807 0 0 1-1.83 1.81 1.857 1.857 0 0 1-1.744-1.14 1.856 1.856 0 0 1 1.372-2.549 1.86 1.86 0 0 1 2.202 1.879Zm14.22-4.49-4-1.89a2.11 2.11 0 0 1 1.2-1.177 2.12 2.12 0 0 1 1.68.067 2.328 2.328 0 0 1 1.12 3ZM383.75 90l-3.62 2.53a2.119 2.119 0 0 1 .46-3 2.33 2.33 0 0 1 3.16.47Zm15.44 4.77a1.82 1.82 0 0 1-1.83 1.82 1.84 1.84 0 0 1-1.75-1.91 1.782 1.782 0 0 1 .556-1.253 1.792 1.792 0 0 1 2.905.655c.084.219.125.453.119.688Z" fill="#E0E0E0"/><path d="M385.08 95.68a1.807 1.807 0 0 1-1.83 1.81 1.857 1.857 0 0 1-1.744-1.14 1.863 1.863 0 0 1 .407-2.042 1.86 1.86 0 0 1 3.167 1.372Zm14.22-4.49-4-1.89a2.121 2.121 0 0 1 2.88-1.11 2.328 2.328 0 0 1 1.12 3ZM383.75 90l-3.62 2.53a2.119 2.119 0 0 1 .46-3 2.33 2.33 0 0 1 3.16.47Zm15.44 4.77a1.819 1.819 0 0 1-1.83 1.82 1.84 1.84 0 0 1-1.75-1.91 1.8 1.8 0 0 1 .556-1.253 1.782 1.782 0 0 1 1.279-.492 1.793 1.793 0 0 1 1.626 1.147c.084.219.125.453.119.688Z" opacity=".2" fill="#000"/><path d="m389.46 91.71.97 12.92 6.97-1.91-7.94-11.01Zm-3.9 15.16a3.73 3.73 0 0 0 7.28 1.62l-7.28-1.62Z" fill="#E0E0E0"/><path opacity=".1" d="M385.56 106.87a3.73 3.73 0 0 0 7.28 1.62l-7.28-1.62Z" fill="#000"/><path d="M386.5 108.74a3.604 3.604 0 0 1 4.05 2.41 3.716 3.716 0 0 1-4.84-2.17c.253-.111.518-.192.79-.24Z" fill="#F5F5F5"/><path d="M389.89 139.66c-2.24-1.28-6.67-4.15-8.76-1.33-2.09 2.82-3.59 6-5.2 5.62-1.61-.38-7.58-4.36-9.7-8.58a17.218 17.218 0 0 1-1.75-6.69 49.581 49.581 0 0 0 3-5c.85-1.8.57-2.66 2-2.8l.1 4.47a38.227 38.227 0 0 0 5.61 5c3.92 2.65 11.69 3.2 14.7 9.31Z" fill="#E0E0E0"/><path d="M389.89 139.66c1.28-1.22 2.15-3.31 4.3-2.76 2.15.55 5.34 5.35 5.37 4.21.03-1.14-1.55-9.25-3.23-11.62-1.68-2.37-4.12-6.9-5.58-6.78v4.63s1.64 3.5 1.4 5.43c-.24 1.93-2.04 5.02-2.26 6.89Zm-243.7 272.86c.45 4.44 1.21 7.48 2.95 10 1.74 2.52 4.86 3.23 8 2.34a11.805 11.805 0 0 0 7.75-7c1.17-3.13 1.16-6.52.28-10.62l-18.98 5.28Z" fill="#E0E0E0"/><path opacity=".2" d="M146.19 412.52c.45 4.44 1.21 7.48 2.95 10 1.74 2.52 4.86 3.23 8 2.34a11.805 11.805 0 0 0 7.75-7c1.17-3.13 1.16-6.52.28-10.62l-18.98 5.28Z" fill="#000"/><path d="M158.9 383c.71 3 1.07 5 2 9 1.52 6.28 3.15 8.94 4.07 14.16 1.06 6 .44 8.87-1.9 12.41-2.34 3.54-9.6 7.59-13.62 2.55-3.27-4.11-3.59-8.8-3.55-14.81a129.8 129.8 0 0 0-1-15.16v-.1c-.16-1.6-.42-4.77-.65-6.36-.52-3.51 1.88-3.9 2.81-4.41a13.852 13.852 0 0 1 4.17-1.51 12.66 12.66 0 0 1 4.5.2c1.69.35 2.48 1.21 3.17 4.03Z" fill="#E0E0E0"/><path opacity=".1" d="M158.9 383c.71 3 1.07 5 2 9 1.52 6.28 3.15 8.94 4.07 14.16 1.06 6 .44 8.87-1.9 12.41-2.34 3.54-9.6 7.59-13.62 2.55-3.27-4.11-3.59-8.8-3.55-14.81a129.8 129.8 0 0 0-1-15.16v-.1c-.16-1.6-.42-4.77-.65-6.36-.52-3.51 1.88-3.9 2.81-4.41a13.852 13.852 0 0 1 4.17-1.51 12.66 12.66 0 0 1 4.5.2c1.69.35 2.48 1.21 3.17 4.03Z" fill="#000"/><path d="M59.54 393.87c-.27 0-.61 3 1 4.2 1.79 1.4 7 3.64 13.76 2.58s10.37-3.19 13-5.46c2.63-2.27 6.36-5.48 9.41-6.23 2.84-.69 6.55-2.25 7.44-3.12.89-.87.65-4.66.65-4.66l-45.26 12.69Z" fill="#E0E0E0"/><path opacity=".2" d="M59.54 393.87c-.27 0-.61 3 1 4.2 1.79 1.4 7 3.64 13.76 2.58s10.37-3.19 13-5.46c2.63-2.27 6.36-5.48 9.41-6.23 2.84-.69 6.55-2.25 7.44-3.12.89-.87.65-4.66.65-4.66l-45.26 12.69Z" fill="#000"/><path d="M101.57 369c.313-.013.625.06.9.21a2.756 2.756 0 0 1 1 2.25c.019.754.129 1.503.33 2.23.88 2.3 1.48 6.36.88 8.79-.47 1.92-5.58 3.65-8.52 4.83a38.022 38.022 0 0 0-9.45 6.15c-3.12 2.63-9.75 5.38-14.17 5.58-6.75.3-11.18-1.33-12.6-3.63-1.75-2.85-.49-4.57 7.16-8.27 1.45-.7 6.53-3.8 8.25-4.92a40.005 40.005 0 0 0 5.17-4 29.996 29.996 0 0 0 2.31-2.33 31.351 31.351 0 0 1 3.72-3.27c.9-.796 1.867-1.512 2.89-2.14A13.008 13.008 0 0 1 95 369c2-.13 3.82.26 5.78.06.22-.06.52-.06.79-.06Z" fill="#E0E0E0"/><path opacity=".1" d="M101.57 369c.313-.013.625.06.9.21a2.756 2.756 0 0 1 1 2.25c.019.754.129 1.503.33 2.23.88 2.3 1.48 6.36.88 8.79-.47 1.92-5.58 3.65-8.52 4.83a38.022 38.022 0 0 0-9.45 6.15c-3.12 2.63-9.75 5.38-14.17 5.58-6.75.3-11.18-1.33-12.6-3.63-1.75-2.85-.49-4.57 7.16-8.27 1.45-.7 6.53-3.8 8.25-4.92a40.005 40.005 0 0 0 5.17-4 29.996 29.996 0 0 0 2.31-2.33 31.351 31.351 0 0 1 3.72-3.27c.9-.796 1.867-1.512 2.89-2.14A13.008 13.008 0 0 1 95 369c2-.13 3.82.26 5.78.06.22-.06.52-.06.79-.06Z" fill="#000"/><path d="M158.1 381.45c-1.5-12.94-.46-27.28-2.41-47.5-.31-5.19-.73-10.75-1.29-15.68-1.9-16.59-4.79-22.17-5.16-25.37 0 0-.18-32.66-2.79-69-1.22-17.1-6.58-22.07-11.06-31l-50.92 2c-4.54 22.65-3.5 73.77-2.4 96.88.56 11.78 3.64 54.07 3.8 73.24 0 5.62-1.09 7.65-3.09 9.9-4.2 4.71-9.59 8.07-14.72 11.75-1.42 3.08 5.76 4.86 11.74 1.58 5.07-2.78 10.89-6.17 12.62-7.51 4.37-3.41 9.09-5.7 10-10.53.36-2 9.56-47 9.74-56.77.15-8.43-1.49-22.67-1.49-22.67l4.18-35.87s5.6 27.33 8.93 41.77c3.33 14.44 7 31.58 10.82 45.86 3.76 16.47 8.85 32.43 10 40.7.32 2 3.44 21.36 4.59 25.78 1.15 4.42 11.22 4.13 11.56-3.57.16-5.14-2.36-21.55-2.65-23.99Z" fill="#F0F0F0"/><path d="M136.83 193.2c6.2 9.94 10.84 18.09 12.65 48.34 1.81 30.25 1.65 48.63 1.92 52.28.27 3.65 2.21 6.31 4.88 24.21 2.67 17.9 1.36 39.7 1.36 39.7s-1.72 3.34-8.82 4.25c-6.55.83-9.91-1.42-9.91-1.42s-8.91-33.16-11.85-45.49c-2.58-10.82-11.82-52.73-11.82-52.73l-3.13 29.06s2.69 10.58.56 26.46-5.67 31.45-5.67 31.45-3.27 1.13-10.22 1.33a36.52 36.52 0 0 1-11.87-2.2s-3.36-45.73-4.09-63.6c-.73-17.87-2.15-67.53 3.5-89.16l52.51-2.48Z" fill="#E0E0E0"/><path opacity=".1" d="M150.36 303c-.28-1.033-.54-2.013-.78-2.94-2.16-8.29-2.19-24.24-2.73-38.09-.16-4.18-.33-8.51-.55-13.1-.9-18-3.16-38.16-13.15-50.79l-.74.54c6.71 8.5 9.88 20.5 11.5 32.95-9.43-.82-11.85-9.67-15.15-21.87-.45-1.66-.92-3.39-1.42-5.16l-.9.24c.5 1.773.973 3.49 1.42 5.15 3.29 12.17 5.9 21.81 16.16 22.57.68 5.49 1.08 11 1.34 16.41.23 4.59.4 8.92.56 13.1.54 13.9.57 29.89 2.75 38.27.253.927.513 1.907.78 2.94 2.87 10.71 6.23 28.58 5.56 56.88a8.64 8.64 0 0 0 1-.61c.54-28.07-2.79-45.84-5.65-56.49Zm-62-81.78c1.55 5.9 11.6 10.5 16.11 11.36l1.38 6c-.09 3.23-.19 6.62-.3 10.12-.58 19.28-1 39.17 0 43.66 2 8.7 1.45 17.07.32 28.44-1 10.27-2.78 23-3.89 29.5l.94-.12c1.11-6.45 2.56-17.79 4-29.33s1.83-19.59-.46-28.72c-1.09-4.34-.55-25.09 0-43.41.07-2.22.13-4.4.2-6.52l4.85 21.15.57 28.08 3.13-29.06-7.21-34.16s-12.46-.35-19.63-7.02l-.01.03Z" fill="#000"/><path d="M15.71 130.6a5.105 5.105 0 0 1 3.07 0 33.637 33.637 0 0 1 4.59 2c2.34 1 6.12 2.68 8.69 2.34.53-.08 1.59-.38.82-1a22.787 22.787 0 0 1-3-2.4 4.586 4.586 0 0 1-1.38-3.43 1.61 1.61 0 0 1 .44-1c.41-.36.72-.18 1.09 0 .392.228.8.428 1.22.6l2.55 1.17c4.95 2.33 9.94 5.12 13.16 9.69.47.67 3.39 5.95 5.24 8.92C53.77 150.26 63 164 63 164s12.57-11.2 18.2-16.33c6-5.49 9.89-9.33 19.15-9.76l-8.91 29.48s-16.33 12.48-19.54 14.73c-8.08 5.64-9.79 7.46-15 3.17-6.39-5.27-8.24-11.71-11-18.65-3.19-7.83-4.27-11.64-5.9-13.93-1.63-2.29-3.91-2.26-5.56-2.62a25.022 25.022 0 0 1-6.57-2.19 22.893 22.893 0 0 1-5.19-3.15c-.65-.54-1.74-1.28-2.08-2.08a23.184 23.184 0 0 0-.67-2.36c-.46-.85-1.31-1.45-1.68-2.34a8.663 8.663 0 0 1-.35-2.23 3.832 3.832 0 0 0-1.86-2.5 3.539 3.539 0 0 1-1.16-1.15c-.36-.79.17-1.24.83-1.49Z" fill="#F0F0F0"/><path d="M34.76 136.89a16.801 16.801 0 0 0 6.43 6.74 6.928 6.928 0 0 1-4.49-1.8 6.518 6.518 0 0 1-1.94-4.94Zm66.24.49c-4.4.35-6.88-.17-12.81 3.78C82.26 145.11 63 163.25 63 163.25l-8.11-11.47s.54 4.74-4.65 7.52c-5.19 2.78-7 1.17-7 1.17s4.68 13.89 6.88 17.48 4.92 7.37 9.11 9.44c4.19 2.07 7-.73 13.2-5.12 6.2-4.39 19.6-14 19.6-14l8.97-30.89Z" fill="#E0E0E0"/><path opacity=".1" d="M63 163.25c3.68 5.2 4 10.43 3.69 12.47a16.549 16.549 0 0 0-1.77-14.27l-1.92 1.8Z" fill="#000"/><path d="m120.64 133.61 15.47 4.81c2.65.91 12.69 7 9.18 22.14-1.16 5-2.74 12-4.17 19-1.09 5.36 2.92 15.67 6.15 32.08 0 0-13.26 10.55-39.63 7.58-20.12-2.27-22.3-9.8-22.3-9.8.56-18.73 2.22-26 2.18-33.08a17.161 17.161 0 0 1-3.06-9.95c-.13-6.68 1.62-10.27 7.61-17.84 5.69-7.2 9.2-11 9.2-11l19.37-3.94Z" fill="#FAFAFA"/><path d="M108 135.48c-.72.27-7 1.9-7 1.9-8.12 6.87-13.38 14.9-15.36 19.46-2.37 5.47-2.69 11.5-2.83 20.09-.12 7.48-2.13 29.35-2.13 40.23.81 2.9 5.7 5.61 5.7 5.61.35 3.8 2-37.38 4-57.27C92.94 148 106 139 109 137l-1-1.52Zm19.86-1.27v2.27c-3.86 12.72-3.75 29-3.84 40.93-.19 25 3.45 51.55 3.45 51.55s15.69 2.79 22.76-6.76c0 0-4.13-15.26-6.5-29.76-1.41-8.59 4.31-29.61 2.83-42.05-.62-5.19-2-9.51-5.92-10.73-3.17-1.01-12.78-5.45-12.78-5.45Z" fill="#EBEBEB"/><path d="m96.91 142.74-.14.11v.19l.49 2c-2.19 1.83-4.36 3.67-6.5 5.55l-.12.11v.15c-.36 2.55-.7 5.1-1 7.67-.13 1.28-.27 2.56-.37 3.84-.1 1.28-.19 2.58-.21 3.87l1.21-7.63c.41-2.48.78-5 1.15-7.46a379.13 379.13 0 0 0 6.46-5.7l.18-.16-.06-.21-.62-2c.82-.76 1.65-1.5 2.46-2.28.81-.78 1.72-1.62 2.56-2.45-1 .71-1.87 1.45-2.8 2.18-.93.73-1.77 1.48-2.69 2.22Zm35.86 1.37-.06-.17c-.45-1.25-.89-2.49-1.36-3.73-.47-1.24-.92-2.48-1.4-3.71.34 1.28.72 2.55 1.09 3.82.37 1.27.72 2.4 1.09 3.6l-3.2 2.51-.21.16.1.26 2.6 6.93c-.79 1.65-1.49 3.33-2.21 5s-1.45 3.48-2.1 5.25c-.65 1.77-1.27 3.56-1.82 5.36a32.916 32.916 0 0 0-1.23 5.53c.428-1.832.98-3.632 1.65-5.39.63-1.77 1.32-3.51 2.05-5.24.73-1.73 1.43-3.48 2.2-5.19.77-1.71 1.55-3.43 2.31-5.14l.08-.17-.06-.16-2.69-6.81 3-2.59.17-.12Zm-23.14-25.73c-.76-1.74-1.4-3.71-2.69-5.15-1.29-1.44-3-2.26-4.55-3.38l-4.87-3.59c-5.9-3.86-7.6-12.51-5.39-16.42 5.1-9 17-11.32 23.3-11.12 12 .37 17.52 4 18.22 10.23 3.67.32 5.64 2.22 7.36 5 1.4 2.25 1.72 4 1.35 10.7a14.394 14.394 0 0 0 .56 4.76c.74 2.13 2.44 4.34 3 6.51.79 2.212.79 4.628 0 6.84a8.993 8.993 0 0 1-5.07 5.16 6.554 6.554 0 0 0 0-5.45c-.44 2.39-1.14 5.14-3.36 6.13-2.22.99-4.94-.41-7.4 0-1.6.28-3 1.34-4.59 1.64-.75.14-2.76.25-3.22-.57-.46-.82.45-2.13 0-3.12-.57-1.26-3.48-2-4.75-2.6-2.36-1.2-6.73-2.89-7.9-5.57Z" fill="#E0E0E0"/><path opacity=".1" d="M109.63 118.38c-.76-1.74-1.4-3.71-2.69-5.15-1.29-1.44-3-2.26-4.55-3.38l-4.87-3.59c-5.9-3.86-7.6-12.51-5.39-16.42 5.1-9 17-11.32 23.3-11.12 12 .37 17.52 4 18.22 10.23 3.67.32 5.64 2.22 7.36 5 1.4 2.25 1.72 4 1.35 10.7a14.394 14.394 0 0 0 .56 4.76c.74 2.13 2.44 4.34 3 6.51.79 2.212.79 4.628 0 6.84a8.993 8.993 0 0 1-5.07 5.16 6.554 6.554 0 0 0 0-5.45c-.44 2.39-1.14 5.14-3.36 6.13-2.22.99-4.94-.41-7.4 0-1.6.28-3 1.34-4.59 1.64-.75.14-2.76.25-3.22-.57-.46-.82.45-2.13 0-3.12-.57-1.26-3.48-2-4.75-2.6-2.36-1.2-6.73-2.89-7.9-5.57Z" fill="#000"/><path d="M111.41 93.52c-.45-5.77-6.84-11.64-14.35-8.08a11.53 11.53 0 0 0-6.54 9.31 14.51 14.51 0 0 0 .39 5.33c.55 2.12 2 3.51.61 5.75-.76 1.21-1.93 2.13-2.78 3.3a7.91 7.91 0 0 0 1.72 10.64 5.81 5.81 0 0 1 2.28-6.59c-1.33 2.29-.76 5.59-.54 7.4.8 6.65 5.8 10.42 11.06 11.75 4.45 1.15 13.09-.13 13.86-3.85.34-1.68-2.66-5-2.79-6.75-.16-2.053-.333-4.1-.52-6.14-.61-6.7-1.34-13.38-2.15-20-.08-.72-.16-1.4-.25-2.07Z" fill="#E0E0E0"/><path opacity=".2" d="M111.41 93.52c-.45-5.77-6.84-11.64-14.35-8.08a11.53 11.53 0 0 0-6.54 9.31 14.51 14.51 0 0 0 .39 5.33c.55 2.12 2 3.51.61 5.75-.76 1.21-1.93 2.13-2.78 3.3a7.91 7.91 0 0 0 1.72 10.64 5.81 5.81 0 0 1 2.28-6.59c-1.33 2.29-.76 5.59-.54 7.4.8 6.65 5.8 10.42 11.06 11.75 4.45 1.15 13.09-.13 13.86-3.85.34-1.68-2.66-5-2.79-6.75-.16-2.053-.333-4.1-.52-6.14-.61-6.7-1.34-13.38-2.15-20-.08-.72-.16-1.4-.25-2.07Z" fill="#000"/><path d="M126.81 133.46c.07-2 .8-11.82.8-11.82 0 .74 3.54 2.91 6.91-.75s3.16-9.19.87-11.44c-3.54-3.49-8.85-.66-9.6 4.12-2.8 1.41-3.68-2-1.77-5.92-.14-3.18-3.42-3.69-3-10.61-.27-3.45-5.46-6-9.6-3.52a7.48 7.48 0 0 0-12.18 1.56c-1.92 4-2.5 4.06-2.16 9.09.13 1.78-1.37 3.91-1.58 6.27-.9 10.45 1.49 16.48 4.76 18.39 2.19 1.29 5.92 1.69 8.13 1.51l-.08 2.7c-.14 1.65 0 3.14-1.65 3.6-.72 1.05-3.82 10.37-3.52 23.32 10.47-10.56 23.31-22.13 24.09-23.72-.39-.65-.49-.81-.42-2.78Z" fill="#F0F0F0"/><path d="m113.68 117.08-5.44 1.23a2.729 2.729 0 0 0 1.172 1.798 2.729 2.729 0 0 0 2.108.402 2.92 2.92 0 0 0 2.16-3.43Z" fill="#E0E0E0"/><path opacity=".2" d="m113.68 117.08-5.44 1.23a2.729 2.729 0 0 0 1.172 1.798 2.729 2.729 0 0 0 2.108.402 2.92 2.92 0 0 0 2.16-3.43Z" fill="#000"/><path d="M113.24 118.28a3.082 3.082 0 0 0-3.27 2.11 2.633 2.633 0 0 0 1.55.12 2.853 2.853 0 0 0 2.12-2.15 2.599 2.599 0 0 0-.4-.08Z" fill="#FAFAFA"/><path d="m99.28 101.59 4.28-1.2a2.144 2.144 0 0 0-1.811-1.644 2.14 2.14 0 0 0-.859.064 2.33 2.33 0 0 0-1.61 2.78Zm18.56 1.57-4.1-1.85a2.15 2.15 0 0 1 1.197-1.212 2.157 2.157 0 0 1 1.703.032 2.384 2.384 0 0 1 1.2 3.03Zm-14.61 2.96c.029.486-.131.965-.445 1.338a1.904 1.904 0 0 1-1.954.607 1.793 1.793 0 0 1-1.291-1.555 1.91 1.91 0 0 1 1.69-2 1.793 1.793 0 0 1 2 1.61Zm12.97.81a1.911 1.911 0 0 1-1.68 2 1.794 1.794 0 0 1-1.795-.938 1.793 1.793 0 0 1-.205-.682 1.903 1.903 0 0 1 .445-1.338 1.904 1.904 0 0 1 1.954-.605 1.773 1.773 0 0 1 1.281 1.563Z" fill="#E0E0E0"/><path d="m99.28 101.59 4.28-1.2a2.144 2.144 0 0 0-1.811-1.644 2.14 2.14 0 0 0-.859.064 2.33 2.33 0 0 0-1.61 2.78Zm18.56 1.57-4.1-1.85a2.15 2.15 0 0 1 1.197-1.212 2.157 2.157 0 0 1 1.703.032 2.384 2.384 0 0 1 1.2 3.03Zm-14.61 2.96c.029.486-.131.965-.445 1.338a1.904 1.904 0 0 1-1.954.607 1.793 1.793 0 0 1-1.291-1.555 1.91 1.91 0 0 1 1.69-2 1.793 1.793 0 0 1 2 1.61Zm12.97.81a1.911 1.911 0 0 1-1.68 2 1.794 1.794 0 0 1-1.795-.938 1.793 1.793 0 0 1-.205-.682 1.903 1.903 0 0 1 .445-1.338 1.904 1.904 0 0 1 1.954-.605 1.773 1.773 0 0 1 1.281 1.563Z" opacity=".2" fill="#000"/><path d="m102.56 113.12 5.71 1.86 1.16-10.49c-2.33.1-4.6 4.02-6.87 8.63Zm5.82 17.22a21.743 21.743 0 0 0 11.55-2.93 13 13 0 0 0 4.32-4.41s-1.13 3.85-3.76 5.85c-4.88 3.71-12.16 3.43-12.16 3.43l.05-1.94Z" fill="#E0E0E0"/><path d="M103.13 160c-2.27-5.73-2.43-8.05-1.66-10.91.77-2.86 3.35-12.17 6.8-15.61l-.34 4.49a87.053 87.053 0 0 0-4.8 22.03Z" fill="#F5F5F5"/><path d="M103.13 160a28.148 28.148 0 0 0 2.76-5.91c.78-2.74 1.7-4.24 6.87-7.84 5.17-3.6 13-11.86 14.11-13.84L127 131s.9.17.92 2.66v2.78c-3.48 5.78-14.44 14.76-24.79 23.56Z" fill="#F5F5F5"/><path d="M154.31 231.38c1.26-1.37 2.87-2.58 3.39-4.44a3.167 3.167 0 0 0-.45-2.83 1.378 1.378 0 0 1-.34-.52 1.252 1.252 0 0 1 0-.51 3.455 3.455 0 0 0-.14-2.11 2.154 2.154 0 0 0-1.35-1.14 5.004 5.004 0 0 0 0-3.19c-.42-1.21-1.67-2.18-2.49-.82a11.512 11.512 0 0 0-.95 2.12 25.39 25.39 0 0 0-1.21 5.65c-.2 2-.68 7.68 2.43 7.95.25.02.93.03 1.11-.16Z" fill="#E0E0E0"/><path d="M142.13 140.61c12.3 3.41 12.65 7.52 19.77 17.32a189.874 189.874 0 0 1 14 22.2c3.11 5.73 3.55 7.79-2.17 15.13-2.82 3.62-5.71 6.68-11 12.5-3.38 3.71-7.05 7.5-10.58 11.25a4.35 4.35 0 0 0-1 3.89c.254.784.465 1.582.63 2.39a20.16 20.16 0 0 1-.26 3.18 2.775 2.775 0 0 0 1.26 2.73c.48.185 1 .247 1.51.18a11.072 11.072 0 0 1-2.92 1.59 4.501 4.501 0 0 1-3.25-.11c-1-.47-1.71-1.39-2.74-1.7-.56-.17-1.16-.14-1.72-.29a2.842 2.842 0 0 1-1.48-1c-.59-.75-.83-1.82-1.67-2.27a11.422 11.422 0 0 0-1.29-.42 2.887 2.887 0 0 1-1.6-2.14c-.14-.917-.12-1.85.06-2.76a69.659 69.659 0 0 1 1.51-7.32 7.17 7.17 0 0 1 1.18-2.26c.56-.8 1.1-1.63 1.7-2.41 4.11-5.23 14.6-24.93 14.6-24.93l-14.6-18.84s-7.67-15.52.06-25.91Z" fill="#F0F0F0"/><path d="M141.34 139.9c2.26.59 6.69 1.22 10 3.67 3.31 2.45 6.06 7.41 8.81 11.17 2.75 3.76 9.58 13.62 14.53 22.23 4.95 8.61 4.16 9.91 3.37 12.25s-8.44 12.08-14.88 18.86c0 0-5.13.34-8.72-2.11-3.59-2.45-5.24-7.63-5.24-7.63l7.07-13.11-14.19-17.57a39 39 0 0 1-3.71-16.57c-.03-7.09 2.96-11.19 2.96-11.19Z" fill="#E0E0E0"/><path opacity=".1" d="M156.26 185.23c3.63 3.56 9.7 4 11.78 3.88a13.006 13.006 0 0 1-12.89-1.83l1.11-2.05Z" fill="#000"/><path d="M238.8 51.31a24.477 24.477 0 0 1 7 16.66l-.1 2.81a24.58 24.58 0 0 1-49-.58v-2.81a24.584 24.584 0 0 1 29.799-22.88 24.58 24.58 0 0 1 12.301 6.8Z" fill="#fff"/><path d="M202.52 49.44a26.674 26.674 0 0 0-8.176 17.725A26.678 26.678 0 0 0 236.45 90.44l7.55 3.37a1.55 1.55 0 0 0 2.06-2l-3.27-7.62a26.683 26.683 0 0 0-22.438-42.361 26.68 26.68 0 0 0-17.832 7.631v-.02Zm36.26 1.83a24.542 24.542 0 0 1 7 16.65l-.1 2.82a24.581 24.581 0 0 1-49-.49v-2.82a24.588 24.588 0 0 1 15.763-21.918 24.592 24.592 0 0 1 26.377 5.758h-.04Z" fill="#E0E0E0"/><path d="M217.59 83a3.73 3.73 0 0 1-2.73-1.18l-8.47-9a3.742 3.742 0 0 1 2.811-6.423 3.743 3.743 0 0 1 2.639 1.313l5.51 5.88 13-16.5a3.744 3.744 0 0 1 3.955-1.28 3.737 3.737 0 0 1 2.696 3.165 3.743 3.743 0 0 1-.781 2.755l-15.71 19.9a3.752 3.752 0 0 1-2.76 1.37h-.16Z" fill="#15803D"/><path d="m247.13 414.57-3.66-1.93 3.69-.93-.03 2.86Z" fill="#263238"/><path d="M210.12 420.49s44.34-18.75 44.81-15.76c.094.596.07 1.204-.07 1.79l.12-.16-.95 5.52a13.002 13.002 0 0 1-6.9 2.69v-2.86c-1.368.54-2.68 1.21-3.92 2-2.86 1.8-4.75 5-7.83 8.74-2.25 2.72-6.16 3.91-11.92 4.58-6.2.72-11.61-.62-13.1-2.33-1.15-1.4-.48-3.83-.24-4.21Z" fill="#263238"/><path d="M211.35 419.5c.44-.44 2-2.13 4.21-4a82.815 82.815 0 0 1 6.47-5.26 23.294 23.294 0 0 0 3.2-2.52 33.582 33.582 0 0 0 2.25-2.52 47.714 47.714 0 0 0 5.53-8.89c.73-1.49 2.06-4.77 1.86-10.92-.29-9.33-1-12.71-.83-18.76l20.83 3.41c-.7 3.34-1.55 10.81-2 14.62-.64 5.78-1.5 6.31.59 12.16.62 1.72 1.57 3.38 1.6 5.21.07 3-2.32 5.47-5 6.85-2.18 1.15-4.66 1.6-6.78 2.83a21.676 21.676 0 0 0-5.6 5.25c-1.52 1.86-2.76 4.07-4.87 5.35a19.056 19.056 0 0 1-7.2 2.29c-3.18.484-6.409.565-9.61.24-4.46-.44-7.8-2.19-4.65-5.34Z" fill="#B16668"/><path d="M228.7 410.87a8.21 8.21 0 0 0-6.78-.8c-3.3 2.49-6 4.7-8 6.25-2.34 1.88-4.4 3.6-4.37 5.82 0 3.49 13.47 4.89 21.08 1.79a9.369 9.369 0 0 0 5.44-4.54s-.95-4.91-7.37-8.52ZM254.61 399c-1.09-2.27-1.5-3.42-1.5-3.42-2.65 1.36-7.37 7.81-5.46 14.48a10 10 0 0 0 6.72-4.34 6.329 6.329 0 0 0 1.088-3.325 6.329 6.329 0 0 0-.848-3.395Z" fill="#37474F"/><path d="M291 406.66c-1.23 2 .45 9.51.22 14.87-.21 4.87-1.14 12.46.11 18.15 1.25 5.69 6.19 12 12.83 6.56 4.12-3.35 5.76-7.35 6.26-14.36.35-4.87-1.66-11.58-3.38-17.53-2-7-2.79-10.68-2.79-10.68L291 406.66Z" fill="#263238"/><path d="M304.42 370.65c.59 11.35-.66 19.32-.67 26.59.06 3.295.438 6.577 1.13 9.8 1 4.63 2.67 11.06 3.38 14.06 1 4.19 1.74 6.83.33 11.55a6.32 6.32 0 0 1-.46 1.07c-2 3.9-7.12 6.88-8.77 6.42a2.827 2.827 0 0 1-2.89 1 3.459 3.459 0 0 1-.55-.12 4.281 4.281 0 0 1-.56-.22 5.624 5.624 0 0 1-2.77-3.54 8.938 8.938 0 0 1-.28-1c-1.25-5.83-.42-9.62-.32-11.9.1-2.64-.08-6-.36-10.25-.28-4.25-1.41-17.62-2.95-24-1.14-4.45-2.56-10-4.06-16l19.8-3.46Z" fill="#B16668"/><path d="M309.32 426.56c-4.08-1.76-15.86-1.9-17.69 3.85 0 5.4 0 9.06 3.46 13.73 4.59 6.2 10.44-.47 12.67-4.7 2.23-4.23 2.14-9.98 1.56-12.88Zm-22.8-215.8c5.83 10.23 13.69 24.45 14.19 47.49.67 30.75 1.09 52.75 1.29 56.41.2 3.66 2.63 10.46 4.83 28.67s-.77 53-.77 53-2.06 4.07-9.06 4.82c-6.42.68-9.4-2.36-9.4-2.36s-9.66-48.77-12.28-59.72c-2.62-10.95-11.47-58.79-11.47-58.79l-4 35.69S262 326 260.3 342s-7.09 47-7.09 47-2.94 3-9.77 2.7a13.872 13.872 0 0 1-9.35-3.8s-5.35-61.14-5.65-79.27c-.3-18.13.93-69.7 6.18-96.63l51.9-1.24Z" fill="#37474F"/><path d="M240.3 244.84c2.17 7.37 11 11.73 15.4 12.7l4.59 24.2-.43 34.26 4-35.69-4.27-25.81s-13.67-1.75-19.29-9.66Zm44.48 87.46c-1.78-9.38-4-30.73-5.29-40.23-1.29-9.5-2.44-19-3.79-28.53.6 9.58 1.32 19.15 2.29 28.7s3.14 30.95 4.89 40.42c1.75 9.47 3.75 18.81 5.75 28.2s4.07 18.74 6.29 28.08c-1.48-9.48-3.083-18.937-4.81-28.37-1.69-9.44-3.51-18.89-5.33-28.27Zm-48.18-43.72 1.14-25a372.384 372.384 0 0 0-2.64 24.91c-.61 8.35-1.44 23-1.33 31.43.42 8.41 1.2 16.7 2 25s1.8 16.61 2.92 24.9c-.373-8.353-.843-16.687-1.41-25l-.84-12.5c-.28-4.15-.61-8.33-.76-12.46-.15-4.13.3-14.62.42-18.78.12-4.16.34-8.33.5-12.5Z" fill="#263238"/><path d="M185.63 221.74a60 60 0 0 0-6.49-1.69c-1.66-.37-2.66.26-6.73 2.35-4.23 2.17-5 3.2-5.41 4.47a2.757 2.757 0 0 0 1 3.08c-1.33.78-1.28 3.19.55 4.11a2.197 2.197 0 0 0-.1 2.957c.234.276.533.49.87.623-.66.7-.45 3.46 2 4.15 2.125.51 4.284.864 6.46 1.06l7.85-21.11Z" fill="#9A4A4D"/><path d="M197.24 408.37 160.37 76.51l2.82-.32 36.88 331.89c.08 1.12-2.73 1.38-2.83.29Z" fill="#455A64"/><path d="M163.5 78.92c13.06 3.12 22.2 10.4 29.88 28.77 5.45 13 15.82 27.9 25.19 28.09l-5.25 43.32s-11.85 0-22.38-10.71-12-29.51-20.86-30.26c-1.36-12.16-4.23-38-4.23-38l-2.35-21.21Z" fill="#15803D"/><path opacity=".15" d="M198.73 150c-.19-.33-.29-.69-.47-1-.18-.31-.38-.52-.55-.77-.35-.5-.72-1-1.08-1.5-.66-.92-1.3-1.87-1.91-2.83a55.111 55.111 0 0 1-3.32-6 63.888 63.888 0 0 1-4.61-14.2 53.23 53.23 0 0 1-1-8.25c0-.13-.17-.17-.17 0a49.127 49.127 0 0 0 1.66 14.69 53.998 53.998 0 0 0 5.78 13.45 47.13 47.13 0 0 0 2.2 3.35c.38.54.78 1.06 1.19 1.58.25.3.5.61.77.89s.79.61 1.16.94a.247.247 0 0 0 .35-.35Z" fill="#000"/><path opacity=".1" d="M182.07 142.86c-3.56-10-8.28-13.47-11.06-25.15-2.78-11.68-7.51-38.79-7.51-38.79l2.35 21.18s2.87 25.87 4.23 38c8.88.75 10.26 19.48 20.86 30.26 10.6 10.78 22.38 10.71 22.38 10.71-4.2-.8-9.59-1.59-18.5-10.1-6.41-6.09-9.19-16.1-12.75-26.11Z" fill="#000"/><path d="M177.8 242.85c.8 0 1.87-1.22 2.64-2s1.76-1.82 1.7-2.55c-.07-1-1.51-1.09-1.51-1.09.263-.175.507-.376.73-.6.94-.85-.67-2.1-2.14-1.61 0 0 .63-.35.66-.76a1.89 1.89 0 0 0-.592-1.374 1.89 1.89 0 0 0-1.408-.506c1.05-.48.73-1.95.06-3.1h-.78c-1.08 4.06-.71 8.66.64 13.59Z" fill="#9A4A4D"/><path opacity=".3" d="M169.33 237.64c.936.374 1.899.678 2.88.91 1 .25 2 .51 2.94.66a4.47 4.47 0 0 0 2.82-.6c.9-.43 1.79-.92 2.66-1.44a15.574 15.574 0 0 1-2.54 1.69 4.546 4.546 0 0 1-3 .71 21.502 21.502 0 0 1-3-.75 13.504 13.504 0 0 1-2.76-1.18Zm9.89-2.64c-.841.405-1.706.759-2.59 1.06a3.99 3.99 0 0 1-1.43.2 11.453 11.453 0 0 1-1.38-.32 53.69 53.69 0 0 1-5.26-1.84c1.81.43 3.58 1 5.36 1.48.432.143.873.26 1.32.35.442.023.885-.028 1.31-.15.89-.26 1.77-.57 2.67-.78Zm-1.3-2.68a5.42 5.42 0 0 1-2.59.48 15.97 15.97 0 0 1-2.52-.78A52.333 52.333 0 0 1 168 230c1.67.5 3.29 1.13 4.93 1.73.797.329 1.611.613 2.44.85a6.723 6.723 0 0 0 2.55-.26Z" fill="#000"/><path d="M164.87 76.64a3.138 3.138 0 0 1-2.22 2.691 3.14 3.14 0 1 1 .584-5.775 3.13 3.13 0 0 1 1.636 3.084Z" fill="#37474F"/><path d="M213.65 229.17s-10.63 4-17.43 6.58c-5.2 2-5.28 2.75-7 4.47-1.94 1.92-7.53 2.19-7.53 2.19l-.29-2.61c.429-.399.702-.938.77-1.52a1.234 1.234 0 0 0-1-1l-.05-.39.33-.28c.56-.53.19-1.19-.53-1.52l-.25-2.2a15.86 15.86 0 0 1-2.14-2.57 5.736 5.736 0 0 1-.46-1.05 5.873 5.873 0 0 0-.65 0 7.483 7.483 0 0 0-3.61 1c-.92 1.58-2.33 3.49-4.63 3.44-1.88-.06-1.86-.93-.89-2.82 1.29-2.61 1.75-3.87 2.78-5.17.7-.89 3.42-2.12 5.62-3 1-.41 1.94-.75 2.49-1 .084-.036.171-.066.26-.09 1.58-.54 2.94-.44 5.86.05a10 10 0 0 0 5.57-.33c1.54-.41 9.64-4.77 9.64-4.77l13.14 12.59Z" fill="#B16668"/><path d="M188.49 236a13.6 13.6 0 0 1-6.93-.31 1.386 1.386 0 0 0-.72-.66l-.25-2.2c1.58 2.25 4.97 3.27 7.9 3.17Z" fill="#9A4A4D"/><path d="m198 217.7-4.32 2.08a10.586 10.586 0 0 1 5.11 6.73c.572 2.717.741 5.504.5 8.27l5-1.75a22.555 22.555 0 0 0-1-8.39 16.393 16.393 0 0 0-5.29-6.94Z" fill="#FAFAFA"/><path d="M240.8 159c-9.68 1.47-12.32 7.94-18.31 25.5-5.07 14.84-7.49 21.6-7.49 21.6l-18.65 12.22s7.67 1.87 6.53 15.33c0 0 10.13-3.53 22-7.7 6.52-2.31 6.49-5.52 9.4-12.28 3.33-7.74 7.6-22.29 7.6-22.29L240.8 159Z" fill="#15803D"/><path d="M293.91 224.24c1.81-3.08-5-12.56-4.16-21.29.53-5.55 4.77-17.13 4.77-17.13a48.355 48.355 0 0 1-9.69-36.09l-13.29 2.81-20.37 4-8 2.19c-2.74 2.36-7.76 6.07-11.79 11.77-5.83 8.23-5.8 18.83.15 25.59.06 1.32.79 19.51.13 26.88-.18 2.05-1.43 4.64-.15 7.28 5.74 9.43 42.99 14.48 62.4-6.01Z" fill="#FAFAFA"/><path d="M247.45 100a15.832 15.832 0 0 0 3.71-.24c2.24-.5 3.1-1.34 4.58-3.09 3.15-3.71 8.95-3.54 12.43-.34 1.19 1 2.45 2.46 4 2.16.84-.16 1.83-.91 3.34-1.36a6.07 6.07 0 0 1 6.32 2.25c.72 1.2.58 2.73.68 4.13a3.681 3.681 0 0 0 2.1 3.25 2.197 2.197 0 0 0 2.588-.883c.178-.277.291-.59.332-.917 1.53.88 1.65 3.35.58 4.78a6.211 6.211 0 0 1-4.63 2.14c3.21 0 6.59 3 5.64 6.53-.43 1.55-1.72 2.81-1.77 4.43-.08 2 1.66 3.81 2 5.79a6.912 6.912 0 0 1-.88 4.84 7.49 7.49 0 0 1-2.47 1.95 6.642 6.642 0 0 0-1.75 1.13 5.147 5.147 0 0 0-.91 1.44c-.81 1.71-1.53 3.55-3 4.8-1.86 1.62-4.52 1.88-7 1.88-2.48 0-5-.17-7.3.82a17.802 17.802 0 0 0-2.95 1.79c-3 2-6.71 3.74-10.16 2.62-1.58-.51-2.92-1.57-4.45-2.24a9.622 9.622 0 0 0-4-.81c-1.45 0-2.77.55-4.19.6a5.726 5.726 0 0 1-4.61-2.26 7.223 7.223 0 0 1-1.39-5 5.257 5.257 0 0 0-2.35 4.9 7.214 7.214 0 0 1-1.61-8.41c.67-1.32 1.75-2.41 2.41-3.74 1.23-2.44-.23-5-1.34-7.21-1.31-2.57-2.21-5.82-.6-8.21 1.61-2.39 4.77-2.9 6.16-5.24.9-1.5.81-3.37 1.08-5.1.43-2.88 2.13-5.76 4.87-6.71a12.904 12.904 0 0 1 4.54-.47Z" fill="#263238"/><path d="M247.6 140.43a5.215 5.215 0 0 1-5.38-1.21c-3.43-2.88-3.74-6.53-2.65-8.94.9-2 2.51-3 5.29-2.67 2.49.32 3 1.48 4 2.87 1 1.39 4.25.82 2.76-5.09 3.84-2.48.39-8.27 2.23-11.37 2.88-4.85 8.75-4.48 10.74-3.69a7.51 7.51 0 0 1 7.72-1.54c2.95 1.11 5.2 4 7.6 14.51 2.45 10.74 1.33 18.9-.87 21.54-1.52 1.82-3.86 3.21-7.71 3.5l.33 6.72s-3.84 9.88-16.94 10.54c-9.1.46-3.56-9-3.56-9l-1.65-18s.15 1.15-1.91 1.83Z" fill="#B16668"/><path d="m261.41 118.65-3.41 2.74a2.29 2.29 0 0 1 .35-3.15 2.103 2.103 0 0 1 1.619-.461 2.117 2.117 0 0 1 1.441.871Zm15.15-.1-4.23-1.12a2.089 2.089 0 0 1 2.6-1.6 2.303 2.303 0 0 1 1.63 2.72Z" fill="#263238"/><path d="m263.84 135.78 6.18.8a3.007 3.007 0 0 1-1.098 2.092 3.01 3.01 0 0 1-2.272.648 3.291 3.291 0 0 1-2.81-3.54Z" fill="#9A4A4D"/><path d="M267.83 139.24a3.209 3.209 0 0 0-3.25-2.32 3.07 3.07 0 0 0-.61.1 3.277 3.277 0 0 0 2.68 2.3c.395.05.795.022 1.18-.08Z" fill="#F28F8F"/><path d="M276.65 121.89a1.774 1.774 0 0 1-1.023 2.532 1.768 1.768 0 0 1-2.108-2.494 1.763 1.763 0 0 1 1.374-.952 1.765 1.765 0 0 1 1.757.914ZM263.53 124a1.769 1.769 0 0 1-2.037 2.554 1.774 1.774 0 0 1-1.092-2.504c.158-.311.405-.569.709-.74a1.79 1.79 0 0 1 2.42.69Z" fill="#263238"/><path d="m267.24 121.39 2.43 11.37 6.05-2.68c-2.16-4.29-5.78-6.87-8.48-8.69Zm4.1 26.95c-5.54.53-15.76 1.18-18.84-8.89a11.582 11.582 0 0 0 9.25 10.84c3.203.551 6.463.685 9.7.4l-.11-2.35Z" fill="#9A4A4D"/><path d="M251.17 156.57 240.8 159c-7.17 6.38-14.68 16.26-14.55 24.3a22.491 22.491 0 0 0 4.52 13.23s1.41 16.27.23 25-4.75 31.67-4.75 31.67a61.882 61.882 0 0 0 11.75 3.56c1.08-11.19 2.69-52 1.65-61.73-1.04-9.73-2.49-25.03 11.52-38.46Z" fill="#15803D"/><path opacity=".3" d="M251.17 156.57 240.8 159c-7.17 6.38-14.68 16.26-14.55 24.3a22.491 22.491 0 0 0 4.52 13.23s1.41 16.27.23 25-4.75 31.67-4.75 31.67a61.882 61.882 0 0 0 11.75 3.56c1.08-11.19 2.69-52 1.65-61.73-1.04-9.73-2.49-25.03 11.52-38.46Z" fill="#000"/><path opacity=".2" d="M238.78 199.65c-.84-2.53-1.74-5-2.64-7.54-.9-2.54-1.78-5-2.62-7.52a29.668 29.668 0 0 1-1-3.8c-.29-1.2.49-2.28 1.28-3.31a35.58 35.58 0 0 1 5.7-5.4l.2-.16-.07-.23a13.254 13.254 0 0 1-.32-4.22c.119-1.421.51-2.806 1.15-4.08a12.673 12.673 0 0 1 2.74-3.29c1.1-.96 2.3-1.798 3.58-2.5a18.066 18.066 0 0 0-3.76 2.28 11.656 11.656 0 0 0-3 3.27 11.49 11.49 0 0 0-1.36 4.26 12.333 12.333 0 0 0 .27 4.48l.12-.39a34.87 34.87 0 0 0-5.9 5.5 9.003 9.003 0 0 0-1.11 1.75 2.79 2.79 0 0 0-.19.51 1.687 1.687 0 0 0-.13.55c-.039.37-.023.745.05 1.11.28 1.317.651 2.614 1.11 3.88.85 2.54 1.87 5 2.85 7.47.98 2.47 2.02 4.92 3.05 7.38Z" fill="#000"/><path d="M271.6 151.84s-3 4.56-6.62 15c-3.62 10.44-7.15 20-6.33 29.35.82 9.35 3.24 61.65 3.24 61.65s16.73.06 28.51-4.92l-1.69-15.78 4.59 14.42s7.65-3.22 9.65-5.34c-4.26-21.26-11.44-31.82-12.37-39-.63-4.93 3.8-14.77 6.51-26.89 2.23-10-11.76-32.76-11.76-32.76-2.2 1.97-6.48 3.43-13.73 4.27Z" fill="#15803D"/><path opacity=".3" d="M271.6 151.84s-3 4.56-6.62 15c-3.62 10.44-7.15 20-6.33 29.35.82 9.35 3.24 61.65 3.24 61.65s16.73.06 28.51-4.92l-1.69-15.78 4.59 14.42s7.65-3.22 9.65-5.34c-4.26-21.26-11.44-31.82-12.37-39-.63-4.93 3.8-14.77 6.51-26.89 2.23-10-11.76-32.76-11.76-32.76-2.2 1.97-6.48 3.43-13.73 4.27Z" fill="#000"/><path opacity=".2" d="M260.65 198.87a21.847 21.847 0 0 1 3.17-6.77c1.35-2.11 2.85-4.12 4.4-6.1.75-1 1.54-2 2.32-3l1.18-1.47c.2-.26.4-.49.6-.78.057-.072.107-.149.15-.23 0-.12.09-.25.13-.37a2.74 2.74 0 0 0 0-.64 11.53 11.53 0 0 0-1.61-3.63c-.68-1.08-1.41-2.12-2.19-3.14v.63l3.53-4.19 1.75-2.1.43-.53.22-.27a1.71 1.71 0 0 0 .29-.42 1.812 1.812 0 0 0 0-.86c0-.24-.08-.48-.13-.71a43.777 43.777 0 0 0-1.73-5.26c-.68-1.71-1.37-3.41-2.14-5.08.58 1.74 1.17 3.48 1.71 5.23a50.413 50.413 0 0 1 1.45 5.26c.093.372.117.759.07 1.14.06-.1 0 .06-.12.13l-.23.26-.46.51-1.82 2.07-3.62 4.22-.26.29.24.33c.74 1 1.44 2 2.09 3.09a10.936 10.936 0 0 1 1.5 3.21c.01.1.01.2 0 .3a.18.18 0 0 0 0 .08s-.07.11-.1.16c-.15.23-.36.49-.54.73l-1.16 1.49c-.77 1-1.54 2-2.3 3-1.47 2-2.89 4.15-4.16 6.35a30.714 30.714 0 0 0-1.68 3.41 12.905 12.905 0 0 0-.98 3.66Z" fill="#000"/><path d="M330 83.73c.41-7.3-1.6-12.35-1.65-13.88-.07-2-.92-2.59-.92-2.59a2.1 2.1 0 0 0-1.49-2.08c-.25-1.72-1.27-1.69-4.54-2.6-3.27-.91-7.1-2.12-8.3-1.58-1.2.54-1.77 1.78-1.8 4a3.53 3.53 0 0 0-3.26.55c-1.3.81-1.87 1.52-1.09 3.83s2.37 3.81 2.53 5.83a9.19 9.19 0 0 0 3.14 6.1 6.776 6.776 0 0 1 2.56 2.4c.49 1 .44 2 .11 4.78-.28 2.34-4.73 25.18-4.73 25.18l17.62 4.33s1-18.69 1.44-28.38c.11-2.3.3-4.89.38-5.89Z" fill="#B16668"/><path d="M322.79 63.76c-1.37-.35-2.76-.6-4.14-.89-.73-.15-1.45-.31-2.18-.45a4.19 4.19 0 0 0-2-.05 3.294 3.294 0 0 0-2 2.23 19.857 19.857 0 0 0-.94 3.79 2.807 2.807 0 0 0 .16 1.92 1.31 1.31 0 0 0 1.32.66c.27 0 0-.43-.2-.4-.74.12-1-.76-.94-1.32.047-.6.144-1.196.29-1.78.189-1.03.49-2.036.9-3a2.839 2.839 0 0 1 2-1.81 5.46 5.46 0 0 1 1.88.17l1.79.33c1.33.24 2.67.54 4 .72.12.03.12-.11.06-.12Z" fill="#9A4A4D"/><path d="M322.5 65a40.423 40.423 0 0 0-4.06-.92 19.65 19.65 0 0 0-2-.29 2.09 2.09 0 0 0-1.45.4 5.192 5.192 0 0 0-1.47 3c-.16.66-.28 1.34-.39 2a9.823 9.823 0 0 0-.23 2c.1 1.32 1.55 1.91 2.72 1.87.31 0 .12-.43-.13-.42a2.65 2.65 0 0 1-1.74-.52 1.614 1.614 0 0 1-.37-1.65c.128-1.18.342-2.35.64-3.5.178-.968.67-1.85 1.4-2.51a2.07 2.07 0 0 1 1.52-.28c.56 0 1.13.12 1.69.2a39.33 39.33 0 0 1 3.89.77c.06-.02.05-.15-.02-.15Z" fill="#9A4A4D"/><path d="M319.05 66.45a3.899 3.899 0 0 0-1.63.16 2.05 2.05 0 0 0-1 .94 9.178 9.178 0 0 0-.86 3.57 15.433 15.433 0 0 0-.11 1.91 1.59 1.59 0 0 0 .65 1.27 7.288 7.288 0 0 0 3.81 1.22c.28 0 .14-.38-.08-.39a7.741 7.741 0 0 1-2.13-.42c-.54-.2-1.46-.5-1.74-1a2.272 2.272 0 0 1-.09-1.13c0-.36 0-.71.07-1.07.053-.672.15-1.34.29-2a5.339 5.339 0 0 1 .68-1.86 1.996 1.996 0 0 1 1.75-.77c1.51 0 3 .2 4.51.27a15.202 15.202 0 0 0-4.12-.7Z" fill="#9A4A4D"/><path d="M321 72.87a3.426 3.426 0 0 0-.42-.51.593.593 0 0 0 0-.23 2.085 2.085 0 0 0 0-.25 2.5 2.5 0 0 0-.09-.47 3.619 3.619 0 0 0-.36-.89c0-.06-.07 0-.06.08.129.263.211.548.24.84v.67a2.439 2.439 0 0 0-.9-.51c-.09 0-.06.14 0 .17.243.129.474.28.69.45.237.207.439.45.6.72.149.232.264.485.34.75.125.32.142.67.05 1-.08.21.34.45.42.21a1.657 1.657 0 0 0 0-1 3.427 3.427 0 0 0-.51-1.03Z" fill="#9A4A4D"/><path d="M323.14 74.53a3.822 3.822 0 0 0-.66-.08 3.767 3.767 0 0 0-.67 0 5.319 5.319 0 0 0-1.41.36 5.998 5.998 0 0 0-2.2 1.56 5.423 5.423 0 0 0-1.13 5.24c0 .08.1 0 .09 0a6.562 6.562 0 0 1 1.39-4.84 5.946 5.946 0 0 1 2-1.53c.404-.18.822-.328 1.25-.44.181-.046.365-.083.55-.11l.78-.1s.04-.05.01-.06Zm-11.43-4.59a2.49 2.49 0 0 1-1.71-.14c-.56-.24-1.05-.61-1.58-.89v.06c.87.92 2.18 1.77 3.5 1.36.23-.08 0-.46-.21-.39Zm.48-3.48a1.911 1.911 0 0 0-.44-.93c-.08-.1-.14-.09-.1 0 .052.15.089.303.11.46.075.427.125.857.15 1.29a.072.072 0 0 0 .02.015.06.06 0 0 0 .07-.015c.05 0 .05-.07.11-.07s.1-.14.11-.2a.81.81 0 0 0 0-.22 2.282 2.282 0 0 0-.03-.33Zm.55 4.21a.24.24 0 0 0-.29-.1 3.394 3.394 0 0 0-1.37 1 3.007 3.007 0 0 0-.43.7 3.034 3.034 0 0 0-.15.39c-.03.185-.05.372-.06.56 0 .05.06.12.08.05.054-.144.124-.282.21-.41.06-.12.11-.24.18-.36a4.63 4.63 0 0 1 .49-.67c.366-.4.817-.715 1.32-.92.11-.02.07-.17.02-.24Z" fill="#9A4A4D"/><path d="m313.83 94.6.83-5.28a14.31 14.31 0 0 0 6.88 4.55 12.22 12.22 0 0 0 8.14-.05l-.34 5.43c-3.236.51-6.546.246-9.66-.77-4.55-1.71-5.85-3.88-5.85-3.88Z" fill="#FAFAFA"/><path d="M285.47 147.51c4.74-5.86 8.69-7.79 11.09-10.77 3.91-4.86 11.95-18 11.95-18L314 91.47c1.42 5 12.58 8.1 15.66 5.59 0 0-.4 9.59-1 26.76-.22 5.91-.87 7-8.51 18.24-3.61 5.32-7.23 11.05-13 19.94-4.18 6.42-8 12.4-10.13 18.76-.56 2.7-6.13 2.64-9.94-6-4.22-9.6-2.4-23.92-1.61-27.25Z" fill="#15803D"/></svg>