<svg fill="none" xmlns="http://www.w3.org/2000/svg" viewBox="0 0 218 211"><path d="M112.529 29.84c-.036 4.263 3.892 12.988 3.892 12.988s5.034-4.379 5.236-4.636c3.229-3.654 7.313-12.58 4.531-17.27a6.464 6.464 0 0 0-9.45-1.62c-3.091 2.186-4.157 6.917-4.209 10.539Z" fill="#15803D"/><path d="M88.329 43.68c1.05 3.966 6.651 10.853 7.176 11.354a114.584 114.584 0 0 0-11.162 10.358c-2.029 2.14-4.028 4.366-5.998 6.599.736-1.14 1.402-2.186 1.473-2.36 2.143-4.346 3.727-14.059-.188-17.825a6.44 6.44 0 0 0-9.596.864c-2.385 3.015-2.177 7.747-1.285 11.214.891 3.468 5.556 9.49 6.865 11.108l-2.26 2.598c-3.56 4.2-7.09 8.408-10.7 12.406-1.26 1.421-2.567 2.767-3.863 4.133.666-1.046 1.212-1.91 1.295-2.067 2.15-4.375 3.727-14.058-.2-17.843a6.419 6.419 0 0 0-9.519.945c-2.384 3.016-2.195 7.76-1.303 11.227.891 3.467 5.155 8.937 6.628 10.815-1.357 1.351-2.743 2.696-4.121 3.931-.953.837-1.835 1.705-2.854 2.48l-2.947 2.331c-1.913 1.417-3.888 2.899-5.8 4.237l-3.907 2.704c1.284-1.383 3.73-4.178 3.913-4.423 2.706-3.947 5.795-13.337 2.504-17.68a6.44 6.44 0 0 0-9.575-.502c-2.808 2.634-3.337 7.31-2.943 10.937.41 3.98 4.706 11.354 5.189 12.323-2.175 1.374-4.21 2.843-6.206 4.13l-5.11 3.23 1.322 3.325c1.858-1.174 3.716-2.349 5.492-3.653 1.776-1.305 4.454-3.075 6.794-4.762a74.19 74.19 0 0 0 6.098 5.533 46.76 46.76 0 0 0-2.212 12.711c-2.575.041-5.15.082-7.447.026-1.64-.004-3.195-.035-4.712-.091l1.413 3.346 3.306-.035c2.598-.004 5.424-.1 8.287-.219.213 1.035 1.893 9.413 4.235 12.666 2.124 2.948 5.633 6.114 9.485 6.201a6.437 6.437 0 0 0 6.384-4.1 6.437 6.437 0 0 0 .428-2.65c-.417-5.432-8.877-10.382-13.625-11.516-.273-.062-3.385-.461-5.344-.679l3.523-.146c2.4-.112 4.723-.385 7.33-.499l3.743-.415c1.253-.116 2.558-.395 3.844-.583 2.994-.488 5.987-1.184 9.01-1.873.102 2.095.598 9.504 2.257 12.746 1.66 3.243 4.656 6.914 8.474 7.647a6.448 6.448 0 0 0 5.13-1.098 6.432 6.432 0 0 0 2.612-4.55c.402-5.454-7.212-11.616-11.68-13.42-.279-.111-3.665-1.065-5.531-1.55 1.792-.456 3.595-.894 5.42-1.423 5.226-1.483 10.493-3.148 15.746-4.752l4.83-1.492c.036.757.419 9.591 2.276 13.228 1.647 3.223 4.644 6.895 8.473 7.646a6.43 6.43 0 0 0 5.132-1.086 6.433 6.433 0 0 0 2.623-4.543c.401-5.454-7.213-11.616-11.682-13.42-.35-.143-5.22-1.512-6.463-1.792 3.527-1.085 7.077-2.133 10.605-3.011a112.821 112.821 0 0 1 14.459-2.716c.004.336.377 9.566 2.292 13.296 1.629 3.236 4.644 6.895 8.474 7.647a6.447 6.447 0 0 0 5.132-1.086 6.436 6.436 0 0 0 2.622-4.544c.401-5.454-7.224-11.635-11.681-13.42-.35-.143-5.619-1.649-6.543-1.794l.845-.144a86.124 86.124 0 0 1 14.736-.056c2.727.201 5.311.544 7.808.916-.103 1.729-.496 9.623.838 13.175 1.335 3.551 3.87 7.357 7.546 8.441a6.442 6.442 0 0 0 8.336-4.749c1.003-5.367-5.902-12.341-10.175-14.659-.241-.134-2.735-1.158-4.565-1.873l3.33.495c4.049.77 7.71 1.707 10.939 2.578 1.829.508 3.489.994 5.02 1.482.787 1.739 3.989 8.739 6.823 11.29 2.835 2.551 6.812 4.77 10.581 4.027a6.416 6.416 0 0 0 4.481-2.849 6.42 6.42 0 0 0 .802-5.25c-1.58-5.216-10.905-8.242-15.654-8.309-.414.002-7.01.634-6.97.739a165.718 165.718 0 0 0-4.805-1.514c-3.197-.943-6.875-1.948-10.922-2.796a110.26 110.26 0 0 0-13.152-2.089 85.162 85.162 0 0 0-14.936-.26l-.148.094c1.49-.604 5.578-2.407 5.856-2.583 4.201-2.447 10.866-9.676 9.69-14.993a6.438 6.438 0 0 0-5.818-4.857 6.441 6.441 0 0 0-2.654.382c-3.652 1.216-6.111 5.267-7.268 8.703-1.32 3.877-.443 12.711-.381 13.426a112.492 112.492 0 0 0-15.008 2.464c-2.888.655-5.785 1.42-8.671 2.204 1.27-.542 2.393-1.07 2.553-1.145 4.189-2.466 10.847-9.665 9.659-14.999a6.436 6.436 0 0 0-5.818-4.858 6.448 6.448 0 0 0-2.654.382c-3.652 1.217-6.092 5.255-7.267 8.703-1.176 3.448-.592 11.036-.403 13.023l-3.304.944c-5.3 1.53-10.558 3.085-15.776 4.458-1.828.48-3.656.881-5.501 1.293l2.201-1.001c4.2-2.447 10.865-9.676 9.69-14.992a6.437 6.437 0 0 0-5.834-4.854 6.445 6.445 0 0 0-2.656.39c-3.646 1.186-6.093 5.255-7.25 8.691-1.157 3.436-.665 10.303-.448 12.662-1.888.387-3.769.744-5.653.972-1.26.146-2.387.339-3.737.464l-3.74.336c-2.389.131-4.874.272-7.2.337-1.623.064-3.172.081-4.722.099 1.822-.45 5.401-1.412 5.685-1.539a24.84 24.84 0 0 0 9.894-7.84 6.328 6.328 0 0 0 1.29-.633 6.47 6.47 0 0 0 2.983-6.929 6.466 6.466 0 0 0-1.097-2.429c-3.354-4.278-13.16-3.748-17.726-2.084-.242.152-3.062 1.492-4.828 2.401 1.003-.634 1.788-1.286 2.844-2.084 1.943-1.41 3.82-2.883 5.847-4.45l2.889-2.424c.988-.781 1.92-1.734 2.9-2.612 2.214-2.051 4.353-4.261 6.458-6.527 1.246 1.683 5.742 7.604 8.937 9.408 3.194 1.803 7.68 3.181 11.193 1.663a6.443 6.443 0 0 0 3.366-8.993c-2.66-4.742-12.419-5.7-17.193-4.736-.3.06-3.631 1.125-5.446 1.752 1.247-1.36 2.512-2.732 3.73-4.179 3.54-4.11 7.011-8.41 10.476-12.68l3.186-3.886c.4.632 5.66 7.76 9.221 9.775 3.152 1.778 7.661 3.193 11.193 1.663a6.447 6.447 0 0 0 3.694-3.744 6.43 6.43 0 0 0-.328-5.249c-2.66-4.742-12.43-5.718-17.192-4.736-.35.064-5.163 1.624-6.363 2.07 2.362-2.845 4.772-5.616 7.174-8.356A115.87 115.87 0 0 1 96.16 56.727c.188.297 5.611 7.766 9.221 9.775 3.152 1.778 7.68 3.181 11.212 1.65a6.417 6.417 0 0 0 3.347-8.98c-2.66-4.742-12.419-5.7-17.193-4.736-.368.076-5.537 1.731-6.467 2.111.223-.141.406-.387.636-.558a83.567 83.567 0 0 1 12.268-8.197c2.375-1.344 4.72-2.489 7.015-3.549.928 1.468 4.884 8.303 7.976 10.562 3.092 2.258 7.299 4.02 10.95 2.883a6.436 6.436 0 0 0 4.084-3.314 6.454 6.454 0 0 0 .253-5.253c-2.123-5.004-11.733-7.043-16.561-6.617l-4.842.98 3.12-1.4c3.802-1.597 7.375-2.815 10.547-3.885a172.342 172.342 0 0 1 5.002-1.549c1.616 1.034 8.158 5.09 11.84 5.649 3.682.56 8.32.202 11.063-2.493a6.434 6.434 0 0 0 2.086-4.815 6.447 6.447 0 0 0-2.188-4.769c-4.203-3.48-13.578-.91-17.766 1.763-.353.223-5.497 4.386-5.413 4.436l.058.093c-1.491.397-3.087.834-4.832 1.364-3.19 1.002-6.798 2.165-10.665 3.699a112.956 112.956 0 0 0-12.136 5.486 84.988 84.988 0 0 0-12.635 7.986l-.149.094c.916-1.307 3.325-5.066 3.473-5.367 2.149-4.376 3.715-14.077-.2-17.843a6.441 6.441 0 0 0-9.596.864c-2.442 2.636-2.253 7.38-1.338 10.884Z" fill="#15803D"/><path d="M148.33 119.684s6.541-.884 6.946-.984c4.684-1.27 13.025-6.464 13.28-11.904a6.457 6.457 0 0 0-2.047-4.829 6.463 6.463 0 0 0-4.954-1.721c-3.853.199-7.28 3.458-9.311 6.458-2.373 3.528-3.895 12.968-3.914 12.98Z" fill="#15803D"/></svg>