<svg fill="none" xmlns="http://www.w3.org/2000/svg" viewBox="0 0 230 270"><path d="M153.969 86.32a31.733 31.733 0 0 0 24.938-22.936c4.842-15.81 2.157-33.292.559-34.425-1.598-1.133-17.085 7.246-25.016 24.86a37.345 37.345 0 0 0-.481 32.5Zm-34.253 22.539a31.651 31.651 0 0 0 11.712-31.78c-2.88-16.24-13.237-30.624-15.199-30.879-1.962-.255-11.922 14.226-10.85 33.501a37.188 37.188 0 0 0 3.814 16.228 37.188 37.188 0 0 0 10.523 12.93Zm6.468 30.913a31.695 31.695 0 0 0 33.325 6.026c15.515-5.677 27.509-16.566 27.421-18.547-.088-1.981-17.708-10.372-34.87-7.632-18.766 2.87-23.291 16.151-25.876 20.153Z" fill="#15803D"/><path opacity=".2" d="M126.184 139.772a31.695 31.695 0 0 0 33.325 6.026c15.515-5.677 27.509-16.566 27.421-18.547-.088-1.981-17.708-10.372-34.87-7.632-18.766 2.87-23.291 16.151-25.876 20.153Z" fill="#fff"/><path d="M4.673 210.32c14.715-2.244 28.536-9.219 41.447-16.274a255.693 255.693 0 0 0 34.53-22.969 325.072 325.072 0 0 0 60.121-61.735c10.829-14.73 21.791-30.841 27.399-48.385.207-.322-.709-.863-.894-.577a257.631 257.631 0 0 1-27.916 41.974 304.484 304.484 0 0 1-29.518 34.105 313.146 313.146 0 0 1-60.669 46.9 432.321 432.321 0 0 1-46.09 21.58 2.805 2.805 0 0 0 1.59 5.381Z" fill="#37474F"/><path d="M112.857 141.748a97.15 97.15 0 0 0 22.359-.751 55.776 55.776 0 0 0 20.439-6.245c.877-.497-.612-.699-1.144-.739a162.669 162.669 0 0 1-18.821 3.036 72.35 72.35 0 0 1-20.343-.883 4.59 4.59 0 0 0-4.558 2.12 2.374 2.374 0 0 0 .077 2.302 2.378 2.378 0 0 0 1.991 1.16Z" fill="#37474F"/><path d="M114.344 139.366a82.071 82.071 0 0 0 8.006-30.274 95.05 95.05 0 0 0 .641-14.321 57.454 57.454 0 0 0-2.851-16.677c-.179-.116-1.069-1.247-1.072-.692.509 5.507.723 11.037.643 16.567a87.167 87.167 0 0 1-1.373 15.064 136.439 136.439 0 0 1-7.965 29.034c-.774 1.982 3.122 2.928 3.971 1.299Z" fill="#37474F"/><path d="M76.217 151.91a31.687 31.687 0 0 0 18.139-28.794c.537-16.514-6.542-32.681-8.416-33.385-1.875-.704-14.64 11.458-17.665 30.569a37.134 37.134 0 0 0 7.942 31.61Z" fill="#15803D"/><path opacity=".4" d="M76.217 151.91a31.687 31.687 0 0 0 18.139-28.794c.537-16.514-6.542-32.681-8.416-33.385-1.875-.704-14.64 11.458-17.665 30.569a37.134 37.134 0 0 0 7.942 31.61Z" fill="#fff"/><path d="M64.411 180.541a81.96 81.96 0 0 0 14.094-27.862 94.507 94.507 0 0 0 3.597-13.88 57.128 57.128 0 0 0 .768-16.872s-.764-1.405-.828-.991a152.539 152.539 0 0 1-2.817 16.359 87.08 87.08 0 0 1-4.498 14.413 135.48 135.48 0 0 1-13.723 26.582c-1.233 1.989 2.438 3.752 3.407 2.251Z" fill="#37474F"/></svg>