<svg fill="none" xmlns="http://www.w3.org/2000/svg" viewBox="0 0 198 207"><path d="M77.304 123.529a31.734 31.734 0 0 0-33.34 6.032c-12.55 10.765-19.636 26.971-18.892 28.783.743 1.812 18.31 3.02 34.435-7.616a37.34 37.34 0 0 0 17.797-27.199Zm40.998-.713a31.641 31.641 0 0 0-26.9 20.58c-6.256 15.261-5.204 32.955-3.682 34.22 1.521 1.265 17.683-5.64 27.091-22.497a37.17 37.17 0 0 0 3.491-32.303Zm11.076-29.576a31.695 31.695 0 0 0-24.928-22.923c-16.145-3.506-32.104-.725-33.09.996-.985 1.72 9.41 18.237 25.375 25.106 17.389 7.616 28.318-1.181 32.643-3.18Z" fill="#15803D"/><path opacity=".2" d="M129.378 93.24a31.695 31.695 0 0 0-24.928-22.923c-16.145-3.506-32.104-.725-33.09.996-.985 1.72 9.41 18.237 25.375 25.106 17.389 7.616 28.318-1.181 32.643-3.18Z" fill="#fff"/><path d="M269.78 98.659c-13.633-5.978-29.04-7.482-43.722-8.43a255.719 255.719 0 0 0-41.461.928 325.116 325.116 0 0 0-83.825 19.984c-17.03 6.649-34.91 14.395-49.036 26.215-.347.161.138 1.109.446.966A257.58 257.58 0 0 1 98.226 117.8a304.385 304.385 0 0 1 43.185-13.017 313.15 313.15 0 0 1 76.349-7.16 432.1 432.1 0 0 1 50.483 6.432 2.808 2.808 0 0 0 3.466-1.93 2.808 2.808 0 0 0-.246-2.132 2.808 2.808 0 0 0-1.683-1.334Z" fill="#37474F"/><path d="M141.694 98.701a97.077 97.077 0 0 0-19.291-11.33 55.765 55.765 0 0 0-20.608-5.66c-1.007-.05.143.918.571 1.236a162.556 162.556 0 0 1 17.525 7.507 72.339 72.339 0 0 1 16.713 11.63 4.59 4.59 0 0 0 4.985.649 2.378 2.378 0 0 0 .899-3.146 2.371 2.371 0 0 0-.794-.886Z" fill="#37474F"/><path d="M139.164 99.917a82.091 82.091 0 0 0-22.963 21.292 94.93 94.93 0 0 0-8.204 11.756 57.424 57.424 0 0 0-6.515 15.614c.089.193.235 1.625.535 1.159a155.518 155.518 0 0 1 8.322-14.341 86.961 86.961 0 0 1 9.22-11.991 136.394 136.394 0 0 1 22.265-20.266c1.713-1.261-1.071-4.144-2.66-3.223Z" fill="#37474F"/></svg>