<svg fill="none" xmlns="http://www.w3.org/2000/svg" viewBox="0 0 192 211"><path d="M105.143 29.84c.037 4.263-3.892 12.988-3.892 12.988s-5.034-4.379-5.236-4.636c-3.23-3.654-7.313-12.58-4.53-17.27a6.461 6.461 0 0 1 9.45-1.62c3.09 2.186 4.156 6.917 4.208 10.539Z" fill="#15803D"/><path d="M129.343 43.68c-1.05 3.966-6.651 10.853-7.176 11.354a114.509 114.509 0 0 1 11.163 10.358c2.028 2.14 4.027 4.366 5.997 6.599-.735-1.14-1.401-2.186-1.473-2.36-2.142-4.346-3.727-14.059.189-17.825a6.43 6.43 0 0 1 4.992-1.725 6.438 6.438 0 0 1 4.603 2.589c2.385 3.015 2.177 7.747 1.286 11.214-.892 3.468-5.557 9.49-6.865 11.108l2.258 2.598c3.561 4.2 7.09 8.408 10.7 12.406 1.261 1.421 2.568 2.767 3.864 4.133-.666-1.046-1.212-1.91-1.295-2.067-2.149-4.375-3.726-14.058.2-17.843a6.427 6.427 0 0 1 4.971-1.655 6.42 6.42 0 0 1 4.548 2.6c2.385 3.016 2.195 7.76 1.304 11.227-.892 3.467-5.156 8.937-6.628 10.815 1.356 1.351 2.742 2.696 4.12 3.931.954.837 1.835 1.705 2.854 2.479l2.947 2.332c1.913 1.417 3.889 2.899 5.799 4.237l3.908 2.704c-1.284-1.383-3.73-4.178-3.913-4.423-2.706-3.947-5.795-13.337-2.504-17.68a6.438 6.438 0 0 1 7.326-1.966 6.439 6.439 0 0 1 2.249 1.464c2.808 2.634 3.337 7.31 2.943 10.937-.409 3.98-4.706 11.354-5.188 12.323 2.174 1.374 4.21 2.843 6.205 4.13l5.11 3.23-1.322 3.325c-1.858-1.174-3.716-2.349-5.492-3.653-1.776-1.305-4.454-3.075-6.794-4.762a74.125 74.125 0 0 1-6.098 5.533 46.744 46.744 0 0 1 2.212 12.71c2.575.041 5.149.083 7.447.027 1.641-.004 3.195-.036 4.712-.091l-1.413 3.346-3.306-.035c-2.598-.004-5.424-.1-8.287-.219-.213 1.035-1.893 9.413-4.235 12.666-2.124 2.948-5.633 6.114-9.485 6.201a6.44 6.44 0 0 1-6.812-6.75c.417-5.432 8.877-10.382 13.625-11.516.273-.062 3.385-.461 5.344-.679l-3.523-.146c-2.399-.112-4.723-.385-7.33-.499l-3.742-.415c-1.253-.116-2.559-.395-3.844-.583-2.995-.488-5.988-1.184-9.011-1.873-.101 2.095-.598 9.504-2.257 12.746-1.659 3.243-4.656 6.914-8.474 7.647a6.447 6.447 0 0 1-6.921-3.095 6.43 6.43 0 0 1-.821-2.553c-.401-5.454 7.212-11.616 11.681-13.421.278-.11 3.664-1.064 5.53-1.549-1.792-.456-3.595-.894-5.419-1.423-5.226-1.483-10.493-3.148-15.747-4.752l-4.829-1.492c-.037.757-.419 9.591-2.276 13.228-1.648 3.223-4.644 6.895-8.474 7.646a6.43 6.43 0 0 1-5.132-1.086 6.433 6.433 0 0 1-2.622-4.543c-.401-5.454 7.212-11.616 11.681-13.42.35-.143 5.22-1.512 6.464-1.792-3.527-1.085-7.078-2.133-10.606-3.011a112.83 112.83 0 0 0-14.459-2.716c-.004.336-.377 9.566-2.292 13.296-1.629 3.236-4.644 6.895-8.474 7.647a6.446 6.446 0 0 1-6.927-3.079 6.445 6.445 0 0 1-.827-2.551c-.401-5.454 7.224-11.635 11.681-13.42.35-.143 5.62-1.649 6.543-1.794l-.845-.144a86.118 86.118 0 0 0-14.736-.056c-2.727.201-5.31.544-7.808.916.103 1.729.497 9.623-.838 13.175-1.334 3.551-3.87 7.357-7.546 8.441a6.443 6.443 0 0 1-8.336-4.749c-1.003-5.367 5.902-12.341 10.175-14.659.241-.134 2.735-1.158 4.565-1.873l-3.33.495c-4.049.77-7.71 1.707-10.939 2.578-1.83.508-3.488.994-5.02 1.482-.786 1.739-3.989 8.739-6.823 11.29-2.835 2.551-6.812 4.77-10.58 4.027a6.416 6.416 0 0 1-4.482-2.849 6.426 6.426 0 0 1-.802-5.25c1.58-5.216 10.905-8.242 15.654-8.309.415.002 7.01.634 6.97.739 1.482-.493 3.074-.996 4.806-1.514 3.197-.943 6.874-1.948 10.921-2.796 4.338-.961 8.73-1.658 13.153-2.089a85.151 85.151 0 0 1 14.935-.26l.149.094c-1.491-.604-5.578-2.407-5.857-2.583-4.2-2.447-10.865-9.676-9.69-14.993a6.443 6.443 0 0 1 8.472-4.475c3.652 1.216 6.11 5.267 7.268 8.703 1.32 3.877.444 12.711.382 13.426a112.499 112.499 0 0 1 15.007 2.464c2.888.655 5.786 1.42 8.671 2.204-1.27-.542-2.392-1.07-2.553-1.145-4.188-2.466-10.846-9.665-9.659-14.999a6.436 6.436 0 0 1 5.818-4.858c.902-.06 1.806.07 2.654.382 3.652 1.217 6.092 5.255 7.268 8.703 1.175 3.447.591 11.036.402 13.023l3.304.944c5.3 1.53 10.559 3.085 15.776 4.458 1.829.48 3.656.881 5.502 1.293l-2.202-1.001c-4.2-2.447-10.865-9.676-9.69-14.992a6.448 6.448 0 0 1 5.834-4.854 6.449 6.449 0 0 1 2.657.39c3.645 1.186 6.092 5.255 7.249 8.691 1.157 3.436.665 10.303.448 12.662 1.888.387 3.769.744 5.653.972 1.26.146 2.387.338 3.738.464l3.74.336c2.388.131 4.873.272 7.198.337 1.624.064 3.174.081 4.723.099-1.822-.45-5.401-1.412-5.685-1.539a24.839 24.839 0 0 1-9.893-7.84 6.302 6.302 0 0 1-1.29-.633 6.472 6.472 0 0 1-3.008-4.263 6.473 6.473 0 0 1 1.121-5.095c3.354-4.278 13.161-3.748 17.727-2.084.241.152 3.061 1.492 4.827 2.401-1.003-.635-1.787-1.286-2.844-2.084-1.943-1.41-3.82-2.883-5.847-4.45l-2.888-2.424c-.989-.781-1.921-1.734-2.9-2.613-2.215-2.05-4.354-4.26-6.459-6.526-1.245 1.683-5.742 7.604-8.937 9.408-3.194 1.803-7.68 3.181-11.193 1.663a6.44 6.44 0 0 1-3.365-8.993c2.659-4.742 12.418-5.7 17.192-4.736.3.06 3.632 1.125 5.446 1.752-1.247-1.36-2.512-2.732-3.73-4.179-3.54-4.11-7.011-8.41-10.475-12.68l-3.187-3.886c-.399.632-5.659 7.76-9.221 9.775-3.152 1.778-7.661 3.193-11.193 1.663a6.437 6.437 0 0 1-3.694-3.744 6.446 6.446 0 0 1 .328-5.249c2.66-4.742 12.43-5.718 17.193-4.736.349.064 5.162 1.624 6.362 2.07-2.362-2.845-4.771-5.616-7.174-8.356a115.834 115.834 0 0 0-10.562-10.24c-.188.298-5.61 7.767-9.221 9.776-3.152 1.778-7.68 3.181-11.211 1.65a6.415 6.415 0 0 1-4.078-6.396 6.42 6.42 0 0 1 .73-2.584c2.66-4.742 12.419-5.7 17.193-4.736.368.076 5.537 1.731 6.467 2.111-.223-.141-.406-.387-.636-.558a83.5 83.5 0 0 0-12.268-8.197c-2.375-1.344-4.72-2.489-7.014-3.549-.928 1.468-4.885 8.303-7.976 10.562-3.092 2.258-7.3 4.02-10.95 2.883a6.44 6.44 0 0 1-4.338-8.567c2.123-5.004 11.733-7.043 16.562-6.617l4.841.98-3.12-1.4c-3.801-1.597-7.374-2.815-10.547-3.885a171.766 171.766 0 0 0-5.002-1.549c-1.615 1.033-8.158 5.09-11.84 5.649-3.682.56-8.32.202-11.063-2.493a6.441 6.441 0 0 1 .103-9.584c4.202-3.48 13.577-.91 17.765 1.763.353.223 5.498 4.386 5.414 4.436l-.06.093c1.493.397 3.089.834 4.834 1.364 3.19 1.002 6.797 2.165 10.665 3.699a112.892 112.892 0 0 1 12.135 5.486 84.968 84.968 0 0 1 12.635 7.986l.149.094c-.916-1.307-3.325-5.066-3.473-5.367-2.149-4.376-3.715-14.077.2-17.843a6.44 6.44 0 0 1 9.596.864c2.443 2.636 2.253 7.38 1.338 10.884Z" fill="#15803D"/><path d="M69.342 119.684s-6.54-.884-6.946-.984c-4.684-1.27-13.025-6.464-13.28-11.904a6.46 6.46 0 0 1 4.342-6.214 6.458 6.458 0 0 1 2.659-.336c3.853.199 7.28 3.458 9.311 6.458 2.373 3.528 3.895 12.968 3.914 12.98Z" fill="#15803D"/></svg>