<svg fill="none" xmlns="http://www.w3.org/2000/svg" viewBox="0 0 28 28"><path fill-rule="evenodd" clip-rule="evenodd" d="M6.417 23.625A4.38 4.38 0 0 0 10.79 28a4.38 4.38 0 0 0 4.377-4.375v-2.042h8.458A4.38 4.38 0 0 0 28 17.208a4.38 4.38 0 0 0-4.375-4.375h-8.459V8.75h2.042a4.38 4.38 0 0 0 4.375-4.375A4.38 4.38 0 0 0 17.208 0a4.38 4.38 0 0 0-4.375 4.375v2.042H4.375A4.379 4.379 0 0 0 0 10.79a4.379 4.379 0 0 0 4.375 4.375h8.458v4.084h-2.042a4.381 4.381 0 0 0-4.374 4.375ZM17.208 6.417h-2.041V4.375c0-1.126.915-2.042 2.041-2.042s2.042.916 2.042 2.042a2.044 2.044 0 0 1-2.042 2.042ZM2.333 10.79c0-1.125.916-2.041 2.042-2.041h8.458v4.083H4.375a2.044 2.044 0 0 1-2.042-2.042Zm21.292 8.459h-8.459v-4.084h8.459c1.126 0 2.041.916 2.041 2.042a2.044 2.044 0 0 1-2.041 2.042ZM8.75 23.625c0-1.125.916-2.04 2.041-2.042h2.042v2.042a2.044 2.044 0 0 1-2.043 2.041 2.043 2.043 0 0 1-2.04-2.041Z" fill="#15803D"/></svg>