<svg fill="none" xmlns="http://www.w3.org/2000/svg" viewBox="0 0 1440 1105"><path d="M-49.306 60.513c70.463 3.172 140.928 6.345 193.639 33.422 52.71 27.078 87.67 78.061 143.154 89.015 55.484 10.954 131.492-18.12 205.731-35.322s146.709-22.533 208.798-3.999c62.088 18.535 113.796 60.932 168.642 74.711 54.845 13.78 112.834-1.059 167.602 9.204 54.78 10.264 106.34 45.629 168.62 68.944 62.28 23.315 135.29 34.583 252.15 54.285M-49.306 209.855c70.463 3.172 140.928 6.344 193.639 33.421 52.71 27.078 87.67 78.061 143.154 89.015 55.484 10.954 131.492-18.12 205.731-35.322s146.709-22.533 208.798-3.999c62.088 18.535 113.796 60.932 168.642 74.712 54.845 13.779 112.834-1.06 167.602 9.204 54.78 10.263 106.34 45.629 168.62 68.943 62.28 23.315 135.29 34.583 252.15 54.285M-49.306 402.855c70.463 3.172 140.928 6.344 193.639 33.421 52.71 27.078 87.67 78.061 143.154 89.015 55.484 10.954 131.492-18.12 205.731-35.322s146.709-22.533 208.798-3.999c62.088 18.535 113.796 60.932 168.642 74.712 54.845 13.779 112.834-1.06 167.602 9.204 54.78 10.263 106.34 45.629 168.62 68.943 62.28 23.315 135.29 34.583 252.15 54.285M-49.306 620.855c70.463 3.172 140.928 6.344 193.639 33.421 52.71 27.078 87.67 78.061 143.154 89.015 55.484 10.954 131.492-18.12 205.731-35.322s146.709-22.533 208.798-3.999c62.088 18.535 113.796 60.932 168.642 74.712 54.845 13.779 112.834-1.06 167.602 9.204 54.78 10.263 106.34 45.629 168.62 68.943 62.28 23.315 135.29 34.583 252.15 54.285M-49.306 758.855c70.463 3.172 140.928 6.344 193.639 33.421 52.71 27.078 87.67 78.061 143.154 89.015 55.484 10.954 131.492-18.12 205.731-35.322s146.709-22.533 208.798-3.999c62.088 18.535 113.796 60.932 168.642 74.712 54.845 13.779 112.834-1.06 167.602 9.204 54.78 10.263 106.34 45.629 168.62 68.943 62.28 23.311 135.29 34.581 252.15 54.281" stroke="#6B7280" stroke-opacity=".2" stroke-linecap="round"/></svg>