<svg fill="none" xmlns="http://www.w3.org/2000/svg" viewBox="0 0 159 39"><path d="M3.872 31.32c-.427 0-.747-.064-.96-.192a.787.787 0 0 1-.384-.48 3.046 3.046 0 0 1-.096-.8V10.424c0-.555.107-.928.32-1.12.235-.213.64-.32 1.216-.32h12.864c.299 0 .555.032.768.096a.77.77 0 0 1 .48.416c.107.213.16.533.16.96 0 .427-.064.747-.192.96a.787.787 0 0 1-.48.384c-.213.064-.47.096-.768.096H5.312v6.624h8c.299 0 .544.032.736.096a.787.787 0 0 1 .48.384c.107.192.16.49.16.896 0 .384-.053.672-.16.864a.787.787 0 0 1-.48.384c-.213.043-.48.064-.8.064H5.312v7.232h11.52c.299 0 .555.032.768.096a.77.77 0 0 1 .48.416c.107.192.16.501.16.928 0 .427-.064.747-.192.96a.787.787 0 0 1-.48.384c-.213.064-.47.096-.768.096H3.872Zm25.378.064a8.973 8.973 0 0 1-3.137-.544 7.89 7.89 0 0 1-2.56-1.568 7.647 7.647 0 0 1-1.727-2.432c-.406-.96-.608-2.048-.608-3.264 0-1.216.202-2.293.608-3.232a7.553 7.553 0 0 1 1.727-2.464 7.53 7.53 0 0 1 2.528-1.568 8.881 8.881 0 0 1 3.105-.544c.725 0 1.44.117 2.143.352a6.765 6.765 0 0 1 1.856.864c.555.341.95.704 1.184 1.088.214.277.363.512.449.704.106.17.117.373.032.608-.086.17-.203.33-.352.48-.15.128-.3.235-.448.32-.384.299-.768.341-1.152.128a4.784 4.784 0 0 0-.8-.64 6.429 6.429 0 0 0-.896-.576 4.348 4.348 0 0 0-.993-.384 3.216 3.216 0 0 0-1.023-.16c-1.003 0-1.889.213-2.657.64a4.317 4.317 0 0 0-1.791 1.76c-.406.747-.608 1.621-.608 2.624 0 1.003.202 1.877.608 2.624a4.648 4.648 0 0 0 1.76 1.76c.767.427 1.642.64 2.623.64.449 0 .875-.053 1.28-.16a6.54 6.54 0 0 0 1.184-.48c.363-.213.662-.437.896-.672.214-.15.395-.277.544-.384a.911.911 0 0 1 .544-.16c.171 0 .352.075.544.224.193.128.395.33.608.608.171.192.267.395.289.608a.865.865 0 0 1-.096.608 2.073 2.073 0 0 1-.513.576c-.34.341-.8.672-1.376.992a9.31 9.31 0 0 1-1.823.736 6.979 6.979 0 0 1-1.953.288Zm15.962.128a7.657 7.657 0 0 1-3.009-.608 8.666 8.666 0 0 1-2.528-1.664 8.047 8.047 0 0 1-1.76-2.528c-.426-.96-.64-2.005-.64-3.136 0-1.11.203-2.133.608-3.072a7.964 7.964 0 0 1 4.192-4.224 7.478 7.478 0 0 1 3.073-.64c1.471 0 2.794.352 3.967 1.056a7.674 7.674 0 0 1 2.849 2.816c.703 1.195 1.056 2.539 1.056 4.032 0 1.173-.214 2.25-.64 3.232a7.925 7.925 0 0 1-1.729 2.496 8.244 8.244 0 0 1-2.495 1.664 7.702 7.702 0 0 1-2.944.576Zm-.065-2.784c.897 0 1.729-.224 2.497-.672a5.16 5.16 0 0 0 1.855-1.856c.47-.79.704-1.685.704-2.688 0-1.003-.224-1.888-.672-2.656a4.526 4.526 0 0 0-1.791-1.792c-.769-.427-1.643-.64-2.625-.64-.938 0-1.791.224-2.56.672a5.33 5.33 0 0 0-1.824 1.824c-.448.768-.672 1.643-.672 2.624 0 1.024.235 1.93.705 2.72a5.24 5.24 0 0 0 1.855 1.824c.79.427 1.633.64 2.529.64ZM95.84 31.32c-.405 0-.715-.064-.928-.192a.77.77 0 0 1-.416-.48 4.499 4.499 0 0 1-.064-.8V10.392c0-.277.032-.512.096-.704.085-.213.224-.384.416-.512.213-.128.523-.192.928-.192h7.072c1.045 0 1.995.16 2.848.48a6.236 6.236 0 0 1 2.272 1.344c.64.597 1.131 1.355 1.472 2.272.363.896.544 1.941.544 3.136 0 .747-.117 1.525-.352 2.336a7.776 7.776 0 0 1-1.088 2.24 5.984 5.984 0 0 1-1.824 1.76c-.747.47-1.653.736-2.72.8h-6.784v6.528c0 .299-.043.555-.128.768a.77.77 0 0 1-.416.48c-.192.128-.501.192-.928.192Zm13.728-.352c-.448.299-.832.395-1.152.288-.299-.107-.587-.363-.864-.768l-5.12-8.192 3.168-.48 4.416 7.04c.213.341.341.63.384.864a.694.694 0 0 1-.128.64c-.128.192-.363.395-.704.608ZM97.312 20.536h6.336a3.67 3.67 0 0 0 1.376-.256c.427-.192.8-.47 1.12-.832.32-.363.576-.81.768-1.344.192-.533.288-1.173.288-1.92 0-.917-.171-1.696-.512-2.336a3.14 3.14 0 0 0-1.44-1.44c-.64-.341-1.429-.512-2.368-.512h-5.568v8.64Zm22.837 10.976a7.658 7.658 0 0 1-3.008-.608 8.666 8.666 0 0 1-2.528-1.664 8.047 8.047 0 0 1-1.76-2.528c-.427-.96-.64-2.005-.64-3.136 0-1.11.203-2.133.608-3.072a7.958 7.958 0 0 1 4.192-4.224 7.478 7.478 0 0 1 3.072-.64c1.472 0 2.795.352 3.968 1.056a7.671 7.671 0 0 1 2.848 2.816c.704 1.195 1.056 2.539 1.056 4.032 0 1.173-.213 2.25-.64 3.232a7.935 7.935 0 0 1-1.728 2.496 8.237 8.237 0 0 1-2.496 1.664 7.703 7.703 0 0 1-2.944.576Zm-.064-2.784c.896 0 1.728-.224 2.496-.672a5.157 5.157 0 0 0 1.856-1.856c.469-.79.704-1.685.704-2.688 0-1.003-.224-1.888-.672-2.656a4.528 4.528 0 0 0-1.792-1.792c-.768-.427-1.643-.64-2.624-.64-.939 0-1.792.224-2.56.672a5.324 5.324 0 0 0-1.824 1.824c-.448.768-.672 1.643-.672 2.624 0 1.024.235 1.93.704 2.72a5.238 5.238 0 0 0 1.856 1.824c.789.427 1.632.64 2.528.64Zm17.79 2.592c-1.003 0-1.856-.096-2.56-.288-.683-.192-1.248-.49-1.696-.896-.448-.405-.768-.928-.96-1.568-.192-.661-.288-1.472-.288-2.432V11.992c0-.299.032-.555.096-.768a.787.787 0 0 1 .384-.48c.192-.128.49-.192.896-.192.405 0 .714.064.928.192a.771.771 0 0 1 .416.48c.064.192.096.437.096.736v14.176c0 .555.042 1.003.128 1.344.106.32.256.565.448.736.213.17.49.277.832.32.341.043.757.064 1.248.064.341 0 .618.032.832.096a.79.79 0 0 1 .48.384c.106.192.16.48.16.864 0 .405-.064.715-.192.928a.696.696 0 0 1-.512.352 2.57 2.57 0 0 1-.736.096Zm-7.168-15.136 3.072.032 4.448-.064a2.7 2.7 0 0 1 .768.096c.213.043.373.17.48.384.128.192.192.49.192.896 0 .405-.054.715-.16.928a.79.79 0 0 1-.48.384 2.7 2.7 0 0 1-.768.096l-4.384-.064-3.232.032c-.448 0-.758-.107-.928-.32-.15-.213-.224-.565-.224-1.056 0-.47.096-.81.288-1.024.192-.213.501-.32.928-.32Zm25.087 15.104c-.47 0-.811-.096-1.024-.288-.192-.192-.31-.49-.352-.896l.128-1.6c-.214.341-.544.736-.992 1.184-.448.427-1.035.81-1.76 1.152-.726.32-1.611.48-2.656.48a6.906 6.906 0 0 1-2.88-.608 7.53 7.53 0 0 1-2.336-1.696 8.365 8.365 0 0 1-1.568-2.496 8.266 8.266 0 0 1-.544-3.008c0-1.045.181-2.027.544-2.944a7.785 7.785 0 0 1 3.936-4.128 6.83 6.83 0 0 1 2.848-.608c.938 0 1.738.128 2.4.384a5.26 5.26 0 0 1 1.696.96c.49.384.917.821 1.28 1.312l-.064-1.344c-.022-.47.074-.8.288-.992.234-.213.597-.32 1.088-.32.405 0 .693.064.864.192a.92.92 0 0 1 .384.544c.064.235.096.523.096.864v12.352c0 .299-.032.565-.096.8a.795.795 0 0 1-.384.512c-.192.128-.491.192-.896.192Zm-6.176-2.656c.853 0 1.632-.224 2.336-.672a4.725 4.725 0 0 0 1.696-1.792c.426-.768.64-1.643.64-2.624 0-1.003-.224-1.877-.672-2.624a4.66 4.66 0 0 0-1.728-1.792 4.263 4.263 0 0 0-2.336-.672c-1.003 0-1.878.235-2.624.704a4.888 4.888 0 0 0-1.728 1.824c-.427.768-.64 1.643-.64 2.624 0 .96.213 1.824.64 2.592a4.88 4.88 0 0 0 1.76 1.792c.768.427 1.653.64 2.656.64Z" fill="#111827"/><path fill-rule="evenodd" clip-rule="evenodd" d="M66.416 28.625A4.38 4.38 0 0 0 70.79 33a4.38 4.38 0 0 0 4.376-4.375v-2.042h8.459A4.38 4.38 0 0 0 88 22.208a4.38 4.38 0 0 0-4.375-4.375h-8.459V13.75h2.042a4.38 4.38 0 0 0 4.375-4.375A4.38 4.38 0 0 0 77.208 5a4.38 4.38 0 0 0-4.375 4.375v2.041h-8.458A4.379 4.379 0 0 0 60 15.791a4.379 4.379 0 0 0 4.375 4.375h8.458v4.084h-2.041a4.381 4.381 0 0 0-4.376 4.375Zm10.792-17.209h-2.041V9.375c0-1.126.915-2.042 2.041-2.042s2.042.916 2.042 2.042a2.044 2.044 0 0 1-2.042 2.041Zm-14.875 4.375c0-1.125.916-2.041 2.042-2.041h8.458v4.083h-8.458a2.044 2.044 0 0 1-2.042-2.041Zm21.292 8.459h-8.459v-4.084h8.459c1.126 0 2.041.916 2.041 2.042a2.044 2.044 0 0 1-2.041 2.042ZM68.75 28.625c0-1.125.916-2.04 2.041-2.042h2.042v2.042a2.044 2.044 0 0 1-2.043 2.041 2.043 2.043 0 0 1-2.04-2.041Z" fill="#15803D"/></svg>