<svg fill="none" xmlns="http://www.w3.org/2000/svg" viewBox="0 0 360 129"><path d="M137.923 74.38c5.833-.258 10.521-2.256 14.066-5.994 3.609-3.77 5.413-8.25 5.413-13.437 0-5.156-1.804-9.619-5.413-13.389-3.545-3.738-8.233-5.736-14.066-5.994V74.38Zm1.934-43.84c5.897.225 11.149 2.69 15.757 7.395 4.608 4.769 6.912 10.44 6.912 17.014 0 6.605-2.304 12.277-6.912 17.014-4.608 4.736-10.505 7.25-17.691 7.54V97h-5.075V30.491h7.009v.049Zm50.51 43.84V43.541c0-2.192-.79-4.06-2.369-5.607-1.547-1.58-3.432-2.369-5.655-2.369-2.191 0-4.06.79-5.607 2.369-1.579 1.547-2.368 3.415-2.368 5.607v30.837h15.999Zm-8.024-43.889c3.641 0 6.735 1.273 9.28 3.819 2.546 2.545 3.819 5.623 3.819 9.232V97h-5.075V79.454h-15.999V97h-5.075V43.542c0-3.61 1.272-6.687 3.818-9.232 2.546-2.546 5.623-3.819 9.232-3.819Zm24.941 43.889c5.832-.258 10.521-2.256 14.065-5.994 3.609-3.77 5.414-8.25 5.414-13.437 0-5.156-1.805-9.619-5.414-13.389-3.544-3.738-8.233-5.736-14.065-5.994V74.38Zm24.602-19.431c0 4.447-1.112 8.555-3.335 12.325-2.191 3.674-5.575 6.88-10.15 9.619 4.447 2.674 7.749 5.768 9.908 9.28 2.224 3.641 3.384 7.25 3.481 10.827h-5.076c-.193-4.382-2.062-8.33-5.606-11.842-3.545-3.577-8.153-5.494-13.824-5.752V97h-5.075V30.491h7.008v.049c5.897.225 11.149 2.69 15.757 7.395 4.608 4.769 6.912 10.44 6.912 17.014Zm27.841 19.431V43.541c0-2.192-.789-4.06-2.368-5.607-1.547-1.58-3.432-2.369-5.656-2.369-2.191 0-4.06.79-5.606 2.369-1.579 1.547-2.369 3.415-2.369 5.607v30.837h15.999Zm-8.024-43.889c3.642 0 6.735 1.273 9.281 3.819 2.545 2.545 3.818 5.623 3.818 9.232V97h-5.075V79.454h-15.999V97h-5.075V43.542c0-3.61 1.273-6.687 3.819-9.232 2.545-2.546 5.622-3.819 9.231-3.819Zm26.875 0h5.075V83.95c0 3.609-1.273 6.686-3.819 9.231-2.545 2.546-5.3 3.819-8.265 3.819v-5.075c1.547 0 3.11-.79 4.689-2.369 1.546-1.546 2.32-3.415 2.32-5.606V30.49Zm32.916 43.889V43.541c0-2.192-.79-4.06-2.369-5.607-1.546-1.58-3.432-2.369-5.655-2.369-2.191 0-4.06.79-5.607 2.369-1.579 1.547-2.368 3.415-2.368 5.607v30.837h15.999Zm-8.024-43.89c3.641 0 6.735 1.273 9.28 3.819 2.546 2.545 3.819 5.623 3.819 9.232V97h-5.075V79.454h-15.999V97h-5.075V43.542c0-3.61 1.272-6.687 3.818-9.232 2.546-2.546 5.623-3.819 9.232-3.819Zm-3.673-7.782 5.655-5.655 1.74 1.74-5.655 5.655-1.74-1.74Zm41.423 12.858c-3.513 0-6.526 1.257-9.039 3.77-2.513 2.514-3.77 5.527-3.77 9.04 0 3.544 1.257 6.573 3.77 9.086 2.513 2.481 5.526 3.722 9.039 3.722 4.962 0 9.183 1.756 12.663 5.268 3.513 3.48 5.269 7.702 5.269 12.664 0 4.93-1.756 9.151-5.269 12.664-3.48 3.48-7.701 5.22-12.663 5.22-4.931 0-9.152-1.74-12.664-5.22-3.48-3.513-5.22-7.412-5.22-11.697h5.075c0 2.868 1.257 5.558 3.77 8.072 2.513 2.513 5.526 3.77 9.039 3.77 3.544 0 6.573-1.257 9.087-3.77 2.481-2.514 3.721-5.527 3.721-9.039 0-3.544-1.24-6.573-3.721-9.087-2.514-2.481-5.543-3.722-9.087-3.722-4.931 0-9.152-1.756-12.664-5.268-3.48-3.48-5.22-7.701-5.22-12.664 0-4.93 1.74-9.151 5.22-12.663 3.512-3.48 7.733-5.22 12.664-5.22 4.962 0 9.183 1.74 12.663 5.22 3.513 3.512 5.269 7.41 5.269 11.696h-5.124c0-2.867-1.24-5.558-3.721-8.071-2.514-2.514-5.543-3.77-9.087-3.77ZM48.9 96.15h1.281c15.201-1.099 30.768-8.058 43.955-19.78 11.721-10.255 16.116-19.596 16.666-35.529h-.183c-.367-4.395-3.297-18.68-10.806-26.922C93.037 6.41 86.993 2.198 80.033 0H66.482c8.608 3.663 16.3 8.79 22.344 14.835 8.241 8.241 12.636 17.398 12.636 26.372 0 2.381-.183 4.762-.549 6.96-1.465 9.523-6.227 18.314-13.919 25.274-6.227 5.677-14.285 10.256-23.992 13.552-6.96 2.381-13.735 3.48-21.427 4.579 0 7.509.183 27.105.183 36.445h6.776V97.432l.366-1.282Zm11.72-15.567c8.791-3.113 16.117-7.142 21.611-12.27 6.41-5.861 10.44-13.187 11.722-21.245.366-2.015.549-4.03.549-6.044 0-6.96-3.846-14.651-10.622-21.428C72.89 8.608 55.859 1.282 39.376 0H0v128.2h34.797c0-11.538-.183-38.277-.183-39.559v-2.93l2.93-.366c8.608-1.099 15.75-2.198 22.893-4.579l.184-.183ZM36.813 62.086c0-.55-.183-12.637-.183-15.384V20.329l1.831.183c9.89.55 32.966 4.03 32.966 23.626 0 2.197-.55 4.395-1.465 6.41-2.381 4.944-7.692 8.607-15.75 10.805-2.93.733-6.044 1.282-9.34 1.648-1.466.184-2.931.184-4.213.184-.733 0-2.015.183-2.015.183l-1.465.183-.366-1.465Zm45.42 50.364c-1.466.366-2.93.733-4.396 1.282l-1.648.55c-1.466.549-2.93 1.282-4.579 1.648l-.55 12.27h7.693v-6.41l9.706-1.282c1.832-.183 3.663-.366 5.495-.732 5.677-1.465 11.171-4.762 16.666-10.073V95.784c-7.326 7.509-16.483 13.186-26.556 16.117l-1.648.549h-.184Zm16.665-21.61c-10.439 9.339-24.358 13.002-36.628 16.299-.366.183-.916.366-1.465.366l.366 20.879h7.326l.732-14.835h1.282c1.648 0 3.297-.733 4.945-1.465l1.648-.55c1.466-.549 3.114-.915 4.579-1.282l1.648-.549c10.623-3.114 20.146-9.34 27.289-17.765v-15.2c-3.48 5.31-7.143 10.438-11.905 14.65l.183-.549ZM59.887 43.77c0-9.157-15.933-11.355-20.328-11.72v6.41c7.143 0 11.355.732 13.186 2.563.55.55.916 1.282.916 2.198 0 .732-.366 1.465-.916 2.014-2.014 2.015-7.142 2.198-12.453 2.198h-1.1v5.678c5.678 0 14.469-1.465 18.315-5.128 1.282-1.282 1.832-2.564 1.832-4.213h.549ZM95.235 79.3c-13.37 11.721-29.12 18.864-44.504 20.33v29.119h6.593l-.366-23.809 1.648.183c.55 0 1.282-.183 2.014-.366 12.088-3.113 25.824-6.776 35.714-15.567 5.677-4.945 9.889-11.355 13.918-17.765V58.423c-2.747 7.692-7.509 14.102-15.017 20.695v.183Zm-6.96 44.504-7.326.916v4.029h29.12v-14.835c-5.311 4.762-10.622 7.692-16.116 8.974-1.832.55-3.846.733-5.678.916ZM39.193 28.937c4.395.366 23.076 2.564 23.076 14.651 0 2.381-.916 4.396-2.747 6.227-4.945 4.762-15.201 5.86-20.146 5.86v5.129h.55c1.281 0 2.563 0 3.845-.184 3.114-.366 6.227-.915 8.974-1.648 7.326-2.014 12.088-5.128 14.102-9.34.733-1.465 1.1-3.297 1.1-5.128 0-16.3-19.414-19.78-29.12-20.512v5.311l.366-.366ZM101.095.916c3.663 2.93 6.777 6.96 8.608 10.256V.916h-8.608Zm-5.128 0h-9.706c4.944 2.564 9.523 6.41 14.468 11.904 4.212 4.762 7.143 11.172 8.974 16.85V17.398c-.549-1.466-1.282-2.93-2.015-4.396-2.381-4.395-6.776-9.706-11.538-12.27l-.183.183ZM50.181 43.222l-.183-.183c-.55-.55-2.747-1.832-11.172-1.832v3.846c2.93 0 9.707 0 11.172-1.465l.183-.183v-.183Z" fill="#000"/></svg>