<svg fill="none" xmlns="http://www.w3.org/2000/svg" viewBox="0 0 607 388"><path d="M481.04 164.607s1.589-26.884-11.072-41.909c-12.661-15.025-31.639-4.007-49.028-7.92-17.389-3.913 4.006-25.309-23.733-41.122-27.74-15.813-49.028.828-53.783 18.19-4.754 17.363-7.118 23.733-22.931 16.615-15.813-7.119-30.852 2.364-30.852 15.813 0 13.449 5.543 23.719-12.647 21.368-18.19-2.35-34.805 2.364-37.957 9.483-3.152 7.118 15.813 8.708-9.495 8.708-25.309 0-37.97 4.741-39.546 8.694-1.576 3.953-22.932 4.755-34.805 6.331-11.873 1.576-14.223 4.006-14.223 4.006h371.711s.788-9.495-11.072-12.647c-11.86-3.152-8.734.721-20.567-5.61ZM318.596 70.892s.735-12.354-5.088-19.26c-5.823-6.904-14.531-1.815-22.531-3.632-8-1.816 1.816-11.633-10.898-18.898-12.715-7.265-22.531.36-24.721 8.347-2.191 7.987-3.272 10.912-10.538 7.64-7.265-3.272-14.17 1.095-14.17 7.265s2.538 10.912-5.823 9.816c-8.361-1.095-16.027 1.096-17.442 4.368-1.416 3.272 7.265 4.006-4.368 4.006-11.632 0-17.442 2.177-18.163 4.007-.721 1.83-10.538 2.19-16.027 2.912-5.489.72-6.544 1.816-6.544 1.816H333.14s.361-4.354-5.088-5.81c-5.449-1.456-3.993.334-9.456-2.577Zm209.589 200.88s.734-12.354-5.089-19.259c-5.823-6.904-14.531-1.816-22.531-3.632-7.999-1.817 1.817-11.633-10.911-18.898-12.728-7.266-22.531.36-24.708 8.36-2.177 8-3.272 10.898-10.537 7.626-7.266-3.272-14.184 1.095-14.184 7.266 0 6.17 2.551 10.911-5.81 9.816-8.36-1.095-16.026 1.095-17.442 4.367-1.416 3.272 7.266 4.007-4.367 4.007s-17.442 2.177-18.177 4.007c-.735 1.829-10.538 2.177-16.027 2.898-5.489.721-6.544 1.816-6.544 1.816h170.871s.36-4.354-5.089-5.81c-5.449-1.455-4.006.348-9.455-2.564Z" fill="#4B5563"/><path d="M481.04 164.607s1.589-26.884-11.072-41.909c-12.661-15.025-31.639-4.007-49.028-7.92-17.389-3.913 4.006-25.309-23.733-41.122-27.74-15.813-49.028.828-53.783 18.19-4.754 17.363-7.118 23.733-22.931 16.615-15.813-7.119-30.852 2.364-30.852 15.813 0 13.449 5.543 23.719-12.647 21.368-18.19-2.35-34.805 2.364-37.957 9.483-3.152 7.118 15.813 8.708-9.495 8.708-25.309 0-37.97 4.741-39.546 8.694-1.576 3.953-22.932 4.755-34.805 6.331-11.873 1.576-14.223 4.006-14.223 4.006h371.711s.788-9.495-11.072-12.647c-11.86-3.152-8.734.721-20.567-5.61ZM318.596 70.892s.735-12.354-5.088-19.26c-5.823-6.904-14.531-1.815-22.531-3.632-8-1.816 1.816-11.633-10.898-18.898-12.715-7.265-22.531.36-24.721 8.347-2.191 7.987-3.272 10.912-10.538 7.64-7.265-3.272-14.17 1.095-14.17 7.265s2.538 10.912-5.823 9.816c-8.361-1.095-16.027 1.096-17.442 4.368-1.416 3.272 7.265 4.006-4.368 4.006-11.632 0-17.442 2.177-18.163 4.007-.721 1.83-10.538 2.19-16.027 2.912-5.489.72-6.544 1.816-6.544 1.816H333.14s.361-4.354-5.088-5.81c-5.449-1.456-3.993.334-9.456-2.577Zm209.589 200.88s.734-12.354-5.089-19.259c-5.823-6.904-14.531-1.816-22.531-3.632-7.999-1.817 1.817-11.633-10.911-18.898-12.728-7.266-22.531.36-24.708 8.36-2.177 8-3.272 10.898-10.537 7.626-7.266-3.272-14.184 1.095-14.184 7.266 0 6.17 2.551 10.911-5.81 9.816-8.36-1.095-16.026 1.095-17.442 4.367-1.416 3.272 7.266 4.007-4.367 4.007s-17.442 2.177-18.177 4.007c-.735 1.829-10.538 2.177-16.027 2.898-5.489.721-6.544 1.816-6.544 1.816h170.871s.36-4.354-5.089-5.81c-5.449-1.455-4.006.348-9.455-2.564Z" opacity=".4" fill="#fff"/><path d="M77.716 273.749a178.967 178.967 0 0 0 6.21 18.431c15.947 39.826 44.754 50.27 83.138 45.702 82.457-9.843 113.095 6.317 189.021-4.754 53.489-7.8 81.148 27.592 147.886 1.589 26.19-10.204 36.06-34.057 39.012-60.901l-465.267-.067Z" fill="#4B5563"/><path opacity=".42" d="M77.716 273.749a178.967 178.967 0 0 0 6.21 18.431c15.947 39.826 44.754 50.27 83.138 45.702 82.457-9.843 113.095 6.317 189.021-4.754 53.489-7.8 81.148 27.592 147.886 1.589 26.19-10.204 36.06-34.057 39.012-60.901l-465.267-.067Z" fill="#fff"/><path d="M100.62 287.198h49.83m113.549 0h49.829m5.075 0h101.543m-4.234 8.922h101.542m-211.351 0h30.116m-151.972 0h93.943m-164.915 8.934h93.943m18.538 0h40.828m93.088 0H400.8m16.747 0h70.745m-95.973 14.278h112.039m-235.685 0h49.109m-146.858 0h49.095m-100.874 0h19.632m19.873-32.134h11.379m260.473 0h11.366m10.497 0h23.426" stroke="#fff" stroke-miterlimit="10"/><path d="M334.516 80.508a10.935 10.935 0 0 0-1.269 3.285 7.187 7.187 0 0 0 1.269 2.778l-3.245 5.543 3.526 2.03s.507 6.811 2.283 9.081c1.777 2.271 3.526 2.271 4.287 1.777.762-.494 3.54-3.032 3.54-3.032l1.255 2.778s6.825-2.778 9.603-2.778c2.778 0 11.098.254 11.098.254s-3.018-10.11-3.018-11.873 4.006-12.367 4.006-12.367-2.777-2.27-12.113-2.017c-9.336.254-21.222 4.54-21.222 4.54Z" fill="#fff"/><mask id="Romantic Getaway-bro 1__a" style="mask-type:luminance" maskUnits="userSpaceOnUse" x="331" y="75" width="37" height="31"><path d="M334.516 80.508a10.935 10.935 0 0 0-1.269 3.285 7.187 7.187 0 0 0 1.269 2.778l-3.245 5.543 3.526 2.03s.507 6.811 2.283 9.081c1.777 2.271 3.526 2.271 4.287 1.777.762-.494 3.54-3.032 3.54-3.032l1.255 2.778s6.825-2.778 9.603-2.778c2.778 0 11.098.254 11.098.254s-3.018-10.11-3.018-11.873 4.006-12.367 4.006-12.367-2.777-2.27-12.113-2.017c-9.336.254-21.222 4.54-21.222 4.54Z" fill="#fff"/></mask><g mask="url(#Romantic Getaway-bro 1__a)"><path d="M363.805 90.35c0-1.762 4.006-12.366 4.006-12.366s-2.778-2.27-12.113-2.017c-9.336.254-21.209 4.54-21.209 4.54a10.906 10.906 0 0 0-1.268 3.286 7.186 7.186 0 0 0 1.268 2.778l-3.218 5.543 3.526 2.03s.507 6.811 2.283 9.081a5.919 5.919 0 0 0 1.696 1.55l2.672-.708s10.804-11.472 18.911-11.82h3.806a11.318 11.318 0 0 1-.36-1.896Z" fill="#4B5563"/><path opacity=".5" d="M363.805 90.35c0-1.762 4.006-12.366 4.006-12.366s-2.778-2.27-12.113-2.017c-9.336.254-21.209 4.54-21.209 4.54a10.906 10.906 0 0 0-1.268 3.286 7.186 7.186 0 0 0 1.268 2.778l-3.218 5.543 3.526 2.03s.507 6.811 2.283 9.081a5.919 5.919 0 0 0 1.696 1.55l2.672-.708s10.804-11.472 18.911-11.82h3.806a11.318 11.318 0 0 1-.36-1.896Z" fill="#fff"/></g><path d="M334.516 80.508a10.935 10.935 0 0 0-1.269 3.285 7.187 7.187 0 0 0 1.269 2.778l-3.245 5.543 3.526 2.03s.507 6.811 2.283 9.081c1.777 2.271 3.526 2.271 4.287 1.777.762-.494 3.54-3.032 3.54-3.032l1.255 2.778s6.825-2.778 9.603-2.778c2.778 0 11.098.254 11.098.254s-3.018-10.11-3.018-11.873 4.006-12.367 4.006-12.367-2.777-2.27-12.113-2.017c-9.336.254-21.222 4.54-21.222 4.54Z" stroke="#263238" stroke-linecap="round" stroke-linejoin="round"/><path d="M348.633 93.636c-.508-2.27-2.017-9.843-2.017-9.843s3.032-3.54 3.539 0a56.085 56.085 0 0 0 1.256 6.304c2.817.65 5.696.99 8.587 1.015a13.174 13.174 0 0 0 3.793-.614v-.147c0-1.763 4.007-12.367 4.007-12.367s-2.778-2.27-12.113-2.017a70.335 70.335 0 0 0-16.428 3.005 17.87 17.87 0 0 0 .267 5.062c.495 1.015 3.032 1.268 3.032 1.268s3.018 9.843 2.27 11.112c-.747 1.269-2.03 3.54-4.3 2.524-2.27-1.015-3.713-4.113-5.649-3.339.253 2.124.868 6.024 2.123 7.626 1.763 2.271 3.526 2.271 4.287 1.777.762-.494 3.539-3.032 3.539-3.032s4.328-6.117 3.807-8.334Z" fill="#263238" stroke="#263238" stroke-linecap="round" stroke-linejoin="round"/><path d="M333.247 81.015s6.571-18.43 7.827-19.192c1.255-.76 17.429-2.27 21.969-.761 4.541 1.51 3.286 16.16 3.286 16.16s-13.356.508-20.207 1.269a84.504 84.504 0 0 0-12.875 2.524Z" fill="#fff"/><mask id="Romantic Getaway-bro 1__b" style="mask-type:luminance" maskUnits="userSpaceOnUse" x="333" y="60" width="34" height="22"><path d="M333.247 81.015s6.571-18.43 7.827-19.192c1.255-.76 17.429-2.27 21.969-.761 4.541 1.51 3.286 16.16 3.286 16.16s-13.356.508-20.207 1.269a84.504 84.504 0 0 0-12.875 2.524Z" fill="#fff"/></mask><g mask="url(#Romantic Getaway-bro 1__b)"><path d="M356.806 62.464a8.646 8.646 0 0 1 .187-2.016c-6.45-.08-15.011.854-15.919 1.402-1.256.761-7.827 19.192-7.827 19.192a84.504 84.504 0 0 1 12.875-2.524l.922-.107 11.392-2.284s-1.63-10.257-1.63-13.663Z" fill="#4B5563"/><path opacity=".5" d="M356.806 62.464a8.646 8.646 0 0 1 .187-2.016c-6.45-.08-15.011.854-15.919 1.402-1.256.761-7.827 19.192-7.827 19.192a84.504 84.504 0 0 1 12.875-2.524l.922-.107 11.392-2.284s-1.63-10.257-1.63-13.663Z" fill="#fff"/></g><path d="M333.247 81.015s6.571-18.43 7.827-19.192c1.255-.76 17.429-2.27 21.969-.761 4.541 1.51 3.286 16.16 3.286 16.16s-13.356.508-20.207 1.269a84.504 84.504 0 0 0-12.875 2.524Z" stroke="#263238" stroke-linecap="round" stroke-linejoin="round"/><path d="M366.449 74.858a111.664 111.664 0 0 0-31.105.414 408.497 408.497 0 0 0-2.097 5.743 84.504 84.504 0 0 1 12.875-2.524c6.825-.761 20.207-1.269 20.207-1.269s.08-.935.12-2.364Z" fill="#15803D" stroke="#263238" stroke-linecap="round" stroke-linejoin="round"/><path d="M327.945 83.54S335.771 80 349.154 80h19.953l3.018-5.342s-5.048 1.335-17.362 1.51c-12.314.173-27.833 4.34-26.818 7.371Z" fill="#fff"/><mask id="Romantic Getaway-bro 1__c" style="mask-type:luminance" maskUnits="userSpaceOnUse" x="327" y="74" width="46" height="10"><path d="M327.945 83.54S335.771 80 349.154 80h19.953l3.018-5.342s-5.048 1.335-17.362 1.51c-12.314.173-27.833 4.34-26.818 7.371Z" fill="#fff"/></mask><g mask="url(#Romantic Getaway-bro 1__c)"><path d="M354.71 76.207c-12.368.254-27.78 4.3-26.711 7.332 0 0 7.826-3.539 21.208-3.539h9.095c.271-.084.548-.147.828-.187 1.149 0-.761-2.67-.761-2.67s0-.375.12-1.043l-3.779.107Z" fill="#4B5563"/><path opacity=".5" d="M354.71 76.207c-12.368.254-27.78 4.3-26.711 7.332 0 0 7.826-3.539 21.208-3.539h9.095c.271-.084.548-.147.828-.187 1.149 0-.761-2.67-.761-2.67s0-.375.12-1.043l-3.779.107Z" fill="#fff"/></g><path d="M327.945 83.54S335.771 80 349.154 80h19.953l3.018-5.342s-5.048 1.335-17.362 1.51c-12.314.173-27.833 4.34-26.818 7.371Z" stroke="#263238" stroke-linecap="round" stroke-linejoin="round"/><path d="M390.329 141.903c-.08 1.015-.414 1.002 0 0Z" fill="#fff" stroke="#263238" stroke-linecap="round" stroke-linejoin="round"/><path d="M429.087 206.544c-4.755-11.873-5.944-24.921-11.874-36.781-5.929-14.237-8.307-29.663-15.425-43.9-7.105-13.048-22.531-20.167-35.406-25.282v.468a32.63 32.63 0 0 0-15.719-.601c-11.099 2.524-22.972 13.355-29.529 17.175-6.558 3.82-8.588 16.16-10.364 21.462-1.776 5.302-5.049 16.668-5.342 17.67-.294 1.001-6.05 7.078-7.319 12.874-1.269 5.797-8.828 33.59-10.097 36.621-1.269 3.032-2.27 11.099-2.27 12.621 0 1.523 1.001 4.007 2.016 4.007 1.015 0 6.064.507 7.319 0 1.256-.508 2.03-4.287 1.269-7.065-.761-2.778-3.032-5.556-3.032-9.095 0-3.54 15.947-29.009 19.259-34.738 3.312-5.73 5.048-15.412 6.304-17.175 1.255-1.763 7.332-13.129 7.332-13.129s7.572 28.528 7.065 31.559c-.508 3.032-4.007 5.556-4.007 8.588 0 2.23 1.737 7.933 3.9 8.988 1.736.855 4.701-.734 6.197-1.415 7.052-3.259 15.733-3.887 23.399-3.78.85-.014 1.7.053 2.538.2 5.569 1.149 22.317 10.925 22.317-1.976 0-7.119-4.755-10.458-3.566-17.563 2.324-8.133 3.405-16.641 6.344-24.574.006.089.006.178 0 .267.707 1.109 5.342 10.417 11.218 22.01l-.133.414s2.778 10.351 3.793 13.128c1.469 4.007 4.914 7.894 7.372 11.366 4.18 5.917 10.564 12.608 10.564 20.033-1.175 4.755-7.118 9.496-2.364 14.237 2.364 1.189 8.307 1.189 9.483-2.364 1.108-4.741-.067-9.509-1.242-14.25Z" fill="#fff"/><mask id="Romantic Getaway-bro 1__d" style="mask-type:luminance" maskUnits="userSpaceOnUse" x="285" y="99" width="146" height="125"><path d="M429.087 206.544c-4.755-11.873-5.944-24.921-11.874-36.781-5.929-14.237-8.307-29.663-15.425-43.9-7.105-13.048-22.531-20.167-35.406-25.282v.468a32.63 32.63 0 0 0-15.719-.601c-11.099 2.524-22.972 13.355-29.529 17.175-6.558 3.82-8.588 16.16-10.364 21.462-1.776 5.302-5.049 16.668-5.342 17.67-.294 1.001-6.05 7.078-7.319 12.874-1.269 5.797-8.828 33.59-10.097 36.621-1.269 3.032-2.27 11.099-2.27 12.621 0 1.523 1.001 4.007 2.016 4.007 1.015 0 6.064.507 7.319 0 1.256-.508 2.03-4.287 1.269-7.065-.761-2.778-3.032-5.556-3.032-9.095 0-3.54 15.947-29.009 19.259-34.738 3.312-5.73 5.048-15.412 6.304-17.175 1.255-1.763 7.332-13.129 7.332-13.129s7.572 28.528 7.065 31.559c-.508 3.032-4.007 5.556-4.007 8.588 0 2.23 1.737 7.933 3.9 8.988 1.736.855 4.701-.734 6.197-1.415 7.052-3.259 15.733-3.887 23.399-3.78.85-.014 1.7.053 2.538.2 5.569 1.149 22.317 10.925 22.317-1.976 0-7.119-4.755-10.458-3.566-17.563 2.324-8.133 3.405-16.641 6.344-24.574.006.089.006.178 0 .267.707 1.109 5.342 10.417 11.218 22.01l-.133.414s2.778 10.351 3.793 13.128c1.469 4.007 4.914 7.894 7.372 11.366 4.18 5.917 10.564 12.608 10.564 20.033-1.175 4.755-7.118 9.496-2.364 14.237 2.364 1.189 8.307 1.189 9.483-2.364 1.108-4.741-.067-9.509-1.242-14.25Z" fill="#fff"/></mask><g mask="url(#Romantic Getaway-bro 1__d)"><path d="m316.766 160.761-28.714 45.489c1.336-3.031 8.841-30.811 10.097-36.621 1.255-5.809 7.078-11.859 7.319-12.874.187-.735 2.016-7.092 3.672-12.515 4.648-2.818 10.177-6.437 12.675-9.121 4.728-5.062 8.107-10.124 8.788-2.671.481 5.342-.802 15.332-1.536 20.433-1.536-6.13-2.885-11.245-2.885-11.245s-6.063 11.366-7.332 13.129a31.333 31.333 0 0 0-2.084 5.996Zm106.124 44.074c-.441-3.887-1.336-8.414-4.194-12.02a95.739 95.739 0 0 1-12.821-24.641c-2.03-6.077-7.773-23.626-7.773-23.626l-4.341 3.913 7.786 15.506-.133.414s2.778 10.35 3.793 13.128c1.015 2.778 11.125 16.761 13.476 19.713a549.593 549.593 0 0 0 4.207 7.666v-.053Zm1.202 8.2c-.641-.641-.748-2.671-.949-5.342v1.135c-.975 3.913-5.155 7.813-4.006 11.726a27.606 27.606 0 0 0 6.597-1.803c2.752-1.269.054-3.967-1.642-5.663v-.053Z" fill="#4B5563"/><path opacity=".5" d="m316.766 160.761-28.714 45.489c1.336-3.031 8.841-30.811 10.097-36.621 1.255-5.809 7.078-11.859 7.319-12.874.187-.735 2.016-7.092 3.672-12.515 4.648-2.818 10.177-6.437 12.675-9.121 4.728-5.062 8.107-10.124 8.788-2.671.481 5.342-.802 15.332-1.536 20.433-1.536-6.13-2.885-11.245-2.885-11.245s-6.063 11.366-7.332 13.129a31.333 31.333 0 0 0-2.084 5.996Zm106.124 44.074c-.441-3.887-1.336-8.414-4.194-12.02a95.739 95.739 0 0 1-12.821-24.641c-2.03-6.077-7.773-23.626-7.773-23.626l-4.341 3.913 7.786 15.506-.133.414s2.778 10.35 3.793 13.128c1.015 2.778 11.125 16.761 13.476 19.713a549.593 549.593 0 0 0 4.207 7.666v-.053Zm1.202 8.2c-.641-.641-.748-2.671-.949-5.342v1.135c-.975 3.913-5.155 7.813-4.006 11.726a27.606 27.606 0 0 0 6.597-1.803c2.752-1.269.054-3.967-1.642-5.663v-.053Z" fill="#fff"/></g><path d="M429.087 206.544c-4.755-11.873-5.944-24.921-11.874-36.781-5.929-14.237-8.307-29.663-15.425-43.9-7.105-13.048-22.531-20.167-35.406-25.282v.468a32.63 32.63 0 0 0-15.719-.601c-11.099 2.524-22.972 13.355-29.529 17.175-6.558 3.82-8.588 16.16-10.364 21.462-1.776 5.302-5.049 16.668-5.342 17.67-.294 1.001-6.05 7.078-7.319 12.874-1.269 5.797-8.828 33.59-10.097 36.621-1.269 3.032-2.27 11.099-2.27 12.621 0 1.523 1.001 4.007 2.016 4.007 1.015 0 6.064.507 7.319 0 1.256-.508 2.03-4.287 1.269-7.065-.761-2.778-3.032-5.556-3.032-9.095 0-3.54 15.947-29.009 19.259-34.738 3.312-5.73 5.048-15.412 6.304-17.175 1.255-1.763 7.332-13.129 7.332-13.129s7.572 28.528 7.065 31.559c-.508 3.032-4.007 5.556-4.007 8.588 0 2.23 1.737 7.933 3.9 8.988 1.736.855 4.701-.734 6.197-1.415 7.052-3.259 15.733-3.887 23.399-3.78.85-.014 1.7.053 2.538.2 5.569 1.149 22.317 10.925 22.317-1.976 0-7.119-4.755-10.458-3.566-17.563 2.324-8.133 3.405-16.641 6.344-24.574.006.089.006.178 0 .267.707 1.109 5.342 10.417 11.218 22.01l-.133.414s2.778 10.351 3.793 13.128c1.469 4.007 4.914 7.894 7.372 11.366 4.18 5.917 10.564 12.608 10.564 20.033-1.175 4.755-7.118 9.496-2.364 14.237 2.364 1.189 8.307 1.189 9.483-2.364 1.108-4.741-.067-9.509-1.242-14.25Z" stroke="#263238" stroke-linecap="round" stroke-linejoin="round"/><path d="M331.484 270.878a238.23 238.23 0 0 0 3.272 27.272c2.284 10.858 3.54 28.046 3.793 34.083a63.475 63.475 0 0 1-1.015 12.634h10.111s-2.778-24.24-1.016-35.859c1.763-11.62 3.54-32.574 3.54-33.576 0-1.002-12.381.494-18.685-4.554Z" fill="#fff"/><mask id="Romantic Getaway-bro 1__e" style="mask-type:luminance" maskUnits="userSpaceOnUse" x="331" y="270" width="20" height="75"><path d="M331.484 270.878a238.23 238.23 0 0 0 3.272 27.272c2.284 10.858 3.54 28.046 3.793 34.083a63.475 63.475 0 0 1-1.015 12.634h10.111s-2.778-24.24-1.016-35.859c1.763-11.62 3.54-32.574 3.54-33.576 0-1.002-12.381.494-18.685-4.554Z" fill="#fff"/></mask><g mask="url(#Romantic Getaway-bro 1__e)"><path d="M340.379 344.867c.104-.231.185-.473.24-.721.788-3.552 1.977-7.506 0-17.789-1.976-10.284-5.141-38.731-4.34-43.099.801-4.367 12.648-5.93 12.648-5.93l-1.71-2.377c-4.007-.227-11.352-.561-15.733-4.073a238.23 238.23 0 0 0 3.272 27.272c2.284 10.858 3.54 28.046 3.793 34.083a63.475 63.475 0 0 1-1.015 12.634h2.845Z" fill="#4B5563"/><path opacity=".5" d="M340.379 344.867c.104-.231.185-.473.24-.721.788-3.552 1.977-7.506 0-17.789-1.976-10.284-5.141-38.731-4.34-43.099.801-4.367 12.648-5.93 12.648-5.93l-1.71-2.377c-4.007-.227-11.352-.561-15.733-4.073a238.23 238.23 0 0 0 3.272 27.272c2.284 10.858 3.54 28.046 3.793 34.083a63.475 63.475 0 0 1-1.015 12.634h2.845Z" fill="#fff"/></g><path d="M331.484 270.878a238.23 238.23 0 0 0 3.272 27.272c2.284 10.858 3.54 28.046 3.793 34.083a63.475 63.475 0 0 1-1.015 12.634h10.111s-2.778-24.24-1.016-35.859c1.763-11.62 3.54-32.574 3.54-33.576 0-1.002-12.381.494-18.685-4.554Z" stroke="#263238" stroke-linecap="round" stroke-linejoin="round"/><path d="M363.551 274.163a251.176 251.176 0 0 1-3.285 25.255c-2.017 9.349-10.605 36.354-11.366 39.132-.761 2.778.507 2.524 2.524 4.007a38.884 38.884 0 0 0 6.064 3.285l11.859.254s-10.604-9.589-10.604-11.619c0-2.03 7.078-18.925 11.619-28.782 4.541-9.856 9.843-19.432 12.368-28.046 2.524-8.615-16.401-11.059-19.179-3.486Z" fill="#fff"/><mask id="Romantic Getaway-bro 1__f" style="mask-type:luminance" maskUnits="userSpaceOnUse" x="348" y="269" width="35" height="78"><path d="M363.551 274.163a251.176 251.176 0 0 1-3.285 25.255c-2.017 9.349-10.605 36.354-11.366 39.132-.761 2.778.507 2.524 2.524 4.007a38.884 38.884 0 0 0 6.064 3.285l11.859.254s-10.604-9.589-10.604-11.619c0-2.03 7.078-18.925 11.619-28.782 4.541-9.856 9.843-19.432 12.368-28.046 2.524-8.615-16.401-11.059-19.179-3.486Z" fill="#fff"/></mask><g mask="url(#Romantic Getaway-bro 1__f)"><path d="m377.788 279.692-5.489-10.03c-3.9 0-7.639 1.456-8.748 4.501a251.176 251.176 0 0 1-3.285 25.255c-2.017 9.349-10.605 36.354-11.366 39.132-.761 2.778.507 2.524 2.524 4.007a38.884 38.884 0 0 0 6.064 3.285h1.068c-1.336-.908-2.671-1.896-4.087-2.925-5.943-4.353-1.589-6.677-1.589-7.919s13.048-49.029 16.214-54.17c3.165-5.142 8.694-1.136 8.694-1.136Z" fill="#4B5563"/><path opacity=".5" d="m377.788 279.692-5.489-10.03c-3.9 0-7.639 1.456-8.748 4.501a251.176 251.176 0 0 1-3.285 25.255c-2.017 9.349-10.605 36.354-11.366 39.132-.761 2.778.507 2.524 2.524 4.007a38.884 38.884 0 0 0 6.064 3.285h1.068c-1.336-.908-2.671-1.896-4.087-2.925-5.943-4.353-1.589-6.677-1.589-7.919s13.048-49.029 16.214-54.17c3.165-5.142 8.694-1.136 8.694-1.136Z" fill="#fff"/></g><path d="M363.551 274.163a251.176 251.176 0 0 1-3.285 25.255c-2.017 9.349-10.605 36.354-11.366 39.132-.761 2.778.507 2.524 2.524 4.007a38.884 38.884 0 0 0 6.064 3.285l11.859.254s-10.604-9.589-10.604-11.619c0-2.03 7.078-18.925 11.619-28.782 4.541-9.856 9.843-19.432 12.368-28.046 2.524-8.615-16.401-11.059-19.179-3.486Z" stroke="#263238" stroke-linecap="round" stroke-linejoin="round"/><path d="M333.247 189.342s-6.571 25.749-5.556 33.83c1.015 8.08.508 27.525-.761 35.098a96.865 96.865 0 0 0-1.255 14.143 79.799 79.799 0 0 0 16.667 6.558 17.789 17.789 0 0 0 14.692-3.272s.507-14.397 1.014-18.444c.508-4.047.508-14.384.508-14.384s1.255 17.923 1.255 21.97c0 4.047-1.509 15.145-1.509 15.145s10.351-2.27 15.907-.761a75.293 75.293 0 0 1 10.858 4.006s3.272-22.477 4.287-30.557c1.015-8.08-.254-36.608-1.015-44.434-.761-7.826-3.032-20.461-3.032-20.461s-6.05-4.54-16.654-5.556c-10.605-1.015-24.24 1.016-27.526 2.525a74.106 74.106 0 0 0-7.88 4.594Z" fill="#fff"/><mask id="Romantic Getaway-bro 1__g" style="mask-type:luminance" maskUnits="userSpaceOnUse" x="325" y="181" width="65" height="103"><path d="M333.247 189.342s-6.571 25.749-5.556 33.83c1.015 8.08.508 27.525-.761 35.098a96.865 96.865 0 0 0-1.255 14.143 79.799 79.799 0 0 0 16.667 6.558 17.789 17.789 0 0 0 14.692-3.272s.507-14.397 1.014-18.444c.508-4.047.508-14.384.508-14.384s1.255 17.923 1.255 21.97c0 4.047-1.509 15.145-1.509 15.145s10.351-2.27 15.907-.761a75.293 75.293 0 0 1 10.858 4.006s3.272-22.477 4.287-30.557c1.015-8.08-.254-36.608-1.015-44.434-.761-7.826-3.032-20.461-3.032-20.461s-6.05-4.54-16.654-5.556c-10.605-1.015-24.24 1.016-27.526 2.525a74.106 74.106 0 0 0-7.88 4.594Z" fill="#fff"/></mask><g mask="url(#Romantic Getaway-bro 1__g)"><path d="M340.446 192.187c4.594-2.297 18.07-1.643 29.248-1.643a42.391 42.391 0 0 0 15.586-2.671v-.134s-6.05-4.541-16.654-5.556c-10.604-1.015-24.24 1.015-27.526 2.525a74.077 74.077 0 0 0-7.826 4.554s-6.571 25.749-5.556 33.829c1.015 8.081.508 27.526-.761 35.099a93.963 93.963 0 0 0-.361 2.39c2.418 4.555 6.491 11.633 8.281 11.406 2.671-.32-1.336-6.237-2.671-12.153-1.336-5.917 3.606-5.596 3.606-5.596s.667-7.226 1.642-8.548c.975-1.322 13.476 24.654 17.095 24.654 3.62 0 2.297-8.868 2.297-8.868l.708 1.029c.121-2.231.267-4.181.414-5.343.508-4.006.508-14.383.508-14.383s1.255 17.923 1.255 21.969v.815c2.551 3.526 5.93 7.826 6.344 6.411.655-2.297.975-4.595 4.261-6.571 3.285-1.977 10.524-8.548 13.489-11.499 2.965-2.952-11.513 5.916-12.822 0-1.308-5.917-5.916-12.488-4.006-13.156 1.91-.667 11.178-3.939 13.809-7.879 2.631-3.94-12.821 1.963-17.749 1.963-4.928 0-1.336-5.262 1.976-6.571 3.313-1.309 4.595-2.297-.333-5.916-4.929-3.62-6.571-2.672-6.571-9.857 0-7.185-2.965-12.167-6.571-10.845-3.606 1.323-8.227 7.56-6.251 11.833 1.977 4.274 1.977 7.226-1.976 3.286-3.954-3.94 8.227 14.785 8.227 14.785 3.285 3.285-.989 1.976-8.548 0-7.559-1.977-11.178-4.929-11.178-10.511 0-5.583 4.006-26.551 8.614-28.848Z" fill="#4B5563"/><path opacity=".3" d="M340.446 192.187c4.594-2.297 18.07-1.643 29.248-1.643a42.391 42.391 0 0 0 15.586-2.671v-.134s-6.05-4.541-16.654-5.556c-10.604-1.015-24.24 1.015-27.526 2.525a74.077 74.077 0 0 0-7.826 4.554s-6.571 25.749-5.556 33.829c1.015 8.081.508 27.526-.761 35.099a93.963 93.963 0 0 0-.361 2.39c2.418 4.555 6.491 11.633 8.281 11.406 2.671-.32-1.336-6.237-2.671-12.153-1.336-5.917 3.606-5.596 3.606-5.596s.667-7.226 1.642-8.548c.975-1.322 13.476 24.654 17.095 24.654 3.62 0 2.297-8.868 2.297-8.868l.708 1.029c.121-2.231.267-4.181.414-5.343.508-4.006.508-14.383.508-14.383s1.255 17.923 1.255 21.969v.815c2.551 3.526 5.93 7.826 6.344 6.411.655-2.297.975-4.595 4.261-6.571 3.285-1.977 10.524-8.548 13.489-11.499 2.965-2.952-11.513 5.916-12.822 0-1.308-5.917-5.916-12.488-4.006-13.156 1.91-.667 11.178-3.939 13.809-7.879 2.631-3.94-12.821 1.963-17.749 1.963-4.928 0-1.336-5.262 1.976-6.571 3.313-1.309 4.595-2.297-.333-5.916-4.929-3.62-6.571-2.672-6.571-9.857 0-7.185-2.965-12.167-6.571-10.845-3.606 1.323-8.227 7.56-6.251 11.833 1.977 4.274 1.977 7.226-1.976 3.286-3.954-3.94 8.227 14.785 8.227 14.785 3.285 3.285-.989 1.976-8.548 0-7.559-1.977-11.178-4.929-11.178-10.511 0-5.583 4.006-26.551 8.614-28.848Z" fill="#fff"/><path d="M360.266 238.758s4.006 18.938 5.809 20.46c1.803 1.523 9.349 2.524 9.349 2.524" stroke="#263238" stroke-linecap="round" stroke-linejoin="round"/><path d="M366.583 262.05s7.572 2.016 12.367-2.525m-13.382-65.402-.762 21.463s3.286 5.342 14.905 6.063m-14.143-28.541s13.355 0 18.43 1.269" stroke="#263238" stroke-linecap="round" stroke-linejoin="round"/><path d="M366.329 198.157s10.858.253 15.145 1.268m-48.734 25.002c3.793 1.509 14.397-1.776 14.397-4.541 0-2.764 2.27-27.272 2.27-27.272" stroke="#263238" stroke-linecap="round" stroke-linejoin="round"/><path d="M346.629 199.172s-7.826 0-11.365 2.524m-1.256-4.795s6.558-4.287 13.89-2.524m-18.938 41.415s3.272 24.227 7.826 29.035m-7.572-12.126s0 12.621 4.007 15.399" stroke="#263238" stroke-linecap="round" stroke-linejoin="round"/></g><path d="M333.247 189.342s-6.571 25.749-5.556 33.83c1.015 8.08.508 27.525-.761 35.098a96.865 96.865 0 0 0-1.255 14.143 79.799 79.799 0 0 0 16.667 6.558 17.789 17.789 0 0 0 14.692-3.272s.507-14.397 1.014-18.444c.508-4.047.508-14.384.508-14.384s1.255 17.923 1.255 21.97c0 4.047-1.509 15.145-1.509 15.145s10.351-2.27 15.907-.761a75.293 75.293 0 0 1 10.858 4.006s3.272-22.477 4.287-30.557c1.015-8.08-.254-36.608-1.015-44.434-.761-7.826-3.032-20.461-3.032-20.461s-6.05-4.54-16.654-5.556c-10.605-1.015-24.24 1.016-27.526 2.525a74.106 74.106 0 0 0-7.88 4.594Z" stroke="#263238" stroke-linecap="round" stroke-linejoin="round"/><path d="M390.302 141.85c-.053 1.068-.387 1.055 0 0Z" fill="#4B5563" stroke="#263238" stroke-linecap="round" stroke-linejoin="round"/><path d="M401.788 125.863c-7.105-13.048-22.531-20.167-35.406-25.282v.468a32.63 32.63 0 0 0-15.719-.601c-11.099 2.524-22.972 13.355-29.529 17.175-6.558 3.82-8.588 16.16-10.364 21.462a781.751 781.751 0 0 0-1.509 4.755c4.42.374 10.016 1.456 13.355 4.394 1.83-3.326 3.593-6.678 3.593-6.678s7.572 28.527 7.065 31.559c-.508 3.032-4.007 5.556-4.007 8.588 0 2.23 1.737 7.933 3.9 8.988 1.736.855 4.701-.735 6.197-1.416 7.052-3.258 15.733-3.886 23.399-3.779.85-.014 1.7.053 2.538.2 5.569 1.149 22.317 10.925 22.317-1.977 0-7.118-4.755-10.457-3.566-17.562 2.324-8.134 3.405-16.641 6.344-24.574.006.089.006.178 0 .267.4.628 2.043 3.86 4.46 8.627 1.229-3.432 4.354-8.333 12.207-12.019a102.99 102.99 0 0 0-5.275-12.595Z" fill="#15803D"/><mask id="Romantic Getaway-bro 1__h" style="mask-type:luminance" maskUnits="userSpaceOnUse" x="309" y="99" width="99" height="92"><path d="M401.788 125.863c-7.105-13.048-22.531-20.167-35.406-25.282v.468a32.63 32.63 0 0 0-15.719-.601c-11.099 2.524-22.972 13.355-29.529 17.175-6.558 3.82-8.588 16.16-10.364 21.462a781.751 781.751 0 0 0-1.509 4.755c4.42.374 10.016 1.456 13.355 4.394 1.83-3.326 3.593-6.678 3.593-6.678s7.572 28.527 7.065 31.559c-.508 3.032-4.007 5.556-4.007 8.588 0 2.23 1.737 7.933 3.9 8.988 1.736.855 4.701-.735 6.197-1.416 7.052-3.258 15.733-3.886 23.399-3.779.85-.014 1.7.053 2.538.2 5.569 1.149 22.317 10.925 22.317-1.977 0-7.118-4.755-10.457-3.566-17.562 2.324-8.134 3.405-16.641 6.344-24.574.006.089.006.178 0 .267.4.628 2.043 3.86 4.46 8.627 1.229-3.432 4.354-8.333 12.207-12.019a102.99 102.99 0 0 0-5.275-12.595Z" fill="#fff"/></mask><g mask="url(#Romantic Getaway-bro 1__h)"><path d="M356.246 136.748s-3.086 17.549-8.321 29.876m8.32-18.791s-4.006 22.384-7.706 29.476m10.778-41.482s3.393 15.706 6.478 22.784m-2.471.615s3.392 12.327 7.078 17.869" stroke="#263238" stroke-linecap="round" stroke-linejoin="round"/><path opacity=".26" d="M329.214 181.756c0-2.671 2.671-4.888 3.686-7.412 1.736-1.042 3.566-1.736 3.566-.614 0 1.816-4.354 6.544-2.912 5.449 1.443-1.096 11.633-4.007 19.62-2.177 7.986 1.829 16.707 5.088 19.245 2.911 2.538-2.177 1.816-8.721 1.816-8.721l4.728 5.81a76.277 76.277 0 0 0-1.095-13.075c-1.082-4.715-2.537-23.6-2.537-23.6l7.265 20.701s-.374-2.55-1.456-10.537c-1.082-7.987-5.088-33.389-5.088-33.389l14.237 24.748c-2.898 7.88-4.007 16.32-6.291 24.387-1.188 7.105 3.566 10.444 3.566 17.563 0 12.901-16.748 3.125-22.317 1.976a13.395 13.395 0 0 0-2.537-.2c-7.666-.107-16.348.521-23.399 3.78-1.496.681-4.461 2.27-6.197 1.415-2.164-1.082-3.9-6.771-3.9-9.015Zm27.953-66.497s-1.456 16.347-4.007 29.062c-2.551 12.714-4.354 18.524-4.354 18.524s6.892-16.027 8.348-27.606c.902-6.629.907-13.35.013-19.98Z" fill="#263238"/></g><path d="M401.788 125.863c-7.105-13.048-22.531-20.167-35.406-25.282v.468a32.63 32.63 0 0 0-15.719-.601c-11.099 2.524-22.972 13.355-29.529 17.175-6.558 3.82-8.588 16.16-10.364 21.462a781.751 781.751 0 0 0-1.509 4.755c4.42.374 10.016 1.456 13.355 4.394 1.83-3.326 3.593-6.678 3.593-6.678s7.572 28.527 7.065 31.559c-.508 3.032-4.007 5.556-4.007 8.588 0 2.23 1.737 7.933 3.9 8.988 1.736.855 4.701-.735 6.197-1.416 7.052-3.258 15.733-3.886 23.399-3.779.85-.014 1.7.053 2.538.2 5.569 1.149 22.317 10.925 22.317-1.977 0-7.118-4.755-10.457-3.566-17.562 2.324-8.134 3.405-16.641 6.344-24.574.006.089.006.178 0 .267.4.628 2.043 3.86 4.46 8.627 1.229-3.432 4.354-8.333 12.207-12.019a102.99 102.99 0 0 0-5.275-12.595Z" stroke="#263238" stroke-linecap="round" stroke-linejoin="round"/><path d="M420.245 214.971s-2.07 2.311-2.671 2.872c-.601.561-2.671 1.749-2.15 2.47.521.722 2.871-.4 3.032-.641.16-.24 1.789-4.701 1.789-4.701Z" fill="#fff" stroke="#263238" stroke-linecap="round" stroke-linejoin="round"/><path d="M423.237 211.365s0 2.538 1.122 3.379a8.371 8.371 0 0 1 1.976 3.099 5.015 5.015 0 0 0-3.098-1.416c-1.683 0-3.553 2.671-1.977 5.075" stroke="#263238" stroke-linecap="round" stroke-linejoin="round"/><path d="M423.237 216.427s-2.484-1.71-3.553-.374m6.291 1.336s-3.58 1.041-2.177 4.42m2.818-3.806s-1.75 2.15-.401 3.9" stroke="#263238" stroke-linecap="round" stroke-linejoin="round"/><path d="M191.465 107.272s-1.242-1.616 4.541-5.556c6.317-4.3 20.46-10.858 21.97-13.89 1.509-3.031 2.778-5.81 5.342-6.557 2.564-.748 9.122-2.27 8.36-.761-.761 1.509-5.582 2.524-6.09 3.285-.507.761-3.779 3.018-4.794 4.795-1.015 1.776-7.573 10.35-12.114 16.16-3.753 4.781-4.554 6.811-6.317 7.826a8.752 8.752 0 0 1-8.334 0" fill="#fff"/><mask id="Romantic Getaway-bro 1__i" style="mask-type:luminance" maskUnits="userSpaceOnUse" x="191" y="79" width="41" height="35"><path d="M191.465 107.272s-1.242-1.616 4.541-5.556c6.317-4.3 20.46-10.858 21.97-13.89 1.509-3.031 2.778-5.81 5.342-6.557 2.564-.748 9.122-2.27 8.36-.761-.761 1.509-5.582 2.524-6.09 3.285-.507.761-3.779 3.018-4.794 4.795-1.015 1.776-7.573 10.35-12.114 16.16-3.753 4.781-4.554 6.811-6.317 7.826a8.752 8.752 0 0 1-8.334 0" fill="#fff"/></mask><g mask="url(#Romantic Getaway-bro 1__i)"><path d="M232.814 80.04s-10.097 2.35-12.207 4.701c-2.111 2.35-8.454 8.454-11.753 10.324-3.299 1.87-17.149 11.045-17.616 13.356-.468 2.31 9.349 1.082 9.349 1.082s16.026-18.698 19.339-21.049c3.312-2.35 12.914-4.701 15.505-6.584 2.591-1.883-2.617-1.83-2.617-1.83Z" fill="#4B5563"/><path opacity=".5" d="M232.814 80.04s-10.097 2.35-12.207 4.701c-2.111 2.35-8.454 8.454-11.753 10.324-3.299 1.87-17.149 11.045-17.616 13.356-.468 2.31 9.349 1.082 9.349 1.082s16.026-18.698 19.339-21.049c3.312-2.35 12.914-4.701 15.505-6.584 2.591-1.883-2.617-1.83-2.617-1.83Z" fill="#fff"/></g><path d="M191.465 107.272s-1.242-1.616 4.541-5.556c6.317-4.3 20.46-10.858 21.97-13.89 1.509-3.031 2.778-5.81 5.342-6.557 2.564-.748 9.122-2.27 8.36-.761-.761 1.509-5.582 2.524-6.09 3.285-.507.761-3.779 3.018-4.794 4.795-1.015 1.776-7.573 10.35-12.114 16.16-3.753 4.781-4.554 6.811-6.317 7.826a8.752 8.752 0 0 1-8.334 0" stroke="#263238" stroke-linecap="round" stroke-linejoin="round"/><path d="M249.027 116.354a11.606 11.606 0 0 0-4.287 7.332 55.851 55.851 0 0 1-1.015 6.558l-12.367-.254-6.571-2.778s3.032-1.002 4.554-6.558a20.539 20.539 0 0 0-.761-11.365s1.015-2.524 8.013-2.524c6.999 0 12.434 9.589 12.434 9.589Z" fill="#fff"/><mask id="Romantic Getaway-bro 1__j" style="mask-type:luminance" maskUnits="userSpaceOnUse" x="224" y="106" width="26" height="25"><path d="M249.027 116.354a11.606 11.606 0 0 0-4.287 7.332 55.851 55.851 0 0 1-1.015 6.558l-12.367-.254-6.571-2.778s3.032-1.002 4.554-6.558a20.539 20.539 0 0 0-.761-11.365s1.015-2.524 8.013-2.524c6.999 0 12.434 9.589 12.434 9.589Z" fill="#fff"/></mask><g mask="url(#Romantic Getaway-bro 1__j)"><path d="M249.027 116.354a11.606 11.606 0 0 0-4.287 7.332 55.851 55.851 0 0 1-1.015 6.558l-12.367-.254-6.571-2.778s3.032-1.002 4.554-6.558a20.539 20.539 0 0 0-.761-11.365s1.015-2.524 8.013-2.524c6.999 0 12.434 9.589 12.434 9.589Z" fill="#4B5563"/><path opacity=".5" d="M249.027 116.354a11.606 11.606 0 0 0-4.287 7.332 55.851 55.851 0 0 1-1.015 6.558l-12.367-.254-6.571-2.778s3.032-1.002 4.554-6.558a20.539 20.539 0 0 0-.761-11.365s1.015-2.524 8.013-2.524c6.999 0 12.434 9.589 12.434 9.589Z" fill="#fff"/></g><path d="M249.027 116.354a11.606 11.606 0 0 0-4.287 7.332 55.851 55.851 0 0 1-1.015 6.558l-12.367-.254-6.571-2.778s3.032-1.002 4.554-6.558a20.539 20.539 0 0 0-.761-11.365s1.015-2.524 8.013-2.524c6.999 0 12.434 9.589 12.434 9.589Z" stroke="#263238" stroke-linecap="round" stroke-linejoin="round"/><path d="M260.647 215.586s-3.793 26.711-7.066 35.352c-3.272 8.641-4.554 11.619-3.539 17.923 1.015 6.304 4.287 28.193-.507 39.305-3.139 7.279-7.065 20.181-7.065 24.721 0 4.541 3.779 15.386 3.779 15.386h-8.828s-.507-7.319-1.015-10.858c-.507-3.539-2.524-5.342-1.763-8.334.762-2.992 3.032-1.736 3.286-15.372s-1.777-33.75-1.523-42.591c.254-8.841 3.032-54.023 3.032-54.023l21.209-1.509Z" fill="#fff"/><mask id="Romantic Getaway-bro 1__k" style="mask-type:luminance" maskUnits="userSpaceOnUse" x="234" y="215" width="27" height="134"><path d="M260.647 215.586s-3.793 26.711-7.066 35.352c-3.272 8.641-4.554 11.619-3.539 17.923 1.015 6.304 4.287 28.193-.507 39.305-3.139 7.279-7.065 20.181-7.065 24.721 0 4.541 3.779 15.386 3.779 15.386h-8.828s-.507-7.319-1.015-10.858c-.507-3.539-2.524-5.342-1.763-8.334.762-2.992 3.032-1.736 3.286-15.372s-1.777-33.75-1.523-42.591c.254-8.841 3.032-54.023 3.032-54.023l21.209-1.509Z" fill="#fff"/></mask><g mask="url(#Romantic Getaway-bro 1__k)"><path d="m237.982 241.322.481.734s16.093-21.649 22.184-26.47l-21.209 1.522s-.708 11.606-1.456 24.214Z" fill="#4B5563"/><path opacity=".5" d="m237.982 241.322.481.734s16.093-21.649 22.184-26.47l-21.209 1.522s-.708 11.606-1.456 24.214Z" fill="#fff"/><path d="M238.597 244.901s-.388 17.362.4 27.673c.788 10.31 7.907 23.332 7.506 33.215-.401 9.883-5.93 18.591-5.93 18.591l-5.93 1.189s1.189-22.144 1.189-29.663v-38.357l2.765-12.648Z" fill="#4B5563"/><path opacity=".5" d="M238.597 244.901s-.388 17.362.4 27.673c.788 10.31 7.907 23.332 7.506 33.215-.401 9.883-5.93 18.591-5.93 18.591l-5.93 1.189s1.189-22.144 1.189-29.663v-38.357l2.765-12.648Z" fill="#fff"/></g><path d="M260.647 215.586s-3.793 26.711-7.066 35.352c-3.272 8.641-4.554 11.619-3.539 17.923 1.015 6.304 4.287 28.193-.507 39.305-3.139 7.279-7.065 20.181-7.065 24.721 0 4.541 3.779 15.386 3.779 15.386h-8.828s-.507-7.319-1.015-10.858c-.507-3.539-2.524-5.342-1.763-8.334.762-2.992 3.032-1.736 3.286-15.372s-1.777-33.75-1.523-42.591c.254-8.841 3.032-54.023 3.032-54.023l21.209-1.509Z" stroke="#263238" stroke-linecap="round" stroke-linejoin="round"/><path d="m215.705 216.347 5.342 37.115c1.015 7.065-2.524 9.589-3.031 18.431-.508 8.841 2.778 34.23 4.794 42.31 2.017 8.08 2.271 10.35 2.017 11.873-.254 1.523-3.272 3.272-2.27 6.558 1.001 3.285 2.27 3.793 2.03 5.555a46.642 46.642 0 0 0-1.336 7.573 12.442 12.442 0 0 0 .761 4.541h9.843s-2.27-11.86-2.27-14.691c0-2.832-1.269-14.397-.254-20.447 1.015-6.051 4.287-33.737 4.795-41.309.507-7.573.761-22.705.761-29.543 0-6.838 1.255-27.018 1.255-27.018s-17.896-6.504-22.437-.948Z" fill="#fff"/><mask id="Romantic Getaway-bro 1__l" style="mask-type:luminance" maskUnits="userSpaceOnUse" x="215" y="214" width="24" height="137"><path d="m215.705 216.347 5.342 37.115c1.015 7.065-2.524 9.589-3.031 18.431-.508 8.841 2.778 34.23 4.794 42.31 2.017 8.08 2.271 10.35 2.017 11.873-.254 1.523-3.272 3.272-2.27 6.558 1.001 3.285 2.27 3.793 2.03 5.555a46.642 46.642 0 0 0-1.336 7.573 12.442 12.442 0 0 0 .761 4.541h9.843s-2.27-11.86-2.27-14.691c0-2.832-1.269-14.397-.254-20.447 1.015-6.051 4.287-33.737 4.795-41.309.507-7.573.761-22.705.761-29.543 0-6.838 1.255-27.018 1.255-27.018s-17.896-6.504-22.437-.948Z" fill="#fff"/></mask><g mask="url(#Romantic Getaway-bro 1__l)"><path d="M221.555 214.143v1.897l15.506 23.786c.307-8.628 1.162-22.477 1.162-22.477s-9.79-3.54-16.668-3.206Z" fill="#4B5563"/><path opacity=".5" d="M221.555 214.143v1.897l15.506 23.786c.307-8.628 1.162-22.477 1.162-22.477s-9.79-3.54-16.668-3.206Z" fill="#fff"/><path d="M221.194 218.791s-3.552 12.261-1.576 22.945c1.977 10.684 4.354 19.766 4.354 25.309 0 5.542-3.165 10.283-3.165 20.167 0 9.883 3.553 26.884 5.142 32.814a8.39 8.39 0 0 1-3.566 9.095s-9.483-41.909-9.483-53.769 5.93-18.19 3.553-31.252c-2.377-13.062-4.741-28.047-4.741-28.047l9.482 2.738Z" fill="#4B5563"/><path opacity=".5" d="M221.194 218.791s-3.552 12.261-1.576 22.945c1.977 10.684 4.354 19.766 4.354 25.309 0 5.542-3.165 10.283-3.165 20.167 0 9.883 3.553 26.884 5.142 32.814a8.39 8.39 0 0 1-3.566 9.095s-9.483-41.909-9.483-53.769 5.93-18.19 3.553-31.252c-2.377-13.062-4.741-28.047-4.741-28.047l9.482 2.738Z" fill="#fff"/></g><path d="m215.705 216.347 5.342 37.115c1.015 7.065-2.524 9.589-3.031 18.431-.508 8.841 2.778 34.23 4.794 42.31 2.017 8.08 2.271 10.35 2.017 11.873-.254 1.523-3.272 3.272-2.27 6.558 1.001 3.285 2.27 3.793 2.03 5.555a46.642 46.642 0 0 0-1.336 7.573 12.442 12.442 0 0 0 .761 4.541h9.843s-2.27-11.86-2.27-14.691c0-2.832-1.269-14.397-.254-20.447 1.015-6.051 4.287-33.737 4.795-41.309.507-7.573.761-22.705.761-29.543 0-6.838 1.255-27.018 1.255-27.018s-17.896-6.504-22.437-.948Z" stroke="#263238" stroke-linecap="round" stroke-linejoin="round"/><path d="m197.021 108.528 3.539 1.015s17.669 9.349 23.479 14.691c5.81 5.342 16.16 3.285 16.16 3.285s14.691-.507 17.923 2.525c3.232 3.031 2.017 14.691-.253 25.762-2.271 11.072-6.064 19.686-5.81 21.209.254 1.523 7.573 15.653 9.856 24.734a73.984 73.984 0 0 1 2.271 16.161s-7.079 2.524-13.356 4.006c-3.918.89-7.996.803-11.873-.253l-15.399-1.015c-7.826-.508-11.365-2.017-11.365-2.017s2.016-16.16 4.3-23.733 6.811-17.923 6.811-17.923-4.006-23.492-5.342-28.541c-1.335-5.048-5.048-11.86-11.112-17.669-6.063-5.81-13.355-16.922-14.691-18.698-1.335-1.776-2.27-4.795.748-5.81" fill="#fff"/><mask id="Romantic Getaway-bro 1__m" style="mask-type:luminance" maskUnits="userSpaceOnUse" x="190" y="106" width="75" height="117"><path d="m197.021 108.528 3.539 1.015s17.669 9.349 23.479 14.691c5.81 5.342 16.16 3.285 16.16 3.285s14.691-.507 17.923 2.525c3.232 3.031 2.017 14.691-.253 25.762-2.271 11.072-6.064 19.686-5.81 21.209.254 1.523 7.573 15.653 9.856 24.734a73.984 73.984 0 0 1 2.271 16.161s-7.079 2.524-13.356 4.006c-3.918.89-7.996.803-11.873-.253l-15.399-1.015c-7.826-.508-11.365-2.017-11.365-2.017s2.016-16.16 4.3-23.733 6.811-17.923 6.811-17.923-4.006-23.492-5.342-28.541c-1.335-5.048-5.048-11.86-11.112-17.669-6.063-5.81-13.355-16.922-14.691-18.698-1.335-1.776-2.27-4.795.748-5.81" fill="#fff"/></mask><g mask="url(#Romantic Getaway-bro 1__m)"><path d="M206.864 130.751c6.063 5.81 9.843 12.621 11.112 17.67.828 3.339 2.871 14.691 4.167 22.01h15.639a55.514 55.514 0 0 1 15.279 2.671c1.041-3.272 2.764-8.294 4.18-14.264-.361-1.456-1.028-2.497-2.124-2.751-4.901-1.135-10.55-4.154-7.906-16.588 1.335-6.317 3.259-9.709 4.821-11.526a81.998 81.998 0 0 0-11.766-.52s-10.351 2.016-16.16-3.286c-4.301-.734-21.182-6.103-29.516-8.788 2.872 4.221 7.893 11.192 12.274 15.372Z" fill="#4B5563"/><path opacity=".5" d="M206.864 130.751c6.063 5.81 9.843 12.621 11.112 17.67.828 3.339 2.871 14.691 4.167 22.01h15.639a55.514 55.514 0 0 1 15.279 2.671c1.041-3.272 2.764-8.294 4.18-14.264-.361-1.456-1.028-2.497-2.124-2.751-4.901-1.135-10.55-4.154-7.906-16.588 1.335-6.317 3.259-9.709 4.821-11.526a81.998 81.998 0 0 0-11.766-.52s-10.351 2.016-16.16-3.286c-4.301-.734-21.182-6.103-29.516-8.788 2.872 4.221 7.893 11.192 12.274 15.372Z" fill="#fff"/><path d="m212.166 218.618 9.028.173s-8.788-5.342-5.636-5.342 4.528 1.042 4.528 0-8.014-3.139-3.139-10.471c4.875-7.332 18.164-12.541 24.842-8.294 6.677 4.247 14.303 10.124 13.609 13.61-.695 3.486-6.277 5.235-6.277 5.235s12.915-2.444 10.123-1.402a99.885 99.885 0 0 0-9.776 5.235s14.304-1.736 9.776.361a142.375 142.375 0 0 1-13.275 5.582s-22.531-1.295-33.803-4.687Z" fill="#4B5563"/><path opacity=".3" d="m212.166 218.618 9.028.173s-8.788-5.342-5.636-5.342 4.528 1.042 4.528 0-8.014-3.139-3.139-10.471c4.875-7.332 18.164-12.541 24.842-8.294 6.677 4.247 14.303 10.124 13.609 13.61-.695 3.486-6.277 5.235-6.277 5.235s12.915-2.444 10.123-1.402a99.885 99.885 0 0 0-9.776 5.235s14.304-1.736 9.776.361a142.375 142.375 0 0 1-13.275 5.582s-22.531-1.295-33.803-4.687Z" fill="#fff"/><path d="m225.294 216.093 12.875 3.286v2.524m0-2.524a68.776 68.776 0 0 0 12.888-4.007m-15.105-21.022s-2.791 9.67-.28 17.363m8.521-15.693s7.385-2.551 13.355 1.429m-27.779-1.429s-6.825-1.135-10.805 1.135" stroke="#263238" stroke-linecap="round" stroke-linejoin="round"/></g><path d="m197.021 108.528 3.539 1.015s17.669 9.349 23.479 14.691c5.81 5.342 16.16 3.285 16.16 3.285s14.691-.507 17.923 2.525c3.232 3.031 2.017 14.691-.253 25.762-2.271 11.072-6.064 19.686-5.81 21.209.254 1.523 7.573 15.653 9.856 24.734a73.984 73.984 0 0 1 2.271 16.161s-7.079 2.524-13.356 4.006c-3.918.89-7.996.803-11.873-.253l-15.399-1.015c-7.826-.508-11.365-2.017-11.365-2.017s2.016-16.16 4.3-23.733 6.811-17.923 6.811-17.923-4.006-23.492-5.342-28.541c-1.335-5.048-5.048-11.86-11.112-17.669-6.063-5.81-13.355-16.922-14.691-18.698-1.335-1.776-2.27-4.795.748-5.81" stroke="#263238" stroke-linecap="round" stroke-linejoin="round"/><path d="M259.725 194.951c-3.045-8.093-7.466-16.828-7.666-17.989-.2-1.162 2.551-7.84 4.781-16.708a14.067 14.067 0 0 1-10.337.294c-6.758-2.939-5.275-26.711-3.793-33.109h-2.511s-7.773 1.509-13.622-1.536c0 5.049-.214 15.907-1.536 23.252a25.895 25.895 0 0 1-4.728 11.085 1852.157 1852.157 0 0 1 2.965 16.695s-4.327 9.856-6.678 17.362c8.962-1.523 27.699-3.846 43.125.654Z" fill="#15803D"/><mask id="Romantic Getaway-bro 1__n" style="mask-type:luminance" maskUnits="userSpaceOnUse" x="216" y="125" width="44" height="70"><path d="M259.725 194.951c-3.045-8.093-7.466-16.828-7.666-17.989-.2-1.162 2.551-7.84 4.781-16.708a14.067 14.067 0 0 1-10.337.294c-6.758-2.939-5.275-26.711-3.793-33.109h-2.511s-7.773 1.509-13.622-1.536c0 5.049-.214 15.907-1.536 23.252a25.895 25.895 0 0 1-4.728 11.085 1852.157 1852.157 0 0 1 2.965 16.695s-4.327 9.856-6.678 17.362c8.962-1.523 27.699-3.846 43.125.654Z" fill="#fff"/></mask><g mask="url(#Romantic Getaway-bro 1__n)"><path opacity=".26" d="M246.503 160.548c-6.758-2.939-5.275-26.711-3.793-33.109h-2.511s-7.773 1.509-13.622-1.536c0 5.049-.214 15.907-1.536 23.252a25.895 25.895 0 0 1-4.728 11.085 1852.157 1852.157 0 0 1 2.965 16.695s-1.95 4.434-3.927 9.629c7.92-4.981 20.835-9.669 35.98-2.097-1.75-3.913-3.165-6.891-3.272-7.532-.214-1.336 2.551-7.84 4.781-16.708a14.063 14.063 0 0 1-10.337.321Z" fill="#263238"/></g><path d="M259.725 194.951c-3.045-8.093-7.466-16.828-7.666-17.989-.2-1.162 2.551-7.84 4.781-16.708a14.067 14.067 0 0 1-10.337.294c-6.758-2.939-5.275-26.711-3.793-33.109h-2.511s-7.773 1.509-13.622-1.536c0 5.049-.214 15.907-1.536 23.252a25.895 25.895 0 0 1-4.728 11.085 1852.157 1852.157 0 0 1 2.965 16.695s-4.327 9.856-6.678 17.362c8.962-1.523 27.699-3.846 43.125.654Z" stroke="#263238" stroke-linecap="round" stroke-linejoin="round"/><path d="M255.598 99.7s1.015 3.018 1.763 3.272c.748.253 2.524 1.268 1.776 2.524a5.825 5.825 0 0 1-1.522 1.776s-.508 5.81-1.763 8.334c-1.256 2.524-9.095 1.255-10.351 1.255-1.255 0-8.333-2.27-10.604-5.048-2.27-2.778 14.905-12.62 20.701-12.113Z" fill="#fff"/><mask id="Romantic Getaway-bro 1__o" style="mask-type:luminance" maskUnits="userSpaceOnUse" x="234" y="99" width="26" height="19"><path d="M255.598 99.7s1.015 3.018 1.763 3.272c.748.253 2.524 1.268 1.776 2.524a5.825 5.825 0 0 1-1.522 1.776s-.508 5.81-1.763 8.334c-1.256 2.524-9.095 1.255-10.351 1.255-1.255 0-8.333-2.27-10.604-5.048-2.27-2.778 14.905-12.62 20.701-12.113Z" fill="#fff"/></mask><g mask="url(#Romantic Getaway-bro 1__o)"><path d="M255.598 99.7s1.015 3.018 1.763 3.272c.748.253 2.524 1.268 1.776 2.524a5.825 5.825 0 0 1-1.522 1.776s-.508 5.81-1.763 8.334c-1.256 2.524-9.095 1.255-10.351 1.255-1.255 0-8.333-2.27-10.604-5.048-2.27-2.778 14.905-12.62 20.701-12.113Z" fill="#4B5563"/><path opacity=".5" d="M255.598 99.7s1.015 3.018 1.763 3.272c.748.253 2.524 1.268 1.776 2.524a5.825 5.825 0 0 1-1.522 1.776s-.508 5.81-1.763 8.334c-1.256 2.524-9.095 1.255-10.351 1.255-1.255 0-8.333-2.27-10.604-5.048-2.27-2.778 14.905-12.62 20.701-12.113Z" fill="#fff"/></g><path d="M255.598 99.7s1.015 3.018 1.763 3.272c.748.253 2.524 1.268 1.776 2.524a5.825 5.825 0 0 1-1.522 1.776s-.508 5.81-1.763 8.334c-1.256 2.524-9.095 1.255-10.351 1.255-1.255 0-8.333-2.27-10.604-5.048-2.27-2.778 14.905-12.62 20.701-12.113Z" stroke="#263238" stroke-linecap="round" stroke-linejoin="round"/><path d="M245.501 107.019a22.174 22.174 0 0 0-1.522 18.216c3.539 10.351 4.794 20.448-.254 29.289-5.048 8.842-14.691 8.334-21.462 4.795-6.772-3.539-9.349-14.384-5.342-25.242 4.006-10.858 5.555-17.683 7.078-22.478 1.522-4.794 4.007-14.143 13.89-14.383 9.883-.24 8.868 4.5 7.612 9.803Z" fill="#263238" stroke="#263238" stroke-linecap="round" stroke-linejoin="round"/><path d="M223.785 104.494s-17.923 18.177-17.923 19.406c0 1.229 26.511-7.84 43.673-17.936 17.162-10.097 27.779-31.052 26.257-30.798-1.523.253-27.259 10.604-27.259 10.604s-3.285 13.93-24.748 18.724Z" fill="#15803D"/><mask id="Romantic Getaway-bro 1__p" style="mask-type:luminance" maskUnits="userSpaceOnUse" x="205" y="75" width="71" height="50"><path d="M223.785 104.494s-17.923 18.177-17.923 19.406c0 1.229 26.511-7.84 43.673-17.936 17.162-10.097 27.779-31.052 26.257-30.798-1.523.253-27.259 10.604-27.259 10.604s-3.285 13.93-24.748 18.724Z" fill="#fff"/></mask><g mask="url(#Romantic Getaway-bro 1__p)"><path opacity=".2" d="M247.318 92.007c.2-.521-.321-.828-1.336-.988-3.005 4.46-9.349 10.604-22.197 13.475 0 0-17.923 18.177-17.923 19.446 0 .708 8.387-1.87 18.791-6.05 9.696-10.124 21.97-24.027 22.665-25.883Z" fill="#263238"/></g><path d="M223.785 104.494s-17.923 18.177-17.923 19.406c0 1.229 26.511-7.84 43.673-17.936 17.162-10.097 27.779-31.052 26.257-30.798-1.523.253-27.259 10.604-27.259 10.604s-3.285 13.93-24.748 18.724Z" stroke="#263238" stroke-linecap="round" stroke-linejoin="round"/><path d="M250.804 85.302s-7.573-6.57-12.381-6.57-16.908 5.061-17.669 9.856c-.762 4.794 3.031 17.669 3.031 17.669s5.556.254 16.668-7.319c11.112-7.572 10.351-13.636 10.351-13.636Z" fill="#15803D"/><mask id="Romantic Getaway-bro 1__q" style="mask-type:luminance" maskUnits="userSpaceOnUse" x="220" y="78" width="31" height="29"><path d="M250.804 85.302s-7.573-6.57-12.381-6.57-16.908 5.061-17.669 9.856c-.762 4.794 3.031 17.669 3.031 17.669s5.556.254 16.668-7.319c11.112-7.572 10.351-13.636 10.351-13.636Z" fill="#fff"/></mask><g mask="url(#Romantic Getaway-bro 1__q)"><path opacity=".15" d="M224.974 90.618c-4.18-2.097 2.444-8.013 2.444-8.013l-.28-.214c-3.313 1.79-6.037 4.006-6.384 6.224-.762 4.794 3.031 17.669 3.031 17.669s5.556.254 16.668-7.319a39.924 39.924 0 0 0 4.113-3.192 24.385 24.385 0 0 0 2.752-3.74c1.041-2.858-18.15.668-22.344-1.415Z" fill="#111827"/></g><path d="M250.804 85.302s-7.573-6.57-12.381-6.57-16.908 5.061-17.669 9.856c-.762 4.794 3.031 17.669 3.031 17.669s5.556.254 16.668-7.319c11.112-7.572 10.351-13.636 10.351-13.636Zm-16.161 243.792s.748-5.556 4.795-3.018m-14.891 1.255s2.016-3.285 5.048 2.271" stroke="#263238" stroke-linecap="round" stroke-linejoin="round"/><path d="M252.753 147.245c.989 2.752 3.019 8.468 4.007 11.5 1.336 4.086 3.339 12.995 6.13 19.672a200.14 200.14 0 0 0 13.476 26.231c2.27 3.739 4.955 7.171 7.172 10.938.908 1.536 1.95 3.9 3.659 4.728 2.231 1.095 6.545.734 6.545.734s2.03-.427 3.552-.628c1.523-.2.321-2.016-.401-2.791-.307-.334-.881-1.175-1.629-2.11 1.365.215 2.749.273 4.127.174.921-.267.521-.935.521-.935s-4.007-1.857-4.635-1.99c-.627-.134-4.006-.641-4.006-.641-2.671-1.109-4.221-1.924-4.928-3.459-.708-1.536-9.67-26.992-11.299-30.838-1.63-3.847-4.835-6.491-5.236-9.282-.4-2.792-3.592-27.152-7.131-34.11-3.54-6.959-8.374-6.104-8.374-6.104" fill="#fff"/><mask id="Romantic Getaway-bro 1__r" style="mask-type:luminance" maskUnits="userSpaceOnUse" x="252" y="128" width="48" height="94"><path d="M252.753 147.245c.989 2.752 3.019 8.468 4.007 11.5 1.336 4.086 3.339 12.995 6.13 19.672a200.14 200.14 0 0 0 13.476 26.231c2.27 3.739 4.955 7.171 7.172 10.938.908 1.536 1.95 3.9 3.659 4.728 2.231 1.095 6.545.734 6.545.734s2.03-.427 3.552-.628c1.523-.2.321-2.016-.401-2.791-.307-.334-.881-1.175-1.629-2.11 1.365.215 2.749.273 4.127.174.921-.267.521-.935.521-.935s-4.007-1.857-4.635-1.99c-.627-.134-4.006-.641-4.006-.641-2.671-1.109-4.221-1.924-4.928-3.459-.708-1.536-9.67-26.992-11.299-30.838-1.63-3.847-4.835-6.491-5.236-9.282-.4-2.792-3.592-27.152-7.131-34.11-3.54-6.959-8.374-6.104-8.374-6.104" fill="#fff"/></mask><g mask="url(#Romantic Getaway-bro 1__r)"><path d="M299.939 214.718s-4.007-1.857-4.635-1.99l-1.148-.187c-4.074.36-8.014.454-9.122-.508-2.364-2.016-12.488-22.277-15.867-29.382-3.379-7.105-8.774-23.973-11.472-33.082-2.043-6.891-.614 6.09.2 12.835a143.272 143.272 0 0 0 5.022 15.947 199.884 199.884 0 0 0 13.476 26.23c2.27 3.739 4.955 7.172 7.172 10.938.908 1.536 1.95 3.9 3.659 4.728 2.23 1.095 6.544.734 6.544.734s2.03-.427 3.553-.627c1.522-.201.32-2.017-.401-2.792-.307-.333-.881-1.175-1.629-2.11 1.364.215 2.749.273 4.127.174.921-.201.521-.908.521-.908Z" fill="#4B5563"/><path opacity=".5" d="M299.939 214.718s-4.007-1.857-4.635-1.99l-1.148-.187c-4.074.36-8.014.454-9.122-.508-2.364-2.016-12.488-22.277-15.867-29.382-3.379-7.105-8.774-23.973-11.472-33.082-2.043-6.891-.614 6.09.2 12.835a143.272 143.272 0 0 0 5.022 15.947 199.884 199.884 0 0 0 13.476 26.23c2.27 3.739 4.955 7.172 7.172 10.938.908 1.536 1.95 3.9 3.659 4.728 2.23 1.095 6.544.734 6.544.734s2.03-.427 3.553-.627c1.522-.201.32-2.017-.401-2.792-.307-.333-.881-1.175-1.629-2.11 1.364.215 2.749.273 4.127.174.921-.201.521-.908.521-.908Z" fill="#fff"/></g><path d="M252.753 147.245c.989 2.752 3.019 8.468 4.007 11.5 1.336 4.086 3.339 12.995 6.13 19.672a200.14 200.14 0 0 0 13.476 26.231c2.27 3.739 4.955 7.171 7.172 10.938.908 1.536 1.95 3.9 3.659 4.728 2.231 1.095 6.545.734 6.545.734s2.03-.427 3.552-.628c1.523-.2.321-2.016-.401-2.791-.307-.334-.881-1.175-1.629-2.11 1.365.215 2.749.273 4.127.174.921-.267.521-.935.521-.935s-4.007-1.857-4.635-1.99c-.627-.134-4.006-.641-4.006-.641-2.671-1.109-4.221-1.924-4.928-3.459-.708-1.536-9.67-26.992-11.299-30.838-1.63-3.847-4.835-6.491-5.236-9.282-.4-2.792-3.592-27.152-7.131-34.11-3.54-6.959-8.374-6.104-8.374-6.104" stroke="#263238" stroke-linecap="round" stroke-linejoin="round"/><path d="M132.941 161.522c-.147.255-.187.321 0 0Zm-7.105-15.572a2.66 2.66 0 0 0-.721 1.042c-.228.694.213-.08.721-1.042Zm-13.89 55.92a8.962 8.962 0 0 0-1.149 1.896c-.173.548.267-.307 1.149-1.896Zm10.565-54.571a4.003 4.003 0 0 0-.228.348c-.214.414-.067.174.228-.348Z" fill="#263238"/><path d="M198.557 174.33c1.108.615 3.619 1.697 3.619 1.697l-4.888-3.419 4.247 1.335s-5.209-4.007-4.007-3.673c.523.192 1.032.419 1.523.681-1.63-1.215-3.66-2.938-3.66-2.938s-.093-2.123.708-1.335c.802.788 5.489 3.966 5.489 3.966l-2.31-5.729 5.075 6.891-3.205-8.627-3.166-4.702a7.831 7.831 0 0 0-2.524-1.081c-.788 0-1.656-.535-2.444-.535h-.788l.614-1.896-3.218.254 4.006-1.042-3.779-.454s4.007-1.336 2.898-1.67c-1.109-.334-7.159-1.335-7.159-1.335l5.102-.428-.948-.307 3.058-1.335s-7.078 0-5.903-.348a54.582 54.582 0 0 1 6.291-.828l-4.261-1.335 3.139-1.589-2.912.093 1.87-2.524-2.591.721s3.366-3.085 2.498-2.845c-.868.241-4.007 1.336-4.007 1.336s4.007-3.646 2.885-3.246c-1.122.401-3.686 1.683-3.686 1.683l1.001-3.071c-.227.707-2.337 2.363-2.337 2.363l.614-1.883s5.957-2.243 4.461-2.47c-1.496-.228-7.078-.735-7.853 0-.774.734-2.19 1.909-2.19 1.909l1.469-4.701-3.9 4.741.12-5.195-1.335 5.596-.561-1.496-1.069 3.312-.721-1.803-.855 2.605-1.161 1.963-1.79 3.085v2.591l-.347 1.963-1.469 2.925h-1.576l2.791-16.614-3.072 9.456 1.816-9.603s-3.606 11.9-3.459 10.685c.147-1.216 1.176-12.434 1.176-12.434s-2.671 9.348-2.832 10.27c.201-.922-.627-10.084-.627-10.084l-1.056 6.451s-.454-9.041-.841-7.853c-.387 1.189-1.549 4.007-1.549 4.007l-1.589-5.903s.761 6.517.587 5.422c-.173-1.095-3.045-9.108-3.112-8.013-.066 1.095.828 6.277.187 5.809a52.67 52.67 0 0 1-3.499-6.103l.988 5.81-3.405-4.007 1.91 4.541-1.87-1.429-2.311-1.763-4.18 1.108s3.018.868 2.23.868c-.788 0-4.407-.133-3.459.174.949.307 5.583 1.336 4.247 1.336-1.335 0-6.597.2-6.597.2s6.998.975 5.195 1.696-4.381 2.23-3.285 2.07c1.095-.16 5.262-.895 5.262-.895s-5.075 4.354-2.498 2.845a26.866 26.866 0 0 1 7.773-2.177s-5.088 3.566-3.753 2.671c1.336-.895 5.716-2.324 5.249-1.683-.467.642-3.82 3.713-2.805 3.005 1.015-.707 6.758-.681 5.423-.587l-4.862 2.858 4.635-.588s-4.541 2.671-2.965 2.671c1.576 0 5.662.281 5.662.281s-4.006 1.83-3.218 1.83c.788 0 4.247.601 4.247.601l-3.286 2.056 2.912-.093-2.805 3.005 2.738-.414s-1.936 4.34-1.335 3.232a8.48 8.48 0 0 1 2.818-2.217l.788 1.562s-1.937 2.765-.922 2.845a4.862 4.862 0 0 0 2.351-.801l-1.697 4.407s-6.677-8.988-7.692-10.871c-1.015-1.883-2.565-5.797-2.565-5.797l.187 3.459a15.224 15.224 0 0 0-5.622-6.811 73.692 73.692 0 0 0-10.965-5.663c-1.189-.387 1.335-.32-4.728-.748-6.064-.427-7.386.989-7.386.989s4.007.641 5.236.761a19.695 19.695 0 0 0-4.007 1.977s5.022-.975 3.459-.174a30.32 30.32 0 0 0-4.688 4.007l2.752-.414s-1.51 2.671-2.191 3.833a26.442 26.442 0 0 1 4.461-3.62s-.601 1.242-1.135 2.271c.961-.962 2.444-1.643 2.097-1.175-.348.467-3.366 3.085-1.336 1.896a30.152 30.152 0 0 1 4.621-2.15s-2.885 3.245-2.11 2.444a9.12 9.12 0 0 1 3.526-1.202s-3.433 3.325-1.79 2.297a16.67 16.67 0 0 1 4.942-1.523s-3.673 3.246-2.03 2.204a7.268 7.268 0 0 1 1.576-.668c1.36-.39 2.749-.676 4.153-.854l-1.482 2.123 2.243-.694c1.603-.508 3.393-1.055 2.671-.828-1.175.4 1.336 2.27 1.336 2.27l-2.591.721 3.846.214a46.459 46.459 0 0 0 4.742 3.112s-14.892-5.636-19.66-1.443c-4.768 4.194-7.799 10.271-6.931 9.242.868-1.028 3.659-4.006 3.659-4.006s-2.003 4.581-.681 2.911c1.322-1.669 6.798-6.41 6.798-6.41l-3.032 6.076 4.314-1.99-1.763 3.032c.681-1.122 4.514-3.446 4.514-3.446s-2.965 5.049-2.03 3.78a11.372 11.372 0 0 1 3.927-2.377l-1.402 1.896c.467-.628 3.512-2.778 3.045-2.15-.468.628-3.593 3.806-1.95 2.765a15.044 15.044 0 0 1 2.818-1.429l-.534 1.656c.534-1.657 2.898-2.458 2.671-1.75a10.213 10.213 0 0 1-1.162 1.977s2.19-1.91 1.963-1.189c-.227.721-2.337 3.152-1.255 2.204 1.081-.949 4.153-2.311 3.378-1.523-.774.788-2.737 1.99-1.335 1.67a23.48 23.48 0 0 1 3.526-.428l-.855 1.029c.59.019 1.175.123 1.736.307.855.317 1.693.678 2.511 1.082 0 0-15.572-2.672-19.659-2.217-4.087.454-5.022.974-6.277 1.602-1.256.628 3.232.534 3.232.534l-7.386 1.777 5.583-.267-6.905 1.923 6.13.441-5.249 1.682s3.379.842 2.591.842c-.788 0-3.365.734-5.876 1.228-2.511.495-3.286 2.057-5.342 2.672-2.057.614-5.236 4.006-5.236 4.006l2.351-.801-2.564 3.165-1.803 2.217s.093 2.11.788 1.563c.694-.548 2.898-2.458 2.898-2.458l-1.469 2.912 2.27-1.336s-3.272 5.997-2.337 4.741c.935-1.255 3.753-4.273 3.753-4.273s-3.099 6.304-2.671 5.676c.427-.628 5.342-7.666 5.342-7.666s-2.244 5.342-1.549 4.728c.694-.615 4.22-4.902 4.22-4.902s-1.629 3.392-.614 2.671a36.363 36.363 0 0 0 3.672-4.006s-2.177 4.26-1.001 3.071c1.175-1.188 3.352-3.873 3.352-3.873s-1.776 5.436-1.149 4.327c.628-1.108 4.007-5.222 4.007-5.222s-1.229 3.126-.895 3.206a197.758 197.758 0 0 0-3.539 4.006 87.656 87.656 0 0 0-9.349 14.291c1.736-2.418 4.768-5.85 4.768-5.85s-2.324 4.741-1.002 3.072c1.323-1.67 3.126-4.007 3.126-4.007s-.989 3.045-1.162 3.553c.24-.708 4.287-5.93 4.287-5.93s-.962 2.978-1.336 4.26a23.857 23.857 0 0 1 1.336-3.112 67.74 67.74 0 0 1 2.19-3.833l2.19-1.896s-1.121 3.432-1.535 4.728c.774-2.364 5.342-8.454 5.342-8.454s-2.244 6.077-1.696 5.208c.547-.868 4.006-6.01 4.006-6.01s-2.551 6.224-2.243 5.343c.307-.882-6.091 5.849-8.788 14.13l4.701-3.179s-7.426 6.678-6.331 6.558c1.095-.12 5.569-2.671 5.102-1.99-.467.681-5.062 7.492-5.062 7.492s5.623-5.222 4.768-4.193c-.855 1.028-4.006 5.996-4.006 5.996s4.14-3.873 3.352-3.085a32.332 32.332 0 0 0-2.551 5.449l2.965-3.486s-1.857 4.101-1.162 3.553c.414-.334 2.497-1.91 4.14-3.165-7.853 12.273-19.686 30.891-27.058 43.005-11.82 19.418-37.997 68.513-42.284 74.43-1.656 2.297-5.342 9.028-9.349 16.401 4.448-.441 9.35-.815 14.21-1.015 1.71-3.219 3.086-5.917 3.807-7.586 3.245-7.56 22.317-49.296 23.185-50.324.868-1.028 8.508-18.925 20.033-38.411 11.526-19.485 19.259-34.243 23.239-38.437 1.683-1.763 4.367-4.648 6.918-7.385l-.748 1.335 2.364-3.032.922-.988c-.775 1.483-2.671 5.249-1.015 3.446 2.03-2.217 5.155-6.157 5.155-6.157l-6.932 10.805s-.681 3.699-1.215 5.342c-.534 1.642-1.776 4.647-1.776 4.647l3.9-4.741-2.979 8.12s2.03-2.217 1.723-1.335c-.307.881-3.325 7.012-3.325 7.012l5.128-7.733-1.229 3.779 1.737-4.928 1.736-4.915 3.352-3.873s-2.858 8.013-2.31 7.092c.547-.922 5.662-10.965 5.662-10.965l-3.459 10.684-1.162 4.328 6.758-12.701s-1.629 5.021-2.003 6.143c.548-1.656 4.634-11.82 4.634-11.82a2.925 2.925 0 0 1 .695-2.123c.855-1.028 2.511-.494 2.511-.494l-3.219 11.499 3.419-4.888s-2.952 9.082-3.152 9.683c.227-.708 3.9-5.53 3.9-5.53l-3.085 9.456 2.11-1.669-1.162 3.552 1.175-1.188-1.455 4.487 2.177-1.896-1.683 5.195 6.076-7.426.975 4.234 1.336-5.823.841-2.605 1.59 1.563.12-3.619 1.335 1.723-.747-4.154 1.108.614-.962-3.445 2.217 2.016-1.215-4.314 1.576.775-1.335-3.045 1.803.841-1.737-2.671 1.883.615-2.858-4.007 1.51 1.015-1.83-3.219-.494-1.722 2.858 4.006s.254 1.656.961 1.883a6.155 6.155 0 0 0 2.431-.253s-1.336 3.232-.601 3.472c.735.24.614-1.109.708.227.093 1.336-1.683 6.771-1.683 6.771l1.643-1.816-.908 5.97 1.335-1.656-1.229 3.779 1.336-1.656-1.536 4.728 2.257-2.925v4.715s1.656-.241 2.938-8.975c.305-2.101.457-4.221.455-6.344l.2-.508s-.187 7.787-.174 8.575c.014.788 1.843-5.676 1.843-5.676s.374 7.706.615 10.137c.24 2.43 2.243-6.852 2.243-6.852a30.871 30.871 0 0 0 .949-10.925 32.539 32.539 0 0 0-2.525-8.587c.788-.935 2.605-2.898 2.605-2.898l-1.149 4.34 2.257-2.925-1.749 5.436 2.564-3.873s-1.068 4.875-.601 4.247c.467-.628 1.776-4.648 1.709-3.633-.066 1.015-.988 5.436-.988 5.436s1.549-4.728 1.79-3.072c.164 1.669.227 3.346.187 5.022 0 0 1.148-5.903 1.229-4.568.08 1.336.988 5.81.988 5.81s.12-5.97.681-4.488c.561 1.483 2.244 7.533 2.003 5.89-.24-1.643-.681-6.758-.36-5.342.32 1.416 1.335 5.649 1.335 5.649s-.988-6.597.374-3.539a41.757 41.757 0 0 0 2.391 4.701l-.908-6.05 2.457 2.898-2.951-6.197 2.671 2.418-3.5-6.104c-3.098-4.928 1.082-1.736-5.956-8.213-7.038-6.478-4.835-5.236-9.643-8.895-4.808-3.66 1.336.694 1.336.694l-1.336-3.058 1.509 1.015.588-5.035 2.965 7.759.681-3.699s1.336 5.649 1.523 4.942a45.35 45.35 0 0 0 .36-5.102l1.336 4.861s.668-5.342 1.335-4.007c.668 1.336 2.244 6.745 2.244 6.745l1.776-4.648 1.069 6.358 1.228-3.78.895 4.474 2.097-4.007.494 4.087-.521-8.013 2.364.761s-4.327-3.432-3.218-2.805Zm-21.743 20.354a1.262 1.262 0 0 1 0-.213l.173-.241-.173.454Zm2.417 12.501v-1.202c.494-.735.868-1.336.868-1.336s-.4 1.082-.868 2.511v.027Zm4.261-16.307s-.855 2.27-1.256 3.512c-.133-.32-.28-.641-.414-.975a89.182 89.182 0 0 0 1.67-2.564v.027Zm-1.656-.534s-.281.881-.561 1.843a7.92 7.92 0 0 0-.254-.575l.815-1.268Zm-1.817-2.418c-.102.334-.187.673-.254 1.015-.08-.187-.173-.36-.253-.534.4-.641.654-.961.507-.507v.026Zm-.24 11.94-.908 2.805c0-.481-.134-.935-.201-1.336.628-.868 1.109-1.496 1.109-1.496v.027Zm-1.122-3.766-.655 2.003c-.093-.334-.173-.654-.267-.961l.922-1.042Z" fill="#263238"/><path d="M199.051 171.005c.552.459 1.152.858 1.789 1.189.628.213-.601-.561-1.789-1.189Zm215.852-55.679c0 .627.734-1.042 1.616-3.259a10.505 10.505 0 0 0-1.616 3.259Zm27.365 7.065c-.265.821-.475 1.66-.627 2.51-.147 1.136.227-.547.627-2.51Zm101.182-12.354c.427 1.082.868 2.017.868 2.017l-.868-2.017Zm-9.843-28.394a16.47 16.47 0 0 0 2.978 2.978c1.443.882-.975-1.282-2.978-2.978Z" fill="#263238"/><path d="M547.898 348.18a218.859 218.859 0 0 1-10.498-26.979c-13.182-41.509-15.666-83.739-18.537-98.831-2.872-15.091-16.641-56.654-19.112-62.156a87.422 87.422 0 0 1-5.022-16.828l5.529 9.001-.427-2.083-.721-3.513-.067-3.552 4.007 6.798-1.763-11.446 1.816 2.671-2.31-7.118 1.001.681-.387-4.848-.12-1.483-.267-4.113 1.522 4.834.761-5.609.922 5.342 3.352-4.714-.641 4.808a34.415 34.415 0 0 1 2.564-2.925c-.681 1.002-3.298 6.357-3.298 6.357l4.38-4.3-3.285 8.267 4.193-4.888-3.405 7.172 4.22-5.156-4.26 9.496 4.741-6.971s-4.728 8.881-3.593 8.494c1.135-.388 6.678-6.678 6.678-6.678l-1.469 6.878 3.085-4.755-.828 6.144 2.391-5.663-.802 8.014 2.124-5.703-.401 7.025 1.71-.588 1.549 2.671 1.095-6.117v8.174l.721-5.342 1.763 5.142.801-4.007 1.189 5.342.534-4.006 1.336 4.26-2.15-8.374-.521-2.057-1.483-3.686 2.03 1.095-1.669-3.766s-2.311-3.032-.975-2.845a19.98 19.98 0 0 1 3.9 1.336l-4.875-3.967-6.878-7.452 3.739.494s-4.954-3.659-3.886-3.512c1.068.146 4.247.841 4.247.841l-5.556-3.192 6.678-1.336 1.108 5.877 1.884-3.833-.535 5.916 2.671-3.726-1.121 8.294 3.058-4.488-.775 7.787 1.79-5.209.187 8.735 1.963-6.531 1.723 9.482 2.271-6.771 1.335 7.8 1.189-4.742.801 4.194.588-2.364 1.576 3.446 1.99 4.38 1.803.788-1.055-8.307 4.006 8.428.294-6.211 3.833 7.853-.828-6.13-.267-1.896-.988-4.768 2.23 1.656-2.364-3.539 1.336.173s-10.191-5.182-8.588-4.968c1.603.214 9.269 4.007 9.269 4.007s-5.65-4.581-9.109-7.212c-3.459-2.631-3.646-3.219-6.45-6.585-2.805-3.365-5.97-6.25-7.386-7.799a31.564 31.564 0 0 0-5.075-4.768c-1.963-1.523-1.042-1.336-1.977-2.017-.481-.334-1.429-.881-3.472-1.977a102.606 102.606 0 0 1-11.045-6.931l9.482 2.364 8.788 7.439s-7.946-7.6-6.918-7.185a75.095 75.095 0 0 1 6.21 4.367s-3.739-4.581-2.671-3.9c1.069.681 8.227 7.639 8.227 7.639s-4.514-6.878-2.671-6.09c1.843.788 6.678 6.892 6.678 6.892s-4.18-7.359-2.257-5.476c1.923 1.883 9.723 12.741 9.723 12.741s-6.678-11.499-5.343-11.058a6.999 6.999 0 0 0 2.979.133l2.23 5.196c-.641-1.63-1.255-3.593-.307-3.313 1.562.481 6.117 7.092 6.117 7.092s-3.873-7.599-2.084-6.811c1.79.788 6.037 9.79 6.037 9.79l-.614-5.53s2.11 6.545 2.257 5.476c.147-1.068-.641-7.439-.641-7.439l2.924 6.678.147-5.142 1.95 5.703.08-4.621 2.284 5.208s-1.789-4.861-.334-3.579a28.289 28.289 0 0 1 3.673 5.115s-5.075-8.841-4.007-8.694c1.344.396 2.643.933 3.874 1.603 0 0-7.8-6.758-5.93-6.505a22.12 22.12 0 0 1 3.432.735l-8.187-3.833 5.276 1.255s-11.9-4.594-11.099-4.487l-3.472-.468s-.308-3.846-7.92-7.866c-7.613-4.02-13.356-5.876-14.691-6.063-1.336-.187 5.462-.08 5.462-.08s-4.968-1.483-3.873-1.603a67.92 67.92 0 0 1 6.985.668s-6.584-3.606-5.516-3.473c1.069.134 8.227 3.566 8.227 3.566l-2.137-3.62s.975.815 2.097 1.79c-2.471-2.938-5.222-6.838-5.222-6.838l7.065 6.13s-3.633-5.342-2.324-4.941c1.309.4 4.915 3.927 4.915 3.927s-1.255-3.673-1.776-5.022a32.564 32.564 0 0 0 3.592 3.632l-1.095-4.006 3.62 5.342.24-3.78 3.553 5.917-.681-4.821 2.537 3.325s-1.723-5.342-.561-3.873a58.697 58.697 0 0 1 3.326 5.61s-.922-5.343.534-4.007a48.266 48.266 0 0 1 4.634 6.063s-2.243-7.653-1.335-6.678a15.607 15.607 0 0 1 2.043 3.005s-1.162-3.432-.133-3.018a22.714 22.714 0 0 1 3.686 2.952s-1.777-2.965-.748-2.551c1.028.414 3.072 1.496 3.072 1.496s-3.767-2.404-.935-1.216a21.366 21.366 0 0 1 4.794 2.832l-5.569-5.116 5.73 1.87s-7.813-4.594-7.012-4.487c.801.106 3.82 0 2.778-.441-1.042-.44-7.372-1.803-5.436-2.097a19.9 19.9 0 0 0 4.007-1.095l-6.918-1.202s3.659-.868 2.324-1.055c-1.336-.187-11.139-.134-11.139-.134s9.75-1.683-3.713-.774a177.78 177.78 0 0 0-7.412.668l-1.055-.441 4.928-.16-6.544-1.964c1.602.214-.855-1.75-.855-1.75l-9.603-1.629s5.423.187 4.394-.227c-1.028-.414-3.713-.761-8.828-1.188-2.738-.214-6.677 1.669-9.803 3.459-1.335-.094-3.165 0-3.165 0 1.451-.7 2.98-1.225 4.554-1.563 1.336-.094-2.137-.294-2.137-.294a46.234 46.234 0 0 0 7.386-2.27c1.482-.895-2.831-1.202-2.831-1.202l4.26-1.336 8.922.388s-11.045-2.859-8.989-3.94c2.057-1.082 1.937-.28 3.005-.134l3.206.428s9.482 2.363 12.954 2.83c3.473.468-7.692-3.485-7.692-3.485l5.609.761a18.283 18.283 0 0 0-3.325-1.536c-.802-.106 3.512.2 3.512.2a33.694 33.694 0 0 0-4.901-2.03c-1.069-.133 5.342-1.175 5.342-1.175l-8.014-1.081 7.346-2.004s-14.371 1.603-19.326 2.017c-4.954.414-3.766 1.67-5.435 1.99-1.67.32-4.835 5.61-4.835 5.61l1.536-3.326s-4.928 4.233-6.21 5.69c-1.282 1.455-6.464 11.645-6.464 11.645a59.615 59.615 0 0 0-1.042-6.397 10.96 10.96 0 0 1 3.259-2.003c1.709-.588-3.166-.708-3.166-.708l3.192-1.47-3.632-1.335.934-.962c.949-.961 1.83-1.335 6.384-2.951 4.555-1.616 3.299-2.27 3.299-2.27l-2.471.2-2.911-.655-1.336.32-3.712.896 4.006-3.54-7.011 1.51s3.485-3.606 6.878-4.515c3.392-.908 3.312-.373 3.312-.373l6.678 2.804-2.578-3.072 3.659-.868s-2.764-1.723-4.006-2.444c-1.242-.72 4.006-1.095 5.102-1.482 1.095-.388-4.007-.548-6.144-.828-2.137-.28 2.805-2.671 2.805-2.671l-3.887.56 2.458-2.123-1.429-1.55-2.832 1.336-2.671 1.216 2.564-2.912a50.081 50.081 0 0 0-10.991 8.855c-4.795 5.342-5.423 8.013-5.423 8.013l-1.335-4.26-1.095 6.117-2.671-6.344.36 5.489-2.07-4.901-.214 1.602 2.939 8.548-.254 1.883 1.028 4.487-2.097 5.436 3.072-2.591-1.669 6.317 3.112-2.858a54.99 54.99 0 0 0-3.126 5.035c-.414 1.028 1.336-1.469 1.336-1.469l-2.898 5.342s4.247-3.245 5.115-3.66c.868-.413-.708 1.256-1.669 4.395-.28.909-.463 1.844-.548 2.791a50.415 50.415 0 0 0-6.972-3.526c-13.128-5.582-14.464-5.756-17.255-5.342a22.948 22.948 0 0 0-6.678 2.912s5.262-.655 4.421-.495c-.841.16-5.983 4.087-5.115 3.66.868-.428 6.21-1.616 6.21-1.616l-3.9 4.647s4.474-2.924 3.833-2.203a31.104 31.104 0 0 0-2.097 3.526l2.672-1.817-.962 3.139 2.391-1.843-.722 5.342.561 1.336-1.055.2c-9.816 2.217-17.135 2.057-21.622 4.981-4.488 2.925-10.311 7.867-11.74 10.391-.761 1.336-2.03 4.701-3.058 7.279 2.056-3.299 5.342-7.786 5.342-7.786s-1.456 8.788-.828 6.143c.628-2.644 4.661-8.347 4.661-8.347s-3.125 5.022-.935 2.871c2.19-2.15 4.661-4.273 4.661-4.273s-4.367 8.12-1.482 4.968a148.574 148.574 0 0 1 5.342-5.543s-1.843 3.566-.254 1.883c1.589-1.682 3.473-3.619 3.473-3.619s-4.475 7.012-2.511 4.554a56.85 56.85 0 0 1 4.768-5.075s-2.471 6.211-1.189 4.741a40.536 40.536 0 0 1 4.314-3.766s-3.259 6.09-2.244 4.595c.534-.788 1.883-2.471 3.032-3.874l1.87-2.27h2.444s-5.209 6.371-2.778 4.528l1.108-.882a28.312 28.312 0 0 0-1.696 5.155c-2.497 10.551-4.3 19.833-3.886 18.805.414-1.029 3.445-7.439 3.339-6.678 0 .387-.428 2.351-.802 4.1.975-3.245 2.671-7.92 2.671-7.92s-1.442 10.685-.814 8.014c.627-2.671 3.272-10.177 3.272-10.177l-.788 5.876c.254-1.87 3.312-10.43 3.312-10.43s-2.551 10.818-.775 7.786a25.494 25.494 0 0 0 1.429-2.965.495.495 0 0 0 .334-.067c1.75-.855 4.862-7.786 4.862-7.786s-1.857 7.653-.655 4.821a63.76 63.76 0 0 1 3.312-6.357s-2.19 8.134-1.335 6.077c.855-2.057 4.007-7.893 4.007-7.893s-2.151 7.866-1.336 6.344a39.816 39.816 0 0 1 2.738-4.261s-3.179 7.466-1.857 5.743a32.31 32.31 0 0 1 3.78-3.846l2.751-.174s-12.167 9.509-16.654 16.534c-4.488 7.025-8.775 12.688-9.349 17.229-.561 4.14-1.736 12.888-1.83 13.636.134-1.069 4.354-12.207 4.354-12.207s-2.31 11.125-.841 8.334a77.29 77.29 0 0 0 3.392-9.069s-1.763 13.089-.494 9.723c1.269-3.365 3.446-13.355 3.446-13.355s-.641 10.791.374 9.348c1.015-1.442 4.1-12.233 4.1-12.233l-.481 7.559 2.417-7.84s-.293 6.211.655 5.249c.948-.962 3.419-7.159 3.419-7.159l-.508 3.753 4.421-10.564s-.908 6.678-.494 5.65c.414-1.029 3.365-8.802 3.365-8.802s-1.442 6.611-.721 5.342c.721-1.268 4.635-12.166 4.635-12.166v7.893l.347-.909 1.736-4.527s2.671.361 1.696 1.589c-.975 1.229-3.913 6.825-3.913 6.825s-2.23 6.504-2.858 9.135c-.628 2.631-1.336 5.543-1.336 5.543l4.595-7.813-2.124 7.599 2.11-3.526-.961 7.225 1.496-3.071-1.042 7.759s1.816-5.475 1.95-4.367c.133 1.109.494 10.404.494 10.404 1.576.481 3.125 9.135 3.245 8.334.121-.801 1.015-5.583 1.015-5.583s-.307 8.401.094 7.359c.4-1.042 2.07-9.242 2.07-9.242s.254 8.2.414 9.028c.16.828 1.336-1.722 1.336-1.722l1.629 4.006a64.044 64.044 0 0 0 4.674-6.451 15.988 15.988 0 0 0 1.456-4.701l-.708-2.818 2.337.855-4.58-4.421 4.861 2.284-6.678-4.981 5.863 2.978-1.335-2.097 2.671.588c3.846 14.197 9.415 35.726 15.906 61.248 7.546 29.663 15.893 94.437 15.893 94.437s7.199 24.548 14.691 45.275l10.485.041ZM522.642 69.049l-.374.08-.921-.641 1.295.56Zm-3.526.814-.841.228a76.8 76.8 0 0 0-1.91-.909l2.751.681Zm-2.925.788-.307.094-.454.147-2.15-1.042s1.336.32 2.911.735v.067Zm-3.565 1.336-1.122.534-.388-.734 1.51.2Zm-56.294 17.002 1.696-2.845 2.498-2.39-.668 4.94c-1.202-.066-2.377.028-3.526.174v.12Zm17.175.146a100.275 100.275 0 0 0-13.289-.454 81.34 81.34 0 0 1 1.336-2.03c1.108-1.682 2.324-3.432 2.27-2.991-.106.801 1.563.48 1.563.48s-1.442 4.702-1.042 3.673a14.366 14.366 0 0 1 2.311-2.965v2.177l1.456-.654.868-.387h2.177l-.495 1.562s3.874-2.47 3.192-1.469a45.364 45.364 0 0 1-1.656 2.23l2.591-1.014-1.282 1.842Zm14.184 51.62 1.669.854c.334 1.176.681 2.431 1.042 3.753l-2.711-4.607ZM212.593 92.087c0 .628-.748-1.042-1.629-3.259a10.357 10.357 0 0 1 1.629 3.26Zm-27.379 7.065c.264.823.478 1.662.642 2.511.146 1.135-.161-.561-.642-2.51ZM84.033 86.798a38.515 38.515 0 0 1-.868 2.017l.868-2.017Zm9.843-28.34a16.024 16.024 0 0 1-3.005 2.925c-1.336.881 1.042-1.283 3.005-2.925Z" fill="#263238"/><path d="M210.964 88.828c-1.015-2.577-2.284-5.916-3.058-7.279-1.43-2.524-7.266-7.452-11.74-10.39-4.474-2.938-11.793-2.765-21.623-4.982-.334-.08-.694-.133-1.055-.2l.575-1.336-.722-5.342 2.431 1.857-.975-3.139 2.671 1.816a31.593 31.593 0 0 0-2.11-3.525c-.641-.735 3.833 2.203 3.833 2.203l-3.886-4.648s5.342 1.19 6.21 1.617c.868.427-4.287-3.5-5.129-3.66-.841-.16 4.421.494 4.421.494a23.023 23.023 0 0 0-6.678-2.925c-2.778-.44-4.113-.253-17.242 5.343a51.021 51.021 0 0 0-6.971 3.539 13.474 13.474 0 0 0-.548-2.791c-.961-3.139-2.551-4.835-1.683-4.408.868.428 5.129 3.673 5.129 3.673l-2.898-5.342s1.696 2.497 1.335 1.456c-.36-1.042-3.125-5.022-3.125-5.022l3.112 2.858-1.603-6.37 3.072 2.59-2.097-5.435 1.029-4.501-.254-1.87 2.938-8.548-.227-1.616-2.057 4.915.267-5.462-2.671 6.344-1.095-6.117-1.335 4.26s-.628-2.67-5.436-8.013a50.032 50.032 0 0 0-10.992-8.868l2.578 2.925-2.671-1.229-2.845-1.335-1.416 1.549 2.458 2.123-3.887-.56s4.942 2.323 2.805 2.67c-2.137.348-7.292.441-6.144.829 1.149.387 6.358.788 5.089 1.495-1.269.708-4.007 2.444-4.007 2.444l3.66.869-2.591 3.071 6.677-2.804s-.08-.535 3.313.374c3.392.908 6.864 4.514 6.864 4.514l-6.998-1.51 4.007 3.54-3.7-.895-1.335-.32-2.898.654-2.485-.2s-1.255.707 3.299 2.27c4.554 1.563 5.436 1.99 6.384 2.951l.948.962-3.632 1.336 3.192 1.469s-4.888.12-3.166.694a10.88 10.88 0 0 1 3.259 2.017 59.607 59.607 0 0 0-1.042 6.397s-5.181-10.19-6.464-11.646c-1.282-1.456-6.21-5.69-6.21-5.69l1.536 3.326s-3.165-5.342-4.835-5.609c-1.669-.267-.481-1.563-5.435-1.99-4.955-.427-19.326-2.03-19.326-2.03l7.346 2.017-8.014 1.068s6.411 1.042 5.343 1.189a33.251 33.251 0 0 0-4.902 2.016s4.314-.307 3.513-.2a19.34 19.34 0 0 0-3.34 1.55l5.61-.762S90.15 33.55 93.622 33.03c3.473-.521 12.955-2.832 12.955-2.832l3.205-.427c1.069-.147.962-.948 3.019.134 2.056 1.081-9.002 3.926-9.002 3.926l8.935-.387 4.26 1.335s-4.313.308-2.831 1.202a47.625 47.625 0 0 0 7.372 2.27s-3.499.201-2.137.295a20.21 20.21 0 0 1 4.568 1.562h-3.179c-3.085-1.79-7.051-3.686-9.803-3.459-5.115.414-7.786.775-8.814 1.189-1.029.414 4.38.227 4.38.227l-9.589 1.563s-2.444 1.963-.841 1.75l-6.585 1.949 4.915.16-1.041.441a173.96 173.96 0 0 0-7.426-.668c-13.45-.908-3.7.775-3.7.775s-9.803 0-11.138.133c-1.336.134 2.324 1.055 2.324 1.055l-6.918 1.203a19.93 19.93 0 0 0 4.006 1.095c1.95.28-4.394 1.682-5.422 2.096-1.029.415 1.976.548 2.778.441.801-.107-7.025 4.474-7.025 4.474l5.743-1.856-5.57 5.102a21.369 21.369 0 0 1 4.782-2.818c2.831-1.202-.922 1.215-.922 1.215s2.03-1.095 3.058-1.496c1.029-.4-.734 2.538-.734 2.538a22.158 22.158 0 0 1 3.686-2.938c1.029-.414-.147 3.005-.147 3.005a15.668 15.668 0 0 1 2.044-2.992c.961-.948-1.336 6.678-1.336 6.678a49.198 49.198 0 0 1 4.688-6.037c1.469-1.336.547 4.007.547 4.007a60.24 60.24 0 0 1 3.326-5.623c1.148-1.51-.574 3.886-.574 3.886l2.55-3.325-.694 4.981 3.566-5.916.227 3.78 3.633-5.343-1.095 4.007a33.742 33.742 0 0 0 3.592-3.633c-.52 1.336-1.776 5.022-1.776 5.022s3.62-3.486 4.915-3.926c1.295-.441-2.324 4.941-2.324 4.941l7.065-6.13s-2.751 3.9-5.235 6.838l2.096-1.79-1.963 3.526s7.159-3.406 8.227-3.553c1.069-.146-5.529 3.473-5.529 3.473a68.325 68.325 0 0 1 6.985-.668c1.108.12-3.86 1.603-3.86 1.603s6.785-.094 5.449.08c-1.335.174-7.065 2.043-14.69 6.063-7.627 4.02-7.92 7.867-7.92 7.867l-3.473.467c.801-.107-11.099 4.488-11.099 4.488l5.343-1.256-8.294 3.7a24.556 24.556 0 0 1 3.446-.735c1.87-.24-5.93 6.518-5.93 6.518a19.684 19.684 0 0 1 3.86-1.603c1.068-.147-4.007 8.695-4.007 8.695a28.664 28.664 0 0 1 3.66-5.116c1.468-1.335-.335 3.58-.335 3.58l2.297-5.209.08 4.621 1.95-5.703.148 5.142 2.911-6.678s-.775 6.37-.628 7.44c.147 1.068 2.257-5.477 2.257-5.477l-.614 5.53s4.22-9.015 6.023-9.803c1.803-.788-2.07 6.811-2.07 6.811s4.555-6.597 6.117-7.078c.935-.294.334 1.682-.32 3.312l2.243-5.209c.99.178 2.006.137 2.979-.12 1.335-.454-5.343 11.058-5.343 11.058s7.787-10.844 9.71-12.74c1.923-1.897-2.257 5.475-2.257 5.475s4.901-6.103 6.677-6.892c1.777-.787-2.67 6.077-2.67 6.077s7.225-6.958 8.226-7.626c1.002-.668-2.751 3.9-2.751 3.9a70.52 70.52 0 0 1 6.224-4.367c1.028-.414-6.932 7.185-6.932 7.185l8.802-7.439 9.482-2.364a101.385 101.385 0 0 1-11.045 6.918c-2.043 1.109-3.005 1.656-3.472 1.99-.949.668 0 .481-1.977 2.017a31.027 31.027 0 0 0-5.075 4.768c-1.43 1.55-4.568 4.42-7.386 7.786-2.818 3.366-3.005 4.007-6.464 6.584-3.459 2.578-9.095 7.212-9.095 7.212s7.653-3.752 9.269-4.006c1.616-.254-8.588 4.968-8.588 4.968l1.336-.174-2.511 3.593 2.23-1.656-.988 4.875-.254 1.91-.881 6.103 3.846-7.866.294 6.223 4.007-8.427-1.056 8.307 1.79-.788 2.004-4.38 1.575-3.446.588 2.364.801-4.194 1.176 4.741 1.335-7.799 2.27 6.758 1.724-9.483 1.963 6.544.187-8.734 1.79 5.195-.642-7.719 3.059 4.42-1.109-8.28 2.671 3.726-.52-5.916 1.883 3.819 1.108-5.863 6.678 1.336-5.556 3.192s3.165-.695 4.234-.842c1.068-.147-3.873 3.513-3.873 3.513l3.739-.494-6.891 7.452-4.915 3.927a19.899 19.899 0 0 1 3.9-1.336c1.335-.187-.975 2.845-.975 2.845l-1.71 3.713 2.03-1.096-1.335 3.727-.521 2.056-2.15 8.374 1.335-4.26.548 4.007 1.188-5.343.802 4.007 1.763-5.142.721 5.342v-8.187l1.095 6.117 1.549-2.671 1.71.588-.401-7.025 2.124 5.703-.815-8.014 2.404 5.663-.828-6.144 3.085 4.755-1.469-6.878s5.476 6.33 6.678 6.678c1.202.347-3.593-8.508-3.593-8.508l4.648 7.065-4.274-9.496 4.234 5.142-3.406-7.158 4.247 4.835-3.299-8.268 4.394 4.301s-2.671-5.342-3.299-6.357c-.627-1.015 2.565 2.925 2.565 2.925l-.655-4.808 3.366 4.714.921-5.342.748 5.623 1.536-4.835-.267 4.113-.12 1.483-.387 4.848.988-.681-2.297 7.118 1.803-2.671-1.723 11.392 4.007-6.798v3.553l-.722 3.512-.427 2.084 5.516-9.002a86.67 86.67 0 0 1-5.009 16.828c-2.524 5.503-16.253 47.079-19.125 62.157-2.871 15.078-5.342 57.322-18.537 98.831-6.932 21.823-15.105 37.182-22.09 47.746a91.574 91.574 0 0 1 13.355.681c9.229-18.177 23.453-66.778 23.453-66.778s8.347-64.814 15.866-94.396c6.477-25.51 12.02-47.052 15.906-61.249l2.672-.574-1.336 2.083 5.863-2.965-6.678 4.982 4.862-2.284-4.581 4.421 2.337-.855-.908 2.898a16.28 16.28 0 0 0 1.442 4.701 66.457 66.457 0 0 0 4.675 6.451l1.642-4.007s1.162 2.565 1.336 1.723c.174-.841.414-9.028.414-9.028s1.643 8.214 2.057 9.242c.414 1.028.107-7.359.107-7.359s.908 4.768 1.015 5.583c.106.814 1.669-7.853 3.232-8.334 0 0 .387-9.349.507-10.404.12-1.055 1.95 4.354 1.95 4.354l-1.042-7.746 1.496 3.071-.975-7.225 2.11 3.526-2.11-7.6 4.595 7.813s-.668-2.898-1.336-5.542c-.668-2.644-2.858-9.135-2.858-9.135s-2.938-5.596-3.913-6.825c-.975-1.229 1.696-1.59 1.696-1.59l1.736 4.528.347.908v-7.893s3.913 10.898 4.635 12.167c.721 1.269-.721-5.342-.721-5.342s2.951 7.76 3.365 8.788c.414 1.028-.494-5.649-.494-5.649l4.421 10.564-.508-3.74s2.471 6.197 3.406 7.159c.935.961.654-5.249.654-5.249l2.418 7.84-.468-7.559s3.072 10.684 4.1 12.233c1.029 1.549.374-9.349.374-9.349s2.164 10.044 3.433 13.356c1.268 3.312-.481-9.736-.481-9.736a73.987 73.987 0 0 0 3.392 9.068c1.469 2.805-.855-8.32-.855-8.32s4.221 11.138 4.368 12.207c-.094-.748-1.336-9.496-1.83-13.636-.614-4.541-4.915-10.217-9.349-17.242S160.32 81.964 160.32 81.964l2.671.173a33.139 33.139 0 0 1 3.793 3.847c1.335 1.736-1.87-5.73-1.87-5.73a39.213 39.213 0 0 1 2.751 4.26c.748 1.523-1.335-6.343-1.335-6.343s3.245 5.823 4.006 7.88c.762 2.056-1.335-6.077-1.335-6.077a62.79 62.79 0 0 1 3.312 6.37c1.189 2.832-.654-4.821-.654-4.821s3.111 6.931 4.861 7.786a.55.55 0 0 0 .321.067 27.683 27.683 0 0 0 1.442 2.965c1.776 3.018-.775-7.786-.775-7.786s3.059 8.56 3.312 10.43l-.788-5.876s2.672 7.532 3.273 10.177c.601 2.644-.815-8.014-.815-8.014s1.709 4.675 2.671 7.92c-.361-1.75-.748-3.713-.801-4.1-.107-.801 2.938 5.596 3.352 6.678.414 1.082-1.336-8.24-3.9-18.791a27.08 27.08 0 0 0-1.683-5.156l1.109.882c2.431 1.843-2.778-4.528-2.778-4.528h2.431s.868 1.029 1.883 2.27c1.015 1.243 2.497 3.072 3.031 3.874 1.015 1.496-2.257-4.594-2.257-4.594a41.498 41.498 0 0 1 4.328 3.766c1.335 1.456-1.189-4.741-1.189-4.741a56.945 56.945 0 0 1 4.768 5.075c1.963 2.457-2.524-4.555-2.524-4.555s1.896 1.924 3.485 3.606c1.59 1.683-.253-1.87-.253-1.87s2.497 2.391 5.342 5.543c2.845 3.152-1.483-4.968-1.483-4.968s2.458 2.11 4.661 4.26c2.204 2.15-.934-2.858-.934-2.858s4.006 5.716 4.661 8.347c.654 2.632-.828-6.143-.828-6.143s3.339 4.34 5.382 7.64ZM105.228 45.823l-.374-.08 1.336-.56s-.454.267-.962.64Zm4.007.962-.855-.227 2.765-.694s-.935.427-1.924.921h.014Zm2.845.801-.455-.146-.307-.094a166.02 166.02 0 0 0 2.912-.801l-2.15 1.041Zm3.926 1.576-1.122-.534 1.496-.2-.374.734Zm21.102 72.841 1.028-3.752 1.683-.869-2.711 4.621Zm16.895-56.24-1.243-1.816 2.591 1.002s-.988-1.23-1.669-2.217c-.681-.989 3.192 1.469 3.192 1.469l-.481-1.563h2.177l.855.387 1.456.668v-2.177c.892.878 1.665 1.87 2.297 2.952.414 1.041-1.029-3.66-1.029-3.66s1.67.308 1.563-.494c0-.427 1.149 1.336 2.27 2.992l1.336 2.043c-4.447-.158-8.9-.02-13.329.414h.014Zm13.636-.427-.655-4.942 2.498 2.391 1.696 2.831a50.966 50.966 0 0 0-3.553-.28h.014Z" fill="#263238"/><path d="M530.468 360.667c3.046 0 14.411.334 26.939.734 18.697.601 40.066 1.336 40.066 1.336l-33.175-5.529 27.646-2.07s-33.162-12.434-46.985-15.893c-13.823-3.459-20.033-.682-37.996 3.459-17.963 4.14-25.563 7.599-25.563 7.599l19.339 5.529s-21.369 2.765-32.467 2.765c-11.099 0-29.022-1.336-26.952-1.336 2.07 0 24.842-5.569 24.842-5.569s-23.493-2.083-39.386-5.529c-15.532-3.379-27.766-6.678-40.574-2.364-5.743-1.91-11.125-3.579-14.998-4.554-13.823-3.446-20.034-.682-37.997 3.459-17.963 4.14-25.562 7.599-25.562 7.599l19.339 5.529s-21.369 2.765-32.468 2.765c-11.098 0-29.021-1.336-26.951-1.336 2.07 0 24.975-5.569 24.975-5.569s-23.493-2.083-39.386-5.529c-15.893-3.446-28.327-6.918-41.402-2.07a97.863 97.863 0 0 1-18.244 4.607 58.298 58.298 0 0 1-14.691-4.834c-9.776-4.835-19.045-1.336-30.878 2.07-11.833 3.405-29.382 5.529-29.382 5.529s16.975 5.529 18.524 5.529a173.358 173.358 0 0 1-20.033 1.336c-8.241 0-24.187-2.765-24.187-2.765l14.411-5.529s-5.717-3.406-19.072-7.546c-13.356-4.14-18.004-6.918-28.3-3.459-10.298 3.459-35.019 15.92-35.019 15.92l20.581 2.043-24.694 5.529s15.893-.748 29.85-1.335c9.348-.401 17.789-.735 20.033-.735 0 0-11.312 4.14-20.581 6.905-9.269 2.765-17.963 4.835-17.963 4.835s21.609.694 39.612.694 41.683 1.336 55.572 2.765c13.89 1.429 32.935 1.335 35.5 1.335 2.564 0-30.358-4.834-30.358-4.834s16.468-2.07 27.272-4.835c10.805-2.765 18.525-5.529 24.187-5.529 1.416 0 3.753-.08 6.478-.214 5.93.24 11.566.441 14.397.441 7.599 0 17.963 2.751 32.467 5.516 14.504 2.764 36.608 4.888 36.608 4.888s-44.22 4.835-40.761 4.835c3.459 0 29.021 0 47.666-1.336 18.644-1.336 50.444-2.765 74.617-2.765 24.174 0 53.195-.681 53.195-.681s-11.739-2.083-24.173-4.848c-9.176-2.03-19.833-4.821-24.815-6.143 7.439.32 15.346.627 18.898.627 7.599 0 17.963 2.752 32.467 5.516 14.505 2.765 36.621 4.848 36.621 4.848s-44.166 4.782-40.761 4.782c3.406 0 29.022 0 47.666-1.336s50.444-2.765 74.617-2.765c24.174 0 53.196-.681 53.196-.681s-11.74-2.083-24.174-4.848c-12.434-2.764-27.633-6.958-27.633-6.958Z" fill="#4B5563"/><path opacity=".8" d="M530.468 360.667c3.046 0 14.411.334 26.939.734 18.697.601 40.066 1.336 40.066 1.336l-33.175-5.529 27.646-2.07s-33.162-12.434-46.985-15.893c-13.823-3.459-20.033-.682-37.996 3.459-17.963 4.14-25.563 7.599-25.563 7.599l19.339 5.529s-21.369 2.765-32.467 2.765c-11.099 0-29.022-1.336-26.952-1.336 2.07 0 24.842-5.569 24.842-5.569s-23.493-2.083-39.386-5.529c-15.532-3.379-27.766-6.678-40.574-2.364-5.743-1.91-11.125-3.579-14.998-4.554-13.823-3.446-20.034-.682-37.997 3.459-17.963 4.14-25.562 7.599-25.562 7.599l19.339 5.529s-21.369 2.765-32.468 2.765c-11.098 0-29.021-1.336-26.951-1.336 2.07 0 24.975-5.569 24.975-5.569s-23.493-2.083-39.386-5.529c-15.893-3.446-28.327-6.918-41.402-2.07a97.863 97.863 0 0 1-18.244 4.607 58.298 58.298 0 0 1-14.691-4.834c-9.776-4.835-19.045-1.336-30.878 2.07-11.833 3.405-29.382 5.529-29.382 5.529s16.975 5.529 18.524 5.529a173.358 173.358 0 0 1-20.033 1.336c-8.241 0-24.187-2.765-24.187-2.765l14.411-5.529s-5.717-3.406-19.072-7.546c-13.356-4.14-18.004-6.918-28.3-3.459-10.298 3.459-35.019 15.92-35.019 15.92l20.581 2.043-24.694 5.529s15.893-.748 29.85-1.335c9.348-.401 17.789-.735 20.033-.735 0 0-11.312 4.14-20.581 6.905-9.269 2.765-17.963 4.835-17.963 4.835s21.609.694 39.612.694 41.683 1.336 55.572 2.765c13.89 1.429 32.935 1.335 35.5 1.335 2.564 0-30.358-4.834-30.358-4.834s16.468-2.07 27.272-4.835c10.805-2.765 18.525-5.529 24.187-5.529 1.416 0 3.753-.08 6.478-.214 5.93.24 11.566.441 14.397.441 7.599 0 17.963 2.751 32.467 5.516 14.504 2.764 36.608 4.888 36.608 4.888s-44.22 4.835-40.761 4.835c3.459 0 29.021 0 47.666-1.336 18.644-1.336 50.444-2.765 74.617-2.765 24.174 0 53.195-.681 53.195-.681s-11.739-2.083-24.173-4.848c-9.176-2.03-19.833-4.821-24.815-6.143 7.439.32 15.346.627 18.898.627 7.599 0 17.963 2.752 32.467 5.516 14.505 2.765 36.621 4.848 36.621 4.848s-44.166 4.782-40.761 4.782c3.406 0 29.022 0 47.666-1.336s50.444-2.765 74.617-2.765c24.174 0 53.196-.681 53.196-.681s-11.74-2.083-24.174-4.848c-12.434-2.764-27.633-6.958-27.633-6.958Z" fill="#fff"/></svg>