<svg fill="none" xmlns="http://www.w3.org/2000/svg" viewBox="0 0 600 600"><path d="M67.032 335.748s-10.02-4.008 0-22.02 37.044-6 37.044-6 .996-14.016 9.012-24 25.032-6 25.032-6-2.004-7.008 8.004-8.004c10.008-.996 16.02 14.016 16.02 14.016s8.004-6 18-4.008 11.004 25.032 11.004 25.032 4.224-53.028 39.048-66.084c34.824-13.056 56.064 19.02 56.064 19.02s7.008-7.008 17.028-6 14.016 14.016 14.016 14.016 7.008-6 16.02 2.004a27.601 27.601 0 0 1 9.012 19.02s8.004-24 27.024-28.032c19.02-4.032 34.044 19.02 34.044 27.024 0 0 26.028-14.016 46.056 20.028 0 0 14.016-11.016 26.028-7.008 12.012 4.008 9.012 26.028 9.012 26.028s9.012-7.008 14.016-2.004a33.603 33.603 0 0 1 7.008 10.02s22.032-12 38.052-8.016 20.016 12 20.016 12l-496.56-1.032Z" fill="#fff"/><path d="M62.58 327.696c0-3.276 1.02-7.8 4.452-13.968 10.008-18 37.044-6 37.044-6s.996-14.016 9.012-24 25.032-6 25.032-6-2.004-7.008 8.004-8.004c10.008-.996 16.02 14.016 16.02 14.016s8.004-6 18-4.008 11.004 25.032 11.004 25.032 4.224-53.028 39.048-66.084c34.824-13.056 56.064 19.02 56.064 19.02s7.008-7.008 17.028-6 14.016 14.016 14.016 14.016 7.008-6 16.02 2.004a27.601 27.601 0 0 1 9.012 19.02s8.004-24 27.024-28.032c19.02-4.032 34.044 19.02 34.044 27.024 0 0 26.028-14.016 46.056 20.028 0 0 14.016-11.016 26.028-7.008 12.012 4.008 9.012 26.028 9.012 26.028s9.012-7.008 14.016-2.004a33.585 33.585 0 0 1 7.008 10.02s22.032-12 38.052-8.016 20.016 12 20.016 12" stroke="#7D7D7D" stroke-linecap="round" stroke-linejoin="round"/><path d="M223.056 336.06c-.228-2.508-1.872-16.416-10.98-17.736a31.73 31.73 0 0 0-18 2.904s-6-10.872-16.02-10.152c-10.02.72-8.004 5.796-8.004 5.796s-17.016-2.892-25.032 4.356a29.28 29.28 0 0 0-8.484 14.664l86.52.168Zm.144 0 257.748.528c-19.956-23.868-45.6-13.908-45.6-13.908 0-5.808-15.012-22.488-34.032-19.584C382.296 306 374.28 323.4 374.28 323.4s0-7.968-9.012-13.776-16.068-1.452-16.068-1.452-3.996-9.42-14.016-10.152a27.827 27.827 0 0 0-16.98 4.38s-21.24-23.244-56.064-13.776c-32.796 8.88-38.448 43.428-38.94 47.436Zm290.964.588a10.982 10.982 0 0 0-6.732-4.548l-.456-.084c-.912.444-1.428.732-1.428.732s-.156-.408-.492-1.08c-9.348-1.2-19.26 3.264-22.524 4.92l31.632.06Zm-398.556-.804h4.572c-1.5-.06-3.036-.072-4.572 0Z" fill="#E5E5E5"/><path d="M71.004 336.684h496.224M40.296 380.916s52.728.528 75.432 1.056 46.056-2.628 39.384 2.616c-6.672 5.244-22.032 6.816 36 11.004s98.4.972 106.056 4.296c18.396 8.004 34.128 1.992 88.86-2.724s119.484-15.192 112.14-7.332c-7.344 7.86 46.056 9.948 64.08 5.76 18.024-4.188 16.02-9.96 16.02-9.96" stroke="#7D7D7D" stroke-linecap="round" stroke-linejoin="round"/><path d="M59.604 375.744H106.8c24.804 0 78.396-2.568 71.196 1.284-7.2 3.852-16.8 7.032-5.592 7.68 11.208.648 42.396 5.124 55.992 5.124 13.596 0 15.204-5.124 1.608-5.124s-8.004-5.124 13.596-5.124 78.396 2.556 61.596 7.044c-16.8 4.488 25.608 6.396 48 6.396s53.604-1.92 64.8-5.76c11.196-3.84-16.8-3.84-19.992-4.476-3.192-.636 7.992-8.328 30.396-7.044 22.404 1.284 40.8 4.476 63.204 1.92 22.404-2.556 20.796 3.84 17.592 6.396-3.204 2.556 30.408 12.168 54.408 6.408m-405.6-46.74h103.992m2.4 9.6h36.9m-99.3 5.124h-17.592M428.4 346.296h17.604M344.4 342.444h-45.6m168 12.816h-49.596m58.392-9.612h20.808m-155.208 6.408H322.8m60.744-8.58h-18.396m8.748 4.824H355.5m60.756 1.068h-18.408m-170.292.54h-18.408m-100.608-2.676H90.144m64.5 2.676h-18.396m408.12-4.824h-18.396m10.896 5.364h-18.396m-47.544-9.12h-18.396" stroke="#7D7D7D" stroke-linecap="round" stroke-linejoin="round"/><path opacity=".5" d="M567.744 479.82c-5.352-.66-22.08-1.332-24.756-.66-2.676.672-16.728 5.352-16.728 5.352s-2.016 0-14.052 2.004-25.44 1.344-31.452 1.344H465.36c-6 0-15.396.66-15.396.66s21.42 4.02 30.12 4.02 21.408 1.332 27.432.672l12-1.344s-24.696 8.46-40.152 8.028c-6.756-.18-11.568-.336-15.516-.396h.06c3.276-2.076-12.324-1.344-21.456-1.548l-16.644-.372s23.724-3.768 34.464-3.528c10.74.24 27.9 1.692 29.508 1.728 1.608.036-22.464-4.26-42.384-2.556 0 0-28.548 3.12-56.88-3.42-28.332-6.54-57.6 3.024-87.084 2.4-29.484-.624-41.928.672-60.108-3.492s-26.82-1.668-41.904.144c-10.56 1.272-21.396 3.324-27.504 4.428H163.5s-.216.18-.528.48l9.708-.264c-1.188.251-2.39.431-3.6.54-.696 0-3.252 0-6.444.072l.348-.348-13.788.372-17.808-8.22s-24.768 1.344-45.516-.672c-20.748-2.016-25.428-3.336-32.784-2.004-7.356 1.332-26.1 6-26.1 6s14.724-1.332 22.8-1.332 34.716 6.348 34.716 6.348-20.664 2.4-30.696 3.684c-10.032 1.284-25.44 5.352-25.44 5.352s34.14 1.344 40.8 1.344c6.66 0 10.716 4.008 20.748 4.008 10.032 0 24.756 2.016 32.796 1.344 8.04-.672 30.78 1.332 34.128 1.332 3.348 0-22.08-5.352-24.096-6-2.016-.648 10.044-.66 14.052-.66 4.008 0 21.42 3.348 28.116 2.004 6.696-1.344 28.8-2.004 32.784-2.676 3.984-.672-2.676-.672-13.38-.672-8.748 0-21.72-3.72-28.656-4.8 17.136 1.428 24.36 2.772 42-.348 18.876-3.348 27.972-1.536 47.22 2.664 19.248 4.2 49.92 2.616 49.92 2.616s-21.048 4.356-39.876 5.016c-18.828.66-43.596 3.324-43.596 3.324s39.156 3.024 62.244 4.08 36 .804 48.396-2.148 37.2-6.156 47.436-7.008c8.124-.672 35.244-2.268 51.168-2.784-2.4.624-4.128 1.128-4.728 1.32-2.016.672 17.4 0 23.412 0H519.6c2.004 0-26.1 12-36.132 13.392-10.032 1.392-28.116 1.332-33.468 4.008l-8.028 4.02s41.496-3.348 53.532-2.676c12.036.672 31.464 2.676 35.472 0 4.008-2.676 9.372-8.028 12.72-11.376 3.348-3.348-.672-4.68 6-7.368 6.672-2.688 12-6.684 11.376-2.676-.624 4.008-7.368 17.4-7.368 17.4s12.72-5.352 16.068-12.708c3.348-7.356 4.68-10.044 5.352-15.396.672-5.352-2.016-11.376-7.38-12.048ZM160.8 498l1.26.096a2.705 2.705 0 0 1-1.26-.096Z" fill="#fff"/><path d="M37.368 480s50.4-5.604 86.844 0c36.444 5.604 83.112 1.86 111.12 1.86 28.008 0 83.112 5.604 98.976 5.604 15.864 0 45.756-5.604 61.632-5.604 15.876 0 48.564 4.668 72.84.936 24.276-3.732 42.948-1.872 54.156-5.604 11.208-3.732 37.356-6.54 51.36-3.732" stroke="#15803D" stroke-linecap="round" stroke-linejoin="round"/><path d="M559.2 481.608s-6.552-44.712-21.816-77.424-18.54-48-31.62-65.424c-13.08-17.424-44.712-69.792-45.804-78.516-.756-6.084-6.816-34.416-10.416-51.024l5.256 5.22 2.184-7.632 3.144 6.948 2.172-6 .18 11.16 3.84-5.34-.72 12.192.216.492 4.212-3.42-.42 4.068 6.36-8.7-6 12.252 5.4-6.972-3.396 9.876 2.772-2.988 1.068 4.644a26.384 26.384 0 0 0 5.616 5.808 108.608 108.608 0 0 0 11.64 5.94l-.612-7.104s3.6 2.88 3.216 1.536c-.384-1.344-6.12-13.524-6.12-13.524s8.532 10.8 9.9 12c1.368 1.2-5.34-10.8-5.34-10.8s4.896 6.3 5.652 7.392c.756 1.092-3.408-12.708-1.464-14.58 0 0-6.372-13.884-7.02-15.6-.648-1.716 6.096 4.932 6.096 4.932l-7.284-10.56 4.464 3.372-6.792-9.84 5.712 3.6-8.748-9.6 12.528 8.028s-3.132-3.756-6-7.2c-2.868-3.444-10.992-11.232-10.992-11.232s-8.4-6-10.8-7.056c-2.4-1.056 1.284-3.6 1.284-3.6l5.916 5.316 1.2 1.068-5.832-11.556s13.836 13.02 15.828 14.34c1.992 1.32-5.04-7.284-5.04-7.284s10.104 9.168 11.472 10.368c1.368 1.2-4.92-7.896-4.92-7.896l14.316 12.168-3.516-5.1s8.22 7.2 10.32 7.932c2.1.732-2.964-8.184-2.964-8.184l9.372 9.672-6.324-10.704S523.032 190.536 525.6 192c2.568 1.464-6.372-13.896-6.372-13.896s10.644 13.08 15.012 17.064-7.968-13.86-7.968-13.86 7.5 7.728 11.724 10.728-7.44-11.544-7.44-11.544 14.4 13.2 15.468 14.604c-.696-1.02-8.94-12.936-12.828-18.576-4.272-6.18-14.796-11.292-26.568-18.216-11.772-6.924-36.66-11.784-36.66-11.784l4.152-1.788a53.2 53.2 0 0 1 8.4 2.808c3.216 1.536-6.984-7.008-6.984-7.008a66.391 66.391 0 0 1 7.2 4.176c2.232 1.68-6.768-8.232-6.768-8.232s9.06 6.108 11.796 8.52c2.736 2.412-6.504-7.872-6.504-7.872a104.136 104.136 0 0 1 9.6 6.84c3.852 3.252-4.536-6.552-4.536-6.552s9.684 7.788 12.876 7.788a.897.897 0 0 0 .528-.144 43.513 43.513 0 0 0 4.308 3.252c4.8 3.108-6.924-10.8-6.924-10.8s10.8 10.26 12.612 12.804l-5.544-8.004s9.48 9.048 12.36 12.432c2.88 3.384-7.2-11.172-7.2-11.172s6 5.58 9.804 9.6c-1.836-2.28-3.852-4.872-4.212-5.388-.756-1.092 8.4 6 9.816 7.2 1.416 1.2-8.16-11.04-19.68-24.6a45.68 45.68 0 0 0-6.3-6.276c.78.168 1.548.324 2.28.456 4.92.9-7.44-4.548-7.44-4.548l3.528-1.896s2.064.804 4.464 1.884c2.712 1.2 5.928 2.64 7.308 3.396 2.604 1.428-6.72-5.04-6.72-5.04a67.066 67.066 0 0 1 9.132 2.304c2.964 1.2-5.256-6-5.256-6a94.703 94.703 0 0 1 10.74 3.864c4.692 2.136-7.08-4.8-7.08-4.8s4.2 1.404 7.776 2.688c3.576 1.284-1.752-2.544-1.752-2.544s5.424 1.632 12 4.104c6.576 2.472-5.868-6.168-5.868-6.168s5.184 1.26 9.996 2.784c4.812 1.524-3.504-3.504-3.504-3.504s10.164 5.352 13.032 8.748c2.868 3.396-5.784-8.4-5.784-8.4s8.112 4.14 13.56 7.44c-3.42-3.024-7.752-6.948-9.888-8.4-3.972-2.64-16.176-5.496-24.9-6.456s-19.32 4.8-35.328 8.808c-.552.132-1.128.324-1.692.492l-.18-2.4-5.04-7.284 4.932.9-3.744-3.864 5.28.648a50.78 50.78 0 0 0-5.7-3.6c-1.488-.588 7.2.372 7.2.372l-9.156-3.9s8.688-2.232 10.284-2.256c1.596-.024-8.88-1.944-10.224-1.548-1.344.396 6.84-2.568 6.84-2.568s-7.5-.744-11.904.684-6.204 2.7-21.24 20.604a84.324 84.324 0 0 0-7.584 10.368 21.852 21.852 0 0 0-2.868-3.684c-3.744-3.864-7.332-5.16-5.736-5.184 1.596-.024 10.224 1.548 10.224 1.548l-8.196-5.64s4.332 2.4 2.964 1.2a93.616 93.616 0 0 0-8.316-5.028l6.66 1.86-7.068-7.992 6.408 1.488-7.104-6.396-1.836-7.332-1.764-2.544-2.076-14.7-1.512-2.184.636 8.712-3.6-8.292.804 11.28-6.156-8.124 1.2 7.2s-2.88-3.396-13.872-7.632a82.179 82.179 0 0 0-22.668-4.8l5.928 2.4-4.8.204-5.148.168-.924 3.324 5.184 1.272-6.108 2.064s8.952-.276 6 1.74-10.332 6.06-8.4 5.784c1.932-.276 9.876-3.6 8.568-1.62-1.308 1.98-3.96 6.636-3.96 6.636l6-1.452-1.488 6.408 7.704-9.084s-.504-.732 5.124-1.932 13.404 1.5 13.404 1.5l-11.364 3.012 8.508 2.196-6.084 1.44-2.232.528-3.756 3.132-3.816 1.524s-1.32 1.992 6.528.876 9.432-1.2 11.532-.432l2.088.696-4.332 4.62 5.76-.216s-7.056 3.792-4.116 3.372a17.995 17.995 0 0 1 6.264.516 97.44 97.44 0 0 0 3.24 10.128s-15.156-11.04-18.12-12.216c-2.964-1.176-13.32-3.708-13.32-3.708l4.728 3.732s-8.568-5.388-11.256-4.608c-2.688.78-1.872-1.932-9.432 1.2-7.56 3.132-29.76 11.424-29.76 11.424l12.24-2.532L332.7 112.8s10.14-3.228 8.688-2.232-5.664 6.6-5.664 6.6 6.072-3.6 4.98-2.904a30.167 30.167 0 0 0-3.72 4.728l7.644-5.28s-13.392 14.088-8.664 10.8c4.728-3.288 16.8-13.788 16.8-13.788l4.368-3.012c1.464-1.008.708-2.1 4.512-2.04 3.804.06-10.224 12.444-10.224 12.444l12.768-7.2 7.2-1.2s-6.084 3.6-3.252 3.864c2.832.264 12.48-2.172 12.48-2.172s-4.98 2.904-2.916 2.016c2.064-.888 7.836-1.116 7.836-1.116s-2.76 1.308-4.608 2.4c-5.856-.324-13.056-.132-16.908 2.244-7.2 4.416-10.8 6.924-12 8.292-1.2 1.368 6.588-2.928 6.588-2.928l-12.864 9.42s-2.124 4.704.06 3.192l-8.1 7.74 7.308-3.432-1.2 1.428c-3.492 1.308-7.2 2.808-11.34 4.548-20.4 8.688-4.8 3.888-4.8 3.888s-14.4 7.2-16.188 8.496c-1.788 1.296 4.176-.192 4.176-.192l-9.216 6.9c2.24-.214 4.452-.66 6.6-1.332 3.06-1.032-5.184 5.724-6.384 7.092-1.2 1.368 3.3-.66 4.392-1.416 1.092-.756-6.924 11.772-6.924 11.772l7.008-6.984-4.344 11.604a34.586 34.586 0 0 1 4.896-7.692c3.252-3.852-.444 2.46-.444 2.46s2.16-3.096 3.36-4.464c1.2-1.368.804 4.284.804 4.284s1.992-5.688 3.204-7.056c1.212-1.368 2.04 4.512 2.04 4.512a25.77 25.77 0 0 1 .756-5.904c.708-2.1 3.12 10.74 3.12 10.74s1.08-9.336 2.256-12.312c1.176-2.976 3.768 5.472 3.768 5.472a99.53 99.53 0 0 1 .648-10.68c.564-3.084 2.064 6.096 2.064 6.096l1.2-6.768 2.7 7.812.792-11.304 3.168 5.34 1.296-10.572 1.332 6.6a54.299 54.299 0 0 0 2.556-7.98c.24 2.4 1.2 8.664 1.2 8.664s2.688-7.776 4.26-9.408c1.572-1.632.276 8.964.276 8.964l5.784-14.244s-1.116 7.752-2.556 13.884c.924-2.256 1.74-4.164 1.74-4.164l-.264 6.624s7.932-10.32 9.396-11.316c1.464-.996-5.496 9.168-5.496 9.168s8.004-5.532 9.72-6.18c1.716-.648-4.464 5.232-4.464 5.232s9.864-5.196 8.04-3.936c-1.824 1.26-8.82 8.244-16.98 19.8-8.16 11.556-5.724 17.4-5.724 17.4l-4.74 3.276c1.092-.756-12.888 14.82-12.888 14.82l6.78-5.76-9.132 11.688a39.593 39.593 0 0 1 4.476-3.6c2.556-1.764-3.816 13.932-3.816 13.932s3-4.224 4.452-5.22c1.452-.996.636 15.696.636 15.696s.372-7.2 1.548-10.212c1.176-3.012 2.172 5.484 2.172 5.484l-.516-9.324 3.54 6.696-1.38-9.792 4.044 7.416-.684-11.892s3.6 9.876 4.608 11.34c1.008 1.464-.78-9.684-.78-9.684l3.216 8.532s-.516-16.308 1.524-18.804c2.04-2.496 2.04 11.508 2.04 11.508s1.74-13.044 3.672-14.916c1.2-1.116 1.728 2.22 2.004 5.076l-.6-9.276a11.244 11.244 0 0 0 4.26-2.4c1.572-1.62.456 20.124.456 20.124s3.324-21.66 4.728-25.86c1.404-4.2.768 9.684.768 9.684s2.616-12.552 4.668-15.048c2.052-2.496.552 10.92.552 10.92s5.388-15.6 6.336-17.292c.948-1.692-1.104 7.752-1.104 7.752s4.632-9.6 5.832-11.028c1.2-1.428-4.8 15.672-4.8 15.672l7.32-17.424 12.096-10.512a166.434 166.434 0 0 1-10.992 18.348c-2.172 3.132-3.156 4.644-3.6 5.484-.876 1.668.348.72-1.38 4.416a50.874 50.874 0 0 0-3.876 10.74c-.924 3.336-3.396 9.876-5.004 16.908-1.608 7.032-1.464 8.004-4.548 14.4-3.084 6.396-7.932 17.316-7.932 17.316s8.4-11.184 10.596-12.696c2.196-1.512-8.868 13.644-8.868 13.644l1.824-1.2-.984 7.14 2.016-4.08 2.088 7.692 1.044 2.988 3.348 9.6-.24-14.4 5.052 8.88-.372-15.336 4.632 12.936 2.04-2.496-.336-7.872-.264-6.228 2.628 3.024-1.956-6.72 5.256 6-3.756-12.456 8.4 8.208-4.548-15.144 7.752 8.1-6.228-12.912 6.48 6.276-6.924-10.8 7.8 4.296-7.8-11.292 6.684 3.444-5.16-8.256 5.592 4.2-2.736-9.408 10.8-3.12-5.856 8.82s4.116-3.384 5.568-4.38-3.048 8.028-3.048 8.028l5.088-3.528-4.512 16.032-4.272 9.408a33.375 33.375 0 0 1 4.716-4.872c1.812-1.26.684 4.896.684 4.896l.36 6.744 2.16-3.096.72 6.492.756 3.384 3.096 13.86-1.2-7.2 3.768 5.46-2.232-8.676 4.14 5.208-1.2-8.82 5.028 7.284-6.12-11.952 6.156 8.124.288-5.04 2.928-.42-5.808-9.96 7.356 6.744-7.2-11.172 7.716 6.504-5.784-8.4 8.052 4.656-7.272-8.964s12.732 5.184 14.688 4.908c1.956-.276-11.568-9.744-11.568-9.744l12.132 6.672-13.308-10.704 10.02 4.368-10.32-7.92 9.756 4.008-10.932-9.66 9.6 3.024s-7.836-5.88-9.6-6.84c-1.764-.96 5.928 2.4 5.928 2.4l-4.524-6.552 8.4 4.404-2.592-8.4 5.28 7.644-1.356-8.196 2.676 6.216s10.524 42.168 13.788 57.444c3.264 15.276 18.54 36 26.172 55.608 7.632 19.608 25.08 49.068 29.448 66.516 4.368 17.448 20.04 102.876 20.04 102.876s6.132 1.812 9.396 2.904c3.264 1.092 15.276-1.092 19.632-3.276a5.847 5.847 0 0 0 3.312-6.564ZM362.496 134.652l-.6.168 1.464-1.776s-.384.696-.864 1.608Zm6.564-1.572-1.416.324 3.528-3.072s-1.032 1.296-2.112 2.748Zm4.8-.936-.768.12-.516.108c1.98-1.776 3.6-3.348 3.6-3.348s-1.104 1.44-2.364 3.12h.048Zm6.912-.624c-.684 0-1.356 0-2.028.072l2.052-1.416-.024 1.344Zm88.284-19.92 4.608 2.892a74.917 74.917 0 0 0-5.388 2.208l-4.644-6.732 5.424 1.632Zm-23.124 11.676c-1.728-.948 5.772-.216 5.772-.216l-1.884-1.86 3.168-1.656h1.548l2.628-.132-1.656-3.156s4.2 1.404 5.568 2.604c1.368 1.2-4.248-4.596-4.248-4.596s2.688-.78 1.932-1.872c-.408-.6 2.664 1.068 5.544 2.688 1.32.744 2.58 1.476 3.456 1.992a164.37 164.37 0 0 0-19.104 10.548l-3.168-1.752 4.524-.444s-2.34-1.14-4.08-2.1v-.048Z" fill="#263238"/><g mask="url(#Sunbathe in a hammock-bro (1) 1__Sunbathe in a hammock-bro (1) 1__Sunbathe in a hammock-bro (1) 1__Sunbathe in a hammock-bro (1) 1__a)" stroke="#969696" stroke-miterlimit="10"><path d="m464.388 262.38-8.988 2.388m10.176 40.116 11.976-4.788m23.952 27.504s-4.8-1.788-11.376 2.4m15.804 23.016a21.212 21.212 0 0 1 4.548.36m-17.964 7.824a15.6 15.6 0 0 1 8.58-7.2m1.008 24.516s8.976-4.8 14.964-4.8m5.208 37.164a36.504 36.504 0 0 1 24.72-1.2m-37.116 9.552a33.881 33.881 0 0 1 6.876-5.496M530.4 428.04a45.984 45.984 0 0 0-4.296 1.968m27.48-7.788a130.196 130.196 0 0 0-18.252 4.08m-2.1 36.624s11.376-2.988 17.364-2.988"/></g><path d="M307.2 189.204a39.924 39.924 0 0 1 5.616 8.796l-4.98-13.272 8.004 7.992s-9.156-14.328-7.908-13.464c1.248.864 6.396 3.192 5.016 1.632-1.38-1.56-10.8-9.3-7.296-8.124a37.495 37.495 0 0 0 7.548 1.524l-10.536-7.884s6.852 1.656 4.8.216c-2.052-1.44-18.504-9.708-18.504-9.708s17.724 5.484-5.544-4.44a305.302 305.302 0 0 0-12.96-5.208l-1.38-1.632 8.4 3.936-9.252-8.856c2.496 1.728 0-3.6 0-3.6l-14.688-10.8s8.892 4.92 7.512 3.36-5.532-4.44-13.728-9.492c-4.452-2.736-12.684-2.952-19.32-2.58-2.112-1.272-5.28-2.76-5.28-2.76s6.588.252 8.964 1.272c2.376 1.02-3.336-2.304-3.336-2.304s11.04 2.712 14.28 2.484c3.24-.228-3.72-4.416-3.72-4.416l8.256 1.404 14.592 8.244s-16.044-14.16-11.688-14.232c4.356-.072 3.492 1.2 5.148 2.328l5.004 3.456s13.824 12 19.2 15.756c5.376 3.756-9.888-12.372-9.888-12.372l8.736 6s-3.012-4.536-4.26-5.4c-1.248-.864 5.7 3.312 5.7 3.312s-4.8-6.384-6.468-7.536c-1.668-1.152 9.912 2.544 9.912 2.544l-12.504-8.58 13.98 2.904s-25.38-9.6-34.02-13.056c-8.64-3.456-7.716-.408-10.8-1.296-3.084-.888-12.852 5.256-12.852 5.256l5.4-4.26s-11.832 2.892-15.228 4.236c-3.396 1.344-20.712 13.968-20.712 13.968a112.364 112.364 0 0 0 3.696-11.58 20.3 20.3 0 0 1 7.2-.588c3.36.48-4.704-3.864-4.704-3.864l6.588.252-4.968-5.28 2.4-.804c2.4-.804 4.224-.768 13.2.504 8.976 1.272 7.452-.996 7.452-.996l-4.32-1.764-4.296-3.6-2.544-.6-6.96-1.656 9.732-2.508-12.996-3.444s8.904-3.024 15.288-1.704 5.856 2.208 5.856 2.208l8.808 10.392-1.704-7.332 6.852 1.656s-3.144-5.244-4.644-7.512 7.548 1.536 9.792 1.848c2.244.312-6.252-4.308-9.6-6.612-3.348-2.304 6.936-1.968 6.936-1.968l-6.984-2.4 5.916-1.44-1.056-3.804-5.844-.252-5.508-.216 6.78-2.688a94.319 94.319 0 0 0-25.92 5.46c-12.564 4.8-15.852 8.724-15.852 8.724l1.392-8.256-7.032 9.288.924-12.9-4.092 9.48.732-9.96-1.728 2.496-2.4 16.8-1.992 2.868-2.112 8.4-8.112 7.296 7.32-1.692-8.148 9.12 7.608-2.112s-7.932 4.356-9.492 5.736c-1.56 1.38 3.384-1.356 3.384-1.356l-9.36 6.444s9.852-1.8 11.676-1.776c1.824.024-2.268 1.512-6.552 5.928A25.034 25.034 0 0 0 163.74 123a96.962 96.962 0 0 0-8.652-11.844c-17.208-20.46-19.284-21.9-24.288-23.556-5.004-1.656-13.596-.792-13.596-.792s9.348 3.384 7.812 2.94c-1.536-.444-13.5 1.74-11.688 1.776 1.812.036 11.748 2.58 11.748 2.58L114.6 98.592s9.972-1.092 8.28-.42a57.822 57.822 0 0 0-6.48 4.092l6-.732-4.284 4.416 5.628-1.032-5.748 8.328-.216 2.772c-.648-.192-1.296-.408-1.932-.564-18.288-4.656-30.396-11.172-40.38-10.068-9.984 1.104-23.868 4.368-28.464 7.416-2.4 1.62-7.392 6.108-11.304 9.6 6.228-3.768 15.492-8.508 15.492-8.508s-9.9 13.452-6.612 9.6c3.288-3.852 14.904-10.092 14.904-10.092s-9.504 5.736-3.996 3.996c5.508-1.74 11.424-3.18 11.424-3.18s-14.196 9.876-6.72 7.044 13.692-4.68 13.692-4.68-6.108 4.392-2.016 2.916c4.092-1.476 8.892-3.096 8.892-3.096s-13.464 7.92-8.088 5.484a107.493 107.493 0 0 1 12.288-4.416s-9.408 8.256-6 6.912a75.92 75.92 0 0 1 10.428-2.628s-10.644 7.392-7.68 5.76c1.584-.864 5.256-2.52 8.4-3.888 2.76-1.2 5.076-2.196 5.076-2.196l3.984 2.172s-14.136 6.216-8.508 5.184c.84-.156 1.716-.324 2.604-.516a52.48 52.48 0 0 0-7.2 7.2c-13.2 15.504-24.072 29.496-22.5 28.116 1.572-1.38 12.084-9.48 11.22-8.232-.408.588-2.724 3.54-4.8 6.156 4.368-4.584 11.208-10.968 11.208-10.968s-11.508 16.656-8.208 12.78c3.3-3.876 14.124-14.22 14.124-14.22l-6.324 9.156c2.016-2.916 14.4-14.64 14.4-14.64s-13.452 15.924-7.92 12.36a49.125 49.125 0 0 0 4.92-3.72c.181.119.395.178.612.168 3.6 0 14.736-8.88 14.736-8.88s-9.6 11.208-5.172 7.488a120.177 120.177 0 0 1 10.932-7.812s-10.572 11.748-7.44 9c3.132-2.748 13.488-9.744 13.488-9.744s-10.284 11.34-7.728 9.42a73.177 73.177 0 0 1 8.22-4.8s-11.676 9.768-7.992 8.004a61.564 61.564 0 0 1 9.6-3.216l4.8 2.052s-28.44 5.556-41.904 13.476c-13.464 7.92-25.536 13.788-30.444 20.82L39.228 209.46c1.2-1.656 17.676-16.68 17.676-16.68s-13.32 16.62-8.496 13.2c4.824-3.42 13.392-12.276 13.392-12.276s-14.088 20.4-9.108 15.84c4.98-4.56 17.172-19.5 17.172-19.5S59.604 207.6 62.58 205.92c2.976-1.68 17.256-16.968 17.256-16.968l-7.2 12.228 10.704-11.052s-5.784 10.152-3.384 9.348c2.4-.804 11.796-9.072 11.796-9.072l-4.02 5.832 16.368-13.908s-7.2 10.416-5.628 9.036c1.572-1.38 13.128-11.856 13.128-11.856s-8.028 9.828-5.76 8.328c2.268-1.5 18.096-16.404 18.096-16.404l-6.672 13.2 1.356-1.2 6.768-6.084s4.152 2.88 1.476 4.104c-2.676 1.224-12.348 8.076-12.348 8.076s-9.264 8.964-12.564 12.84c-3.3 3.876-6.864 8.16-6.864 8.16l14.316-9.168-9.996 10.92 6.516-4.092-7.764 11.232 5.124-3.84-8.4 12.072s7.704-7.596 6.96-5.64c-.744 1.956-8.004 17.832-8.004 17.832 2.208 2.136-2.544 17.916-1.68 16.668.864-1.248 6.456-8.4 6.456-8.4s-7.632 13.716-6.072 12.288c1.56-1.428 11.316-13.704 11.316-13.704s-6.54 13.92-6.996 15.456c-.456 1.536 3.684-1.752 3.684-1.752l-.696 8.124s9.756-4.32 13.308-6.792a30.63 30.63 0 0 0 6.42-6.624l1.2-5.316 3.18 3.408-3.876-11.292 6.18 7.956-6.924-14.004 7.272 9.948-.492-4.608 4.8 3.912.252-.564-.828-13.944 4.392 6.108.216-12.768 2.472 6.864 3.6-7.932 2.496 8.724 5.712-5.712c-2.58 9.072-5.436 19.032-7.884 27.324-6.24 21.216-13.872 56.844-21.504 76.368-7.632 19.524-10.38 41.592-14.544 56.82-4.164 15.228-18.72 56.856-19.416 61.944-.696 5.088-10.404 38.184-10.404 38.184s5.544 5.94 9.012 7.644c3.468 1.704 12.492 3.396 16.656 2.544a102.965 102.965 0 0 0 12.48-4.248l2.772-.84s-2.4-39.036 3.204-57.708c5.604-18.672 6.552-44.124 9.324-55.2 2.772-11.076 14.196-78.06 16.98-93.336 2.784-15.276 3.96-28.944 9.336-44.124a606.12 606.12 0 0 0 5.856-17.4l2.244-1.896 3.072-7.104-1.56 9.372 6-8.736-2.964 9.6 9.6-5.028-5.172 7.488s8.76-3.78 6.78-2.688c-1.98 1.092-10.944 7.812-10.944 7.812l11.004-3.468-12.528 11.028 11.16-4.584-11.736 9.144 11.448-5.004-15.216 12.24 13.884-7.632s-15.48 10.8-13.2 11.148c2.28.348 16.8-5.616 16.8-5.616l-8.304 10.248 9.204-5.316-6.612 9.6 8.82-7.428-8.208 12.78 8.4-7.728-6.672 11.388 3.36.48.324 5.76 7.032-9.288-6.96 13.632 5.748-8.316-1.428 10.08 4.728-6-2.544 9.924 4.308-6.24-1.368 8.292 3.54-15.84.864-3.876.816-7.428 2.472 3.6.408-7.704s-1.284-7.044.792-5.604a37.997 37.997 0 0 1 5.388 5.556l-4.884-10.8-5.16-18.324 5.82 4.02s-5.16-10.332-3.492-9.18c1.668 1.152 6.372 5.016 6.372 5.016l-6.564-10.068 12.288 3.6-3.132 10.8 6.396-4.8-5.904 9.444 7.644-3.936-8.916 12.9 8.916-4.908-7.92 12.36 7.416-7.2-7.116 14.76 8.844-9.252-5.196 17.316 9.6-9.384-4.308 14.232 6-6.912-2.244 7.68 3.012-3.456-.3 7.116-.396 9.012 2.4 2.844 5.304-14.784-.432 17.532 5.784-10.152-.408 16.416 3.816-10.968 1.2-3.408 2.4-8.796 2.304 4.668-1.128-8.16 2.076 1.44s-12.612-17.328-10.116-15.6C236.352 263.304 246 276 246 276s-5.556-12.444-9.072-19.8c-3.516-7.356-3.372-8.472-5.208-16.5-1.836-8.028-4.656-15.516-5.712-19.32a58.114 58.114 0 0 0-4.428-12.276c-1.98-4.224-.576-3.144-1.584-5.052-.516-.96-1.632-2.7-4.116-6.276a190.564 190.564 0 0 1-12.564-20.976l13.836 12 8.4 19.92s-6.828-19.476-5.46-17.916c1.368 1.56 6.672 12.6 6.672 12.6s-2.4-10.8-1.26-8.856c1.14 1.944 7.2 19.764 7.2 19.764s-1.704-15.324.636-12.48c2.34 2.844 5.328 17.208 5.328 17.208s-.72-15.864.888-11.064c1.608 4.8 5.4 29.556 5.4 29.556s-1.272-24.864.516-23.004a12.95 12.95 0 0 0 4.872 2.748l-.744 10.644c.312-3.264.96-7.08 2.28-5.796 2.22 2.148 4.212 17.052 4.212 17.052s0-15.996 2.328-13.2c2.328 2.796 1.74 21.504 1.74 21.504l3.672-9.768s-2.028 12.744-.876 11.076c1.152-1.668 5.256-12.96 5.256-12.96l-.78 13.596 4.632-8.484-1.596 11.196 4.056-7.644-.588 10.656s1.14-9.672 2.484-6.276c1.344 3.396 1.776 11.676 1.776 11.676s-.948-19.104.708-18c1.656 1.104 5.1 6 5.1 6s-7.284-17.94-4.368-15.924a43.727 43.727 0 0 1 5.124 4.152l-10.44-13.368 7.74 6.588s-15.972-17.808-14.724-16.944l-5.412-3.744s2.772-6.684-6.552-19.884-17.328-21.204-19.404-22.644c-2.076-1.44 9.18 4.512 9.18 4.512s-7.044-6.72-5.088-6c1.956.72 11.112 7.068 11.112 7.068s-7.956-11.64-6.288-10.488c1.668 1.152 10.716 13.032 10.716 13.032l-.288-7.584s.924 2.184 1.98 4.8c-1.632-7.008-2.916-15.864-2.916-15.864l6.6 16.248s-1.488-12.096.312-10.248c1.8 1.848 4.872 10.8 4.872 10.8s1.02-7.2 1.296-9.9a62.873 62.873 0 0 0 2.928 9.132l1.524-7.56 1.488 12.096 3.6-6.12.9 12.924 3.096-8.928 1.416 7.74s1.716-10.488 2.4-6.972a112.6 112.6 0 0 1 .792 12.132s2.964-9.6 4.308-6.24c1.344 3.36 2.58 14.04 2.58 14.04s2.772-14.688 3.6-12.288c.553 2.21.847 4.478.876 6.756 0 0 .948-6.72 2.328-5.16 1.38 1.56 3.66 8.064 3.66 8.064s-.456-6.468.924-4.896c1.38 1.572 3.84 5.112 3.84 5.112s-4.26-7.188-.516-2.784Zm-185.208-71.796 5.208-3.312 6.204-1.86-5.316 7.692a82.666 82.666 0 0 0-6.096-2.52Zm6.756 2.796c.996-.588 2.4-1.428 3.948-2.28 3.276-1.86 6.804-3.756 6.324-3.072-.864 1.2 2.22 2.148 2.22 2.148s-6.432 6.624-4.8 5.244c1.632-1.38 6.36-2.976 6.36-2.976l-1.884 3.6 3 .144 1.764.084 3.6 1.884-2.184 2.22s8.58-.84 6.6.24c-1.98 1.08-4.68 2.316-4.68 2.316l5.184.504-3.6 1.992a189.328 189.328 0 0 0-21.852-12.048ZM228.24 136.8v-1.548l2.34 1.62c-.792-.072-1.572-.072-2.34-.072Zm8.772.84-.876-.132c-1.44-1.92-2.712-3.6-2.712-3.6s1.92 1.8 4.188 3.828l-.6-.096Zm4.56.936a75.96 75.96 0 0 0-2.4-3.144s1.812 1.596 4.02 3.504l-1.62-.36Zm7.5 1.8-.984-1.848s.648.804 1.68 2.04l-.696-.192Z" fill="#263238"/><g mask="url(#Sunbathe in a hammock-bro (1) 1__Sunbathe in a hammock-bro (1) 1__Sunbathe in a hammock-bro (1) 1__Sunbathe in a hammock-bro (1) 1__b)" stroke="#969696" stroke-miterlimit="10"><path d="M97.476 463.056c.948.504 1.92 1.056 2.916 1.668m-23.94-4.188s5.208-3.348 15.036-.072m29.856-11.904s-5.388-5.388-19.2-4.8m18.024-28.92c2.433.276 4.84.742 7.2 1.392m-18-1.8s1.8-.108 4.524 0m-12.3-26.94a29.49 29.49 0 0 1 17.364 1.2m5.472-44.736a29.999 29.999 0 0 1 15.48 6.42M108.78 344.4a48.737 48.737 0 0 1 10.62-.828m-.444-17.172a16.798 16.798 0 0 1 12 2.988m19.128-55.044s-5.388-4.8-8.4-4.188"/></g><path d="M369.288 369.6c-4.968 0-7.728 0-8.832 7.728a31.919 31.919 0 0 0-.072 7.032c-.156 4.884-.6 16.968-1.032 20.04-.552 3.864-4.92 12.156-4.92 12.156s14.304 4.956 16.512-1.116c2.208-6.072 6.66-16.2 5.544-18.864l-.612-1.512c-1.2-3.024-1.044-6.912-2.712-11.1.816.324 2.892.096 4.296 1.2 1.404 1.104 12.816 7.656 12.816 7.656l3.324-3.9s-19.332-19.32-24.312-19.32Z" fill="#CCC" stroke="#263238" stroke-linecap="round" stroke-linejoin="round"/><path d="M383.916 366.9s-4.44-6.168-8.304-5.676-1.32 10.656.228 14.4a39.34 39.34 0 0 0 5.052 8.004l5.052-2.676s.108-9.372-2.028-14.052Z" fill="#15803D" stroke="#263238" stroke-linecap="round" stroke-linejoin="round"/><path d="M193.104 365.172s38.664 43.632 56.88 56.892c18.216 13.26 42 23.196 60.756 25.404 18.756 2.208 46.548-8.112 46.548-8.112s-17.268 20.808-30 23.58c-12.732 2.772-39.216-7.74-46.944-12.156-7.728-4.416-43.944-26.532-55.356-40.884-11.412-14.352-31.884-44.724-31.884-44.724Z" fill="#2B2B2B" stroke="#263238" stroke-linecap="round" stroke-linejoin="round"/><path d="M328.332 440.4s-2.952-3.6-9.6-15.012-13.512-20.988-17.436-21.876c-3.924-.888-28.728 11.316-34.092 13.5-5.364 2.184-12.624 5.076-14.652 5.076-2.028 0-2.76-.144-6.816-3.336-4.056-3.192-6.54-2.184-4.8.576 1.74 2.76 1.74 6 4.8 7.692 3.06 1.692 4.632 2.616 5.508 3.768.876 1.152 1.452 3.48 3.48 2.616 2.028-.864 2.172-2.904 3.768-5.22 1.596-2.316 6.384-4.644 16.116-4.212 9.732.432 19.728-4.212 19.728-4.212a114.496 114.496 0 0 0 3.912 18.144c2.616 7.836 4.464 20.292 9.984 23.628 5.52 3.336 11.46 3.336 15.816-.876s4.548-16.824 4.284-20.256Zm54.66-59.28s-5.904.372-7.704 1.728c-1.8 1.356-2.772 3.144-4.344 3.948-1.572.804-4.8-.216-5.388.876-.588 1.092.288 4.284.288 4.284s-4.608 3.768-4.992 5.472c-.384 1.704 4.248 4.236 4.248 4.236a31.778 31.778 0 0 1-3.096 6.612 26.663 26.663 0 0 1-4.26 4.392 11.54 11.54 0 0 1 6.288 1.2 58.399 58.399 0 0 1 5.316 2.928s2.076-5.58 6-7.956c3.924-2.376 10.224 1.2 15.48-1.848s3.12-16.404-.3-21.42c-3.42-5.016-7.536-4.452-7.536-4.452Z" fill="#CCC" stroke="#263238" stroke-linecap="round" stroke-linejoin="round"/><path d="M381.912 388.008s-9.48-5.688-11.736-6.288c-2.256-.6-3.516 2.148-3.672 3.3-.156 1.152.072 1.62 1.776 2.004a3.759 3.759 0 0 0 2.664-.228s-.888 5.448 1.824 6.984a5.999 5.999 0 0 0 7.032-1.08c1.056-1.32 4.128-3.396 3.36-4.236-.768-.84-1.248-.456-1.248-.456Z" fill="#000" stroke="#263238" stroke-linecap="round" stroke-linejoin="round"/><path d="M365.1 401.664a16.132 16.132 0 0 0 5.352 1.62" stroke="#263238" stroke-linecap="round" stroke-linejoin="round"/><path d="M369.6 415.764s-2.4-3.852-8.484-4.38-8.016.804-12.492 2.532c-4.476 1.728-9.108 1.2-12.432 4.164-3.324 2.964-.348 7.86-.348 7.86a14.539 14.539 0 0 0-4.044 6c-1.068 3.516-1.86 7.2-2.64 7.548-.78.348-7.14.264-13.956-4.236s-19.884-10.008-26.988-13.056c-7.104-3.048-12.768-2.616-16.104-3.048-3.336-.432-9.432-2.316-20.316-5.652-10.884-3.336-17.7-7.836-19.008-9-1.308-1.164-3.036-4.356-3.768-8.268-.732-3.912 1.02-6.528.288-7.548a1.352 1.352 0 0 0-1.117-.725 1.36 1.36 0 0 0-1.199.581l-.576.72a9.426 9.426 0 0 0-1.752 2.328c-.288.864-1.296 1.884-1.596 2.76a16.943 16.943 0 0 0-1.008 5.652c0 2.76 2.316 9 2.904 9.864a4.508 4.508 0 0 0 2.748 2.328c1.596.432 3.78-.444 4.5.288.72.732 11.904 8.988 15.384 12.624 3.48 3.636 6.096 6.384 13.344 6.96 7.248.576 11.892 0 15.24 2.028 3.348 2.028 8.4 8.712 15.516 16.104 7.116 7.392 17.82 16.092 28.548 17.4 10.728 1.308 15.492.744 20.496-5.892 5.004-6.636 7.944-15.012 14.904-20.94 6.96-5.928 11.388-12.648 13.2-17.376 1.812-4.728 1.344-6.372.756-7.62Z" fill="#CCC" stroke="#263238" stroke-linecap="round" stroke-linejoin="round"/><path d="M338.796 463.932c-2.028-1.536-4.716-7.788-6.804-11.724a27.192 27.192 0 0 1-2.748-12.72h-.06a16.71 16.71 0 0 1-6.42-.636c1.332 2.808 1.884 12.276.552 19.308a12.004 12.004 0 0 1-6.492 8.868c1.2.228 2.292.42 3.444.564 9.42 1.176 13.608.936 18.528-3.66Z" fill="#166534" stroke="#263238" stroke-miterlimit="10"/><path d="M357.288 439.356a56.081 56.081 0 0 0 3.756-3.828 19.904 19.904 0 0 1-3.972-2.892c-5.1-4.5-9.468-7.872-7.884-14.1 1.584-6.228 13.524-5.904 17.892-5.172a12.534 12.534 0 0 0-5.94-1.98c-6.072-.54-8.016.804-12.492 2.532-4.476 1.728-9.108 1.2-12.432 4.164-3.324 2.964-.348 7.86-.348 7.86s8.964 8.4 14.4 10.596a492.293 492.293 0 0 0 7.02 2.82Z" fill="#166534" stroke="#263238" stroke-linecap="round" stroke-linejoin="round"/><path d="m351.6 421.2-14.604 13.68s-12.924-3.216-22.932-6.264-14.796-1.884-14.796-1.884 6 3.048 7.2 3.6c1.2.552 1.452-.288 3.192 1.308 1.74 1.596 15 9.6 20.4 12.228 5.4 2.628 4.548 3.108 8.052 2.124 3.504-.984 18.888-11.772 23.676-15.804 4.788-4.032 6.828-9.168 4.872-12.072-1.956-2.904-5.616-2.82-8.34-2.172" fill="#CCC"/><path d="m351.6 421.2-14.604 13.68s-12.924-3.216-22.932-6.264-14.796-1.884-14.796-1.884 6 3.048 7.2 3.6c1.2.552 1.452-.288 3.192 1.308 1.74 1.596 15 9.6 20.4 12.228 5.4 2.628 4.548 3.108 8.052 2.124 3.504-.984 18.888-11.772 23.676-15.804 4.788-4.032 6.828-9.168 4.872-12.072-1.956-2.904-5.616-2.82-8.34-2.172" stroke="#263238" stroke-linecap="round" stroke-linejoin="round"/><path d="m437.196 330.036 30.3-47.112m-304.128 34.752-20.316-31.872" stroke="#263238" stroke-width="2" stroke-miterlimit="10"/><path d="m433.884 335.064-62.064 79.2s-20.4 28.908-33.288 37.872c-12.888 8.964-20.964 9.084-32.064 6.72-3.312-.708-9.18-2.976-15.804-5.82-7.056-4.296-32.856-20.4-42.696-31.44-3.36-3.78-7.608-8.208-11.94-12.564-36.324-40.392-71.724-89.268-71.724-89.268s43.932 76.512 56.676 89.028l.12.384s8.328 8.076 19.128 16.92a153.223 153.223 0 0 0 15.24 10.428l-.276-.144 3.36 2.028a527.577 527.577 0 0 0 7.464 4.44c5.652 3.324 12.828 7.488 19.86 11.4 1.704.972 3.48 1.932 5.16 2.82a151.868 151.868 0 0 0 17.736 8.58c13.2 4.728 20.172 6.9 30-1.8A197.338 197.338 0 0 0 367.02 432c7.416-10.668 67.932-96.072 67.932-96.072l-1.068-.864Z" stroke="#263238" stroke-linecap="round" stroke-linejoin="round"/><path d="M415.2 358.968 371.856 414.3s-20.4 28.908-33.288 37.872c-12.888 8.964-20.964 9.084-32.064 6.72-3.312-.708-9.18-2.976-15.804-5.82-7.056-4.296-32.856-20.4-42.696-31.44-3.36-3.78-7.608-8.208-11.94-12.564-14.928-16.608-29.7-34.644-41.928-50.124l-4.896 2.868c12.228 20.052 25.632 40.98 31.776 47.016l.12.384s8.328 8.076 19.128 16.92a153.223 153.223 0 0 0 15.24 10.428l-.276-.144 3.36 2.028a527.577 527.577 0 0 0 7.464 4.44c5.652 3.324 12.828 7.488 19.86 11.4 1.704.972 3.48 1.932 5.16 2.82a153.88 153.88 0 0 0 17.736 8.58c13.2 4.728 20.172 6.9 30-1.8A197.398 197.398 0 0 0 367.02 432c4.8-6.96 32.256-45.696 50.748-71.796l-2.568-1.236Z" fill="#15803D" stroke="#263238" stroke-linecap="round" stroke-linejoin="round"/><path d="M386.4 376.32s-1.584-3.432-4.404-1.044-2.664 4.476-1.2 6c1.464 1.524 5.82 3.432 6 9.456.18 6.024-5.796 8.148-12.12 11.532-6.324 3.384-8.46 12.6-4.38 17.112 4.08 4.512 8.652-.132 8.652-.132s3.456 3.696 6.996 2.4a6.145 6.145 0 0 0 3.78-5.184s3.456 3.684 6.96.504 2.508-9.756 2.508-9.756a56.018 56.018 0 0 1-.504-14.568 13.96 13.96 0 0 0-7.572-14.22 20.882 20.882 0 0 0-4.716-2.1Z" fill="#fff" stroke="#263238" stroke-linecap="round" stroke-linejoin="round"/><path d="M387.18 375.108c.456-.084 8.868-2.748 12.552-.78 3.684 1.968 7.068 10.632 5.868 16.872-1.2 6.24-3.876 9.144-3.876 9.144a24.53 24.53 0 0 1-10.968-10.872c-4.356-8.184-3.576-14.364-3.576-14.364Z" fill="#15803D" stroke="#263238" stroke-linecap="round" stroke-linejoin="round"/><path d="M413.88 411.264s-8.88-5.76-18.48-22.296-11.484-22.068-11.484-22.068a72.612 72.612 0 0 1-.564 15.888c-1.284 7.284.216 18.768 7.536 24.156 7.32 5.388 18.612 6.348 22.992 4.32Z" fill="#15803D" stroke="#263238" stroke-linecap="round" stroke-linejoin="round"/><path d="M376.8 417.768s-2.652.072-1.74-2.292c.912-2.364 5.808-2.868 6.168-.18a4.021 4.021 0 0 1-2.292 3.936m10.8-2.772a7.429 7.429 0 0 0-3.06-3.348c-1.932-.852-4.584 1.416-3.96 3.264.624 1.848 2.94.984 2.94.984" stroke="#263238" stroke-linecap="round" stroke-linejoin="round"/><path d="M161.508 321.144c1.2 2.688 3.372 4.32 4.92 3.6 1.548-.72 1.872-3.396.708-6.096-1.164-2.7-3.372-4.32-4.932-3.6-1.56.72-1.872 3.408-.696 6.096Zm276.18 13.884c-1.524 2.508-3.936 3.84-5.388 2.952-1.452-.888-1.392-3.6.132-6.132 1.524-2.532 3.936-3.828 5.376-2.952 1.44.876 1.392 3.624-.12 6.132Z" fill="#15803D" stroke="#263238" stroke-linecap="round" stroke-linejoin="round"/></svg>