<svg fill="none" xmlns="http://www.w3.org/2000/svg" viewBox="0 0 1439 561"><g clip-path="url(#Group 1__a)"><path d="M1176.7 443.835c0 .124-101.93.231-227.629.231-125.703 0-227.66-.107-227.66-.231 0-.124 101.913-.23 227.642-.23 125.727 0 227.647.106 227.647.23Zm-16.54 13.087c0 .132-22.17.239-49.56.239s-49.55-.107-49.55-.239c0-.133 22.16-.231 49.55-.231 27.39 0 49.56.107 49.56.231Z" fill="#E0E0E0"/><path d="M816.417 253.301c.771-5.537-7.093-10.1-12.945-10.57-2.802-.23-5.711.204-8.371-.726-5.754-2.003-8.059-9.436-13.672-11.802-4.203-1.772-9.035-.195-13.114 1.852-4.078 2.046-8.122 4.669-12.644 4.917-3.954.248-8.255-1.214-11.713.718-2.58 1.435-3.927 4.43-6.304 6.157-2.376 1.728-5.32 2.083-8.246 2.242-2.926.16-5.878.186-8.503 1.382-2.624 1.196-4.806 3.978-4.256 6.822l99.768-.992Zm-225.564-89.435c.772-5.537-7.093-10.1-12.945-10.57-2.802-.23-5.71.204-8.37-.726-5.755-2.002-8.06-9.436-13.673-11.802-4.202-1.772-9.035-.194-13.113 1.852-4.079 2.047-8.122 4.669-12.644 4.917-3.955.249-8.255-1.213-11.713.718-2.58 1.435-3.928 4.43-6.304 6.158-2.377 1.728-5.32 2.082-8.246 2.241-2.926.16-5.879.186-8.504 1.383-2.624 1.196-4.805 3.978-4.256 6.822l99.768-.993Zm740.997 71c.77-5.537-7.09-10.1-12.94-10.57-2.8-.23-5.71.204-8.37-.726-5.76-2.002-8.06-9.436-13.67-11.802-4.21-1.772-9.04-.194-13.12 1.852-4.08 2.047-8.12 4.669-12.64 4.917-3.96.249-8.26-1.213-11.72.718-2.58 1.435-3.92 4.43-6.3 6.158-2.38 1.728-5.32 2.082-8.25 2.241-2.92.16-5.87.186-8.5 1.383-2.62 1.196-4.8 3.978-4.25 6.822l99.76-.993Zm-1210.997 17c.772-5.537-7.093-10.1-12.945-10.57-2.802-.23-5.71.204-8.37-.726-5.755-2.002-8.06-9.436-13.673-11.802-4.203-1.772-9.035-.194-13.113 1.852-4.08 2.047-8.122 4.669-12.644 4.917-3.955.249-8.255-1.213-11.713.718-2.58 1.435-3.928 4.43-6.304 6.158-2.377 1.728-5.32 2.082-8.246 2.241-2.926.16-5.879.186-8.503 1.383-2.625 1.196-4.806 3.978-4.256 6.822l99.767-.993Z" fill="#EBEBEB"/><path d="M241.868 171.763c.665-4.82-6.145-8.789-11.261-9.197-2.438-.204-4.974.177-7.279-.629-5.01-1.772-7.014-8.213-11.899-10.269-3.653-1.541-7.865-.168-11.403 1.613-3.537 1.781-7.04 4.022-11.003 4.27-3.441.222-7.173-1.054-10.188.629-2.243 1.25-3.423 3.837-5.489 5.361-2.065 1.524-4.663 1.772-7.173 1.94-2.509.168-5.107.159-7.394 1.205-2.288 1.045-4.177 3.464-3.707 5.936l86.796-.859Zm812.392 22.096c.47-3.402-4.34-6.202-7.98-6.494-1.73-.142-3.55.124-5.15-.443-3.54-1.232-4.94-5.795-8.39-7.248-2.58-1.089-5.55-.115-8.05 1.135-2.5 1.249-4.98 2.844-7.77 3.021-2.42.159-5.06-.744-7.19.443-1.58.886-2.41 2.658-3.88 3.783a9.222 9.222 0 0 1-5.06 1.373c-1.778-.03-3.545.27-5.213.886-1.614.736-2.953 2.446-2.616 4.182l61.299-.638Zm-190.912-54.202c.47-3.403-4.336-6.202-7.98-6.495-1.729-.141-3.547.124-5.143-.443-3.547-1.231-4.948-5.794-8.397-7.247-2.58-1.09-5.55-.115-8.051 1.134-2.5 1.249-4.974 2.844-7.767 3.021-2.421.16-5.063-.744-7.191.443-1.578.886-2.412 2.658-3.875 3.783a9.23 9.23 0 0 1-5.062 1.374 14.33 14.33 0 0 0-5.214.886c-1.614.735-2.953 2.445-2.616 4.182l61.296-.638Zm-368 120c.47-3.403-4.336-6.202-7.98-6.495-1.729-.141-3.547.124-5.143-.443-3.547-1.231-4.948-5.794-8.397-7.247-2.58-1.09-5.55-.115-8.051 1.134-2.5 1.249-4.974 2.844-7.767 3.021-2.421.16-5.063-.744-7.191.443-1.578.886-2.412 2.658-3.875 3.783a9.23 9.23 0 0 1-5.062 1.374 14.33 14.33 0 0 0-5.214.886c-1.614.735-2.953 2.445-2.616 4.182l61.296-.638Z" fill="#F9FAFB"/><path d="M1145.83 463.717c-.19.034-.38.049-.57.044l-1.6.045-5.92.071-19.51.071-19.51-.071-5.91-.071-1.62-.045c-.18.004-.37-.01-.55-.044.18-.039.37-.054.55-.044h1.62l5.91-.071 19.51-.071 19.51.071 5.92.071h1.6c.19-.01.38.005.57.044Z" fill="#E0E0E0"/><path d="M1179.32 476.83c.57.409 1.06.929 1.42 1.529.37.599.61 1.267.71 1.962a9.288 9.288 0 0 1-.37 4.155 16.473 16.473 0 0 1-4.77 6.84c-1.89-2.348-1.78-5.839-1.64-7.611.25-2.799 2.4-7.699 4.65-6.875Zm-1.2 19.315a4.418 4.418 0 0 1 2.17-3.916 5.866 5.866 0 0 1 4.54-.576c.36.052.71.185 1.02.389.3.204.56.474.75.789.12.318.16.663.11.999-.06.337-.2.652-.42.915-.45.515-1.02.905-1.66 1.134-2.15.886-4.43 1.311-6.47.266" fill="#4B5563"/><path d="M1173.81 503.773c.04-.183.1-.361.17-.531.14-.372.31-.886.53-1.427a15.82 15.82 0 0 1 2.36-4.43 9.66 9.66 0 0 1 4.03-2.986c.48-.181.98-.303 1.49-.363h.56c-.68.102-1.35.278-2 .523a9.83 9.83 0 0 0-3.93 2.977c-1 1.333-1.8 2.804-2.38 4.368-.24.593-.44 1.072-.59 1.4-.07.161-.15.318-.24.469Z" fill="#263238"/><path d="M1178.01 480.684c.01.083.01.166 0 .248 0 .177-.03.408-.08.691-.07.603-.19 1.462-.35 2.534a243.34 243.34 0 0 1-1.37 8.337c-.6 3.252-1.2 6.202-1.67 8.276a75.665 75.665 0 0 1-.57 2.498c-.07.275-.13.505-.16.674-.02.082-.05.163-.08.239v-.248c0-.16.08-.399.13-.682l.51-2.508c.43-2.117 1.01-5.041 1.61-8.284.59-3.243 1.08-6.202 1.43-8.319.17-1.055.31-1.905.41-2.526l.12-.691c.01-.082.04-.162.07-.239Z" fill="#263238"/><path d="M1173.97 497.075a10.55 10.55 0 0 0-1.11-4.776 10.392 10.392 0 0 0-3.16-3.747c-.68-.496-1.62-.886-2.33-.452s-.76 1.471-.6 2.295a8.93 8.93 0 0 0 2.5 4.522 8.842 8.842 0 0 0 4.6 2.362" fill="#4B5563"/><path d="M1169.61 491.13c.15.086.3.184.44.292.17.117.33.244.48.381.21.173.42.356.61.55.21.221.45.452.68.726.25.282.48.578.69.886.5.736.91 1.527 1.22 2.357.3.82.51 1.669.63 2.534.04.379.06.761.06 1.143.02.33.02.662 0 .992-.02.271-.06.54-.11.806-.03.206-.07.41-.12.612-.04.169-.09.335-.15.496-.05 0 .16-.727.24-1.923.01-.327.01-.656 0-.983-.01-.374-.04-.746-.09-1.116-.12-.851-.32-1.686-.62-2.49-.32-.8-.72-1.563-1.19-2.277a10.39 10.39 0 0 0-.67-.886c-.22-.275-.45-.514-.65-.736-.85-.903-1.47-1.329-1.45-1.364Z" fill="#263238"/><path d="m764.423 520.164.372-.044c-.771-11.518-6.561-23.869-10.764-34.669-4.318-11.12-8.37-22.531-18.203-29.283a677.318 677.318 0 0 1 28.595 63.996Zm6.898-58.547v.151l-.133.425-.55 1.648c-.115.355-.248.753-.399 1.179l-.425 1.426c-.302 1.019-.683 2.18-1.002 3.482-.169.647-.355 1.329-.541 2.038-.186.709-.337 1.453-.514 2.224-.373 1.532-.674 3.189-1.011 4.935-.603 3.544-1.126 7.362-1.437 11.447-.31 4.084-.328 7.974-.248 11.518.08 1.772.124 3.455.266 5.023.062.789.098 1.551.177 2.278.08.726.151 1.435.213 2.099.124 1.338.319 2.534.452 3.597l.204 1.471c.08.452.151.886.213 1.232.115.726.204 1.302.275 1.71l.062.443c.004.05.004.1 0 .15 0 0-.745-3.242-1.392-8.585-.071-.664-.151-1.364-.23-2.1-.08-.735-.125-1.488-.196-2.277-.15-1.577-.203-3.26-.283-5.041a120.39 120.39 0 0 1 .23-11.562c.284-4.094.887-7.974 1.463-11.465.337-1.772.648-3.411 1.029-4.944.186-.771.346-1.515.532-2.224a176.1 176.1 0 0 1 .55-2.038c.336-1.302.727-2.454 1.037-3.482l.452-1.417.417-1.179c.248-.691.452-1.24.585-1.621.071-.177.124-.319.16-.425l.044-.116Z" fill="#455A64"/><path d="m769.586 455.24-3.955 13.946a2.64 2.64 0 0 0 1.822 3.26l.589.167a2.642 2.642 0 0 0 3.262-1.821l3.955-13.946a2.64 2.64 0 0 0-1.822-3.26l-.589-.166a2.641 2.641 0 0 0-3.262 1.82Z" fill="#fff"/><path d="M768.049 472.622s.16.044.47.062a2.59 2.59 0 0 0 1.312-.24 2.525 2.525 0 0 0 1.366-1.524c.23-.797.479-1.727.771-2.746.568-2.047 1.25-4.474 2.004-7.168.373-1.347.772-2.764 1.188-4.226a2.513 2.513 0 0 0-.39-2.109 2.438 2.438 0 0 0-.842-.744 4.755 4.755 0 0 0-1.117-.381 2.516 2.516 0 0 0-2.864 1.223 4.981 4.981 0 0 0-.364 1.063c-.417 1.462-.824 2.879-1.206 4.226-.771 2.658-1.472 5.103-2.057 7.15-.151.505-.284.992-.417 1.453a4.546 4.546 0 0 0-.266 1.294 2.664 2.664 0 0 0 .825 1.878c.334.303.735.522 1.17.638l.337.106.116.045h-.124l-.346-.089a2.762 2.762 0 0 1-1.215-.611 2.744 2.744 0 0 1-.887-1.95c.023-.455.11-.906.257-1.337.125-.461.258-.949.399-1.454.577-2.046 1.26-4.43 2.013-7.167.373-1.347.772-2.765 1.188-4.226.083-.386.211-.761.382-1.117.199-.349.471-.651.798-.886a2.767 2.767 0 0 1 2.385-.434c.4.095.79.231 1.161.408.353.201.656.48.887.815a2.763 2.763 0 0 1 .426 2.312c-.417 1.462-.825 2.88-1.206 4.226l-2.057 7.15c-.293 1.019-.55 1.932-.807 2.747a2.663 2.663 0 0 1-2.811 1.772 1.799 1.799 0 0 1-.479-.159Z" fill="#263238"/><path d="M766.905 520.12c-.363-8.904-.372-18.703 4.682-26.057 2.864-4.156 7.173-7.159 11.784-9.224a82.673 82.673 0 0 1 14.461-4.465c-5.47 7.655-17.857 7.744-23.053 15.558-1.561 2.321-2.288 5.077-2.988 7.779-1.463 5.582-2.74 10.88-4.203 16.471m-39.74-31.338h.479c.31.044.771.08 1.356.195 1.658.28 3.292.688 4.886 1.223a34.982 34.982 0 0 1 6.8 3.11 38.245 38.245 0 0 1 3.636 2.498 34.561 34.561 0 0 1 3.546 3.199 30.175 30.175 0 0 1 3.015 3.668 22.94 22.94 0 0 1 1.259 1.869c.373.611.763 1.249 1.091 1.87a37.5 37.5 0 0 1 2.943 6.866c.517 1.6.905 3.238 1.162 4.9.106.584.133 1.045.168 1.355v.479-.116c0-.097 0-.212-.053-.354-.062-.31-.097-.771-.221-1.347a34.376 34.376 0 0 0-1.233-4.864 38.195 38.195 0 0 0-2.97-6.813c-.328-.62-.718-1.223-1.091-1.852a21.912 21.912 0 0 0-1.25-1.86 31.487 31.487 0 0 0-3.006-3.633 34.013 34.013 0 0 0-3.476-3.172 38.86 38.86 0 0 0-3.608-2.498 35.055 35.055 0 0 0-11.589-4.43c-.585-.133-1.037-.178-1.348-.24l-.354-.062-.142.009Z" fill="#455A64"/><path d="m719.057 483.132-.265.551a2.64 2.64 0 0 0 1.236 3.524l13.073 6.281a2.644 2.644 0 0 0 3.527-1.235l.265-.551a2.64 2.64 0 0 0-1.237-3.524l-13.073-6.281a2.643 2.643 0 0 0-3.526 1.235Z" fill="#fff"/><path d="M736.901 491.697s.071-.151.141-.452a2.594 2.594 0 0 0-1.285-2.897c-.745-.372-1.623-.771-2.572-1.232l-6.685-3.198-3.972-1.896a2.534 2.534 0 0 0-2.146 0c-.344.168-.647.41-.887.709a5.36 5.36 0 0 0-.567 1.028 2.521 2.521 0 0 0 0 2.206c.165.341.4.643.691.886.308.22.642.401.994.54l3.945 1.843 6.703 3.252 1.357.655c.385.223.8.387 1.232.488a2.658 2.658 0 0 0 1.995-.497c.354-.274.637-.63.825-1.036l.169-.319a.625.625 0 0 1 .062-.106.443.443 0 0 1 0 .115l-.142.328a2.795 2.795 0 0 1-.816 1.098 2.717 2.717 0 0 1-2.075.549 4.602 4.602 0 0 1-1.277-.478l-1.365-.647-6.721-3.198c-1.259-.612-2.589-1.241-3.963-1.896a4.994 4.994 0 0 1-1.029-.576 2.836 2.836 0 0 1-.771-.939 2.76 2.76 0 0 1 0-2.419c.154-.38.353-.74.594-1.072a2.739 2.739 0 0 1 3.316-.789l3.954 1.905 6.704 3.252c.948.461 1.773.886 2.571 1.258a2.66 2.66 0 0 1 1.259 1.737c.126.446.126.918 0 1.364a1.51 1.51 0 0 1-.239.434Zm507.589-206.296a7.936 7.936 0 0 1 2.66-.231 8.04 8.04 0 0 1 2.66.231c-.87.224-1.77.302-2.66.23a7.96 7.96 0 0 1-2.66-.23Zm-21.26 0c3.54-.308 7.1-.308 10.64 0-3.54.307-7.1.307-10.64 0Zm-21.26 0c3.54-.308 7.11-.308 10.64 0-3.53.308-7.1.308-10.64 0Zm-21.26 0c3.54-.308 7.1-.308 10.64 0-3.54.307-7.1.307-10.64 0Zm143.78 0a7.936 7.936 0 0 1 2.66-.231 8.04 8.04 0 0 1 2.66.231c-.87.224-1.77.302-2.66.23a7.96 7.96 0 0 1-2.66-.23Zm-21.26 0c3.54-.308 7.1-.308 10.64 0-3.54.307-7.1.307-10.64 0Zm-21.26 0c3.54-.308 7.11-.308 10.64 0-3.53.308-7.1.308-10.64 0Zm-21.26 0c3.54-.308 7.1-.308 10.64 0-3.54.307-7.1.307-10.64 0Zm143.78 0a7.936 7.936 0 0 1 2.66-.231 8.04 8.04 0 0 1 2.66.231c-.87.224-1.77.302-2.66.23a7.96 7.96 0 0 1-2.66-.23Zm-21.26 0c3.54-.308 7.1-.308 10.64 0-3.54.307-7.1.307-10.64 0Zm-21.26 0c3.54-.308 7.11-.308 10.64 0-3.53.308-7.1.308-10.64 0Zm-21.26 0c3.54-.308 7.1-.308 10.64 0-3.54.307-7.1.307-10.64 0Zm-181.25 0c3.54-.308 7.1-.308 10.64 0-3.54.308-7.1.308-10.64 0Zm-21.25-.47c1.78-.05 3.56-.003 5.32.142 1.78-.011 3.56.099 5.32.328-1.76.232-3.54.276-5.32.133-1.79.013-3.57-.189-5.32-.603Zm-18.79-8.594c.11-.097 1.58 1.772 3.95 3.482 2.37 1.71 4.58 2.596 4.52 2.738a4.48 4.48 0 0 1-1.49-.488 17.457 17.457 0 0 1-3.3-1.878c-1.5-.993-2.76-2.31-3.68-3.854Zm-5.81-20.077c.12 0 .27 2.366.63 5.263s.89 5.219.73 5.254a17.837 17.837 0 0 1-1.19-5.192 19.007 19.007 0 0 1-.17-5.325Zm-7.74-19.341a16.957 16.957 0 0 1 3.32 4.164 16.09 16.09 0 0 1 2.23 4.847c-.12.053-1.07-2.127-2.62-4.608-1.54-2.48-3.04-4.314-2.93-4.403Zm-17.45-11.669c1.75.327 3.45.925 5.02 1.772 1.64.717 3.15 1.679 4.5 2.853-.07.115-2.07-1.16-4.7-2.436-2.62-1.276-4.86-2.065-4.82-2.189Zm-21.03-.815a17.36 17.36 0 0 1 5.24-.983 30.56 30.56 0 0 1 3.78 0c.52-.02 1.04.031 1.55.15-.51.144-1.03.204-1.55.178-.97 0-2.29.062-3.75.177-2.9.168-5.25.611-5.27.478Zm-18.47 9.932a16.483 16.483 0 0 1 3.89-3.65 16.889 16.889 0 0 1 4.63-2.658c.06.124-2.01 1.285-4.35 3.021-2.34 1.737-4.07 3.385-4.17 3.287Zm-9.28 18.686a20.76 20.76 0 0 1 3.07-10.127c.13.062-.88 2.197-1.77 4.997s-1.16 5.148-1.3 5.13Zm-.49 21.229a31.47 31.47 0 0 1-.15-5.316c-.06-1.778.05-3.557.31-5.316.2 1.764.25 3.542.15 5.316.05 1.777-.05 3.556-.31 5.316Zm-.3 21.237a29.512 29.512 0 0 1-.16-5.316c-.05-1.778.05-3.556.31-5.316.21 1.764.26 3.543.16 5.316.04 1.778-.06 3.556-.31 5.316Zm-.31 21.237a29.51 29.51 0 0 1-.15-5.316c-.06-1.777.05-3.556.31-5.316.2 1.765.25 3.543.15 5.316.05 1.778-.05 3.557-.31 5.316Zm-5.87 20.024c-.11-.08 1.23-2.047 2.51-4.669 1.27-2.623 1.97-4.882 2.11-4.847a15.864 15.864 0 0 1-1.71 5.051 15.813 15.813 0 0 1-2.91 4.465Zm-16.66 12.679c-.05-.124 2.16-1.01 4.71-2.419 2.56-1.409 4.49-2.791 4.57-2.658a16.868 16.868 0 0 1-4.35 3.083 17.054 17.054 0 0 1-4.93 1.994Zm-20.965 2.445a34.222 34.222 0 0 1 5.315-.222h3.76c.52-.043 1.04-.01 1.56.098-.51.155-1.03.233-1.56.23l-1.69.124h-2.07a28.048 28.048 0 0 1-5.315-.23Zm-20.083-6.096c.08-.115 2.092 1.143 4.743 2.357 2.652 1.214 4.904 1.967 4.868 2.1a17.067 17.067 0 0 1-5.063-1.683 17.35 17.35 0 0 1-4.548-2.774Zm-13.256-16.169c.133-.044 1.02 2.162 2.5 4.669 1.481 2.507 2.953 4.368 2.847 4.43a16.307 16.307 0 0 1-3.245-4.226 16.084 16.084 0 0 1-2.102-4.873Zm-2.013-20.998a31.07 31.07 0 0 1 .231 5.316 31.078 31.078 0 0 1-.231 5.316 30.185 30.185 0 0 1-.23-5.316 30.177 30.177 0 0 1 .23-5.316Zm0-21.238c.229 1.762.306 3.541.231 5.316a31.07 31.07 0 0 1-.231 5.316 30.18 30.18 0 0 1-.23-5.316 30.185 30.185 0 0 1 .23-5.316Zm0-21.246c.228 1.762.305 3.541.231 5.316a31.074 31.074 0 0 1-.231 5.316 30.185 30.185 0 0 1-.23-5.316 30.185 30.185 0 0 1 .23-5.316Zm0-21.238c.229 1.763.306 3.541.231 5.316a31.274 31.274 0 0 1-.231 5.316 30.177 30.177 0 0 1-.23-5.316 30.185 30.185 0 0 1 .23-5.316Zm0-21.246c.141.508.21 1.033.204 1.56.045.956.071 2.285.071 3.756a31.171 31.171 0 0 1-.23 5.316 30.086 30.086 0 0 1-.231-5.316c0-1.471 0-2.8.062-3.756a5.526 5.526 0 0 1 .124-1.56Zm-8.068-19.244a16.543 16.543 0 0 1 3.387 4.12 16.1 16.1 0 0 1 2.261 4.829c-.133.053-1.091-2.127-2.66-4.581-1.57-2.454-3.095-4.279-2.988-4.368Zm-17.858-10.977a23.573 23.573 0 0 1 9.754 4.191c-.071.115-2.128-1.081-4.806-2.224-2.678-1.143-4.983-1.834-4.948-1.967Zm-21.067-.691a17.502 17.502 0 0 1 5.258-.886c1.481-.08 2.811 0 3.777 0a5.306 5.306 0 0 1 1.552.168 5.17 5.17 0 0 1-1.552.159c-.966.054-2.296 0-3.75.125-2.944.186-5.285.567-5.285.434Zm-18.753 9.453a23 23 0 0 1 8.68-6.069c.063.124-2.039 1.232-4.433 2.906-2.394 1.675-4.114 3.261-4.247 3.163Zm-9.833 18.403c.049-1.79.402-3.558 1.046-5.228a15.638 15.638 0 0 1 2.341-4.784c.124.062-.975 2.17-1.906 4.935-.931 2.764-1.348 5.094-1.481 5.077Zm-.364 21.219a30.18 30.18 0 0 1-.23-5.316 30.185 30.185 0 0 1 .23-5.316c.229 1.762.306 3.541.231 5.316a31.07 31.07 0 0 1-.231 5.316Zm0 21.247a30.185 30.185 0 0 1-.23-5.316 30.177 30.177 0 0 1 .23-5.316c.228 1.762.305 3.54.231 5.316a31.078 31.078 0 0 1-.231 5.316Zm-.541 21.21c-.133 0 .266-2.374.302-5.316a30.48 30.48 0 0 1 .239-5.316c.228 1.763.302 3.541.222 5.316a15.588 15.588 0 0 1-.763 5.316ZM872.8 302.377c-.089-.107 1.658-1.719 3.547-3.979 1.888-2.259 3.085-4.279 3.209-4.208a22.009 22.009 0 0 1-6.756 8.187Zm-18.992 8.922c0-.133 2.314-.559 5.107-1.418 2.793-.859 4.965-1.772 5.027-1.683a17.472 17.472 0 0 1-4.894 2.126 17.152 17.152 0 0 1-5.24.975Zm-21.236.735a31.977 31.977 0 0 1 5.32-.301 29.649 29.649 0 0 1 5.32.159 31.87 31.87 0 0 1-5.32.301 29.646 29.646 0 0 1-5.32-.159Zm-21.253.275a30.834 30.834 0 0 1 5.32-.302 31.31 31.31 0 0 1 5.32.151c-1.761.26-3.541.364-5.32.31a31.725 31.725 0 0 1-5.32-.159Zm-21.254.301a30.157 30.157 0 0 1 5.32-.31 30.7 30.7 0 0 1 5.32.159 30.834 30.834 0 0 1-5.32.302 31.31 31.31 0 0 1-5.32-.151Zm-21.253.31a30.734 30.734 0 0 1 5.32-.301 31.104 31.104 0 0 1 5.32.15 29.967 29.967 0 0 1-5.32.31 30.502 30.502 0 0 1-5.32-.159Zm-16.013.204a8.225 8.225 0 0 1 2.66-.266 7.967 7.967 0 0 1 2.66.195 8.012 8.012 0 0 1-2.66.266 7.517 7.517 0 0 1-2.66-.195Zm-16.026-1.09a31.983 31.983 0 0 1 5.32-.301 29.646 29.646 0 0 1 5.32.159 31.864 31.864 0 0 1-5.32.301 29.649 29.649 0 0 1-5.32-.159Zm-21.253.275a30.834 30.834 0 0 1 5.32-.302 31.31 31.31 0 0 1 5.32.151c-1.761.26-3.541.364-5.32.31a31.728 31.728 0 0 1-5.32-.159Zm-21.253.301c1.76-.26 3.541-.364 5.32-.31a30.705 30.705 0 0 1 5.32.159 30.845 30.845 0 0 1-5.32.302c-1.775.101-3.555.05-5.32-.151Zm-21.254.31a30.734 30.734 0 0 1 5.32-.301 31.101 31.101 0 0 1 5.32.15c-1.76.261-3.541.365-5.32.31a30.505 30.505 0 0 1-5.32-.159Z" fill="#263238"/><path d="M929.635 178.859a6.307 6.307 0 0 0-2.477-5.028 6.323 6.323 0 0 0-5.504-1.08 6.317 6.317 0 0 0-3.785 9.307c.249.407.55.7.887 1.134l3.697 4.873a1.147 1.147 0 0 0 1.818 0l3.609-4.776c.315-.389.611-.794.886-1.213a6.305 6.305 0 0 0 .869-3.217Zm-6.295 2.756a2.784 2.784 0 0 1-1.969-4.749 2.788 2.788 0 0 1 3.034-.604 2.783 2.783 0 0 1-1.065 5.353Zm245.98 90.771c0-.972-.22-1.93-.65-2.801a6.354 6.354 0 0 0-1.83-2.222 6.322 6.322 0 0 0-8.03.283 6.333 6.333 0 0 0-1.67 2.344 6.406 6.406 0 0 0-.45 2.839c.07.969.36 1.908.85 2.746.24.408.55.7.89 1.125l3.67 4.856c.11.133.24.24.4.314a1.128 1.128 0 0 0 1.37-.314l3.61-4.776c.32-.389.62-.795.89-1.214.6-.956.92-2.055.95-3.18Zm-6.32 2.746c-.55.002-1.09-.16-1.55-.464a2.768 2.768 0 0 1-1.19-2.855c.1-.54.37-1.037.76-1.427a2.773 2.773 0 0 1 3.03-.607c.51.21.95.567 1.25 1.025.31.457.47.995.47 1.546a2.773 2.773 0 0 1-.81 1.967 2.77 2.77 0 0 1-1.96.815Zm-82.52-65.298a6.204 6.204 0 0 0-.64-2.806 6.361 6.361 0 0 0-1.83-2.227 6.317 6.317 0 0 0-5.5-1.086c-.94.255-1.81.723-2.54 1.368a6.206 6.206 0 0 0-1.66 2.349 6.289 6.289 0 0 0-.45 2.844c.07.97.36 1.91.86 2.747.24.408.54.7.88 1.135l3.68 4.855c.1.139.24.253.4.33.15.078.33.119.5.119a1.15 1.15 0 0 0 .91-.449l3.61-4.776c.32-.389.61-.794.89-1.214.58-.964.89-2.065.89-3.189Zm-6.31 2.746a2.788 2.788 0 0 1-2.58-1.711 2.767 2.767 0 0 1-.16-1.608c.11-.54.37-1.037.76-1.427a2.801 2.801 0 0 1 3.04-.607c.5.211.94.567 1.25 1.025.3.458.47.996.47 1.546 0 .737-.3 1.443-.82 1.965-.52.521-1.22.815-1.96.817Zm-254.233 81.335a7.795 7.795 0 0 0-3.047-6.235 7.81 7.81 0 0 0-6.812-1.347 7.805 7.805 0 0 0-4.665 11.525c.328.481.68.946 1.055 1.391l4.531 6.007a1.398 1.398 0 0 0 1.126.567 1.399 1.399 0 0 0 1.126-.567l4.434-5.901c.407-.48.786-.982 1.135-1.506a7.764 7.764 0 0 0 1.117-3.934Zm-7.82 3.403a3.442 3.442 0 0 1-3.375-4.109 3.44 3.44 0 0 1 6.815.671 3.438 3.438 0 0 1-3.44 3.438Z" fill="#15803D"/><path d="M961.467 269.603a27.979 27.979 0 0 0-14.036 2.924c-4.637 2.162-9.018 5.361-11.323 9.923-2.305 4.563-2.048 10.632 1.587 14.247-6.987 1.852-12.245 8.063-14.444 14.938-2.199 6.876-1.729 14.353-.337 21.441.665 3.35 1.845 7.088 4.939 8.524 1.986.886 4.434.709 6.296 1.852 1.862 1.142 2.713 3.233 3.892 5.014a15.07 15.07 0 0 0 15.999 6.365 15.058 15.058 0 0 0 5.511-2.537l14.329-76.09c-2.811-3.934-7.599-6.193-12.413-6.601Z" fill="#455A64"/><path d="M971.096 277.799a9.902 9.902 0 0 1-.984 1.187c-.665.744-1.632 1.772-2.855 3.101a61.01 61.01 0 0 1-10.498 9.117 30.37 30.37 0 0 1-12.946 4.979c-1.403.175-2.82.205-4.229.089-.497 0-.887-.106-1.144-.142a1.307 1.307 0 0 1-.39-.088s.558 0 1.543.053a23.716 23.716 0 0 0 4.176-.231 31.48 31.48 0 0 0 12.732-5.041 68.085 68.085 0 0 0 10.525-8.913l2.953-3.004a9.731 9.731 0 0 1 1.117-1.107Z" fill="#263238"/><path d="M943.166 300.596c-.053 0-.284-.355-.479-1.028a6.911 6.911 0 0 1-.133-2.747 6.776 6.776 0 0 1 .975-2.569c.391-.594.728-.886.772-.886a13.322 13.322 0 0 0-1.286 3.482 13.122 13.122 0 0 0 .151 3.748Zm4.823 2.826c.082.13.147.27.195.416.116.275.293.683.479 1.232a38.508 38.508 0 0 1 1.357 4.66 34.623 34.623 0 0 1 0 15.948 26.66 26.66 0 0 1-8.255 13.547 21.136 21.136 0 0 1-4.017 2.747c-.496.283-.886.434-1.188.567-.139.066-.285.12-.434.159a16.125 16.125 0 0 1 1.543-.886 23.67 23.67 0 0 0 3.883-2.826 27.231 27.231 0 0 0 8.024-13.423 35.557 35.557 0 0 0 .151-15.744c-.408-2.002-.886-3.544-1.197-4.678a13.984 13.984 0 0 1-.541-1.719Z" fill="#263238"/><path d="M950.454 315.41a5.121 5.121 0 0 1-1.081-.24c-.692-.186-1.694-.434-2.935-.726a70.535 70.535 0 0 0-19.729-1.772 81.898 81.898 0 0 0-3.005.195 4.783 4.783 0 0 1-1.109 0c.354-.115.72-.19 1.091-.222.7-.115 1.729-.23 3.006-.336a59.28 59.28 0 0 1 19.826 1.772c1.241.327 2.225.629 2.899.886.363.103.712.251 1.037.443Z" fill="#263238"/><path d="M938.671 296.086c4.823 3.101 11.331 2.747 16.438.133 5.107-2.614 8.867-7.46 10.844-12.838-6.676 7.708-16.589 13.299-27.282 12.705Zm-2.581 46.595a13.655 13.655 0 0 0 10.144-5.671 24.575 24.575 0 0 0 3.706-11.004 52.088 52.088 0 0 1-4.859 9.56 23.706 23.706 0 0 1-3.821 3.837 25.325 25.325 0 0 1-5.179 3.278" fill="#111827" opacity=".3"/><path d="M941.073 313.124a7.95 7.95 0 0 1 .63 2.303c.151.727.319 1.569.576 2.508a2.897 2.897 0 0 1 0 1.63 1.489 1.489 0 0 1-1.427 1.09 1.654 1.654 0 0 1-.857-.388 1.653 1.653 0 0 1-.509-.791 2.957 2.957 0 0 1 0-1.621c.257-.966.532-1.772.754-2.49.198-.77.468-1.521.807-2.241a12.223 12.223 0 0 1-.497 2.339c-.195.753-.417 1.586-.647 2.481a2.647 2.647 0 0 0 0 1.391 1.24 1.24 0 0 0 .966.886 1.04 1.04 0 0 0 .976-.78c.12-.453.12-.929 0-1.382a22.45 22.45 0 0 1-.488-2.543c-.142-1.489-.284-2.375-.284-2.392Zm20.988-28.476a26.554 26.554 0 0 1-2.838-1.648 65.069 65.069 0 0 0-6.942-3.757 31.548 31.548 0 0 0-7.475-2.392c-1.986-.363-3.245-.372-3.245-.452a3.34 3.34 0 0 1 .887-.053c.804.004 1.607.063 2.403.177a27.98 27.98 0 0 1 7.625 2.295 49.411 49.411 0 0 1 6.925 3.907 54.551 54.551 0 0 1 1.977 1.365c.25.156.479.344.683.558Zm-1.33-.594c.053 0 .097.301-.151.682a1.544 1.544 0 0 1-1.569.656l-.293-.053.133-.275a2.185 2.185 0 0 1 1.25-1.09c.408-.133.674-.079.683 0 .009.08-.231.142-.55.328-.413.228-.75.573-.966.993l-.151-.328a1.39 1.39 0 0 0 1.224-.408c.239-.275.319-.514.39-.505Z" fill="#263238"/><path d="M1035.63 282.353s-3.55-4.66-3.55-6.548l1.47-10.968s.64-1.108 1.63.726c.89 1.684.39 4.289.39 4.289l.62 2.578 1.34-1.949 1.51-7.328s.96-5.316 1.77-4.74c.82.576 1.07 2.091.65 4.377-.41 2.286-.95 5.183-.95 5.183s-.1.886.75-.611c.85-1.497 1.77-7.912 2.12-8.772.34-.859.45-3.145 1.77-3.021 1.32.124.55 3.039.55 3.039l-1.26 9.445s1.22-3.801 1.46-4.43c.23-.629.59-2.72 1.03-3.854.45-1.134 1.1-1.719 1.68-1.648.27.016.53.137.72.338.19.201.3.467.3.743l-1.93 8.08s-1.08 3.677-1.01 3.916c.07.239 1.43-1.533 1.43-1.533l1.05-2.658s.88-3.712 1.86-3.818c.97-.107 1.03.647 1.03.647l-1.64 6.786-3.01 7.744-2.84 5.821s-3.98-.62-4.13-.416c-.15.203-4.81-1.418-4.81-1.418Z" fill="#FFBE9D"/><path d="M1042.67 279.084c-.32-.545-.59-1.114-.82-1.701a5.892 5.892 0 0 0-2.94-3.137 3.187 3.187 0 0 0-2.09-.159l-.23.062-.05-.248c-.26-1.126-.61-2.162-.77-2.871a2.792 2.792 0 0 1-.19-1.178c.19.347.34.712.45 1.089.36.949.68 1.916.95 2.898l-.29-.187a3.577 3.577 0 0 1 2.4.142c.81.342 1.53.896 2.06 1.604.42.569.76 1.188 1.01 1.843.28.58.45 1.204.51 1.843Z" fill="#EB996E"/><path d="m1004.91 277.046 19.64 29.335 8.87-25.57 12.08 2.968s-4.93 34.377-6.81 37.788c-1.88 3.411-7.78 8.338-15.08 7.345-7.29-.992-21.83-20.546-21.83-20.546l3.13-31.32Z" fill="#111827"/><path d="M1026.97 318.156c.44-4.288-.49-8.607-2.66-12.333.47.443.84.965 1.12 1.542a14.857 14.857 0 0 1 1.65 4.315c.33 1.511.44 3.065.3 4.607a5.239 5.239 0 0 1-.41 1.869Z" fill="#263238"/><path d="M1006.39 314.603c.65-.339 1.2-.827 1.61-1.421.42-.595.69-1.28.79-1.999.19-1.436.14-2.893-.13-4.314-.79-5.786-1.9-11.811-2.66-17.596l.31 24.728m20.87 2.729c.39-.072.75-.239 1.06-.486.31-.248.56-.568.71-.932a4.46 4.46 0 0 0 .31-2.339 8.927 8.927 0 0 0-1.5-4.169 8.919 8.919 0 0 0-3.34-2.919 19.775 19.775 0 0 1 2.73 10.827" fill="#111827" opacity=".3"/><path d="m1027.49 468.174 11.22 25.534 32.1-13.502c-1.48-2.977-21.96-1.462-21.96-1.462l-7.1-17.339-14.26 6.769Z" fill="#111827"/><path d="M1039.62 480.861a1.424 1.424 0 0 0-.28 1.879c.22.275.53.458.88.51.34.053.7-.028.98-.227.29-.238.47-.573.52-.94.05-.366-.03-.738-.24-1.045a1.422 1.422 0 0 0-1.96-.088m-.81 12.758-1.01-2.658 31.15-11.961s1.69 0 1.96 1.09l-32.1 13.529Z" fill="#fff" opacity=".6"/><path d="M1049.45 478.823c.06.16-.69.568-1.25 1.392-.56.823-.69 1.656-.89 1.656-.19 0-.32-1.001.39-1.993.7-.992 1.72-1.205 1.75-1.055Zm4.82-.31c.1.133-.47.683-.72 1.569-.26.886-.11 1.656-.27 1.71-.16.053-.64-.78-.3-1.879.34-1.098 1.22-1.55 1.29-1.4Zm3.47 3.093c-.12.088-.67-.603-.63-1.622.05-1.019.63-1.674.75-1.577.11.098-.14.753-.16 1.595-.03.842.19 1.524.04 1.604Zm-10.35-6.964c0 .168-.81.257-1.67.691-.86.434-1.44 1.001-1.58.886-.14-.116.29-.94 1.31-1.436s1.96-.292 1.94-.141Z" fill="#263238"/><path d="m915.005 493.221-1.374-13.636 11.385-14.326-13.956-8.966-.373.549-7.093 10.703-9.212 7.265 14.63 24.019 14.248-.957s-1.277-3.322-8.255-4.651Z" fill="#111827"/><path d="m894.364 474.81 14.63 24.019 14.249-.957-1.747-2.028-11.633.141-13.54-22.717-1.959 1.542Z" fill="#fff" opacity=".6"/><path d="M914.473 486.966c-.088.15-.948-.257-2.048-.151-1.099.107-1.88.612-1.995.479-.115-.133.603-1.002 1.951-1.108 1.348-.106 2.234.665 2.092.78Zm-.434-3.376c-.142.115-.834-.682-1.977-.824-1.144-.142-2.031.434-2.128.293-.098-.142.097-.311.478-.559a2.668 2.668 0 0 1 3.308.435c.301.336.381.611.319.655Zm-.204-4.359c-.151.097-.692-.7-1.702-.975-1.011-.274-1.889.107-1.969-.044-.08-.15.124-.283.506-.452a2.478 2.478 0 0 1 2.97.824c.239.346.266.612.195.647Zm3.591-3.624c-.168.071-.621-.717-1.543-1.222-.922-.505-1.773-.541-1.835-.718-.062-.177 1.028-.478 2.146.168 1.117.647 1.4 1.737 1.232 1.772Zm1.658-3.048c-.071.054-.576-.487-1.339-1.408-.434-.532-.886-1.072-1.321-1.631a4.234 4.234 0 0 1-.736-1.098 1.11 1.11 0 0 1 0-.886.884.884 0 0 1 .825-.514c.509.063.99.272 1.383.602a4.787 4.787 0 0 1 1.818 2.933c.19.656.12 1.361-.195 1.967a17.268 17.268 0 0 0-.24-1.869 4.865 4.865 0 0 0-.887-1.772 4.419 4.419 0 0 0-.833-.789 2.348 2.348 0 0 0-1.02-.47.284.284 0 0 0-.156.035.28.28 0 0 0-.11.116.62.62 0 0 0 0 .399c.167.343.375.665.621.957.408.584.816 1.151 1.215 1.71a5.91 5.91 0 0 1 .975 1.718Zm.541.39c-.071 0-.062-.753.647-1.657a3.553 3.553 0 0 1 4.176-1.045.618.618 0 0 1 .258.487.9.9 0 0 1-.142.47 2.437 2.437 0 0 1-.479.478 6.332 6.332 0 0 1-2.811 1.294c-.577.18-1.196.18-1.773 0 0-.106.674-.098 1.676-.39a6.9 6.9 0 0 0 2.509-1.329c.133-.099.252-.215.355-.345.053-.133 0-.098 0-.133a1.229 1.229 0 0 0-.426-.124 3.515 3.515 0 0 0-.532-.045 3.146 3.146 0 0 0-1.011.142 3.425 3.425 0 0 0-1.481.886c-.7.673-.869 1.347-.966 1.311Z" fill="#263238"/><path d="M905.704 473.623a1.691 1.691 0 0 1-2.815 1.377 1.688 1.688 0 0 1 1.042-2.954 1.692 1.692 0 0 1 1.773 1.577Z" fill="#fff" opacity=".6"/><path d="M981.027 231.204a29.44 29.44 0 0 1 3.121-8.355 12.234 12.234 0 0 1 6.756-5.573 16.353 16.353 0 0 1 9.044.222 14.846 14.846 0 0 1 5.542 3.393c2.66 2.295 4.02 5.874 5.13 9.197" fill="#111827"/><path d="M1012.5 230.318a12.736 12.736 0 0 0-4.84-8.107 16.839 16.839 0 0 0-8.953-3.03c-4.974-.381-10.791.975-14.187 4.607-3.396 3.633-5.4 8.577-4.974 13.007.186 1.993 2.119 7.389 3.653 8.692l28.501-.736c1.7-2.711 1.32-11.252.8-14.433Z" fill="#111827"/><path d="M1012.01 236.281a15.71 15.71 0 0 0-5-10.314 15.73 15.73 0 0 0-10.671-4.19h-.815c-8.796.496-13.3 8.231-12.547 17.003l1.543 40.525h20.15l-.17-13.192s8.46-1.294 8.57-9.746c.05-4.076-.51-12.484-1.06-20.086Z" fill="#FFBE9D"/><path d="M1004.56 266.104a20.531 20.531 0 0 1-11.067-3.261s2.589 6.078 11.017 5.316l.05-2.055Z" fill="#EB996E"/><path d="M1008.67 242.926a1.21 1.21 0 0 1-1.17 1.214 1.17 1.17 0 0 1-.85-.283 1.306 1.306 0 0 1-.28-.364c-.06-.139-.1-.289-.11-.443 0-.314.12-.617.34-.843.22-.226.52-.359.83-.371a1.126 1.126 0 0 1 .85.283c.12.102.21.226.28.364.07.139.1.289.11.443Zm1.47-2.516c-.15.159-1.07-.523-2.36-.523-1.3 0-2.25.647-2.4.487-.14-.159.08-.345.5-.646a3.33 3.33 0 0 1 1.92-.594 3.18 3.18 0 0 1 1.87.611c.4.31.56.594.47.665Zm-13.96 3.127a1.208 1.208 0 0 1-1.162 1.214 1.162 1.162 0 0 1-1.241-1.09 1.205 1.205 0 0 1 1.161-1.222 1.152 1.152 0 0 1 .852.289 1.163 1.163 0 0 1 .39.809Zm1.17-2.48c-.142.159-1.064-.523-2.358-.514-1.295.009-2.253.646-2.394.487-.142-.16.088-.354.505-.656a3.25 3.25 0 0 1 1.915-.584 3.178 3.178 0 0 1 1.88.602c.39.31.532.594.452.665Zm4.72 9.205a8.674 8.674 0 0 1 2.11-.381c.33 0 .64-.097.7-.319.03-.343-.05-.686-.22-.983l-.98-2.525c-1.36-3.598-2.33-6.557-2.19-6.61.14-.053 1.37 2.817 2.71 6.415.33.886.64 1.772.94 2.542.21.402.27.862.17 1.303a.788.788 0 0 1-.22.304.73.73 0 0 1-.33.174c-.18.054-.37.08-.56.08-.71.09-1.42.09-2.13 0Zm-3.833.886c.213 0 .213 1.4 1.418 2.401 1.205 1.001 2.705.886 2.715 1.046.01.159-.33.274-.97.292a3.554 3.554 0 0 1-2.268-.797 3.02 3.02 0 0 1-1.09-2.012c-.054-.584.097-.939.195-.93Zm-.213-13.033c-.124.354-1.428.204-2.944.408-1.516.203-2.748.62-2.961.31-.089-.151.124-.488.612-.833a5.176 5.176 0 0 1 4.495-.541c.594.213.851.488.798.656Zm12.436-1.453c-.25.319-1.38.124-2.66.239-1.29.115-2.4.443-2.66.169-.13-.142 0-.452.47-.78a4.37 4.37 0 0 1 2.13-.7 4.25 4.25 0 0 1 2.2.372c.44.257.62.541.52.7Z" fill="#263238"/><path d="M984.192 245.035c-.142-.062-5.799-1.728-5.63 4.049.168 5.776 5.94 4.43 5.949 4.244.009-.186-.319-8.293-.319-8.293Z" fill="#FFBE9D"/><path d="M983.19 251.192s-.106.071-.275.16a.99.99 0 0 1-.745 0 2.497 2.497 0 0 1-1.223-2.197 3.356 3.356 0 0 1 .239-1.453 1.15 1.15 0 0 1 .736-.789.514.514 0 0 1 .603.257c.08.159.044.275.08.283.035.009.115-.097.062-.336a.645.645 0 0 0-.231-.355.767.767 0 0 0-.567-.133 1.414 1.414 0 0 0-1.02.931 3.302 3.302 0 0 0-.301 1.612 2.602 2.602 0 0 0 1.543 2.455 1.05 1.05 0 0 0 .886-.178c.204-.115.231-.248.213-.257Z" fill="#EB996E"/><path d="m987.987 227.864 2.855-2.463 9.079 1.391 6.389-1.639 1.67 1.834c-.72.966.81-3.154-.65-4.253-3.13-2.374-5.77-2.286-9.749-2.357-3.981-.071-11.926 4.714-14.772 7.425-2.279 2.171-2.261 4.04-2.261 4.04-.364 3.128 1.383 6.672 2.075 9.746.363 1.577 1.055 6.362 1.055 6.362 1.33 0 1.773-1.055 1.622-2.366l-.248-5.148a7.77 7.77 0 0 0 2.376-9.081c-.301-.461-1.037-2.605.559-3.491Z" fill="#263238"/><path d="M986.808 229.246a4.128 4.128 0 0 1 4.034-2.658 7.096 7.096 0 0 1 4.593 2.1c.311.334.659.631 1.037.886.19.117.407.185.63.198a1.35 1.35 0 0 0 .647-.127c.124-.062.248-.16.381-.124a.414.414 0 0 1 .213.195c.329.531.79.968 1.339 1.267a1.48 1.48 0 0 0 1.708-.257 2.233 2.233 0 0 0 2.4.394c.39-.174.73-.459.96-.82.24-.361.36-.783.36-1.213.39.08.79.048 1.17-.093.37-.141.69-.386.93-.705.42-.475.73-1.038.91-1.648.17-.61.21-1.251.11-1.877a4.266 4.266 0 0 0-.7-1.745 4.268 4.268 0 0 0-1.38-1.277 7.804 7.804 0 0 0-2.8-.807 35.953 35.953 0 0 0-4.572-.345 5.803 5.803 0 0 0-1.995.239c-.887.319-1.614 1.037-2.536 1.152a4.435 4.435 0 0 1-1.774-.284 6.957 6.957 0 0 0-2.544-.372c-1.694.151-3.095 1.365-4.212 2.658a7.012 7.012 0 0 0-1.773 3.066 3.016 3.016 0 0 0 1.126 3.172 1.509 1.509 0 0 0 1.348.177.9.9 0 0 0 .48-.481.88.88 0 0 0-.002-.68" fill="#263238"/><path d="M982.809 242.465c-.621-4.43.124-9.746 3.343-13.529 3.218-3.783 8.911-6.096 12.679-5.378 2.939.558 9.319.789 11.649 6.929l-.33-5.068s-2.83-5.759-11.213-5.582c-8.379.177-12.032 1.152-16.084 6.078a11.366 11.366 0 0 0-2.314 11.252 29.997 29.997 0 0 0 2.27 5.298Z" fill="#111827"/><path d="M1005.89 221.086c-.11-.024-.21-.06-.31-.106-.2-.071-.48-.195-.89-.319a20.632 20.632 0 0 0-3.28-.886 23.446 23.446 0 0 0-5-.293 20.403 20.403 0 0 0-5.994 1.197 19.387 19.387 0 0 0-5.32 3.056 14.22 14.22 0 0 0-1.906 1.879c-.284.31-.514.637-.754.948-.239.31-.443.62-.62.93a17.792 17.792 0 0 0-1.49 3.039c-.151.363-.239.664-.31.886a1.364 1.364 0 0 1-.124.301l.079-.31c.071-.204.142-.505.284-.886.37-1.075.852-2.108 1.437-3.083.177-.31.399-.62.611-.948.213-.328.47-.656.754-.975a15.12 15.12 0 0 1 1.924-1.905 19.167 19.167 0 0 1 5.32-3.101 20.018 20.018 0 0 1 6.056-1.187 21.872 21.872 0 0 1 5.033.337c1.12.199 2.22.496 3.28.886.39.141.66.283.89.363l.33.177Z" fill="#263238"/><path d="M983.367 235.049a.873.873 0 0 1-.257-.115 4.872 4.872 0 0 1-.629-.46 5.147 5.147 0 0 1-1.72-4.643c.039-.256.102-.508.186-.753.062-.177.106-.266.115-.257.009.009-.097.39-.16 1.028a5.673 5.673 0 0 0 .311 2.454 5.562 5.562 0 0 0 1.365 2.064c.461.443.807.656.789.682Zm2.448-5.067a2.122 2.122 0 0 1-.727-.523 4.686 4.686 0 0 1-1.162-1.843 4.218 4.218 0 0 1-.168-2.171c.032-.313.132-.615.292-.886 0 0-.08.337-.159.886a4.745 4.745 0 0 0 .221 2.082c.234.657.599 1.26 1.073 1.772.364.461.647.656.63.683Zm3.963-3.695a2.095 2.095 0 0 1-.612-.425 5.061 5.061 0 0 1-1.117-1.427 4.413 4.413 0 0 1-.47-1.772 1.784 1.784 0 0 1 .062-.744c.045.83.243 1.644.585 2.401a9.084 9.084 0 0 0 1.552 1.967Zm3.821-6.539c.157.161.28.35.364.558.248.473.441.973.576 1.489a7.59 7.59 0 0 1 .231 1.586c.02.223.002.447-.053.664-.062 0-.062-1.01-.373-2.197-.31-1.187-.798-2.073-.745-2.1Zm7.361-.142c.14.176.24.378.29.594a4.268 4.268 0 0 1-.18 3.137c-.07.211-.2.401-.36.558.29-.673.48-1.388.55-2.118a7.257 7.257 0 0 0-.3-2.171Zm4.72 1.329c.17.175.3.379.39.603.25.535.39 1.113.4 1.701.02.586-.08 1.168-.31 1.71-.07.232-.19.446-.35.629.29-.746.45-1.538.46-2.339a6.587 6.587 0 0 0-.59-2.304Zm4.55 3.979c.08.178.11.373.1.567.03.947-.28 1.874-.89 2.604-.24.275-.42.399-.43.381.38-.514.7-1.073.95-1.665.17-.615.26-1.249.27-1.887Zm2.3 4.952c0 .493-.16.972-.46 1.365-.24.428-.62.762-1.07.948.31-.336.61-.691.88-1.063.45-.594.59-1.259.65-1.25Zm.31 5.573c.04 0 0 .346-.31.612-.31.265-.64.292-.64.239 0-.053.26-.16.51-.39s.38-.478.44-.461Zm-30.093 4.599a4.315 4.315 0 0 1-3.166-2.162 7.607 7.607 0 0 0 3.166 2.162Zm.487 2.791c0 .044-.283.336-.798.363-.514.026-.886-.222-.833-.266.053-.044.372.097.825.062.452-.035.78-.204.806-.159Z" fill="#263238"/><path d="M1005.2 220.891a16.201 16.201 0 0 0-12.416-2.259 16.623 16.623 0 0 0-10.241 7.717s5.222-6.601 12.706-6.831c7.481-.23 9.951 1.373 9.951 1.373Z" fill="#111827" opacity=".3"/><path d="M999.416 243.139a8.648 8.648 0 0 0-.168-1.037 4.286 4.286 0 0 0-3.343-3.101 4.268 4.268 0 0 0-2.217.186 4.211 4.211 0 0 0-1.95 1.471 4.192 4.192 0 0 0 0 4.97 4.211 4.211 0 0 0 1.95 1.471 4.247 4.247 0 0 0 3.999-.594 4.308 4.308 0 0 0 1.569-2.321c.079-.344.136-.694.169-1.045.025.357-.008.716-.098 1.063a4.27 4.27 0 0 1-1.551 2.419 4.459 4.459 0 0 1-1.845.824c-.77.151-1.567.09-2.305-.178a4.105 4.105 0 0 1-1.117-.593 4.21 4.21 0 0 1-.931-.886 4.367 4.367 0 0 1 0-5.201 4.19 4.19 0 0 1 .931-.93 4.08 4.08 0 0 1 1.117-.594 4.343 4.343 0 0 1 4.15.647 4.268 4.268 0 0 1 1.551 2.419c.082.33.112.67.089 1.01Zm12.874-.505s0-.381-.18-1.037a4.286 4.286 0 0 0-1.57-2.321 4.139 4.139 0 0 0-1.77-.78 4.282 4.282 0 0 0-2.22.186 4.252 4.252 0 0 0-2.31 2.065 4.28 4.28 0 0 0-.45 1.891c0 .657.16 1.304.45 1.891a4.235 4.235 0 0 0 2.31 2.065c.67.241 1.38.313 2.08.209.7-.103 1.36-.379 1.92-.803a4.293 4.293 0 0 0 1.57-2.321c.17-.656.14-1.045.18-1.045.02.357-.01.715-.1 1.063-.23.96-.78 1.813-1.56 2.419-.54.412-1.17.694-1.84.824-.77.151-1.57.09-2.31-.178a4.43 4.43 0 0 1-1.12-.593c-.46-.34-.86-.769-1.15-1.262-.3-.493-.5-1.04-.59-1.61-.09-.57-.06-1.151.08-1.711a4.39 4.39 0 0 1 2.78-3.072 4.323 4.323 0 0 1 2.16-.212c.73.113 1.41.408 1.99.858a4.345 4.345 0 0 1 1.56 2.419c.08.346.11.701.09 1.055Z" fill="#455A64"/><path d="M1003.82 240.995s-.25-.169-.67-.373a3.563 3.563 0 0 0-3.548.204c-.408.257-.612.479-.629.452a1.62 1.62 0 0 1 .549-.567 3.319 3.319 0 0 1 1.778-.656c.65-.034 1.29.119 1.86.443.26.111.48.281.66.497Zm-12.721 1.346c0 .053-1.711.638-3.866 1.312-2.154.673-3.91 1.16-3.919 1.116-.009-.044 1.711-.638 3.857-1.311 2.146-.674 3.91-1.17 3.928-1.117Z" fill="#455A64"/><path d="M994.956 246.709a1.858 1.858 0 0 1-.754-.097 3.976 3.976 0 0 1-1.587-.886 4.05 4.05 0 0 1-1.028-1.524 1.764 1.764 0 0 1-.151-.744c.107.225.202.455.284.691a4.54 4.54 0 0 0 2.553 2.321c.232.068.46.147.683.239Zm10.554-1.409s-.28-.053-.58-.381a3.077 3.077 0 0 1-.7-1.515 4.287 4.287 0 0 1 0-1.674c.03-.231.13-.448.28-.629 0 0-.08.248-.15.664a5.39 5.39 0 0 0 0 1.604c.09.527.3 1.027.62 1.462.16.17.34.327.53.469Z" fill="#fff"/><path d="M983.314 253.558c.041.348-.051.699-.257.983a1.344 1.344 0 0 1-.94.638 1.325 1.325 0 0 1-1.259-.549 1.768 1.768 0 0 1-.301-1.347c.09-.38.321-.713.647-.93a1.238 1.238 0 0 1 .984-.239c-.317.053-.62.174-.887.354a1.48 1.48 0 0 0-.549.886c-.062.42.04.848.283 1.196a1.17 1.17 0 0 0 1.082.479 1.198 1.198 0 0 0 .834-.532c.18-.287.303-.606.363-.939ZM971.371 383.8c1.073 0 45.369 46.072 45.369 49.27 0 3.199 6.58 35.653 9.75 40.65 3.18 4.997 5.09 3.828 5.09 3.828l14.72-6.858s-8.15-50.502-9.95-56.181c-1.79-5.68-35.57-50.343-35.57-50.343l-31.919 6.069 2.51 13.565Z" fill="#263238"/><path d="m955.012 360.764-9.204 56.793s-28.79 28.803-30.581 32.011c0 0-3.21-1.072-4.283 1.772a59.967 59.967 0 0 0-1.995 8.178l14.294 11.996s37.763-31.285 41.336-35.927c3.573-4.643 18.54-35.254 21.404-43.104 2.864-7.85 6.207-25.26 6.207-25.26l-37.178-6.459Z" fill="#263238"/><path d="M1024.16 422.784a6.24 6.24 0 0 1-.64 1.772 24.261 24.261 0 0 1-2.27 3.952 21.192 21.192 0 0 1-2.97 3.464c-.44.462-.96.841-1.54 1.116.41-.476.84-.926 1.3-1.347a30.36 30.36 0 0 0 2.83-3.544c2.04-2.835 3.16-5.493 3.29-5.413Zm-73.191-1.294a4.953 4.953 0 0 1-3.033-1.311 5.042 5.042 0 0 1-1.915-2.658 26.271 26.271 0 0 0 2.208 2.33c.878.603 1.793 1.15 2.74 1.639Zm-29.713 35.494a10.144 10.144 0 0 1-5.435-7.558 25.863 25.863 0 0 0 2.181 4.164 24.458 24.458 0 0 0 3.254 3.394Zm45.637-87.821a2.187 2.187 0 0 1-.186.638 12.708 12.708 0 0 1-.745 1.648 18.405 18.405 0 0 1-8.609 8.045c-.549.253-1.115.466-1.694.638a1.847 1.847 0 0 1-.647.142c0-.08.886-.39 2.199-1.072a21.447 21.447 0 0 0 4.788-3.358 21.66 21.66 0 0 0 3.679-4.554c.772-1.294 1.109-2.162 1.215-2.127Zm22.575 14.513c-.13.496-.296.981-.497 1.453-.39.992-.887 2.304-1.516 3.898-1.312 3.27-3.157 7.788-5.364 12.706-2.208 4.917-4.363 9.303-5.941 12.457l-1.898 3.721a9.929 9.929 0 0 1-.753 1.338c.163-.487.361-.96.594-1.418l1.773-3.783c1.507-3.198 3.609-7.593 5.808-12.501 2.199-4.909 4.096-9.401 5.479-12.653a338.864 338.864 0 0 0 1.658-3.836c.184-.477.403-.939.657-1.382Z" fill="#455A64"/><path d="M981.7 268.531s-9.753 3.925-12.014 10.774c-1.153 3.464-7.873 28.795-7.873 28.795s-8.867 48.642-7.644 53.275l50.741 7.788a7.824 7.824 0 0 0 1.78-5.431l-.83-14.575.6-62.471c0-.466-.03-.931-.1-1.391l-1.77-11.518.56-4.971-22.74-6.007-.71 5.732Z" fill="#111827"/><path d="M980.335 264.615a2.796 2.796 0 0 1 1.241-1.914 2.823 2.823 0 0 1 2.252-.363l20.792 5.485a2.804 2.804 0 0 1 2.09 2.87l-.05.886c-.03.425-.15.839-.36 1.21-.2.371-.49.689-.85.932a2.815 2.815 0 0 1-2.43.374l-20.734-6.361a2.8 2.8 0 0 1-1.951-3.119Z" fill="#111827"/><path d="M1004.91 273.847c-.36-.031-.73-.1-1.08-.203l-2.88-.727a656.954 656.954 0 0 1-9.478-2.569l-4.948-1.4a12.95 12.95 0 0 1-1.835-.425 4.562 4.562 0 0 1-.825-.355 1.41 1.41 0 0 1-.381-.283 2.376 2.376 0 0 1-.249-.381 2.769 2.769 0 0 1-.195-1.551 4.97 4.97 0 0 1 .346-1.267 5.539 5.539 0 0 1 .958-1.559c.292-.31.487-.434.496-.417a7.282 7.282 0 0 0-1.214 2.074 3.535 3.535 0 0 0-.071 2.56c.195.443.709.612 1.259.798.58.172 1.173.299 1.773.381l4.956 1.364c3.689 1.028 7.032 1.985 9.448 2.658l2.84.886c.37.104.74.243 1.08.416Zm.21 3.544c.05.15.08.304.09.461.04.355.09.789.16 1.32.12 1.152.28 2.818.43 4.882.33 4.129.66 9.835.84 16.143.19 6.308.17 12.032 0 16.17a124.69 124.69 0 0 1-.23 4.89c-.04.541-.09.975-.11 1.329 0 .157-.03.312-.07.461a1.779 1.779 0 0 1 0-.461v-1.338c0-1.151.07-2.826.08-4.89.07-4.129 0-9.844-.16-16.152-.15-6.308-.46-12.005-.7-16.125-.12-2.02-.22-3.668-.3-4.891 0-.532-.04-.975-.06-1.329-.01-.157 0-.315.03-.47Z" fill="#263238"/><path d="M990.363 264.376a16.889 16.889 0 0 0-.824 2.569 18.14 18.14 0 0 0 0 2.658 3.534 3.534 0 0 1-.461-2.764 3.602 3.602 0 0 1 1.285-2.463Zm5.905 1.356c.045 0 .257.248.435.762a4.293 4.293 0 0 1-.798 4.031c-.355.407-.656.576-.692.531a8.823 8.823 0 0 0 1.153-2.533 9.299 9.299 0 0 0-.098-2.791Zm5.752 1.594c.05 0 .29.213.5.709.28.66.36 1.384.25 2.091a3.888 3.888 0 0 1-.9 1.905c-.36.408-.66.558-.7.514a5.06 5.06 0 0 0 1.16-2.487c.16-.919.07-1.863-.27-2.732h-.04Z" fill="#263238"/><path d="M999.026 281.387c-1.915-5.652-6.561-10.587-12.413-11.748-5.852-1.161-11.35.08-15.526 4.944l-5.32 11.296c2.359-1.311 6.136-8.975 10.534-11.58 4.397-2.605 9.292-2.658 12.909.966 2.66 2.658 4.655 6.521 4.593 10.313-.124 7.425-3.218 14.389-5.47 21.477-2.891 9.09-5.178 18.783-11.855 25.614-5.364 5.484-12.546 8.754-19.507 11.899-1.649 1.355-5.462 6.282-3.493 7.088 1.968.806 9.124-1.772 11.154-2.401 5.063-1.542 10.321-3.199 14.187-6.831 3.546-3.376 5.515-8.081 7.359-12.635 3.547-8.789 5.87-17.95 9.425-26.748 3.015-7.487 6.007-13.999 3.423-21.654Z" fill="#455A64"/><path d="m990.931 375.985-4.044-6.822-13.53 4.714s.887 12.014 2.66 12.359a3.703 3.703 0 0 0 3.023-.815s1.011 3.137 3.033 3.27l1.126.053c.363.283 2.421 1.772 4.123 1.223 0 0 1.56 3.384 2.819 3.03 1.26-.355 2.075-4.43 2.075-4.43l-1.285-12.582Z" fill="#FFBE9D"/><path d="M978.712 272.669a14.172 14.172 0 0 0-5.982 4.036 14.168 14.168 0 0 0-3.221 6.454c-2.66 12.732-9.009 46.072-8.752 50.768.328 5.972 11.722 41.359 11.722 41.359l15.96-4.803-7.244-39.87s11.305-37.3 12.192-42.971c.975-6.193-4.434-18.517-14.675-14.973Z" fill="#111827"/><path d="M978.712 272.696a9.655 9.655 0 0 1 1.242-.399 8.87 8.87 0 0 1 3.777-.195 9.518 9.518 0 0 1 5.276 2.924 18.139 18.139 0 0 1 4.637 11.952 12.484 12.484 0 0 1-.328 2.596c-.178.886-.399 1.772-.612 2.658-.887 3.544-1.986 7.38-3.157 11.438-2.349 8.116-5.08 17.197-8.113 27.005v-.097l7.262 39.87v.204l-.195.062-7.483 2.241-8.512 2.561-.222.062-.062-.213a932.51 932.51 0 0 1-6.659-21.202c-1.02-3.429-2.013-6.795-2.908-10.118-.444-1.657-.887-3.296-1.268-4.935a47.798 47.798 0 0 1-.532-2.454 17.857 17.857 0 0 1-.275-2.472c.044-1.626.189-3.247.434-4.855.222-1.577.444-3.128.692-4.661.479-3.056 1.002-6.007 1.507-8.86 1.02-5.705 2.031-10.995 2.962-15.806l2.562-12.971a49.29 49.29 0 0 1 1.206-5.316 15.422 15.422 0 0 1 2.093-4.04 14.193 14.193 0 0 1 4.69-4.138 10.7 10.7 0 0 1 2.004-.886s-.168.089-.505.231c-.5.207-.986.447-1.454.717a14.272 14.272 0 0 0-4.593 4.156 15.55 15.55 0 0 0-2.04 4.004 52.886 52.886 0 0 0-1.161 5.263c-.736 3.819-1.57 8.169-2.501 12.98a956.8 956.8 0 0 0-2.899 15.815 524.987 524.987 0 0 0-1.481 8.86 170.15 170.15 0 0 0-.682 4.652 40.776 40.776 0 0 0-.417 4.784c.056.81.169 1.616.337 2.41.15.815.328 1.621.532 2.437.372 1.63.824 3.269 1.268 4.917.886 3.313 1.897 6.68 2.917 10.1a991.391 991.391 0 0 0 6.668 21.193l-.284-.15 8.512-2.552 7.483-2.25-.159.265c-2.572-14.176-5.01-27.669-7.227-39.87v-.106c3.042-9.808 5.799-18.872 8.175-26.979 1.18-4.049 2.279-7.858 3.192-11.411.5-1.681.824-3.409.967-5.157a18.113 18.113 0 0 0-4.504-11.819 9.454 9.454 0 0 0-5.161-2.924 8.978 8.978 0 0 0-3.742.133 8.63 8.63 0 0 0-.931.248 3.092 3.092 0 0 1-.328.098Z" fill="#263238"/><path d="M981.39 330.401a15.63 15.63 0 0 0-8.689-2.933 9.757 9.757 0 0 1 8.689 2.933Z" fill="#263238"/><path d="M968.622 364.122c-7.439-11.022-11.349-26.429-7.093-37.389-1.162 6.565-.053 12.563 1.906 18.934 1.96 6.37 4.3 12.722 4.682 19.376" fill="#111827" opacity=".3"/><path d="m945.728 521.103-22.024-23.222-18.053 1.019-12.786 5.05-8.113 17.153" fill="#fff"/><path d="m905.651 498.9 18.7 22.203h21.377l-22.024-23.222-18.053 1.019Z" fill="#E0E0E0"/><path d="M884.752 521.13c.03-.113.072-.223.124-.328l.399-.93c.391-.842.887-2.011 1.596-3.491l5.817-12.484v-.071h.08l12.768-5.085h.071l8.671-.496 9.39-.523h.106l.071.08 15.694 16.656 4.558 4.909c.505.549.887.992 1.206 1.329.151.143.285.304.399.478a5.039 5.039 0 0 1-.452-.425l-1.268-1.276-4.655-4.82c-3.973-4.146-9.488-9.923-15.81-16.541l.178.071-9.39.531-8.672.479h.071l-12.794 5.014.097-.097c-2.456 5.13-4.504 9.4-5.958 12.404l-1.694 3.446-.452.886c-.041.1-.091.195-.151.284Z" fill="#263238"/><path d="m785.268 521.103 8.406-14.583 15.33-4.271 14.338 12.183v6.671" fill="#fff"/><path d="m793.674 506.52 29.668 7.912-14.338-12.183-15.33 4.271Z" fill="#E0E0E0"/><path d="M823.342 521.13a1.879 1.879 0 0 1-.045-.461v-1.302c0-1.205 0-2.853-.062-4.909l.045.107-14.391-12.121.213.045-3.529.921-11.846 3.278.124-.097-6.171 10.517c-.745 1.24-1.339 2.232-1.773 2.959l-.479.779a2.078 2.078 0 0 1-.186.257c.029-.102.07-.2.124-.292l.425-.806 1.676-3.021 5.994-10.562v-.079h.089l11.863-3.349 3.494-.966h.115l.089.08 14.293 12.244.053.044v.071c0 2.056-.053 3.704-.071 4.909v1.302c.003.152-.011.304-.044.452Z" fill="#263238"/><path d="m1089.64 494.887-21.28-12.112-37.36 13.6-30.18 24.728 106.77-.549-17.95-25.667Z" fill="#fff"/><path d="m1000.82 521.103 38.28-22.203 50.54-4.013-22.13-13.087-36.51 14.575-30.18 24.728Zm55.01-.283 19.12-13.095 17.44-1.241-14.59 3.243-7.56 11.022-14.41.071Z" fill="#E0E0E0"/><path d="M1000.82 521.13s0-.053.13-.133l.41-.363 1.61-1.365 6.16-5.112 21.74-17.915 26.6-10.809 9.82-3.969.11-.045.09.063 22.17 13.29 12.96 18.676 3.6 5.228.88 1.391c.11.154.21.314.3.478 0 0-.12-.142-.34-.452l-.99-1.346c-.88-1.214-2.1-2.96-3.68-5.166l-13.09-18.606.06.053-22.17-13.245h.2l-9.82 3.978-26.65 10.765h.05l-21.84 17.791-6.21 5.023-1.55 1.32-.44.337-.11.133Z" fill="#263238"/><path d="M1092.99 506.44a7.59 7.59 0 0 1-1.39.186l-3.8.337-12.84.992h.12l-2.11 1.436c-4.7 3.216-8.96 6.113-12.06 8.186l-3.68 2.401-1.02.647c-.23.142-.37.213-.38.195.1-.103.21-.195.32-.275l.97-.717 3.61-2.552c3.06-2.144 7.3-5.086 12-8.302l2.1-1.435h.13l12.84-.833 3.82-.204c.45-.052.91-.073 1.37-.062Z" fill="#263238"/><path d="m1190.25 508.372-12.78-5.059-21.32 3.871-10.33 13.875 50.59.044-6.16-12.731Z" fill="#fff"/><path d="M1156.15 507.184c.62-.115 34.1 1.188 34.1 1.188l-12.78-5.051-21.32 3.863Z" fill="#E0E0E0"/><path d="M1145.83 521.059c.04-.098.09-.191.16-.275l.53-.761 2.06-2.862 7.41-10.101.05-.062h.08l15.86-2.906 5.45-.992h.13l12.76 5.086h.08v.062l4.43 9.303 1.19 2.587.3.682c.04.079.07.162.09.248a.963.963 0 0 1-.15-.222l-.34-.664c-.32-.62-.75-1.48-1.29-2.543-1.11-2.25-2.66-5.413-4.55-9.223l.1.089-12.79-5.015h.12l-5.45.992-15.86 2.844.12-.071c-3.1 4.102-5.69 7.54-7.55 9.994l-2.15 2.791-.58.727c-.13.201-.2.298-.21.292Z" fill="#263238"/><path d="m485.487 521.103-22.025-23.222-18.053 1.019-12.785 5.05-8.113 17.153" fill="#fff"/><path d="m445.409 498.9 18.7 22.203h21.378l-22.025-23.222-18.053 1.019Z" fill="#E0E0E0"/><path d="M424.511 521.13c.029-.113.071-.223.124-.328l.399-.93c.39-.842.886-2.011 1.596-3.491l5.816-12.484v-.071h.08l12.768-5.085h.071l8.672-.496 9.389-.523h.107l.071.08 15.694 16.656 4.557 4.909c.506.549.887.992 1.206 1.329.151.143.285.304.399.478a5.039 5.039 0 0 1-.452-.425l-1.268-1.276-4.655-4.82c-3.972-4.146-9.487-9.923-15.809-16.541l.177.071-9.39.531-8.671.479h.071l-12.795 5.014.097-.097c-2.456 5.13-4.504 9.4-5.958 12.404l-1.693 3.446-.453.886c-.04.1-.091.195-.15.284Z" fill="#263238"/><path d="m325.027 521.103 8.405-14.583 15.331-4.271 14.337 12.183v6.671" fill="#fff"/><path d="m333.432 506.52 29.668 7.912-14.337-12.183-15.331 4.271Z" fill="#E0E0E0"/><path d="M363.1 521.13a1.928 1.928 0 0 1-.044-.461v-1.302c0-1.205 0-2.853-.062-4.909l.044.107-14.391-12.121.213.045-3.529.921-11.846 3.278.125-.097-6.172 10.517a1737.48 1737.48 0 0 0-1.773 2.959l-.479.779a1.89 1.89 0 0 1-.186.257c.029-.102.071-.2.124-.292l.426-.806 1.676-3.021 5.993-10.562v-.079h.089l11.864-3.349 3.493-.966h.115l.089.08 14.293 12.244.053.044v.071c0 2.056-.053 3.704-.071 4.909v1.302c.004.152-.011.304-.044.452Z" fill="#263238"/><path d="m629.402 494.887-21.28-12.112-37.365 13.6-30.182 24.728 106.773-.549-17.946-25.667Z" fill="#fff"/><path d="m540.575 521.103 38.287-22.203 50.54-4.013L607.27 481.8l-36.513 14.575-30.182 24.728Zm55.009-.283 19.125-13.095 17.441-1.241-14.594 3.243-7.555 11.022-14.417.071Z" fill="#E0E0E0"/><path d="M540.575 521.13s0-.053.133-.133l.408-.363 1.614-1.365 6.153-5.112 21.741-17.915 26.6-10.809 9.825-3.969.106-.045.098.063 22.166 13.29 12.963 18.676 3.591 5.228.887 1.391c.109.154.209.314.301.478 0 0-.124-.142-.345-.452l-.985-1.346c-.886-1.214-2.101-2.96-3.679-5.166l-13.096-18.606.062.053-22.167-13.245h.195l-9.815 3.978-26.653 10.765h.053l-21.848 17.791-6.206 5.023-1.552 1.32-.434.337-.116.133Z" fill="#263238"/><path d="M632.744 506.44a7.492 7.492 0 0 1-1.383.186l-3.804.337-12.839.992h.116l-2.102 1.436a1405.667 1405.667 0 0 1-12.067 8.186l-3.68 2.401-1.02.647c-.23.142-.363.213-.372.195.096-.103.203-.195.319-.275l.967-.717 3.608-2.552c3.059-2.144 7.298-5.086 11.997-8.302l2.101-1.435h.133l12.839-.833 3.822-.204a9.88 9.88 0 0 1 1.365-.062Z" fill="#263238"/><path d="m730.012 508.372-12.786-5.059-21.316 3.871-10.329 13.875 50.584.044-6.153-12.731Z" fill="#fff"/><path d="M695.91 507.184c.621-.115 34.102 1.188 34.102 1.188l-12.786-5.051-21.316 3.863Z" fill="#E0E0E0"/><path d="M685.59 521.059c.04-.098.093-.191.159-.275l.532-.761 2.057-2.862 7.413-10.101.044-.062h.08l15.862-2.906 5.453-.992h.125l12.768 5.086h.07v.062l4.434 9.303 1.188 2.587.301.682c.04.079.069.162.089.248a.875.875 0 0 1-.142-.222l-.346-.664c-.319-.62-.753-1.48-1.285-2.543-1.117-2.25-2.66-5.413-4.549-9.223l.098.089-12.795-5.015h.124l-5.453.992-15.862 2.844.124-.071c-3.103 4.102-5.693 7.54-7.555 9.994l-2.145 2.791-.577.727c-.136.201-.206.298-.212.292Z" fill="#263238"/><path d="m1389.49 521.103-22.03-23.222-18.05 1.019-12.79 5.05-8.11 17.153" fill="#fff"/><path d="m1349.41 498.9 18.7 22.203h21.38l-22.03-23.222-18.05 1.019Z" fill="#E0E0E0"/><path d="M1328.51 521.13c.03-.113.07-.223.12-.328l.4-.93c.39-.842.89-2.011 1.6-3.491l5.82-12.484v-.071h.08l12.76-5.085h.07l8.68-.496 9.39-.523h.1l.07.08 15.7 16.656 4.56 4.909c.5.549.88.992 1.2 1.329.15.143.29.304.4.478a4.641 4.641 0 0 1-.45-.425l-1.27-1.276-4.66-4.82c-3.97-4.146-9.48-9.923-15.8-16.541l.17.071-9.39.531-8.67.479h.07l-12.79 5.014.1-.097c-2.46 5.13-4.51 9.4-5.96 12.404l-1.7 3.446-.45.886c-.04.1-.09.195-.15.284Z" fill="#263238"/><path d="m1229.03 521.103 8.4-14.583 15.33-4.271 14.34 12.183v6.671" fill="#fff"/><path d="m1237.43 506.52 29.67 7.912-14.34-12.183-15.33 4.271Z" fill="#E0E0E0"/><path d="M1267.1 521.13a1.783 1.783 0 0 1-.04-.461v-1.302c0-1.205 0-2.853-.07-4.909l.05.107-14.39-12.121.21.045-3.53.921-11.84 3.278.12-.097-6.17 10.517c-.75 1.24-1.34 2.232-1.77 2.959l-.48.779c-.06.091-.12.177-.19.257.03-.102.07-.2.12-.292l.43-.806 1.68-3.021 5.99-10.562v-.079h.09l11.86-3.349 3.5-.966h.11l.09.08 14.29 12.244.06.044v.071c0 2.056-.06 3.704-.08 4.909v1.302c.01.152-.01.304-.04.452Z" fill="#263238"/><path d="m41.487 521.103-22.025-23.222L1.409 498.9l-12.785 5.05-8.113 17.153" fill="#fff"/><path d="m1.41 498.9 18.7 22.203h21.377l-22.025-23.222L1.409 498.9Z" fill="#E0E0E0"/><path d="M-19.49 521.13c.03-.113.072-.223.125-.328l.399-.93c.39-.842.886-2.011 1.596-3.491l5.816-12.484v-.071h.08l12.768-5.085h.071l8.672-.496 9.39-.523h.106l.07.08 15.695 16.656 4.557 4.909c.506.549.887.992 1.206 1.329.151.143.285.304.4.478a5.069 5.069 0 0 1-.453-.425l-1.268-1.276-4.655-4.82c-3.972-4.146-9.487-9.923-15.81-16.541l.178.071-9.39.531-8.671.479h.07l-12.794 5.014.098-.097c-2.457 5.13-4.505 9.4-5.959 12.404l-1.693 3.446-.453.886c-.04.1-.09.195-.15.284Z" fill="#263238"/><path d="m185.402 494.887-21.28-12.112-37.365 13.6-30.182 24.728 106.773-.549-17.946-25.667Z" fill="#fff"/><path d="m96.575 521.103 38.287-22.203 50.54-4.013L163.27 481.8l-36.513 14.575-30.182 24.728Zm55.009-.283 19.125-13.095 17.441-1.241-14.594 3.243-7.555 11.022-14.417.071Z" fill="#E0E0E0"/><path d="M96.575 521.13s0-.053.133-.133l.408-.363 1.614-1.365 6.153-5.112 21.741-17.915 26.6-10.809 9.825-3.969.106-.045.098.063 22.166 13.29 12.963 18.676 3.591 5.228.887 1.391c.109.154.209.314.301.478 0 0-.124-.142-.345-.452l-.985-1.346c-.886-1.214-2.101-2.96-3.679-5.166l-13.096-18.606.062.053-22.167-13.245h.195l-9.815 3.978-26.653 10.765h.053l-21.848 17.791-6.206 5.023-1.552 1.32-.434.337-.116.133Z" fill="#263238"/><path d="M188.744 506.44a7.492 7.492 0 0 1-1.383.186l-3.804.337-12.839.992h.116l-2.102 1.436a1405.667 1405.667 0 0 1-12.067 8.186l-3.68 2.401-1.02.647c-.23.142-.363.213-.372.195.096-.103.203-.195.319-.275l.967-.717 3.608-2.552c3.059-2.144 7.298-5.086 11.997-8.302l2.101-1.435h.133l12.839-.833 3.822-.204a9.88 9.88 0 0 1 1.365-.062Z" fill="#263238"/><path d="m286.012 508.372-12.786-5.059-21.316 3.871-10.329 13.875 50.584.044-6.153-12.731Z" fill="#fff"/><path d="M251.91 507.184c.621-.115 34.102 1.188 34.102 1.188l-12.786-5.051-21.316 3.863Z" fill="#E0E0E0"/><path d="M241.59 521.059c.04-.098.093-.191.159-.275l.532-.761 2.057-2.862 7.413-10.101.044-.062h.08l15.862-2.906 5.453-.992h.125l12.768 5.086h.07v.062l4.434 9.303 1.188 2.587.301.682c.04.079.069.162.089.248a.875.875 0 0 1-.142-.222l-.346-.664c-.319-.62-.753-1.48-1.285-2.543-1.117-2.25-2.66-5.413-4.549-9.223l.098.089-12.795-5.015h.124l-5.453.992-15.862 2.844.124-.071c-3.103 4.102-5.693 7.54-7.555 9.994l-2.145 2.791-.577.727c-.136.201-.206.298-.212.292ZM653.37 312.41c-.001-.133 2.377.246 5.319.257a30.393 30.393 0 0 1 5.318.196 30.664 30.664 0 0 1-5.314.265 15.637 15.637 0 0 1-5.323-.718Zm-18.168-10.26c.105-.09 1.732 1.644 4.007 3.514 2.275 1.869 4.305 3.05 4.235 3.174a22.007 22.007 0 0 1-8.242-6.688Zm-9.079-18.918c.133-.001.577 2.309 1.46 5.095.882 2.786 1.813 4.951 1.725 5.013a17.438 17.438 0 0 1-2.167-4.876 17.16 17.16 0 0 1-1.018-5.232Zm-.911-21.229a31.96 31.96 0 0 1 .346 5.317 29.65 29.65 0 0 1-.116 5.321 31.953 31.953 0 0 1-.345-5.317 29.745 29.745 0 0 1 .115-5.321Zm.585-6.001a31.827 31.827 0 0 1-.383-5.314 29.659 29.659 0 0 1 .079-5.322c.275 1.758.403 3.536.382 5.315a29.742 29.742 0 0 1-.078 5.321Zm0-13a31.827 31.827 0 0 1-.383-5.314 29.659 29.659 0 0 1 .079-5.322c.275 1.758.403 3.536.382 5.315a29.742 29.742 0 0 1-.078 5.321Z" fill="#263238"/></g><path d="M378.853 78.867c.772-5.538-7.093-10.1-12.945-10.57-2.802-.23-5.71.203-8.37-.727-5.755-2.002-8.06-9.436-13.673-11.802-4.202-1.772-9.035-.194-13.113 1.852-4.079 2.047-8.122 4.67-12.644 4.918-3.955.248-8.255-1.214-11.713.717-2.58 1.435-3.928 4.43-6.304 6.158-2.377 1.728-5.32 2.082-8.246 2.241-2.926.16-5.879.187-8.504 1.383-2.624 1.196-4.805 3.978-4.256 6.822l99.768-.992Zm379-22c.772-5.538-7.093-10.1-12.945-10.57-2.802-.23-5.71.203-8.37-.727-5.755-2.002-8.06-9.436-13.673-11.802-4.202-1.772-9.035-.194-13.113 1.852-4.079 2.047-8.122 4.67-12.644 4.918-3.955.248-8.255-1.214-11.713.717-2.58 1.435-3.928 4.43-6.304 6.158-2.377 1.728-5.32 2.082-8.246 2.241-2.926.16-5.879.186-8.504 1.383-2.624 1.196-4.805 3.978-4.256 6.822l99.768-.992Zm326.997-33.001c.77-5.537-7.09-10.1-12.94-10.57-2.8-.23-5.71.204-8.37-.726-5.76-2.002-8.06-9.436-13.67-11.802-4.21-1.772-9.04-.194-13.12 1.852-4.08 2.047-8.12 4.67-12.64 4.917-3.96.249-8.26-1.213-11.72.718-2.58 1.435-3.92 4.43-6.3 6.158-2.38 1.727-5.32 2.082-8.245 2.241-2.926.16-5.879.186-8.504 1.383-2.624 1.196-4.805 3.978-4.256 6.822l99.765-.993Z" fill="#EBEBEB"/><path d="M140.868 42.763c.665-4.82-6.145-8.79-11.261-9.197-2.438-.204-4.974.177-7.279-.629-5.01-1.772-7.014-8.213-11.899-10.269-3.653-1.541-7.865-.168-11.403 1.613-3.537 1.78-7.04 4.022-11.003 4.27-3.44.222-7.173-1.054-10.188.63-2.243 1.249-3.423 3.836-5.488 5.36-2.066 1.524-4.664 1.772-7.174 1.94-2.509.168-5.107.16-7.394 1.205-2.288 1.045-4.177 3.464-3.707 5.936l86.796-.86Z" fill="#F9FAFB"/><path d="M1325.27 79.324c.52-3.792-4.83-6.911-8.87-7.239-1.92-.15-3.91.142-5.73-.487-3.96-1.409-5.54-6.46-9.34-8.072-2.87-1.214-6.21-.133-8.97 1.267-2.75 1.4-5.53 3.163-8.64 3.358-2.7.177-5.65-.833-7.98.487-1.77.984-2.66 3.022-4.32 4.218-1.66 1.196-3.66 1.418-5.64 1.524-1.97.106-4.01.133-5.81.957-1.8.824-3.28 2.72-2.91 4.66l68.21-.673Z" fill="#EBEBEB"/><defs><clipPath id="Group 1__a"><path fill="#fff" transform="translate(0 118)" d="M0 0h1440v443H0z"/></clipPath></defs></svg>