<svg fill="none" xmlns="http://www.w3.org/2000/svg" viewBox="0 0 601 813"><g clip-path="url(#Group 1000000883__a)"><path d="M590.853 415.866c.772-5.537-7.093-10.1-12.945-10.57-2.802-.23-5.71.204-8.37-.726-5.755-2.002-8.06-9.436-13.673-11.802-4.202-1.772-9.035-.194-13.113 1.852-4.079 2.047-8.122 4.669-12.644 4.917-3.955.249-8.255-1.213-11.713.718-2.58 1.435-3.928 4.43-6.304 6.158-2.377 1.728-5.32 2.082-8.246 2.241-2.926.16-5.879.186-8.504 1.383-2.624 1.196-4.805 3.978-4.256 6.822l99.768-.993Zm-470 88c.772-5.537-7.093-10.1-12.945-10.57-2.802-.23-5.71.204-8.37-.726-5.755-2.002-8.06-9.436-13.673-11.802-4.203-1.772-9.035-.194-13.113 1.852-4.08 2.047-8.122 4.669-12.644 4.917-3.955.249-8.255-1.213-11.713.718-2.58 1.435-3.928 4.43-6.304 6.158-2.377 1.728-5.32 2.082-8.246 2.241-2.926.16-5.879.186-8.503 1.383-2.625 1.196-4.806 3.978-4.256 6.822l99.767-.993Z" fill="#EBEBEB"/><path d="M241.868 423.763c.665-4.82-6.145-8.789-11.261-9.197-2.438-.204-4.974.177-7.279-.629-5.01-1.772-7.014-8.213-11.899-10.269-3.653-1.541-7.865-.168-11.403 1.613-3.537 1.781-7.04 4.022-11.003 4.27-3.441.222-7.173-1.054-10.188.629-2.243 1.25-3.423 3.837-5.489 5.361-2.065 1.524-4.663 1.772-7.173 1.94-2.509.168-5.107.159-7.394 1.205-2.288 1.045-4.177 3.464-3.707 5.936l86.796-.859Zm253.48 87.894c.47-3.403-4.336-6.202-7.98-6.495-1.729-.141-3.547.124-5.143-.443-3.547-1.231-4.948-5.794-8.397-7.247-2.58-1.09-5.55-.115-8.051 1.134-2.5 1.249-4.974 2.844-7.767 3.021-2.421.16-5.063-.744-7.191.443-1.578.886-2.412 2.658-3.875 3.783a9.23 9.23 0 0 1-5.062 1.374 14.33 14.33 0 0 0-5.214.886c-1.614.735-2.953 2.445-2.616 4.182l61.296-.638Z" fill="#F9FAFB"/><path d="m485.487 773.103-22.025-23.222-18.053 1.019-12.785 5.05-8.114 17.153" fill="#F3F4F6"/><path d="m445.409 750.9 18.7 22.203h21.378l-22.025-23.222-18.053 1.019Z" fill="#E0E0E0"/><path d="M424.51 773.13c.03-.113.072-.223.125-.328l.399-.93c.39-.842.886-2.011 1.596-3.491l5.816-12.484v-.071h.08l12.768-5.085h.071l8.672-.496 9.389-.523h.107l.071.08 15.694 16.656 4.557 4.909c.506.549.887.992 1.206 1.329.151.143.285.304.399.478a5.039 5.039 0 0 1-.452-.425l-1.268-1.276-4.655-4.82c-3.972-4.146-9.487-9.923-15.809-16.541l.177.071-9.39.531-8.671.479h.07l-12.794 5.014.097-.097c-2.456 5.13-4.504 9.4-5.958 12.404l-1.694 3.446-.452.886c-.041.1-.091.195-.151.284Z" fill="#263238"/><path d="m325.027 773.103 8.405-14.583 15.331-4.271 14.337 12.183v6.671" fill="#F3F4F6"/><path d="m333.432 758.52 29.668 7.912-14.337-12.183-15.331 4.271Z" fill="#E0E0E0"/><path d="M363.1 773.13a1.928 1.928 0 0 1-.044-.461v-1.302c0-1.205 0-2.853-.062-4.909l.044.107-14.391-12.121.213.045-3.529.921-11.846 3.278.125-.097-6.172 10.517a1737.48 1737.48 0 0 0-1.773 2.959l-.479.779a1.89 1.89 0 0 1-.186.257c.029-.102.071-.2.124-.292l.426-.806 1.676-3.021 5.993-10.562v-.079h.089l11.864-3.349 3.493-.966h.115l.089.08 14.293 12.244.053.044v.071c0 2.056-.053 3.704-.071 4.909v1.302c.004.152-.011.304-.044.452Z" fill="#263238"/><path d="m629.401 746.887-21.28-12.112-37.364 13.6-30.182 24.728 106.773-.549-17.947-25.667Z" fill="#F3F4F6"/><path d="m540.575 773.103 38.286-22.203 50.54-4.013L607.27 733.8l-36.513 14.575-30.182 24.728Zm55.009-.283 19.125-13.095 17.441-1.241-14.594 3.243-7.555 11.022-14.417.071Z" fill="#E0E0E0"/><path d="M540.575 773.13s0-.053.133-.133l.408-.363 1.614-1.365 6.153-5.112 21.741-17.915 26.6-10.809 9.825-3.969.106-.045.098.062 22.166 13.29 12.963 18.677 3.591 5.228.887 1.391c.109.154.209.314.301.478 0 0-.124-.142-.345-.452l-.985-1.346c-.886-1.214-2.101-2.96-3.679-5.166l-13.096-18.606.062.053-22.167-13.245h.195l-9.815 3.978-26.653 10.765h.053l-21.848 17.791-6.206 5.023-1.552 1.32-.435.337-.115.133Z" fill="#263238"/><path d="M632.744 758.44a7.492 7.492 0 0 1-1.383.186l-3.804.337-12.839.992h.116l-2.102 1.435a1385.882 1385.882 0 0 1-12.067 8.187l-3.68 2.401-1.02.647c-.23.142-.363.213-.372.195.096-.103.203-.195.319-.275l.967-.717 3.608-2.552c3.059-2.144 7.298-5.086 11.997-8.302l2.101-1.435h.133l12.839-.833 3.822-.204a9.88 9.88 0 0 1 1.365-.062Z" fill="#263238"/><path d="m41.487 773.103-22.025-23.222L1.409 750.9l-12.786 5.05-8.112 17.153" fill="#F3F4F6"/><path d="m1.41 750.9 18.7 22.203h21.377l-22.025-23.222L1.409 750.9Z" fill="#E0E0E0"/><path d="M-19.49 773.13c.03-.113.072-.223.125-.328l.399-.93c.39-.842.886-2.011 1.596-3.491l5.816-12.484v-.071h.08l12.768-5.085h.07l8.672-.496 9.39-.523h.107l.07.08 15.695 16.656 4.557 4.909c.506.549.887.992 1.206 1.329.151.143.285.304.399.478a5.055 5.055 0 0 1-.452-.425l-1.268-1.276-4.655-4.82c-3.972-4.146-9.488-9.923-15.81-16.541l.178.071-9.39.531-8.671.479h.07l-12.794 5.014.097-.097c-2.456 5.13-4.504 9.4-5.958 12.404l-1.694 3.446-.452.886c-.04.1-.091.195-.15.284Z" fill="#263238"/><path d="m185.401 746.887-21.28-12.112-37.364 13.6-30.182 24.728 106.773-.549-17.947-25.667Z" fill="#F3F4F6"/><path d="m96.575 773.103 38.286-22.203 50.54-4.013L163.27 733.8l-36.513 14.575-30.182 24.728Zm55.009-.283 19.125-13.095 17.441-1.241-14.594 3.243-7.555 11.022-14.417.071Z" fill="#E0E0E0"/><path d="M96.575 773.13s0-.053.133-.133l.408-.363 1.614-1.365 6.153-5.112 21.741-17.915 26.6-10.809 9.825-3.969.106-.045.098.062 22.166 13.29 12.963 18.677 3.591 5.228.887 1.391c.109.154.209.314.301.478 0 0-.124-.142-.345-.452l-.985-1.346c-.886-1.214-2.101-2.96-3.679-5.166l-13.096-18.606.062.053-22.167-13.245h.195l-9.815 3.978-26.653 10.765h.053l-21.848 17.791-6.206 5.023-1.552 1.32-.434.337-.116.133Z" fill="#263238"/><path d="M188.744 758.44a7.492 7.492 0 0 1-1.383.186l-3.804.337-12.839.992h.116l-2.102 1.435a1385.882 1385.882 0 0 1-12.067 8.187l-3.68 2.401-1.02.647c-.23.142-.363.213-.372.195.096-.103.203-.195.319-.275l.967-.717 3.608-2.552c3.059-2.144 7.298-5.086 11.997-8.302l2.101-1.435h.133l12.839-.833 3.822-.204a9.88 9.88 0 0 1 1.365-.062Z" fill="#263238"/><path d="m286.012 760.372-12.786-5.06-21.316 3.872-10.329 13.875 50.584.044-6.153-12.731Z" fill="#F3F4F6"/><path d="M251.91 759.184c.621-.115 34.102 1.188 34.102 1.188l-12.786-5.051-21.316 3.863Z" fill="#E0E0E0"/><path d="M241.59 773.059c.04-.099.093-.191.159-.275l.532-.762 2.057-2.861 7.413-10.101.044-.062h.08l15.862-2.906 5.453-.992h.125l12.768 5.086h.07v.062l4.434 9.303 1.188 2.587.301.682c.04.079.069.162.089.248a.875.875 0 0 1-.142-.222l-.346-.664c-.319-.62-.753-1.48-1.285-2.543-1.117-2.25-2.66-5.413-4.549-9.223l.098.088-12.795-5.014h.124l-5.453.992-15.862 2.844.124-.071c-3.103 4.102-5.693 7.54-7.555 9.994l-2.145 2.791-.577.727c-.136.201-.206.298-.212.292Z" fill="#263238"/><path d="M378.853 330.866c.772-5.537-7.093-10.1-12.945-10.57-2.802-.23-5.71.204-8.37-.726-5.755-2.002-8.06-9.436-13.673-11.802-4.202-1.772-9.035-.194-13.113 1.852-4.079 2.047-8.122 4.669-12.644 4.917-3.955.249-8.255-1.213-11.713.718-2.58 1.435-3.928 4.43-6.304 6.158-2.377 1.728-5.32 2.082-8.246 2.241-2.926.16-5.879.186-8.504 1.383-2.624 1.196-4.805 3.978-4.256 6.822l99.768-.993Z" fill="#EBEBEB"/><path d="M140.868 294.763c.665-4.82-6.145-8.789-11.261-9.197-2.438-.204-4.974.177-7.279-.629-5.01-1.772-7.014-8.213-11.899-10.269-3.653-1.541-7.865-.168-11.403 1.613-3.537 1.781-7.04 4.022-11.003 4.27-3.44.222-7.173-1.054-10.188.629-2.243 1.25-3.423 3.837-5.488 5.361-2.066 1.524-4.664 1.772-7.174 1.94-2.509.168-5.107.159-7.394 1.205-2.288 1.045-4.177 3.464-3.707 5.936l86.796-.859Z" fill="#F9FAFB"/><path d="M179.853 183.866c.772-5.537-7.093-10.1-12.945-10.57-2.802-.23-5.71.204-8.37-.726-5.755-2.002-8.06-9.436-13.673-11.802-4.202-1.772-9.035-.194-13.113 1.852-4.079 2.047-8.122 4.669-12.644 4.917-3.955.249-8.255-1.213-11.713.718-2.58 1.435-3.928 4.43-6.304 6.158-2.377 1.728-5.32 2.082-8.246 2.241-2.926.16-5.879.186-8.504 1.383-2.624 1.196-4.805 3.978-4.255 6.822l99.767-.993Zm379-22c.772-5.537-7.093-10.1-12.945-10.57-2.802-.23-5.71.204-8.37-.726-5.755-2.002-8.06-9.436-13.673-11.802-4.202-1.772-9.035-.194-13.113 1.852-4.079 2.047-8.122 4.669-12.644 4.917-3.955.249-8.255-1.213-11.713.718-2.58 1.435-3.928 4.43-6.304 6.158-2.377 1.728-5.32 2.082-8.246 2.241-2.926.16-5.879.186-8.504 1.383-2.624 1.196-4.805 3.978-4.256 6.822l99.768-.993Z" fill="#EBEBEB"/><path d="M362.868 84.763c.665-4.82-6.145-8.79-11.261-9.197-2.438-.204-4.974.177-7.279-.629-5.01-1.772-7.014-8.213-11.899-10.269-3.653-1.541-7.865-.168-11.403 1.613-3.537 1.78-7.04 4.022-11.003 4.27-3.441.222-7.173-1.054-10.188.63-2.243 1.249-3.423 3.836-5.489 5.36-2.065 1.524-4.663 1.772-7.173 1.94-2.509.168-5.107.16-7.394 1.205-2.288 1.045-4.177 3.464-3.707 5.936l86.796-.86Z" fill="#F9FAFB"/></g><defs><clipPath id="Group 1000000883__a"><path fill="#fff" d="M0 0h601v813H0z"/></clipPath></defs></svg>