<svg fill="none" xmlns="http://www.w3.org/2000/svg" viewBox="0 0 1440 561"><g clip-path="url(#Group 1000000883__a)"><path d="M816.417 253.301c.771-5.537-7.093-10.1-12.945-10.57-2.802-.23-5.711.204-8.371-.726-5.754-2.003-8.059-9.436-13.672-11.802-4.203-1.772-9.035-.195-13.114 1.852-4.078 2.046-8.122 4.669-12.644 4.917-3.954.248-8.254-1.214-11.712.718-2.581 1.435-3.928 4.43-6.305 6.157-2.376 1.728-5.32 2.083-8.246 2.242-2.926.159-5.878.186-8.503 1.382-2.624 1.196-4.806 3.978-4.256 6.822l99.768-.992Zm-225.564-89.435c.772-5.537-7.093-10.1-12.945-10.57-2.802-.23-5.71.204-8.37-.726-5.755-2.002-8.06-9.436-13.673-11.802-4.202-1.772-9.035-.194-13.113 1.852-4.079 2.047-8.122 4.669-12.644 4.917-3.955.249-8.255-1.213-11.713.718-2.58 1.435-3.928 4.43-6.304 6.158-2.377 1.728-5.32 2.082-8.246 2.241-2.926.16-5.879.186-8.504 1.383-2.624 1.196-4.805 3.978-4.256 6.822l99.768-.993Zm740.997 71c.77-5.537-7.09-10.1-12.94-10.57-2.8-.23-5.71.204-8.37-.726-5.76-2.002-8.06-9.436-13.67-11.802-4.21-1.772-9.04-.194-13.12 1.852-4.08 2.047-8.12 4.669-12.64 4.917-3.96.249-8.26-1.213-11.72.718-2.58 1.435-3.92 4.43-6.3 6.158-2.38 1.728-5.32 2.082-8.25 2.241-2.92.16-5.87.186-8.5 1.383-2.62 1.196-4.8 3.978-4.25 6.822l99.76-.993Zm-1210.997 17c.772-5.537-7.093-10.1-12.945-10.57-2.802-.23-5.71.204-8.37-.726-5.755-2.002-8.06-9.436-13.673-11.802-4.203-1.772-9.035-.194-13.113 1.852-4.08 2.047-8.122 4.669-12.644 4.917-3.955.249-8.255-1.213-11.713.718-2.58 1.435-3.928 4.43-6.304 6.158-2.377 1.728-5.32 2.082-8.246 2.241-2.926.16-5.879.186-8.503 1.383-2.625 1.196-4.806 3.978-4.256 6.822l99.767-.993Z" fill="#EBEBEB"/><path d="M241.868 171.763c.665-4.82-6.145-8.789-11.261-9.197-2.438-.204-4.974.177-7.279-.629-5.01-1.772-7.014-8.213-11.899-10.269-3.653-1.541-7.865-.168-11.403 1.613-3.537 1.781-7.04 4.022-11.003 4.27-3.441.222-7.173-1.054-10.188.629-2.243 1.25-3.423 3.837-5.489 5.361-2.065 1.524-4.663 1.772-7.173 1.94-2.509.168-5.107.159-7.394 1.205-2.288 1.045-4.177 3.464-3.707 5.936l86.796-.859Zm812.392 22.096c.47-3.402-4.34-6.202-7.98-6.494-1.73-.142-3.55.124-5.15-.443-3.54-1.232-4.94-5.795-8.39-7.248-2.58-1.089-5.55-.115-8.05 1.135-2.5 1.249-4.98 2.844-7.77 3.021-2.42.159-5.06-.744-7.19.443-1.58.886-2.41 2.658-3.88 3.783a9.222 9.222 0 0 1-5.06 1.373c-1.778-.03-3.545.27-5.213.886-1.614.736-2.953 2.446-2.616 4.182l61.299-.638Zm-190.912-54.202c.47-3.403-4.336-6.202-7.98-6.495-1.729-.141-3.547.124-5.143-.443-3.547-1.231-4.948-5.794-8.397-7.247-2.58-1.09-5.55-.115-8.051 1.134-2.5 1.249-4.974 2.844-7.767 3.021-2.421.16-5.063-.744-7.191.443-1.578.886-2.412 2.658-3.875 3.783a9.23 9.23 0 0 1-5.062 1.374 14.33 14.33 0 0 0-5.214.886c-1.614.735-2.953 2.445-2.616 4.182l61.296-.638Zm-368 120c.47-3.403-4.336-6.202-7.98-6.495-1.729-.141-3.547.124-5.143-.443-3.547-1.231-4.948-5.794-8.397-7.247-2.58-1.09-5.55-.115-8.051 1.134-2.5 1.249-4.974 2.844-7.767 3.021-2.421.16-5.063-.744-7.191.443-1.578.886-2.412 2.658-3.875 3.783a9.23 9.23 0 0 1-5.062 1.374 14.33 14.33 0 0 0-5.214.886c-1.614.735-2.953 2.445-2.616 4.182l61.296-.638Z" fill="#F9FAFB"/><path d="M1179.32 476.83c.57.409 1.06.929 1.42 1.529.37.599.61 1.267.71 1.962a9.288 9.288 0 0 1-.37 4.155 16.473 16.473 0 0 1-4.77 6.84c-1.89-2.348-1.78-5.839-1.64-7.611.25-2.799 2.4-7.699 4.65-6.875Zm-1.2 19.315a4.418 4.418 0 0 1 2.17-3.916 5.866 5.866 0 0 1 4.54-.576c.36.052.71.186 1.02.389.3.204.56.474.75.789.12.318.16.663.11.999-.06.337-.2.652-.42.915-.45.515-1.02.905-1.66 1.134-2.15.886-4.43 1.311-6.47.266" fill="#4B5563"/><path d="M1173.81 503.773c.04-.183.1-.361.17-.531.14-.372.31-.886.54-1.427.54-1.594 1.33-3.09 2.35-4.43a9.66 9.66 0 0 1 4.03-2.986c.48-.181.98-.303 1.49-.363h.56c-.68.102-1.35.278-2 .523a9.83 9.83 0 0 0-3.93 2.977c-1 1.333-1.8 2.804-2.38 4.368-.24.593-.44 1.072-.59 1.4-.07.161-.15.318-.24.469Z" fill="#263238"/><path d="M1178.01 480.684c.01.082.01.166 0 .248 0 .177-.03.408-.08.691-.07.603-.19 1.462-.35 2.534a243.34 243.34 0 0 1-1.37 8.337c-.6 3.252-1.2 6.202-1.67 8.276a75.665 75.665 0 0 1-.57 2.498c-.07.275-.13.505-.16.674-.02.082-.05.163-.08.239v-.248c0-.16.08-.399.13-.682l.51-2.508c.43-2.117 1.01-5.041 1.61-8.284.59-3.243 1.08-6.202 1.43-8.32.17-1.054.31-1.904.41-2.525l.12-.691c.01-.082.04-.162.07-.239Z" fill="#263238"/><path d="M1173.97 497.075a10.55 10.55 0 0 0-1.11-4.776 10.392 10.392 0 0 0-3.16-3.747c-.68-.496-1.62-.886-2.33-.452s-.76 1.471-.6 2.295a8.93 8.93 0 0 0 2.5 4.522 8.842 8.842 0 0 0 4.6 2.362" fill="#4B5563"/><path d="M1169.61 491.13c.15.086.3.184.44.292.17.117.33.244.48.381.21.173.42.356.61.55.21.221.45.452.68.726.25.282.48.578.69.886.5.736.91 1.527 1.22 2.357.3.82.51 1.669.63 2.534.04.379.06.761.06 1.143.02.33.02.662 0 .992-.02.271-.06.54-.11.806-.03.206-.07.41-.12.612-.04.169-.09.335-.15.496-.05 0 .16-.727.24-1.923.01-.327.01-.656 0-.983-.01-.374-.04-.746-.09-1.116-.12-.851-.32-1.686-.62-2.49-.32-.8-.72-1.563-1.19-2.277a10.39 10.39 0 0 0-.67-.886c-.22-.275-.45-.514-.65-.736-.85-.903-1.47-1.328-1.45-1.364Z" fill="#263238"/><path d="m764.423 520.164.372-.044c-.771-11.518-6.561-23.869-10.764-34.669-4.318-11.12-8.37-22.531-18.203-29.283a677.204 677.204 0 0 1 28.595 63.996Zm6.898-58.547v.151l-.133.425-.55 1.648c-.115.355-.248.753-.399 1.179l-.425 1.426c-.302 1.019-.683 2.18-1.002 3.482-.169.647-.355 1.329-.541 2.038-.186.709-.337 1.453-.514 2.224-.373 1.532-.674 3.189-1.011 4.935-.603 3.544-1.126 7.362-1.437 11.447-.31 4.084-.328 7.974-.248 11.518.08 1.772.124 3.455.266 5.023.062.789.098 1.551.178 2.278.079.726.15 1.435.212 2.099.124 1.338.32 2.534.453 3.597l.203 1.471c.08.452.151.886.213 1.232.116.726.204 1.302.275 1.71l.062.443c.004.05.004.1 0 .15 0 0-.745-3.242-1.392-8.585-.071-.664-.151-1.364-.23-2.1-.08-.735-.125-1.488-.195-2.277-.151-1.577-.204-3.26-.284-5.041a120.39 120.39 0 0 1 .23-11.562c.284-4.094.887-7.974 1.463-11.465.337-1.772.648-3.411 1.029-4.944.186-.771.346-1.515.532-2.224a176.1 176.1 0 0 1 .55-2.038c.337-1.302.727-2.454 1.037-3.482l.452-1.417.417-1.179c.248-.691.452-1.24.585-1.621.071-.177.124-.319.16-.425l.044-.116Z" fill="#455A64"/><path d="m769.586 455.24-3.955 13.946a2.64 2.64 0 0 0 1.822 3.26l.589.167a2.642 2.642 0 0 0 3.262-1.821l3.955-13.946a2.64 2.64 0 0 0-1.822-3.26l-.588-.166a2.642 2.642 0 0 0-3.263 1.82Z" fill="#F3F4F6"/><path d="M768.049 472.622s.16.044.47.062a2.59 2.59 0 0 0 1.312-.24 2.53 2.53 0 0 0 1.366-1.524c.23-.797.479-1.727.771-2.746.568-2.047 1.251-4.474 2.004-7.168.373-1.347.772-2.764 1.188-4.226a2.513 2.513 0 0 0-.39-2.109 2.429 2.429 0 0 0-.842-.744 4.74 4.74 0 0 0-1.117-.381 2.516 2.516 0 0 0-2.864 1.223 4.981 4.981 0 0 0-.364 1.063c-.417 1.462-.824 2.879-1.206 4.226-.771 2.658-1.472 5.103-2.057 7.15-.15.505-.283.992-.416 1.453a4.478 4.478 0 0 0-.266 1.294c.006.352.082.699.223 1.022.142.322.346.613.601.856.334.303.735.522 1.171.638l.336.106.116.045h-.124l-.346-.089a2.756 2.756 0 0 1-1.215-.611 2.751 2.751 0 0 1-.643-.884 2.744 2.744 0 0 1-.244-1.066 4.88 4.88 0 0 1 .258-1.337c.124-.461.257-.948.399-1.454.576-2.046 1.259-4.43 2.012-7.167.373-1.347.772-2.765 1.188-4.226.083-.386.211-.761.382-1.117a2.81 2.81 0 0 1 .798-.886 2.767 2.767 0 0 1 2.385-.434c.4.095.79.231 1.161.408.353.201.656.48.887.815a2.765 2.765 0 0 1 .426 2.312c-.417 1.462-.825 2.88-1.206 4.226l-2.057 7.15c-.293 1.019-.55 1.932-.807 2.747a2.663 2.663 0 0 1-2.811 1.772 1.799 1.799 0 0 1-.479-.159Z" fill="#263238"/><path d="M766.905 520.12c-.363-8.904-.372-18.703 4.682-26.057 2.864-4.156 7.173-7.159 11.784-9.224a82.673 82.673 0 0 1 14.461-4.465c-5.47 7.655-17.857 7.744-23.053 15.558-1.561 2.322-2.288 5.077-2.988 7.779-1.463 5.582-2.74 10.88-4.203 16.471m-39.74-31.338h.479c.31.044.771.08 1.356.195 1.658.28 3.292.688 4.886 1.223a35.017 35.017 0 0 1 6.801 3.11 38.231 38.231 0 0 1 3.635 2.498 34.467 34.467 0 0 1 3.547 3.199 30.26 30.26 0 0 1 3.014 3.668 22.94 22.94 0 0 1 1.259 1.869c.373.611.763 1.249 1.091 1.87a37.574 37.574 0 0 1 2.944 6.866c.516 1.6.904 3.238 1.161 4.9.107.584.133 1.045.169 1.355v.479-.116c0-.097 0-.212-.054-.354-.062-.31-.097-.771-.221-1.347a34.376 34.376 0 0 0-1.233-4.864 38.195 38.195 0 0 0-2.97-6.813c-.328-.62-.718-1.223-1.091-1.852a21.912 21.912 0 0 0-1.25-1.86 31.385 31.385 0 0 0-3.006-3.633 34.003 34.003 0 0 0-3.475-3.172 38.874 38.874 0 0 0-3.609-2.498 35.055 35.055 0 0 0-11.589-4.43c-.585-.133-1.037-.178-1.348-.24l-.354-.062-.142.009Z" fill="#455A64"/><path d="m719.057 483.132-.265.551a2.64 2.64 0 0 0 1.236 3.524l13.073 6.281a2.644 2.644 0 0 0 3.527-1.235l.265-.551a2.64 2.64 0 0 0-1.237-3.524l-13.073-6.281a2.643 2.643 0 0 0-3.526 1.235Z" fill="#F3F4F6"/><path d="M736.901 491.697s.071-.151.142-.452a2.597 2.597 0 0 0-1.286-2.897c-.745-.372-1.623-.771-2.571-1.232l-6.686-3.198-3.972-1.896a2.534 2.534 0 0 0-2.146 0c-.344.168-.647.41-.887.709a5.416 5.416 0 0 0-.567 1.028 2.521 2.521 0 0 0 0 2.206c.165.341.4.643.692.886.307.22.641.401.993.54l3.945 1.843 6.703 3.252 1.357.655c.385.223.8.387 1.233.488a2.678 2.678 0 0 0 1.995-.497c.353-.274.636-.63.824-1.036l.169-.319a.625.625 0 0 1 .062-.106.443.443 0 0 1 0 .115l-.142.328a2.795 2.795 0 0 1-.816 1.098 2.717 2.717 0 0 1-2.075.549 4.602 4.602 0 0 1-1.277-.478l-1.365-.647-6.721-3.198c-1.259-.612-2.589-1.241-3.963-1.896a4.994 4.994 0 0 1-1.029-.576 2.836 2.836 0 0 1-.771-.939 2.76 2.76 0 0 1 0-2.419c.154-.38.354-.74.594-1.072a2.739 2.739 0 0 1 3.316-.789l3.954 1.905 6.704 3.252c.948.461 1.773.886 2.571 1.258a2.662 2.662 0 0 1 1.259 1.737c.126.446.126.918 0 1.364a1.51 1.51 0 0 1-.239.434Z" fill="#263238"/><path d="m945.728 521.103-22.025-23.222-18.052 1.019-12.786 5.05-8.113 17.153" fill="#F3F4F6"/><path d="m905.651 498.9 18.7 22.203h21.377l-22.024-23.222-18.053 1.019Z" fill="#E0E0E0"/><path d="M884.752 521.13c.03-.113.071-.223.124-.328l.399-.93c.39-.842.887-2.011 1.596-3.491l5.817-12.484v-.071h.08l12.768-5.085h.071l8.671-.496 9.39-.523h.106l.071.08 15.694 16.656 4.558 4.909c.505.549.886.992 1.206 1.329.151.143.285.304.399.478a5.19 5.19 0 0 1-.453-.425l-1.267-1.276-4.655-4.82c-3.973-4.146-9.488-9.923-15.81-16.541l.178.071-9.39.531-8.672.479h.071l-12.794 5.014.097-.097c-2.456 5.13-4.504 9.4-5.958 12.404l-1.694 3.446-.452.886c-.041.1-.091.195-.151.284Z" fill="#263238"/><path d="m785.268 521.103 8.406-14.583 15.33-4.271 14.338 12.183v6.671" fill="#F3F4F6"/><path d="m793.674 506.52 29.668 7.912-14.338-12.183-15.33 4.271Z" fill="#E0E0E0"/><path d="M823.342 521.13a1.879 1.879 0 0 1-.045-.461v-1.302c0-1.205 0-2.853-.062-4.909l.045.107-14.391-12.121.213.045-3.529.921-11.846 3.278.124-.097-6.171 10.517c-.745 1.24-1.339 2.232-1.773 2.959l-.479.779a2.078 2.078 0 0 1-.186.257c.029-.102.07-.2.124-.292l.425-.806 1.676-3.021 5.994-10.562v-.079h.089l11.863-3.349 3.494-.966h.115l.089.08 14.293 12.244.053.044v.071c0 2.056-.053 3.704-.071 4.909v1.302c.003.152-.011.304-.044.452Z" fill="#263238"/><path d="m1089.64 494.887-21.28-12.112-37.36 13.6-30.18 24.728 106.77-.549-17.95-25.667Z" fill="#F3F4F6"/><path d="m1000.82 521.103 38.28-22.203 50.54-4.013-22.13-13.087-36.51 14.575-30.18 24.728Zm55.01-.283 19.12-13.095 17.44-1.241-14.59 3.243-7.56 11.022-14.41.071Z" fill="#E0E0E0"/><path d="M1000.82 521.13s0-.053.13-.133l.41-.363 1.61-1.365 6.15-5.112 21.75-17.915 26.6-10.809 9.82-3.969.11-.045.09.062 22.17 13.29 12.96 18.677 3.59 5.228.89 1.391c.11.154.21.314.3.478 0 0-.12-.142-.34-.452l-.99-1.346c-.88-1.214-2.1-2.96-3.68-5.166l-13.09-18.606.06.053-22.17-13.245h.2l-9.82 3.978-26.65 10.765h.05l-21.85 17.791-6.2 5.023-1.55 1.32-.44.337-.11.133Z" fill="#263238"/><path d="M1092.99 506.44a7.59 7.59 0 0 1-1.39.186l-3.8.337-12.84.992h.12l-2.11 1.435c-4.7 3.217-8.96 6.114-12.06 8.187l-3.68 2.401-1.02.647c-.23.142-.37.213-.38.195.1-.103.21-.195.32-.275l.97-.717 3.61-2.552c3.06-2.144 7.3-5.086 12-8.302l2.1-1.435h.13l12.84-.833 3.82-.204c.45-.052.91-.073 1.37-.062Z" fill="#263238"/><path d="m1190.25 508.372-12.78-5.06-21.32 3.872-10.33 13.875 50.59.044-6.16-12.731Z" fill="#F3F4F6"/><path d="M1156.15 507.184c.62-.115 34.1 1.188 34.1 1.188l-12.78-5.051-21.32 3.863Z" fill="#E0E0E0"/><path d="M1145.83 521.059c.04-.099.09-.191.16-.275l.53-.762 2.06-2.861 7.41-10.101.05-.062h.08l15.86-2.906 5.45-.992h.13l12.76 5.086h.08v.062l4.43 9.303 1.19 2.587.3.682c.04.079.07.162.09.248a.963.963 0 0 1-.15-.222l-.34-.664c-.32-.62-.75-1.48-1.29-2.543-1.11-2.25-2.66-5.413-4.55-9.223l.1.088-12.79-5.014h.12l-5.45.992-15.86 2.844.12-.071c-3.1 4.102-5.69 7.54-7.55 9.994l-2.15 2.791-.58.727c-.13.201-.2.298-.21.292Z" fill="#263238"/><path d="m485.487 521.103-22.025-23.222-18.053 1.019-12.785 5.05-8.114 17.153" fill="#F3F4F6"/><path d="m445.409 498.9 18.7 22.203h21.378l-22.025-23.222-18.053 1.019Z" fill="#E0E0E0"/><path d="M424.51 521.13c.03-.113.072-.223.125-.328l.399-.93c.39-.842.886-2.011 1.596-3.491l5.816-12.484v-.071h.08l12.768-5.085h.071l8.672-.496 9.389-.523h.107l.071.08 15.694 16.656 4.557 4.909c.506.549.887.992 1.206 1.329.151.143.285.304.399.478a5.039 5.039 0 0 1-.452-.425l-1.268-1.276-4.655-4.82c-3.972-4.146-9.487-9.923-15.809-16.541l.177.071-9.39.531-8.671.479h.07l-12.794 5.014.097-.097c-2.456 5.13-4.504 9.4-5.958 12.404l-1.694 3.446-.452.886c-.041.1-.091.195-.151.284Z" fill="#263238"/><path d="m325.027 521.103 8.405-14.583 15.331-4.271 14.337 12.183v6.671" fill="#F3F4F6"/><path d="m333.432 506.52 29.668 7.912-14.337-12.183-15.331 4.271Z" fill="#E0E0E0"/><path d="M363.1 521.13a1.928 1.928 0 0 1-.044-.461v-1.302c0-1.205 0-2.853-.062-4.909l.044.107-14.391-12.121.213.045-3.529.921-11.846 3.278.125-.097-6.172 10.517a1737.48 1737.48 0 0 0-1.773 2.959l-.479.779a1.89 1.89 0 0 1-.186.257c.029-.102.071-.2.124-.292l.426-.806 1.676-3.021 5.993-10.562v-.079h.089l11.864-3.349 3.493-.966h.115l.089.08 14.293 12.244.053.044v.071c0 2.056-.053 3.704-.071 4.909v1.302c.004.152-.011.304-.044.452Z" fill="#263238"/><path d="m629.401 494.887-21.28-12.112-37.364 13.6-30.182 24.728 106.773-.549-17.947-25.667Z" fill="#F3F4F6"/><path d="m540.575 521.103 38.286-22.203 50.54-4.013L607.27 481.8l-36.513 14.575-30.182 24.728Zm55.009-.283 19.125-13.095 17.441-1.241-14.594 3.243-7.555 11.022-14.417.071Z" fill="#E0E0E0"/><path d="M540.575 521.13s0-.053.133-.133l.408-.363 1.614-1.365 6.153-5.112 21.741-17.915 26.6-10.809 9.825-3.969.106-.045.098.062 22.166 13.29 12.963 18.677 3.591 5.228.887 1.391c.109.154.209.314.301.478 0 0-.124-.142-.345-.452l-.985-1.346c-.886-1.214-2.101-2.96-3.679-5.166l-13.096-18.606.062.053-22.167-13.245h.195l-9.815 3.978-26.653 10.765h.053l-21.848 17.791-6.206 5.023-1.552 1.32-.435.337-.115.133Z" fill="#263238"/><path d="M632.744 506.44a7.492 7.492 0 0 1-1.383.186l-3.804.337-12.839.992h.116l-2.102 1.435a1385.882 1385.882 0 0 1-12.067 8.187l-3.68 2.401-1.02.647c-.23.142-.363.213-.372.195.096-.103.203-.195.319-.275l.967-.717 3.608-2.552c3.059-2.144 7.298-5.086 11.997-8.302l2.101-1.435h.133l12.839-.833 3.822-.204a9.88 9.88 0 0 1 1.365-.062Z" fill="#263238"/><path d="m730.012 508.372-12.786-5.06-21.316 3.872-10.329 13.875 50.584.044-6.153-12.731Z" fill="#F3F4F6"/><path d="M695.91 507.184c.621-.115 34.102 1.188 34.102 1.188l-12.786-5.051-21.316 3.863Z" fill="#E0E0E0"/><path d="M685.59 521.059c.04-.099.093-.191.159-.275l.532-.762 2.057-2.861 7.413-10.101.044-.062h.08l15.862-2.906 5.453-.992h.125l12.768 5.086h.07v.062l4.434 9.303 1.188 2.587.301.682c.04.079.069.162.089.248a.875.875 0 0 1-.142-.222l-.346-.664c-.319-.62-.753-1.48-1.285-2.543-1.117-2.25-2.66-5.413-4.549-9.223l.098.088-12.795-5.014h.124l-5.453.992-15.862 2.844.124-.071c-3.103 4.102-5.693 7.54-7.555 9.994l-2.145 2.791-.577.727c-.136.201-.206.298-.212.292Z" fill="#263238"/><path d="m1389.49 521.103-22.03-23.222-18.05 1.019-12.79 5.05-8.11 17.153" fill="#F3F4F6"/><path d="m1349.41 498.9 18.7 22.203h21.38l-22.03-23.222-18.05 1.019Z" fill="#E0E0E0"/><path d="M1328.51 521.13c.03-.113.07-.223.12-.328l.4-.93c.39-.842.89-2.011 1.6-3.491l5.82-12.484v-.071h.08l12.76-5.085h.08l8.67-.496 9.39-.523h.1l.07.08 15.7 16.656 4.56 4.909c.5.549.88.992 1.2 1.329.15.143.29.304.4.478a4.641 4.641 0 0 1-.45-.425l-1.27-1.276-4.66-4.82c-3.97-4.146-9.48-9.923-15.8-16.541l.17.071-9.39.531-8.67.479h.07l-12.79 5.014.1-.097c-2.46 5.13-4.51 9.4-5.96 12.404l-1.7 3.446-.45.886c-.04.1-.09.195-.15.284Z" fill="#263238"/><path d="m1229.03 521.103 8.4-14.583 15.33-4.271 14.34 12.183v6.671" fill="#F3F4F6"/><path d="m1237.43 506.52 29.67 7.912-14.34-12.183-15.33 4.271Z" fill="#E0E0E0"/><path d="M1267.1 521.13a1.783 1.783 0 0 1-.04-.461v-1.302c0-1.205 0-2.853-.07-4.909l.05.107-14.39-12.121.21.045-3.53.921-11.84 3.278.12-.097-6.17 10.517c-.75 1.24-1.34 2.232-1.77 2.959l-.48.779c-.06.091-.12.177-.19.257.03-.102.07-.2.12-.292l.43-.806 1.68-3.021 5.99-10.562v-.079h.09l11.86-3.349 3.5-.966h.11l.09.08 14.29 12.244.06.044v.071c0 2.056-.06 3.704-.08 4.909v1.302c.01.152-.01.304-.04.452Z" fill="#263238"/><path d="m41.487 521.103-22.025-23.222L1.409 498.9l-12.786 5.05-8.112 17.153" fill="#F3F4F6"/><path d="m1.41 498.9 18.7 22.203h21.377l-22.025-23.222L1.409 498.9Z" fill="#E0E0E0"/><path d="M-19.49 521.13c.03-.113.072-.223.125-.328l.399-.93c.39-.842.886-2.011 1.596-3.491l5.816-12.484v-.071h.08l12.768-5.085h.07l8.672-.496 9.39-.523h.107l.07.08 15.695 16.656 4.557 4.909c.506.549.887.992 1.206 1.329.151.143.285.304.399.478a5.055 5.055 0 0 1-.452-.425l-1.268-1.276-4.655-4.82c-3.972-4.146-9.488-9.923-15.81-16.541l.178.071-9.39.531-8.671.479h.07l-12.794 5.014.097-.097c-2.456 5.13-4.504 9.4-5.958 12.404l-1.694 3.446-.452.886c-.04.1-.091.195-.15.284Z" fill="#263238"/><path d="m185.401 494.887-21.28-12.112-37.364 13.6-30.182 24.728 106.773-.549-17.947-25.667Z" fill="#F3F4F6"/><path d="m96.575 521.103 38.286-22.203 50.54-4.013L163.27 481.8l-36.513 14.575-30.182 24.728Zm55.009-.283 19.125-13.095 17.441-1.241-14.594 3.243-7.555 11.022-14.417.071Z" fill="#E0E0E0"/><path d="M96.575 521.13s0-.053.133-.133l.408-.363 1.614-1.365 6.153-5.112 21.741-17.915 26.6-10.809 9.825-3.969.106-.045.098.062 22.166 13.29 12.963 18.677 3.591 5.228.887 1.391c.109.154.209.314.301.478 0 0-.124-.142-.345-.452l-.985-1.346c-.886-1.214-2.101-2.96-3.679-5.166l-13.096-18.606.062.053-22.167-13.245h.195l-9.815 3.978-26.653 10.765h.053l-21.848 17.791-6.206 5.023-1.552 1.32-.434.337-.116.133Z" fill="#263238"/><path d="M188.744 506.44a7.492 7.492 0 0 1-1.383.186l-3.804.337-12.839.992h.116l-2.102 1.435a1385.882 1385.882 0 0 1-12.067 8.187l-3.68 2.401-1.02.647c-.23.142-.363.213-.372.195.096-.103.203-.195.319-.275l.967-.717 3.608-2.552c3.059-2.144 7.298-5.086 11.997-8.302l2.101-1.435h.133l12.839-.833 3.822-.204a9.88 9.88 0 0 1 1.365-.062Z" fill="#263238"/><path d="m286.012 508.372-12.786-5.06-21.316 3.872-10.329 13.875 50.584.044-6.153-12.731Z" fill="#F3F4F6"/><path d="M251.91 507.184c.621-.115 34.102 1.188 34.102 1.188l-12.786-5.051-21.316 3.863Z" fill="#E0E0E0"/><path d="M241.59 521.059c.04-.099.093-.191.159-.275l.532-.762 2.057-2.861 7.413-10.101.044-.062h.08l15.862-2.906 5.453-.992h.125l12.768 5.086h.07v.062l4.434 9.303 1.188 2.587.301.682c.04.079.069.162.089.248a.875.875 0 0 1-.142-.222l-.346-.664c-.319-.62-.753-1.48-1.285-2.543-1.117-2.25-2.66-5.413-4.549-9.223l.098.088-12.795-5.014h.124l-5.453.992-15.862 2.844.124-.071c-3.103 4.102-5.693 7.54-7.555 9.994l-2.145 2.791-.577.727c-.136.201-.206.298-.212.292Z" fill="#263238"/></g><path d="M378.853 78.867c.772-5.538-7.093-10.1-12.945-10.57-2.802-.23-5.71.203-8.37-.727-5.755-2.002-8.06-9.436-13.673-11.802-4.202-1.772-9.035-.194-13.113 1.852-4.079 2.047-8.122 4.67-12.644 4.918-3.955.248-8.255-1.214-11.713.717-2.58 1.435-3.928 4.43-6.304 6.158-2.377 1.728-5.32 2.082-8.246 2.241-2.926.16-5.879.187-8.504 1.383-2.624 1.196-4.805 3.978-4.256 6.822l99.768-.992Zm379-22c.772-5.538-7.093-10.1-12.945-10.57-2.802-.23-5.71.203-8.37-.727-5.755-2.002-8.06-9.436-13.673-11.802-4.202-1.772-9.035-.194-13.113 1.852-4.079 2.047-8.122 4.67-12.644 4.918-3.955.248-8.255-1.214-11.713.717-2.58 1.435-3.928 4.43-6.304 6.158-2.377 1.728-5.32 2.082-8.246 2.241-2.926.16-5.879.186-8.504 1.383-2.624 1.196-4.805 3.978-4.256 6.822l99.768-.992Zm326.997-33.001c.77-5.537-7.09-10.1-12.94-10.57-2.8-.23-5.71.204-8.37-.726-5.76-2.002-8.06-9.436-13.67-11.802-4.21-1.772-9.04-.194-13.12 1.852-4.08 2.047-8.12 4.67-12.64 4.917-3.96.249-8.26-1.213-11.72.718-2.58 1.435-3.92 4.43-6.3 6.158-2.38 1.727-5.32 2.082-8.245 2.241-2.926.16-5.879.186-8.504 1.383-2.624 1.196-4.805 3.978-4.256 6.822l99.765-.993Z" fill="#EBEBEB"/><path d="M140.868 42.763c.665-4.82-6.145-8.79-11.261-9.197-2.438-.204-4.974.177-7.279-.629-5.01-1.772-7.014-8.213-11.899-10.269-3.653-1.541-7.865-.168-11.403 1.613-3.537 1.78-7.04 4.022-11.003 4.27-3.44.222-7.173-1.054-10.188.63-2.243 1.249-3.423 3.836-5.488 5.36-2.066 1.524-4.664 1.772-7.174 1.94-2.509.168-5.107.16-7.394 1.205-2.288 1.045-4.177 3.464-3.707 5.936l86.796-.86Z" fill="#F9FAFB"/><path d="M1325.27 79.324c.52-3.792-4.83-6.911-8.87-7.239-1.92-.15-3.91.142-5.73-.487-3.96-1.409-5.54-6.46-9.34-8.072-2.87-1.214-6.21-.133-8.97 1.267-2.75 1.4-5.53 3.163-8.64 3.358-2.7.177-5.65-.833-7.98.487-1.77.984-2.66 3.022-4.32 4.218-1.66 1.196-3.66 1.418-5.64 1.524-1.97.106-4.01.133-5.81.957-1.8.824-3.28 2.72-2.91 4.66l68.21-.673Z" fill="#EBEBEB"/><defs><clipPath id="Group 1000000883__a"><path fill="#fff" transform="translate(0 118)" d="M0 0h1440v443H0z"/></clipPath></defs></svg>