<svg fill="none" xmlns="http://www.w3.org/2000/svg" viewBox="0 0 3006 588"><g clip-path="url(#Group 2__a)"><path d="M1959.7 470.835c0 .124-101.93.231-227.63.231-125.7 0-227.66-.107-227.66-.231 0-.124 101.91-.23 227.64-.23 125.73 0 227.65.106 227.65.23Zm-16.54 13.087c0 .132-22.17.239-49.56.239-27.38 0-49.55-.107-49.55-.239 0-.133 22.17-.231 49.55-.231 27.39 0 49.56.107 49.56.231Z" fill="#E0E0E0"/><path d="M1599.42 280.301c.77-5.537-7.1-10.1-12.95-10.57-2.8-.23-5.71.204-8.37-.726-5.75-2.003-8.06-9.436-13.67-11.802-4.2-1.772-9.04-.195-13.11 1.852-4.08 2.046-8.13 4.669-12.65 4.917-3.95.248-8.25-1.214-11.71.718-2.58 1.435-3.93 4.43-6.31 6.157-2.37 1.728-5.32 2.083-8.24 2.242-2.93.16-5.88.186-8.51 1.382-2.62 1.196-4.8 3.978-4.25 6.822l99.77-.992Zm-225.57-89.435c.77-5.537-7.09-10.1-12.94-10.57-2.8-.23-5.71.204-8.37-.726-5.76-2.002-8.06-9.436-13.67-11.802-4.21-1.772-9.04-.194-13.12 1.852-4.08 2.047-8.12 4.669-12.64 4.917-3.96.249-8.26-1.213-11.72.718-2.58 1.435-3.92 4.43-6.3 6.158-2.38 1.728-5.32 2.082-8.25 2.241-2.92.16-5.87.186-8.5 1.383-2.62 1.196-4.8 3.978-4.25 6.822l99.76-.993Zm741 71c.77-5.537-7.09-10.1-12.94-10.57-2.8-.23-5.71.204-8.37-.726-5.76-2.002-8.06-9.436-13.67-11.802-4.21-1.772-9.04-.194-13.12 1.852-4.08 2.047-8.12 4.669-12.64 4.917-3.96.249-8.26-1.213-11.72.718-2.58 1.435-3.92 4.43-6.3 6.158-2.38 1.728-5.32 2.082-8.25 2.241-2.92.16-5.87.186-8.5 1.383-2.62 1.196-4.8 3.978-4.25 6.822l99.76-.993Zm-1210.997 17c.772-5.537-7.093-10.1-12.945-10.57-2.802-.23-5.71.204-8.37-.726-5.755-2.002-8.06-9.436-13.673-11.802-4.202-1.772-9.035-.194-13.113 1.852-4.079 2.047-8.122 4.669-12.644 4.917-3.955.249-8.255-1.213-11.713.718-2.58 1.435-3.928 4.43-6.304 6.158-2.377 1.728-5.32 2.082-8.246 2.241-2.926.16-5.879.186-8.504 1.383-2.624 1.196-4.805 3.978-4.256 6.822l99.768-.993Z" fill="#EBEBEB"/><path d="M1024.87 198.763c.66-4.82-6.15-8.789-11.26-9.197-2.44-.204-4.98.177-7.28-.629-5.01-1.772-7.016-8.213-11.901-10.269-3.653-1.541-7.865-.168-11.403 1.613-3.537 1.781-7.04 4.022-11.003 4.27-3.441.222-7.173-1.054-10.188.629-2.243 1.25-3.423 3.837-5.489 5.361-2.065 1.524-4.663 1.772-7.173 1.94-2.509.168-5.107.159-7.394 1.205-2.288 1.045-4.177 3.464-3.707 5.936l86.798-.859Z" fill="#F9FAFB"/><path d="M1599.42 280.301c.77-5.537-7.1-10.1-12.95-10.57-2.8-.23-5.71.204-8.37-.726-5.75-2.003-8.06-9.436-13.67-11.802-4.2-1.772-9.04-.195-13.11 1.852-4.08 2.046-8.13 4.669-12.65 4.917-3.95.248-8.25-1.214-11.71.718-2.58 1.435-3.93 4.43-6.31 6.157-2.37 1.728-5.32 2.083-8.24 2.242-2.93.16-5.88.186-8.51 1.382-2.62 1.196-4.8 3.978-4.25 6.822l99.77-.992Zm-225.57-89.435c.77-5.537-7.09-10.1-12.94-10.57-2.8-.23-5.71.204-8.37-.726-5.76-2.002-8.06-9.436-13.67-11.802-4.21-1.772-9.04-.194-13.12 1.852-4.08 2.047-8.12 4.669-12.64 4.917-3.96.249-8.26-1.213-11.72.718-2.58 1.435-3.92 4.43-6.3 6.158-2.38 1.728-5.32 2.082-8.25 2.241-2.92.16-5.87.186-8.5 1.383-2.62 1.196-4.8 3.978-4.25 6.822l99.76-.993Zm741 71c.77-5.537-7.09-10.1-12.94-10.57-2.8-.23-5.71.204-8.37-.726-5.76-2.002-8.06-9.436-13.67-11.802-4.21-1.772-9.04-.194-13.12 1.852-4.08 2.047-8.12 4.669-12.64 4.917-3.96.249-8.26-1.213-11.72.718-2.58 1.435-3.92 4.43-6.3 6.158-2.38 1.728-5.32 2.082-8.25 2.241-2.92.16-5.87.186-8.5 1.383-2.62 1.196-4.8 3.978-4.25 6.822l99.76-.993Zm-1210.997 17c.772-5.537-7.093-10.1-12.945-10.57-2.802-.23-5.71.204-8.37-.726-5.755-2.002-8.06-9.436-13.673-11.802-4.202-1.772-9.035-.194-13.113 1.852-4.079 2.047-8.122 4.669-12.644 4.917-3.955.249-8.255-1.213-11.713.718-2.58 1.435-3.928 4.43-6.304 6.158-2.377 1.728-5.32 2.082-8.246 2.241-2.926.16-5.879.186-8.504 1.383-2.624 1.196-4.805 3.978-4.256 6.822l99.768-.993Z" fill="#EBEBEB"/><path d="M1024.87 198.763c.66-4.82-6.15-8.789-11.26-9.197-2.44-.204-4.98.177-7.28-.629-5.01-1.772-7.016-8.213-11.901-10.269-3.653-1.541-7.865-.168-11.403 1.613-3.537 1.781-7.04 4.022-11.003 4.27-3.441.222-7.173-1.054-10.188.629-2.243 1.25-3.423 3.837-5.489 5.361-2.065 1.524-4.663 1.772-7.173 1.94-2.509.168-5.107.159-7.394 1.205-2.288 1.045-4.177 3.464-3.707 5.936l86.798-.859Z" fill="#F9FAFB"/><path d="M714.853 190.866c.772-5.537-7.093-10.1-12.945-10.57-2.802-.23-5.71.204-8.37-.726-5.755-2.002-8.06-9.436-13.673-11.802-4.202-1.772-9.035-.194-13.113 1.852-4.079 2.047-8.122 4.669-12.644 4.917-3.955.249-8.255-1.213-11.713.718-2.58 1.435-3.928 4.43-6.304 6.158-2.377 1.728-5.32 2.082-8.246 2.241-2.926.16-5.879.186-8.504 1.383-2.624 1.196-4.805 3.978-4.256 6.822l99.768-.993Zm-470 88c.772-5.537-7.093-10.1-12.945-10.57-2.802-.23-5.71.204-8.37-.726-5.755-2.002-8.06-9.436-13.673-11.802-4.202-1.772-9.035-.194-13.113 1.852-4.079 2.047-8.122 4.669-12.644 4.917-3.955.249-8.255-1.213-11.713.718-2.58 1.435-3.928 4.43-6.304 6.158-2.377 1.728-5.32 2.082-8.246 2.241-2.926.16-5.879.186-8.504 1.383-2.624 1.196-4.805 3.978-4.256 6.822l99.768-.993Z" fill="#EBEBEB"/><path d="M365.868 198.763c.665-4.82-6.145-8.789-11.261-9.197-2.438-.204-4.974.177-7.279-.629-5.01-1.772-7.014-8.213-11.899-10.269-3.653-1.541-7.865-.168-11.403 1.613-3.537 1.781-7.04 4.022-11.003 4.27-3.441.222-7.173-1.054-10.188.629-2.243 1.25-3.423 3.837-5.489 5.361-2.065 1.524-4.663 1.772-7.173 1.94-2.509.168-5.107.159-7.394 1.205-2.288 1.045-4.177 3.464-3.707 5.936l86.796-.859Zm1471.392 22.096c.47-3.402-4.34-6.202-7.98-6.494-1.73-.142-3.55.124-5.15-.443-3.54-1.232-4.94-5.795-8.39-7.248-2.58-1.089-5.55-.115-8.05 1.135-2.5 1.249-4.98 2.844-7.77 3.021-2.42.159-5.06-.744-7.19.443-1.58.886-2.41 2.658-3.88 3.783a9.222 9.222 0 0 1-5.06 1.373c-1.78-.03-3.55.27-5.21.886-1.62.736-2.96 2.446-2.62 4.182l61.3-.638Zm-190.91-54.202c.47-3.403-4.34-6.202-7.98-6.495-1.73-.141-3.55.124-5.15-.443-3.54-1.231-4.94-5.794-8.39-7.247-2.58-1.09-5.55-.115-8.05 1.134-2.5 1.249-4.98 2.844-7.77 3.021-2.42.16-5.06-.744-7.19.443-1.58.886-2.41 2.658-3.88 3.783a9.191 9.191 0 0 1-5.06 1.374c-1.78-.031-3.54.27-5.21.886-1.62.735-2.95 2.445-2.62 4.182l61.3-.638Zm-368 120c.47-3.403-4.34-6.202-7.98-6.495-1.73-.141-3.55.124-5.15-.443-3.54-1.231-4.94-5.794-8.39-7.247-2.58-1.09-5.55-.115-8.05 1.134-2.5 1.249-4.98 2.844-7.77 3.021-2.42.16-5.06-.744-7.19.443-1.58.886-2.41 2.658-3.88 3.783a9.191 9.191 0 0 1-5.06 1.374c-1.78-.031-3.54.27-5.21.886-1.62.735-2.95 2.445-2.62 4.182l61.3-.638Z" fill="#F9FAFB"/><path d="M1928.83 490.717c-.19.034-.38.049-.57.044l-1.6.045-5.92.071-19.51.071-19.51-.071-5.91-.071-1.62-.045c-.18.004-.37-.01-.55-.044.18-.039.37-.054.55-.044h1.62l5.91-.071 19.51-.071 19.51.071 5.92.071h1.6c.19-.01.38.005.57.044Z" fill="#E0E0E0"/><path d="M1962.32 503.83c.57.409 1.06.929 1.42 1.529.37.599.61 1.267.71 1.962a9.288 9.288 0 0 1-.37 4.155 16.473 16.473 0 0 1-4.77 6.84c-1.89-2.348-1.78-5.839-1.64-7.611.25-2.799 2.4-7.699 4.65-6.875Zm-1.2 19.315a4.418 4.418 0 0 1 2.17-3.916 5.866 5.866 0 0 1 4.54-.576c.36.052.71.185 1.02.389.3.204.56.474.75.789.12.318.16.663.11.999-.06.337-.2.652-.42.915-.45.515-1.02.905-1.66 1.134-2.15.886-4.43 1.311-6.47.266" fill="#4B5563"/><path d="M1956.81 530.773c.04-.183.1-.361.17-.531.14-.372.31-.886.54-1.427.54-1.594 1.33-3.09 2.35-4.43a9.66 9.66 0 0 1 4.03-2.986c.48-.181.98-.303 1.49-.363h.56c-.68.102-1.35.278-2 .523a9.83 9.83 0 0 0-3.93 2.977c-1 1.333-1.8 2.804-2.38 4.368-.24.593-.44 1.072-.59 1.4-.07.161-.15.318-.24.469Z" fill="#263238"/><path d="M1961.01 507.684c.01.083.01.166 0 .248 0 .177-.03.408-.08.691-.07.603-.19 1.462-.35 2.534a243.34 243.34 0 0 1-1.37 8.337c-.6 3.252-1.2 6.202-1.67 8.276a75.665 75.665 0 0 1-.57 2.498c-.07.275-.13.505-.16.674-.02.082-.05.163-.08.239v-.248c0-.16.08-.399.13-.682l.51-2.508c.43-2.117 1.01-5.041 1.61-8.284.59-3.243 1.08-6.202 1.43-8.319.17-1.055.31-1.905.41-2.526l.12-.691c.01-.082.04-.162.07-.239Z" fill="#263238"/><path d="M1956.97 524.075a10.55 10.55 0 0 0-1.11-4.776 10.392 10.392 0 0 0-3.16-3.747c-.68-.496-1.62-.886-2.33-.452s-.76 1.471-.6 2.295a8.93 8.93 0 0 0 2.5 4.522 8.842 8.842 0 0 0 4.6 2.362" fill="#4B5563"/><path d="M1952.61 518.13c.15.086.3.184.44.292.17.117.33.244.48.381.21.173.42.356.61.55.21.221.45.452.68.726.25.282.48.578.69.886.5.736.91 1.527 1.22 2.357.3.82.51 1.669.63 2.534.04.379.06.761.06 1.143.02.33.02.662 0 .992-.02.271-.06.54-.11.806-.03.206-.07.41-.12.612-.04.169-.09.335-.15.496-.05 0 .16-.727.24-1.923.01-.327.01-.656 0-.983-.01-.374-.04-.746-.09-1.116-.12-.851-.32-1.686-.62-2.49-.32-.8-.72-1.563-1.19-2.277a10.39 10.39 0 0 0-.67-.886c-.22-.275-.45-.514-.65-.736-.85-.903-1.47-1.328-1.45-1.364Z" fill="#263238"/><path d="m1547.42 547.164.38-.044c-.78-11.518-6.57-23.869-10.77-34.669-4.32-11.119-8.37-22.531-18.2-29.283a677.279 677.279 0 0 1 28.59 63.996Zm6.9-58.547v.151l-.13.425-.55 1.648c-.12.355-.25.753-.4 1.179l-.43 1.426c-.3 1.019-.68 2.18-1 3.482-.17.647-.35 1.329-.54 2.038-.19.709-.34 1.453-.51 2.224-.38 1.532-.68 3.189-1.01 4.935a121.44 121.44 0 0 0-1.44 11.447c-.31 4.084-.33 7.974-.25 11.518.08 1.772.13 3.455.27 5.023.06.789.09 1.551.17 2.278.08.726.16 1.435.22 2.099.12 1.338.32 2.534.45 3.597l.2 1.471c.08.452.15.886.22 1.232.11.726.2 1.302.27 1.71l.06.443c.01.05.01.1 0 .15 0 0-.74-3.242-1.39-8.585-.07-.664-.15-1.364-.23-2.1-.08-.735-.12-1.488-.19-2.277-.16-1.577-.21-3.26-.29-5.041-.1-3.544-.05-7.469.23-11.562.29-4.094.89-7.974 1.47-11.465.33-1.772.64-3.411 1.02-4.944.19-.771.35-1.515.54-2.224.18-.709.37-1.391.55-2.038.33-1.302.72-2.454 1.03-3.482l.46-1.417.41-1.179c.25-.691.45-1.24.59-1.621.07-.177.12-.319.16-.425l.04-.116Z" fill="#455A64"/><path d="m1552.59 482.24-3.96 13.946a2.64 2.64 0 0 0 1.82 3.26l.59.167a2.634 2.634 0 0 0 3.26-1.821l3.96-13.946a2.64 2.64 0 0 0-1.82-3.26l-.59-.166a2.633 2.633 0 0 0-3.26 1.82Z" fill="#F3F4F6"/><path d="M1551.05 499.622s.16.044.47.062c.45.036.9-.047 1.31-.24.32-.145.61-.355.84-.618.24-.262.42-.571.53-.906.23-.797.48-1.727.77-2.746.57-2.047 1.25-4.474 2-7.168.37-1.347.77-2.764 1.19-4.226.09-.359.11-.734.04-1.098-.07-.364-.21-.71-.43-1.011-.22-.31-.51-.565-.84-.744a4.793 4.793 0 0 0-1.12-.381 2.508 2.508 0 0 0-1.64.116c-.52.222-.95.611-1.22 1.107-.16.339-.29.696-.37 1.063-.41 1.462-.82 2.879-1.2 4.226-.77 2.658-1.47 5.103-2.06 7.15-.15.505-.28.992-.42 1.453-.15.416-.24.852-.26 1.294 0 .352.08.699.22 1.021.14.323.35.614.6.857.34.303.74.522 1.17.638l.34.106.11.045h-.12l-.35-.089a2.76 2.76 0 0 1-1.21-.611 2.72 2.72 0 0 1-.64-.885 2.623 2.623 0 0 1-.25-1.065c.03-.455.11-.906.26-1.337.12-.461.26-.949.4-1.454.58-2.046 1.26-4.43 2.01-7.167.37-1.347.77-2.765 1.19-4.226.08-.386.21-.761.38-1.117.2-.349.47-.651.8-.886a2.757 2.757 0 0 1 2.38-.434c.41.095.79.231 1.17.408.35.201.65.48.88.815.24.33.4.709.47 1.108.08.4.06.811-.04 1.204-.42 1.462-.83 2.88-1.21 4.226l-2.05 7.15c-.3 1.019-.55 1.932-.81 2.747-.2.57-.58 1.057-1.1 1.379-.51.322-1.11.46-1.71.393-.17-.03-.33-.084-.48-.159Z" fill="#263238"/><path d="M1549.91 547.12c-.37-8.904-.38-18.703 4.68-26.057 2.86-4.156 7.17-7.159 11.78-9.224a82.768 82.768 0 0 1 14.46-4.465c-5.47 7.655-17.85 7.744-23.05 15.558-1.56 2.321-2.29 5.077-2.99 7.779-1.46 5.582-2.74 10.88-4.2 16.471m-39.74-31.338h.48c.31.044.77.08 1.35.195 1.66.28 3.29.688 4.89 1.223 2.37.791 4.65 1.833 6.8 3.11 1.26.762 2.47 1.596 3.63 2.498 1.26.983 2.44 2.052 3.55 3.199a30.498 30.498 0 0 1 3.02 3.668c.46.611.88 1.258 1.26 1.869.37.611.76 1.249 1.09 1.87a37.978 37.978 0 0 1 2.94 6.866c.52 1.6.9 3.238 1.16 4.9.11.584.13 1.045.17 1.355v.479-.116c0-.097 0-.212-.05-.354-.07-.31-.1-.771-.23-1.347-.29-1.649-.7-3.275-1.23-4.864a37.697 37.697 0 0 0-2.97-6.813c-.33-.62-.72-1.223-1.09-1.852-.37-.629-.8-1.249-1.25-1.86a31.54 31.54 0 0 0-3-3.633 34.81 34.81 0 0 0-3.48-3.172 39.43 39.43 0 0 0-3.61-2.498 35.035 35.035 0 0 0-11.59-4.43c-.58-.133-1.04-.178-1.35-.24l-.35-.062-.14.009Z" fill="#455A64"/><path d="m1502.06 510.132-.27.551a2.64 2.64 0 0 0 1.24 3.524l13.07 6.281c1.32.632 2.9.079 3.53-1.235l.26-.551a2.635 2.635 0 0 0-1.23-3.524l-13.08-6.281a2.637 2.637 0 0 0-3.52 1.235Z" fill="#F3F4F6"/><path d="M1519.9 518.697s.07-.151.14-.452a2.52 2.52 0 0 0-.15-1.667 2.592 2.592 0 0 0-1.13-1.23c-.75-.372-1.63-.771-2.57-1.232l-6.69-3.198-3.97-1.896a2.549 2.549 0 0 0-2.15 0c-.34.168-.64.41-.88.709-.23.321-.42.665-.57 1.028-.17.343-.25.721-.25 1.103s.08.759.25 1.103c.16.341.4.643.69.886.31.22.64.401.99.54l3.95 1.843 6.7 3.252 1.36.655c.38.223.8.387 1.23.488.35.053.71.037 1.05-.048.34-.085.66-.238.95-.449.35-.274.63-.63.82-1.036l.17-.319c.02-.037.04-.073.06-.106.01.038.01.077 0 .115l-.14.328c-.18.428-.46.805-.82 1.098a2.69 2.69 0 0 1-2.07.549 4.586 4.586 0 0 1-1.28-.478l-1.36-.647-6.72-3.198c-1.26-.612-2.59-1.241-3.97-1.896a5.162 5.162 0 0 1-1.03-.576 2.908 2.908 0 0 1-.77-.939 2.816 2.816 0 0 1-.28-1.21c0-.419.1-.832.28-1.209.16-.38.36-.74.6-1.072a2.7 2.7 0 0 1 1.52-.972c.6-.144 1.23-.079 1.79.183l3.96 1.905 6.7 3.252c.95.461 1.77.886 2.57 1.258.32.186.6.437.81.736.22.299.37.64.45 1.001.13.446.13.918 0 1.364-.06.157-.14.303-.24.434Zm507.59-206.296a7.936 7.936 0 0 1 2.66-.231 8.04 8.04 0 0 1 2.66.231c-.87.224-1.77.302-2.66.23a7.96 7.96 0 0 1-2.66-.23Zm-21.26 0c3.54-.308 7.1-.308 10.64 0-3.54.307-7.1.307-10.64 0Zm-21.25 0c3.54-.308 7.1-.308 10.64 0-3.54.308-7.1.308-10.64 0Zm-21.27 0c3.54-.308 7.1-.308 10.64 0-3.54.307-7.1.307-10.64 0Zm143.78 0a7.936 7.936 0 0 1 2.66-.231 8.04 8.04 0 0 1 2.66.231c-.87.224-1.77.302-2.66.23a7.96 7.96 0 0 1-2.66-.23Zm-21.26 0c3.54-.308 7.1-.308 10.64 0-3.54.307-7.1.307-10.64 0Zm-21.25 0c3.54-.308 7.1-.308 10.64 0-3.54.308-7.1.308-10.64 0Zm-21.27 0c3.54-.308 7.1-.308 10.64 0-3.54.307-7.1.307-10.64 0Zm143.78 0a7.936 7.936 0 0 1 2.66-.231 8.04 8.04 0 0 1 2.66.231c-.87.224-1.77.302-2.66.23a7.96 7.96 0 0 1-2.66-.23Zm-21.26 0c3.54-.308 7.1-.308 10.64 0-3.54.307-7.1.307-10.64 0Zm-21.25 0c3.54-.308 7.1-.308 10.64 0-3.54.308-7.1.308-10.64 0Zm-21.27 0c3.54-.308 7.1-.308 10.64 0-3.54.307-7.1.307-10.64 0Zm-181.25 0c3.54-.308 7.1-.308 10.64 0-3.54.308-7.1.308-10.64 0Zm-21.25-.47c1.78-.05 3.56-.003 5.32.142 1.78-.011 3.56.099 5.32.328-1.76.232-3.54.276-5.32.133-1.79.013-3.57-.189-5.32-.603Zm-18.79-8.594c.11-.097 1.58 1.772 3.95 3.482 2.37 1.71 4.58 2.596 4.52 2.738a4.48 4.48 0 0 1-1.49-.488 17.457 17.457 0 0 1-3.3-1.878c-1.5-.993-2.76-2.31-3.68-3.854Zm-5.81-20.077c.12 0 .27 2.366.63 5.263s.89 5.219.73 5.254a18.165 18.165 0 0 1-1.19-5.192 19.007 19.007 0 0 1-.17-5.325Zm-7.74-19.341a16.957 16.957 0 0 1 3.32 4.164 16.09 16.09 0 0 1 2.23 4.847c-.12.053-1.07-2.127-2.62-4.608-1.54-2.48-3.04-4.314-2.93-4.403Zm-17.45-11.669c1.75.327 3.45.925 5.02 1.772 1.64.717 3.15 1.679 4.5 2.853-.07.115-2.07-1.16-4.7-2.436-2.62-1.276-4.86-2.065-4.82-2.189Zm-21.03-.815a17.36 17.36 0 0 1 5.24-.983 30.56 30.56 0 0 1 3.78 0c.52-.02 1.04.031 1.55.15-.51.145-1.03.204-1.55.178-.97 0-2.29.062-3.75.177-2.9.168-5.25.611-5.27.478Zm-18.47 9.932a16.483 16.483 0 0 1 3.89-3.65 16.744 16.744 0 0 1 4.63-2.658c.06.124-2.01 1.285-4.35 3.021-2.35 1.737-4.07 3.385-4.17 3.287Zm-9.28 18.686a20.76 20.76 0 0 1 3.07-10.127c.13.062-.88 2.197-1.77 4.997s-1.16 5.148-1.3 5.13Zm-.49 21.229a31.47 31.47 0 0 1-.15-5.316c-.06-1.778.05-3.557.31-5.316.2 1.764.25 3.542.15 5.316.05 1.777-.05 3.556-.31 5.316Zm-.3 21.237a29.512 29.512 0 0 1-.16-5.316c-.05-1.778.05-3.556.31-5.316.21 1.764.26 3.543.16 5.316.04 1.778-.06 3.556-.31 5.316Zm-.31 21.237a30.46 30.46 0 0 1-.16-5.316 30.51 30.51 0 0 1 .32-5.316c.2 1.765.25 3.543.15 5.316.05 1.778-.05 3.557-.31 5.316Zm-5.87 20.024c-.11-.08 1.23-2.047 2.51-4.669 1.27-2.623 1.97-4.882 2.11-4.847a15.864 15.864 0 0 1-1.71 5.051 15.813 15.813 0 0 1-2.91 4.465Zm-16.66 12.679c-.05-.124 2.16-1.01 4.71-2.419 2.56-1.409 4.49-2.791 4.57-2.658a16.868 16.868 0 0 1-4.35 3.083 17.054 17.054 0 0 1-4.93 1.994Zm-20.97 2.445c1.77-.212 3.55-.286 5.32-.222h3.76c.52-.043 1.04-.01 1.56.098-.51.155-1.03.233-1.56.23l-1.69.124h-2.07c-1.77.092-3.55.015-5.32-.23Zm-20.08-6.096c.08-.115 2.09 1.143 4.75 2.357 2.65 1.214 4.9 1.967 4.86 2.1-1.76-.292-3.47-.86-5.06-1.683a17.46 17.46 0 0 1-4.55-2.774Zm-13.25-16.169c.13-.044 1.02 2.162 2.5 4.669 1.48 2.507 2.95 4.368 2.84 4.43a16.376 16.376 0 0 1-3.24-4.226 15.835 15.835 0 0 1-2.1-4.873Zm-2.02-20.998c.23 1.762.31 3.54.23 5.316.08 1.775 0 3.553-.23 5.316-.23-1.762-.31-3.541-.23-5.316-.08-1.776 0-3.555.23-5.316Zm0-21.238c.23 1.762.31 3.541.23 5.316.08 1.776 0 3.554-.23 5.316-.23-1.762-.31-3.54-.23-5.316-.08-1.775 0-3.554.23-5.316Zm0-21.246c.23 1.762.31 3.541.23 5.316.08 1.775 0 3.554-.23 5.316-.23-1.762-.31-3.541-.23-5.316-.08-1.775 0-3.554.23-5.316Zm0-21.238c.23 1.763.31 3.541.23 5.316.08 1.776 0 3.554-.23 5.316-.23-1.761-.31-3.54-.23-5.316-.08-1.775 0-3.554.23-5.316Zm0-21.246c.14.508.21 1.033.21 1.56.04.956.07 2.285.07 3.756.07 1.776 0 3.554-.23 5.316-.24-1.762-.31-3.54-.23-5.316 0-1.471 0-2.8.06-3.756-.03-.523.01-1.049.12-1.56Zm-8.07-19.244a16.468 16.468 0 0 1 3.39 4.12 16.024 16.024 0 0 1 2.26 4.829c-.13.053-1.09-2.126-2.66-4.581-1.57-2.454-3.09-4.279-2.99-4.368Zm-17.85-10.977c3.52.637 6.86 2.071 9.75 4.191-.07.115-2.13-1.081-4.81-2.224-2.67-1.143-4.98-1.834-4.94-1.967Zm-21.07-.691a17.52 17.52 0 0 1 5.26-.886c1.48-.08 2.81 0 3.78 0 .52-.021 1.04.036 1.55.168-.51.131-1.03.185-1.55.159-.97.054-2.3 0-3.76.125-2.94.186-5.28.567-5.28.434Zm-18.75 9.453a22.96 22.96 0 0 1 8.68-6.069c.06.124-2.04 1.232-4.44 2.906-2.39 1.675-4.11 3.261-4.24 3.163Zm-9.84 18.403c.05-1.79.41-3.558 1.05-5.228.5-1.717 1.29-3.335 2.34-4.784.12.062-.97 2.17-1.91 4.935-.93 2.764-1.34 5.094-1.48 5.077Zm-.36 21.219c-.23-1.762-.31-3.54-.23-5.316-.08-1.775 0-3.554.23-5.316.23 1.762.31 3.541.23 5.316.08 1.776 0 3.554-.23 5.316Zm0 21.247c-.23-1.762-.31-3.541-.23-5.316-.08-1.776 0-3.555.23-5.316.23 1.762.31 3.54.23 5.316.08 1.775 0 3.553-.23 5.316Zm-.54 21.21c-.13 0 .27-2.374.3-5.316a31.49 31.49 0 0 1 .24-5.316c.23 1.763.3 3.541.22 5.316.06 1.803-.2 3.602-.76 5.316Zm-10.41 18.084c-.09-.107 1.66-1.719 3.55-3.979 1.89-2.259 3.08-4.279 3.21-4.208a21.99 21.99 0 0 1-6.76 8.187Zm-18.99 8.922c0-.133 2.31-.559 5.1-1.418 2.8-.859 4.97-1.772 5.03-1.683a17.423 17.423 0 0 1-4.89 2.126 17.22 17.22 0 0 1-5.24.975Zm-21.24.735c1.76-.248 3.54-.349 5.32-.301 1.78-.107 3.56-.053 5.32.159-1.76.249-3.54.349-5.32.301-1.77.107-3.55.053-5.32-.159Zm-21.25.275c1.76-.254 3.54-.355 5.32-.302 1.77-.101 3.55-.05 5.32.151-1.76.26-3.54.364-5.32.31-1.78.096-3.56.043-5.32-.159Zm-21.26.301c1.77-.26 3.55-.364 5.32-.31a30.67 30.67 0 0 1 5.32.159c-1.76.254-3.54.355-5.32.302-1.77.101-3.55.05-5.32-.151Zm-21.25.31c1.76-.254 3.54-.355 5.32-.301a31.07 31.07 0 0 1 5.32.15c-1.76.261-3.54.365-5.32.31-1.77.102-3.55.049-5.32-.159Zm-16.01.204a8.198 8.198 0 0 1 2.66-.266 7.97 7.97 0 0 1 2.66.195c-.87.237-1.77.327-2.66.266-.89.094-1.79.028-2.66-.195Zm-16.03-1.09a32.02 32.02 0 0 1 5.32-.301c1.78-.107 3.56-.053 5.32.159-1.76.249-3.54.349-5.32.301-1.77.107-3.55.053-5.32-.159Zm-21.25.275c1.76-.254 3.54-.355 5.32-.302 1.77-.101 3.55-.05 5.32.151-1.76.26-3.54.364-5.32.31-1.77.096-3.55.043-5.32-.159Zm-21.25.301c1.76-.26 3.54-.364 5.32-.31 1.77-.101 3.55-.048 5.32.159-1.76.254-3.54.355-5.32.302-1.78.101-3.56.05-5.32-.151Zm-21.26.31c1.76-.254 3.54-.355 5.32-.301a31.07 31.07 0 0 1 5.32.15c-1.76.261-3.54.365-5.32.31-1.77.102-3.55.049-5.32-.159Z" fill="#263238"/><path d="M1712.64 205.859c0-.972-.23-1.931-.65-2.803a6.355 6.355 0 0 0-1.83-2.225 6.294 6.294 0 0 0-2.63-1.183 6.331 6.331 0 0 0-2.88.103c-.93.255-1.8.723-2.53 1.368a6.222 6.222 0 0 0-1.66 2.349 6.287 6.287 0 0 0-.45 2.843c.07.97.36 1.91.86 2.747.25.407.55.7.89 1.134l3.69 4.873a1.174 1.174 0 0 0 .91.449 1.15 1.15 0 0 0 .91-.449l3.61-4.776c.32-.389.61-.794.89-1.213.57-.975.87-2.086.87-3.217Zm-6.3 2.756a2.8 2.8 0 0 1-1.55-.469c-.45-.306-.81-.74-1.02-1.249a2.764 2.764 0 0 1-.16-1.607c.11-.54.37-1.035.76-1.424a2.8 2.8 0 0 1 3.04-.604c.5.211.94.568 1.25 1.025.3.458.46.996.46 1.546 0 .738-.29 1.445-.81 1.967a2.78 2.78 0 0 1-1.97.815Zm245.98 90.77c0-.971-.22-1.929-.65-2.8a6.354 6.354 0 0 0-1.83-2.222 6.322 6.322 0 0 0-8.03.283 6.333 6.333 0 0 0-1.67 2.344 6.406 6.406 0 0 0-.45 2.839c.07.969.36 1.908.85 2.746.24.408.55.7.89 1.125l3.67 4.856c.11.133.24.24.4.314a1.128 1.128 0 0 0 .98 0c.15-.074.29-.181.4-.314l3.6-4.776c.32-.389.62-.795.89-1.214.6-.956.92-2.055.95-3.181Zm-6.32 2.747c-.55.002-1.09-.16-1.55-.464a2.768 2.768 0 0 1-1.19-2.855c.1-.54.37-1.037.76-1.427a2.773 2.773 0 0 1 3.03-.607c.51.21.95.567 1.25 1.025.31.457.47.995.47 1.546a2.773 2.773 0 0 1-.81 1.967 2.77 2.77 0 0 1-1.96.815Zm-82.52-65.298a6.204 6.204 0 0 0-.64-2.806 6.361 6.361 0 0 0-1.83-2.227 6.317 6.317 0 0 0-5.5-1.086c-.94.255-1.81.723-2.54 1.368a6.206 6.206 0 0 0-1.66 2.349 6.289 6.289 0 0 0-.45 2.844c.07.97.36 1.91.86 2.748.24.407.54.699.88 1.134l3.68 4.855c.1.139.24.253.4.33a1.14 1.14 0 0 0 1.01 0c.16-.077.3-.191.4-.33l3.61-4.776c.32-.389.61-.794.89-1.213.58-.965.89-2.066.89-3.19Zm-6.31 2.747c-.55.001-1.09-.16-1.55-.465a2.768 2.768 0 0 1-1.19-2.855c.11-.54.37-1.037.76-1.427a2.801 2.801 0 0 1 3.04-.607c.5.211.94.567 1.25 1.025.3.458.47.996.47 1.546 0 .737-.3 1.443-.82 1.965-.52.521-1.22.815-1.96.818Zm-254.23 81.334a8.03 8.03 0 0 0-.79-3.475 7.888 7.888 0 0 0-2.26-2.76 7.8 7.8 0 0 0-3.25-1.472 7.789 7.789 0 0 0-3.56.125 7.76 7.76 0 0 0-3.14 1.694c-.9.799-1.6 1.796-2.06 2.912a7.706 7.706 0 0 0-.54 3.521 7.848 7.848 0 0 0 1.07 3.398c.33.481.68.946 1.06 1.391l4.53 6.007c.13.176.3.319.49.417.2.099.42.15.64.15.21 0 .43-.051.63-.15.19-.098.36-.241.49-.417l4.43-5.901c.41-.48.79-.982 1.14-1.506a7.797 7.797 0 0 0 1.12-3.934Zm-7.82 3.403c-.68 0-1.35-.202-1.91-.58a3.412 3.412 0 0 1-1.27-1.543 3.462 3.462 0 0 1-.2-1.986c.14-.667.46-1.279.94-1.76a3.453 3.453 0 0 1 5.3.521 3.5 3.5 0 0 1 .58 1.91c0 .912-.37 1.786-1.01 2.431a3.451 3.451 0 0 1-2.43 1.007Z" fill="#15803D"/><path d="M1744.47 296.603c-4.86-.261-9.69.747-14.04 2.924-4.64 2.162-9.02 5.361-11.32 9.923-2.31 4.563-2.05 10.632 1.59 14.247-6.99 1.852-12.25 8.063-14.45 14.938-2.2 6.876-1.73 14.354-.34 21.442.67 3.349 1.85 7.087 4.94 8.523 1.99.886 4.44.709 6.3 1.852 1.86 1.143 2.71 3.233 3.89 5.014a15.097 15.097 0 0 0 9.93 6.526 15.097 15.097 0 0 0 11.58-2.698l14.33-76.09c-2.81-3.934-7.6-6.193-12.41-6.601Z" fill="#455A64"/><path d="M1754.1 304.799c-.3.421-.63.818-.99 1.187-.66.744-1.63 1.772-2.85 3.101a61.21 61.21 0 0 1-10.5 9.117 30.33 30.33 0 0 1-12.95 4.979c-1.4.175-2.82.205-4.23.089-.49 0-.88-.106-1.14-.142a1.3 1.3 0 0 1-.39-.088s.56 0 1.54.053c1.4.046 2.8-.031 4.18-.231a31.477 31.477 0 0 0 12.73-5.041 68.31 68.31 0 0 0 10.53-8.913l2.95-3.004c.34-.398.71-.769 1.12-1.107Z" fill="#263238"/><path d="M1726.17 327.596c-.06 0-.29-.355-.48-1.028a6.876 6.876 0 0 1-.14-2.747 6.8 6.8 0 0 1 .98-2.569c.39-.594.73-.886.77-.886a13.13 13.13 0 0 0-1.28 3.482c-.13 1.25-.08 2.512.15 3.748Zm4.82 2.826c.08.131.15.27.19.416.12.275.3.683.48 1.232.55 1.523 1.01 3.08 1.36 4.66a34.65 34.65 0 0 1 0 15.948 26.652 26.652 0 0 1-8.25 13.547 21.221 21.221 0 0 1-4.02 2.747c-.5.283-.89.434-1.19.567-.14.066-.28.12-.43.159.49-.323 1.01-.619 1.54-.886a23.312 23.312 0 0 0 3.88-2.826 27.286 27.286 0 0 0 8.03-13.423 35.75 35.75 0 0 0 .15-15.744c-.41-2.002-.89-3.544-1.2-4.678a13.02 13.02 0 0 1-.54-1.719Z" fill="#263238"/><path d="M1733.45 342.41a5.224 5.224 0 0 1-1.08-.24c-.69-.186-1.69-.434-2.93-.726a70.532 70.532 0 0 0-19.73-1.772c-1.27.062-2.3.133-3.01.195-.36.043-.74.043-1.1 0 .35-.115.72-.19 1.09-.222.7-.115 1.72-.23 3-.336a59.3 59.3 0 0 1 19.83 1.772c1.24.327 2.22.629 2.9.886.36.103.71.251 1.03.443Z" fill="#263238"/><path d="M1721.67 323.086c4.82 3.101 11.33 2.747 16.44.133 5.11-2.614 8.87-7.46 10.84-12.838-6.67 7.708-16.59 13.299-27.28 12.705Zm-2.58 46.595c2-.141 3.95-.722 5.71-1.702a13.576 13.576 0 0 0 4.43-3.969 24.556 24.556 0 0 0 3.71-11.004 51.968 51.968 0 0 1-4.86 9.56 23.421 23.421 0 0 1-3.82 3.837 25.495 25.495 0 0 1-5.18 3.278" fill="#111827" opacity=".3"/><path d="M1724.07 340.124c.33.732.54 1.508.63 2.303.15.727.32 1.569.58 2.508.16.532.16 1.098 0 1.63a1.493 1.493 0 0 1-1.43 1.09 1.681 1.681 0 0 1-.86-.388 1.658 1.658 0 0 1-.5-.791 2.976 2.976 0 0 1 0-1.621c.25-.966.53-1.772.75-2.49.2-.77.47-1.521.81-2.241-.09.794-.26 1.577-.5 2.339-.19.753-.42 1.586-.65 2.481-.12.455-.12.935 0 1.391.07.223.19.424.36.581.17.156.38.262.61.305.22-.007.44-.086.62-.227.17-.141.3-.335.35-.553.12-.453.12-.929 0-1.382a21.99 21.99 0 0 1-.48-2.543c-.14-1.489-.29-2.375-.29-2.392Zm20.99-28.476c-.98-.49-1.93-1.041-2.84-1.648a64.45 64.45 0 0 0-6.94-3.757 31.51 31.51 0 0 0-7.47-2.392c-1.99-.363-3.25-.372-3.25-.452.29-.057.59-.075.89-.053.8.004 1.6.063 2.4.177 2.64.398 5.21 1.17 7.63 2.295a49.357 49.357 0 0 1 6.92 3.907c.84.558 1.52 1.028 1.98 1.365.25.157.48.344.68.558Z" fill="#263238"/><path d="M1743.73 311.054c.05 0 .1.301-.15.682a1.56 1.56 0 0 1-.69.564 1.53 1.53 0 0 1-.88.092l-.29-.053.13-.275c.26-.513.71-.905 1.25-1.09.41-.133.68-.079.68 0 .01.08-.23.142-.55.328-.41.228-.75.573-.96.993l-.15-.328a1.38 1.38 0 0 0 1.22-.408c.24-.275.32-.514.39-.505Z" fill="#263238"/><path d="M1818.63 309.353s-3.55-4.66-3.55-6.548l1.47-10.968s.64-1.108 1.63.726c.89 1.684.39 4.289.39 4.289l.63 2.578 1.33-1.949 1.51-7.328s.96-5.316 1.77-4.74c.82.576 1.07 2.091.65 4.377-.41 2.286-.95 5.183-.95 5.183s-.1.886.75-.611c.85-1.497 1.77-7.912 2.12-8.772.34-.859.45-3.145 1.77-3.021 1.32.124.55 3.039.55 3.039l-1.26 9.445s1.22-3.801 1.46-4.43c.23-.629.59-2.72 1.03-3.854.45-1.134 1.1-1.719 1.68-1.648.27.016.53.137.72.338.19.201.3.467.3.743l-1.93 8.08s-1.08 3.677-1.01 3.916c.07.239 1.43-1.533 1.43-1.533l1.05-2.658s.88-3.712 1.86-3.818c.97-.107 1.03.647 1.03.647l-1.64 6.786-3.01 7.744-2.84 5.821s-3.98-.62-4.13-.416c-.15.203-4.81-1.418-4.81-1.418Z" fill="#FFBE9D"/><path d="M1825.67 306.084c-.32-.545-.59-1.114-.82-1.701a5.892 5.892 0 0 0-2.94-3.137 3.187 3.187 0 0 0-2.09-.159l-.23.062-.05-.248c-.26-1.126-.61-2.162-.77-2.871a2.792 2.792 0 0 1-.19-1.178c.19.347.34.712.45 1.089.36.949.68 1.916.95 2.898l-.29-.187a3.577 3.577 0 0 1 2.4.142c.81.342 1.53.896 2.06 1.604.42.569.76 1.188 1.01 1.843.28.58.45 1.204.51 1.843Z" fill="#EB996E"/><path d="m1787.91 304.046 19.64 29.335 8.87-25.57 12.08 2.968s-4.93 34.377-6.81 37.788c-1.88 3.411-7.78 8.338-15.08 7.345-7.29-.992-21.83-20.546-21.83-20.546l3.13-31.32Z" fill="#111827"/><path d="M1809.97 345.156c.44-4.288-.49-8.607-2.66-12.333.47.443.84.965 1.12 1.542a14.857 14.857 0 0 1 1.65 4.315c.33 1.511.44 3.065.3 4.607a5.239 5.239 0 0 1-.41 1.869Z" fill="#263238"/><path d="M1789.39 341.603c.65-.339 1.2-.827 1.61-1.421.42-.595.69-1.28.79-1.999.19-1.436.14-2.893-.13-4.314-.79-5.786-1.9-11.811-2.66-17.596l.31 24.728m20.87 2.729c.39-.072.75-.239 1.06-.486.31-.248.56-.568.71-.932a4.46 4.46 0 0 0 .31-2.339 8.927 8.927 0 0 0-1.5-4.169 8.919 8.919 0 0 0-3.34-2.919 19.775 19.775 0 0 1 2.73 10.827" fill="#111827" opacity=".3"/><path d="m1810.49 495.174 11.22 25.534 32.1-13.502c-1.48-2.977-21.96-1.462-21.96-1.462l-7.1-17.339-14.26 6.769Z" fill="#111827"/><path d="M1822.62 507.861a1.424 1.424 0 0 0-.28 1.879c.22.275.53.458.88.51.34.053.7-.028.98-.227.29-.238.47-.573.52-.94.05-.366-.03-.738-.24-1.045a1.422 1.422 0 0 0-1.96-.088m-.81 12.758-1.01-2.658 31.15-11.961s1.69 0 1.96 1.09l-32.1 13.529Z" fill="#fff" opacity=".6"/><path d="M1832.45 505.823c.06.16-.69.568-1.25 1.392-.56.823-.69 1.656-.89 1.656-.19 0-.32-1.001.38-1.993.71-.992 1.73-1.205 1.76-1.055Zm4.82-.31c.1.133-.47.683-.72 1.569-.26.886-.11 1.656-.27 1.71-.16.053-.64-.78-.3-1.879.34-1.098 1.22-1.55 1.29-1.4Zm3.47 3.093c-.12.088-.67-.603-.63-1.622.05-1.019.63-1.674.75-1.577.11.098-.14.753-.16 1.595-.03.842.19 1.524.04 1.604Zm-10.35-6.964c0 .168-.81.257-1.67.691-.86.434-1.44 1.001-1.58.886-.14-.116.29-.94 1.31-1.436s1.96-.292 1.94-.141Z" fill="#263238"/><path d="m1698.01 520.221-1.38-13.636 11.39-14.326-13.96-8.966-.37.549-7.1 10.703-9.21 7.265 14.63 24.019 14.25-.957s-1.28-3.322-8.25-4.651Z" fill="#111827"/><path d="m1677.36 501.81 14.63 24.019 14.25-.957-1.74-2.028-11.64.141-13.54-22.717-1.96 1.542Z" fill="#fff" opacity=".6"/><path d="M1697.47 513.966c-.09.15-.95-.257-2.05-.151-1.09.107-1.87.612-1.99.479-.12-.133.6-1.002 1.95-1.108 1.35-.106 2.24.665 2.09.78Zm-.43-3.376c-.14.115-.83-.682-1.98-.824-1.14-.142-2.03.434-2.13.293-.09-.142.1-.311.48-.559a2.672 2.672 0 0 1 3.31.435c.3.336.38.611.32.655Zm-.21-4.359c-.15.097-.69-.7-1.7-.975-1.01-.274-1.89.107-1.97-.044-.08-.15.13-.283.51-.452a2.478 2.478 0 0 1 2.97.824c.24.346.27.612.19.647Zm3.6-3.624c-.17.071-.62-.717-1.55-1.222-.92-.505-1.77-.541-1.83-.718-.06-.177 1.03-.478 2.14.168 1.12.647 1.4 1.737 1.24 1.772Zm1.65-3.048c-.07.054-.57-.487-1.33-1.408-.44-.532-.89-1.072-1.33-1.631-.3-.325-.55-.696-.73-1.098-.06-.14-.1-.291-.1-.443 0-.153.04-.304.1-.443a.896.896 0 0 1 .33-.38.906.906 0 0 1 .49-.134c.51.063.99.272 1.39.602a4.775 4.775 0 0 1 1.81 2.933c.19.656.12 1.361-.19 1.967-.05-.627-.13-1.251-.24-1.869a4.764 4.764 0 0 0-.89-1.772 4.372 4.372 0 0 0-.83-.789 2.38 2.38 0 0 0-1.02-.47.29.29 0 0 0-.16.035.384.384 0 0 0-.11.116.678.678 0 0 0 0 .399c.17.343.38.665.62.957.41.584.82 1.151 1.22 1.71.42.514.75 1.095.97 1.718Zm.55.39c-.08 0-.07-.753.64-1.657a3.584 3.584 0 0 1 1.91-1.228 3.56 3.56 0 0 1 2.27.183c.08.056.14.129.18.214.05.084.07.178.08.273a.977.977 0 0 1-.15.47c-.13.181-.29.342-.47.478a6.385 6.385 0 0 1-2.82 1.294c-.57.18-1.19.18-1.77 0 0-.106.67-.098 1.68-.39a6.936 6.936 0 0 0 2.51-1.329c.13-.099.25-.215.35-.345.05-.133 0-.098 0-.133a1.223 1.223 0 0 0-.42-.124 3.643 3.643 0 0 0-.54-.045c-.34-.008-.68.04-1.01.142-.56.164-1.07.469-1.48.886-.7.673-.87 1.347-.96 1.311Z" fill="#263238"/><path d="M1688.7 500.623c.03.335-.05.669-.22.96-.17.291-.42.525-.72.673-.3.147-.64.202-.98.156a1.68 1.68 0 0 1-.89-.412 1.752 1.752 0 0 1-.52-.842 1.74 1.74 0 0 1 .05-.985 1.682 1.682 0 0 1 1.51-1.127c.44-.022.88.131 1.21.426.33.295.53.708.56 1.151Z" fill="#fff" opacity=".6"/><path d="M1764.03 258.204a29.407 29.407 0 0 1 3.12-8.355 12.212 12.212 0 0 1 6.75-5.573c2.98-.778 6.11-.701 9.05.222 2.07.708 3.97 1.867 5.54 3.393 2.66 2.295 4.02 5.874 5.13 9.197" fill="#111827"/><path d="M1795.5 257.318a12.736 12.736 0 0 0-4.84-8.107 16.837 16.837 0 0 0-8.95-3.03c-4.98-.381-10.79.975-14.19 4.607-3.4 3.633-5.4 8.577-4.97 13.007.18 1.993 2.12 7.389 3.65 8.692l28.5-.736c1.7-2.711 1.32-11.252.8-14.433Z" fill="#111827"/><path d="M1795.01 263.281a15.71 15.71 0 0 0-5-10.314 15.73 15.73 0 0 0-10.67-4.19h-.82c-8.79.496-13.3 8.231-12.54 17.003l1.54 40.525h20.15l-.17-13.192s8.46-1.294 8.57-9.746c.05-4.076-.51-12.484-1.06-20.086Z" fill="#FFBE9D"/><path d="M1787.56 293.104a20.539 20.539 0 0 1-11.07-3.261s2.59 6.078 11.02 5.316l.05-2.055Z" fill="#EB996E"/><path d="M1791.67 269.926a1.21 1.21 0 0 1-1.17 1.214 1.17 1.17 0 0 1-.85-.283 1.32 1.32 0 0 1-.28-.364c-.06-.139-.1-.289-.11-.443 0-.314.12-.617.34-.843.22-.226.52-.359.83-.371a1.126 1.126 0 0 1 .85.283c.12.102.21.226.28.364.07.139.11.289.11.443Zm1.47-2.516c-.15.159-1.07-.523-2.36-.523-1.3 0-2.25.647-2.4.487-.14-.159.08-.345.5-.646.56-.39 1.23-.597 1.91-.594.68.001 1.34.215 1.88.611.4.31.56.594.47.665Zm-13.96 3.127c0 .314-.12.616-.33.843-.22.226-.52.36-.83.371a1.172 1.172 0 0 1-1.13-.648 1.33 1.33 0 0 1-.11-.442 1.17 1.17 0 0 1 .33-.848c.22-.228.51-.363.83-.374a1.18 1.18 0 0 1 1.13.654c.06.139.1.29.11.444Zm1.17-2.48c-.14.159-1.06-.523-2.36-.514-1.29.009-2.25.646-2.39.487-.14-.16.09-.354.5-.656a3.25 3.25 0 0 1 1.92-.584c.67-.004 1.33.207 1.88.602.39.31.53.594.45.665Zm4.72 9.205a8.674 8.674 0 0 1 2.11-.381c.33 0 .64-.097.7-.319.03-.343-.05-.686-.22-.983l-.98-2.525c-1.36-3.598-2.33-6.557-2.19-6.61.14-.053 1.37 2.817 2.71 6.415.33.886.64 1.772.94 2.542.21.402.27.862.17 1.303a.788.788 0 0 1-.22.304.73.73 0 0 1-.33.174c-.18.054-.37.08-.56.08-.71.09-1.42.09-2.13 0Zm-3.83.886c.21 0 .21 1.4 1.42 2.401 1.2 1.001 2.7.886 2.71 1.046.01.159-.33.274-.97.292a3.558 3.558 0 0 1-2.27-.797c-.61-.502-1-1.224-1.09-2.012-.05-.584.1-.939.2-.93Zm-.22-13.033c-.12.354-1.42.204-2.94.408-1.52.203-2.75.62-2.96.31-.09-.151.12-.488.61-.833a5.181 5.181 0 0 1 4.5-.541c.59.213.85.488.79.656Zm12.43-1.453c-.24.319-1.37.124-2.66.239-1.28.115-2.39.443-2.66.169-.12-.142 0-.452.48-.78a4.37 4.37 0 0 1 2.13-.7 4.25 4.25 0 0 1 2.2.372c.44.257.62.54.51.7Z" fill="#263238"/><path d="M1767.19 272.035c-.14-.062-5.8-1.728-5.63 4.049.17 5.776 5.94 4.43 5.95 4.244.01-.186-.32-8.293-.32-8.293Z" fill="#FFBE9D"/><path d="M1766.19 278.192s-.11.071-.27.16c-.24.097-.51.097-.75 0a2.537 2.537 0 0 1-.91-.933 2.532 2.532 0 0 1-.31-1.264c-.03-.496.05-.993.24-1.453.05-.182.14-.349.27-.486.12-.138.28-.242.46-.303a.518.518 0 0 1 .35.02c.11.047.2.131.26.237.07.159.04.275.07.283.04.009.12-.097.07-.336a.702.702 0 0 0-.23-.355.78.78 0 0 0-.57-.133c-.24.055-.45.169-.63.332s-.31.369-.39.599a3.202 3.202 0 0 0-.3 1.612c-.02.516.12 1.025.4 1.462.27.437.67.782 1.14.993a1.066 1.066 0 0 0 .89-.178c.2-.115.23-.248.21-.257Z" fill="#EB996E"/><path d="m1770.99 254.864 2.85-2.463 9.08 1.391 6.39-1.639 1.67 1.834c-.72.966.81-3.154-.65-4.253-3.13-2.374-5.77-2.286-9.75-2.357-3.98-.071-11.93 4.714-14.77 7.425-2.28 2.171-2.26 4.04-2.26 4.04-.37 3.128 1.38 6.672 2.07 9.746.37 1.577 1.06 6.362 1.06 6.362 1.33 0 1.77-1.055 1.62-2.366l-.25-5.148a7.804 7.804 0 0 0 2.72-4.142 7.819 7.819 0 0 0-.34-4.939c-.3-.461-1.04-2.605.56-3.491Z" fill="#263238"/><path d="M1769.81 256.246a4.11 4.11 0 0 1 1.59-1.98 4.12 4.12 0 0 1 2.44-.678 7.08 7.08 0 0 1 4.59 2.1 6.3 6.3 0 0 0 1.04.886c.19.117.41.185.63.198.22.012.45-.032.65-.127.12-.062.25-.16.38-.124.09.037.17.106.21.195.33.531.79.968 1.34 1.267.28.142.59.193.9.147.31-.046.59-.187.81-.404a2.233 2.233 0 0 0 2.4.394c.39-.174.73-.459.96-.82.24-.361.36-.783.36-1.213.39.08.79.048 1.17-.093.37-.141.69-.386.93-.705.42-.475.73-1.038.91-1.648.17-.61.21-1.251.11-1.877a4.266 4.266 0 0 0-.7-1.745 4.372 4.372 0 0 0-1.38-1.277 7.804 7.804 0 0 0-2.8-.807 35.949 35.949 0 0 0-4.57-.345 5.825 5.825 0 0 0-2 .239c-.88.319-1.61 1.037-2.53 1.152a4.461 4.461 0 0 1-1.78-.284 6.905 6.905 0 0 0-2.54-.372c-1.7.151-3.1 1.365-4.21 2.658a6.977 6.977 0 0 0-1.78 3.066c-.14.581-.12 1.192.08 1.757s.57 1.057 1.05 1.415a1.496 1.496 0 0 0 1.35.177c.11-.045.2-.11.29-.193.08-.082.14-.18.19-.288a.792.792 0 0 0 .06-.34.978.978 0 0 0-.06-.34" fill="#263238"/><path d="M1765.81 269.465c-.62-4.43.12-9.746 3.34-13.529 3.22-3.783 8.91-6.096 12.68-5.378 2.94.558 9.32.789 11.65 6.929l-.33-5.068s-2.83-5.759-11.21-5.582c-8.38.177-12.03 1.152-16.09 6.078a11.397 11.397 0 0 0-2.68 5.312c-.41 1.978-.28 4.028.37 5.94a29.273 29.273 0 0 0 2.27 5.298Z" fill="#111827"/><path d="M1788.89 248.086c-.11-.024-.21-.06-.31-.106-.2-.071-.48-.195-.89-.319a20.632 20.632 0 0 0-3.28-.886 23.453 23.453 0 0 0-5-.293c-2.05.096-4.07.499-5.99 1.197a19.3 19.3 0 0 0-5.32 3.056c-.7.565-1.34 1.194-1.91 1.879-.28.31-.51.637-.75.948-.24.31-.45.62-.62.93-.6.963-1.1 1.981-1.49 3.039-.15.363-.24.664-.31.886-.03.105-.07.206-.13.301l.08-.31c.07-.204.14-.505.29-.886.37-1.075.85-2.108 1.43-3.083.18-.31.4-.62.61-.948.22-.328.47-.656.76-.975.58-.691 1.22-1.329 1.92-1.905a19.24 19.24 0 0 1 5.32-3.101 20.061 20.061 0 0 1 6.06-1.187 21.88 21.88 0 0 1 5.03.337c1.12.199 2.22.496 3.28.886.39.141.66.283.89.363l.33.177Z" fill="#263238"/><path d="M1766.37 262.049a.914.914 0 0 1-.26-.115c-.22-.136-.43-.29-.63-.46a5.168 5.168 0 0 1-1.45-2.102 5.004 5.004 0 0 1-.27-2.541c.04-.256.1-.508.19-.753.06-.177.1-.266.11-.257.01.009-.1.39-.16 1.028-.08.831.03 1.669.31 2.454.3.782.76 1.487 1.37 2.064.46.443.81.656.79.682Zm2.44-5.067a2.144 2.144 0 0 1-.72-.523 4.571 4.571 0 0 1-1.16-1.843 4.115 4.115 0 0 1-.17-2.171c.03-.313.13-.615.29-.886 0 0-.08.337-.16.886-.08.702-.01 1.413.22 2.082.24.657.6 1.26 1.08 1.772.36.461.64.656.62.683Zm3.97-3.695a1.974 1.974 0 0 1-.61-.425 4.932 4.932 0 0 1-1.12-1.427 4.381 4.381 0 0 1-.47-1.772c-.03-.25-.01-.503.06-.744.05.83.24 1.644.59 2.401.42.724.94 1.386 1.55 1.967Zm3.82-6.539c.16.161.28.35.36.558.25.473.44.973.58 1.489.13.519.21 1.051.23 1.586.02.223 0 .447-.05.664-.07 0-.07-1.01-.38-2.197s-.79-2.073-.74-2.1Zm7.36-.142c.14.176.24.378.29.594a4.268 4.268 0 0 1-.18 3.137c-.07.211-.2.401-.36.558.29-.673.48-1.388.55-2.118a7.257 7.257 0 0 0-.3-2.171Zm4.72 1.329c.17.175.3.379.39.603.25.535.39 1.113.4 1.701.02.585-.08 1.168-.31 1.71-.07.232-.19.446-.35.629.29-.746.45-1.538.46-2.339a6.587 6.587 0 0 0-.59-2.304Zm4.55 3.979c.08.178.11.373.1.567.03.947-.28 1.874-.89 2.604-.24.275-.42.399-.43.381.38-.514.7-1.073.95-1.665.17-.615.26-1.249.27-1.887Zm2.3 4.952c0 .493-.16.972-.46 1.365-.24.428-.62.762-1.07.948.31-.336.61-.691.88-1.063.45-.594.59-1.259.65-1.25Zm.31 5.573c.04 0 0 .346-.31.612-.31.265-.64.292-.64.239 0-.053.26-.16.51-.39s.38-.478.44-.461Zm-30.09 4.599a4.327 4.327 0 0 1-1.84-.71c-.55-.375-1-.872-1.33-1.452a7.557 7.557 0 0 0 3.17 2.162Zm.48 2.791c0 .044-.28.336-.79.363-.52.026-.89-.222-.84-.266.06-.044.38.097.83.062.45-.035.78-.204.8-.159Z" fill="#263238"/><path d="M1788.2 247.891a16.202 16.202 0 0 0-12.42-2.259 16.637 16.637 0 0 0-5.89 2.832 16.597 16.597 0 0 0-4.35 4.885s5.23-6.601 12.71-6.831c7.48-.23 9.95 1.373 9.95 1.373Z" fill="#111827" opacity=".3"/><path d="M1782.42 270.139a9.073 9.073 0 0 0-.17-1.037 4.286 4.286 0 0 0-1.57-2.321 4.173 4.173 0 0 0-1.78-.78 4.244 4.244 0 0 0-2.21.186c-.78.287-1.46.799-1.95 1.471-.53.72-.82 1.591-.82 2.485 0 .894.29 1.765.82 2.485a4.216 4.216 0 0 0 1.95 1.471 4.22 4.22 0 0 0 2.07.209 4.27 4.27 0 0 0 1.93-.803 4.347 4.347 0 0 0 1.57-2.321c.08-.344.13-.694.16-1.045.03.357 0 .716-.09 1.063a4.264 4.264 0 0 1-1.55 2.419c-.55.412-1.18.694-1.85.824-.77.151-1.57.09-2.3-.178-.4-.139-.78-.339-1.12-.593a4.018 4.018 0 0 1-.93-.886 4.354 4.354 0 0 1-.86-2.601c0-.936.3-1.848.86-2.6.26-.357.57-.671.93-.93.34-.255.72-.455 1.12-.594a4.35 4.35 0 0 1 4.15.647 4.26 4.26 0 0 1 1.55 2.419c.08.33.11.67.09 1.01Zm12.87-.505s0-.381-.18-1.037a4.286 4.286 0 0 0-1.57-2.321 4.139 4.139 0 0 0-1.77-.78 4.282 4.282 0 0 0-2.22.186 4.252 4.252 0 0 0-2.31 2.065 4.28 4.28 0 0 0-.45 1.891c0 .657.16 1.304.45 1.891a4.235 4.235 0 0 0 2.31 2.065c.67.241 1.38.313 2.08.209.7-.103 1.36-.379 1.92-.803a4.293 4.293 0 0 0 1.57-2.321c.17-.656.14-1.045.18-1.045.02.357-.01.715-.1 1.063-.23.96-.78 1.813-1.56 2.419-.54.412-1.17.694-1.84.824-.77.151-1.57.09-2.31-.178-.4-.141-.78-.341-1.12-.593-.46-.34-.86-.769-1.15-1.262-.3-.493-.5-1.04-.59-1.61-.09-.57-.06-1.151.08-1.711a4.39 4.39 0 0 1 2.78-3.072 4.323 4.323 0 0 1 2.16-.212c.73.113 1.41.408 1.99.858a4.345 4.345 0 0 1 1.56 2.419c.08.346.11.701.09 1.055Z" fill="#455A64"/><path d="M1786.82 267.995s-.25-.169-.67-.373a3.563 3.563 0 0 0-3.55.204c-.41.257-.61.479-.63.452.14-.231.33-.426.55-.567a3.331 3.331 0 0 1 1.78-.656c.65-.034 1.29.119 1.86.443.26.111.48.281.66.497Zm-12.72 1.346c0 .053-1.71.638-3.87 1.312-2.15.673-3.91 1.16-3.92 1.116 0-.044 1.72-.638 3.86-1.311 2.15-.674 3.91-1.17 3.93-1.117Z" fill="#455A64"/><path d="M1777.96 273.709c-.26.02-.52-.013-.76-.097a3.93 3.93 0 0 1-1.58-.886 3.987 3.987 0 0 1-1.03-1.524 1.597 1.597 0 0 1-.15-.744c.1.225.2.455.28.691a4.54 4.54 0 0 0 2.55 2.321c.23.068.46.147.69.239Zm10.55-1.409s-.28-.053-.58-.381a3.168 3.168 0 0 1-.7-1.515 4.287 4.287 0 0 1 0-1.674c.03-.231.13-.448.28-.629 0 0-.08.248-.15.664a5.39 5.39 0 0 0 0 1.604c.09.527.3 1.027.62 1.462.16.17.34.327.53.469Z" fill="#fff"/><path d="M1766.31 280.558c.04.348-.05.699-.25.983a1.359 1.359 0 0 1-.94.638c-.24.032-.49-.002-.71-.099a1.339 1.339 0 0 1-.55-.45 1.71 1.71 0 0 1-.29-.643 1.67 1.67 0 0 1-.01-.704c.09-.38.32-.713.64-.93a1.262 1.262 0 0 1 .99-.239c-.32.053-.62.174-.89.354-.28.219-.48.534-.55.886-.06.42.04.848.29 1.196.12.169.28.302.47.386.19.084.4.116.61.093.17-.024.33-.084.47-.175.15-.092.27-.214.36-.357.18-.287.3-.606.36-.939ZM1754.37 410.8c1.07 0 45.37 46.072 45.37 49.27 0 3.199 6.58 35.653 9.75 40.65 3.18 4.997 5.09 3.828 5.09 3.828l14.72-6.858s-8.15-50.502-9.95-56.181c-1.79-5.68-35.57-50.343-35.57-50.343l-31.92 6.069 2.51 13.565Z" fill="#263238"/><path d="m1738.01 387.764-9.2 56.793s-28.79 28.803-30.58 32.011c0 0-3.21-1.072-4.29 1.772a60.396 60.396 0 0 0-1.99 8.178l14.29 11.996s37.77-31.285 41.34-35.927c3.57-4.643 18.54-35.254 21.4-43.104 2.87-7.85 6.21-25.26 6.21-25.26l-37.18-6.459Z" fill="#263238"/><path d="M1807.16 449.784a6.24 6.24 0 0 1-.64 1.772 24.261 24.261 0 0 1-2.27 3.952 21.192 21.192 0 0 1-2.97 3.464c-.44.462-.96.841-1.54 1.116.41-.476.84-.926 1.31-1.347a31.358 31.358 0 0 0 2.82-3.544c2.04-2.835 3.16-5.493 3.29-5.413Zm-73.19-1.294a4.947 4.947 0 0 1-3.03-1.311 5.061 5.061 0 0 1-1.92-2.658c.69.821 1.43 1.599 2.21 2.33.88.603 1.79 1.15 2.74 1.639Zm-29.71 35.494a10.148 10.148 0 0 1-5.44-7.558 26.1 26.1 0 0 0 2.18 4.164c.98 1.233 2.07 2.37 3.26 3.394Zm45.63-87.821a2.34 2.34 0 0 1-.18.638c-.21.567-.46 1.117-.75 1.648a18.38 18.38 0 0 1-8.61 8.045c-.55.253-1.11.466-1.69.638-.21.086-.43.134-.65.142 0-.08.89-.39 2.2-1.072a21.62 21.62 0 0 0 4.79-3.358 21.76 21.76 0 0 0 3.68-4.554c.77-1.294 1.11-2.162 1.21-2.127Zm22.58 14.513c-.13.496-.3.981-.5 1.453-.39.992-.89 2.304-1.52 3.898-1.31 3.27-3.15 7.788-5.36 12.706a330.48 330.48 0 0 1-5.94 12.457l-1.9 3.721c-.21.465-.47.912-.75 1.338.16-.487.36-.96.59-1.418l1.78-3.783c1.5-3.198 3.6-7.593 5.8-12.501 2.2-4.909 4.1-9.401 5.48-12.653.69-1.559 1.24-2.852 1.66-3.836.18-.477.4-.939.66-1.382Z" fill="#455A64"/><path d="M1764.7 295.531s-9.75 3.925-12.01 10.774c-1.16 3.464-7.88 28.795-7.88 28.795s-8.86 48.642-7.64 53.275l50.74 7.788a7.824 7.824 0 0 0 1.78-5.431l-.83-14.575.6-62.471c0-.466-.03-.931-.1-1.391l-1.77-11.518.56-4.971-22.74-6.007-.71 5.732Z" fill="#111827"/><path d="M1763.34 291.615c.06-.388.2-.758.41-1.088a2.847 2.847 0 0 1 1.91-1.246c.39-.062.79-.043 1.17.057l20.79 5.485a2.804 2.804 0 0 1 2.09 2.87l-.05.886c-.03.425-.15.839-.36 1.21-.2.371-.49.689-.84.932a2.91 2.91 0 0 1-1.18.467c-.42.065-.85.033-1.26-.093l-20.73-6.361a2.765 2.765 0 0 1-1.56-1.194 2.773 2.773 0 0 1-.39-1.925Z" fill="#111827"/><path d="M1787.91 300.847c-.36-.031-.73-.1-1.08-.203l-2.88-.727a656.27 656.27 0 0 1-9.48-2.569l-4.95-1.4c-.62-.097-1.23-.239-1.83-.425-.29-.091-.56-.21-.83-.355a1.438 1.438 0 0 1-.38-.283 2.779 2.779 0 0 1-.25-.381 2.75 2.75 0 0 1-.19-1.551c.06-.436.17-.862.35-1.267.23-.569.55-1.096.95-1.559.3-.31.49-.434.5-.417-.52.619-.93 1.32-1.22 2.074a3.587 3.587 0 0 0-.07 2.56c.2.443.71.612 1.26.798.58.172 1.18.299 1.78.381l4.95 1.364c3.69 1.028 7.03 1.985 9.45 2.658l2.84.886c.37.104.74.243 1.08.416Zm.21 3.544c.05.15.08.304.09.461.04.355.09.789.16 1.32.12 1.152.28 2.818.43 4.882.33 4.129.66 9.835.84 16.143.19 6.308.17 12.032 0 16.17a124.69 124.69 0 0 1-.23 4.89c-.04.541-.09.975-.11 1.329 0 .157-.03.312-.07.461a1.779 1.779 0 0 1 0-.461v-1.338c0-1.151.07-2.826.08-4.89.07-4.129 0-9.844-.16-16.152-.15-6.308-.46-12.005-.7-16.125-.12-2.02-.22-3.668-.3-4.891 0-.532-.04-.975-.06-1.329-.01-.157 0-.315.03-.47Z" fill="#263238"/><path d="M1773.36 291.376c-.34.833-.62 1.692-.82 2.569-.07.885-.07 1.774 0 2.658a3.574 3.574 0 0 1-.52-1.334c-.08-.476-.06-.962.06-1.43.04-.475.17-.938.39-1.36.22-.423.53-.798.89-1.103Zm5.91 1.356c.04 0 .26.248.43.762.22.685.26 1.413.12 2.117a4.206 4.206 0 0 1-.92 1.914c-.35.407-.65.576-.69.531.52-.778.91-1.633 1.16-2.533.1-.93.07-1.871-.1-2.791Zm5.75 1.594c.05 0 .29.213.5.709.28.66.36 1.384.25 2.091a3.888 3.888 0 0 1-.9 1.905c-.36.408-.66.558-.7.514a5.164 5.164 0 0 0 1.17-2.487c.15-.919.06-1.863-.28-2.732h-.04Z" fill="#263238"/><path d="M1782.03 308.387c-1.92-5.652-6.57-10.587-12.42-11.748-5.85-1.161-11.35.08-15.52 4.944l-5.32 11.296c2.36-1.311 6.13-8.975 10.53-11.58 4.4-2.605 9.29-2.658 12.91.966 2.66 2.658 4.66 6.521 4.59 10.313-.12 7.425-3.22 14.389-5.47 21.477-2.89 9.09-5.18 18.783-11.85 25.614-5.37 5.484-12.55 8.754-19.51 11.899-1.65 1.355-5.46 6.282-3.49 7.088 1.97.806 9.12-1.772 11.15-2.401 5.06-1.542 10.32-3.199 14.19-6.831 3.55-3.376 5.51-8.081 7.36-12.635 3.54-8.789 5.87-17.95 9.42-26.748 3.02-7.487 6.01-13.999 3.43-21.654Z" fill="#455A64"/><path d="m1773.93 402.985-4.04-6.822-13.53 4.714s.88 12.014 2.66 12.359a3.695 3.695 0 0 0 3.02-.815s1.01 3.137 3.03 3.27l1.13.053c.36.283 2.42 1.772 4.12 1.223 0 0 1.56 3.384 2.82 3.03 1.26-.355 2.08-4.43 2.08-4.43l-1.29-12.582Z" fill="#FFBE9D"/><path d="M1761.71 299.669a14.147 14.147 0 0 0-5.98 4.036 14.206 14.206 0 0 0-3.22 6.454c-2.66 12.732-9.01 46.072-8.75 50.768.33 5.972 11.72 41.359 11.72 41.359l15.96-4.803-7.24-39.87s11.3-37.3 12.19-42.971c.97-6.193-4.44-18.517-14.68-14.973Z" fill="#111827"/><path d="M1761.71 299.696c.41-.161.82-.294 1.24-.399a8.883 8.883 0 0 1 3.78-.195 9.543 9.543 0 0 1 5.28 2.924 18.132 18.132 0 0 1 4.63 11.952 11.96 11.96 0 0 1-.32 2.596c-.18.886-.4 1.772-.62 2.658-.88 3.544-1.98 7.38-3.15 11.438a1523.66 1523.66 0 0 1-8.12 27.005v-.097l7.27 39.87v.204l-.2.062-7.48 2.241-8.51 2.561-.23.062-.06-.213a932.643 932.643 0 0 1-6.66-21.202c-1.02-3.429-2.01-6.795-2.91-10.118-.44-1.657-.88-3.296-1.26-4.935-.21-.815-.38-1.639-.54-2.454-.14-.817-.24-1.643-.27-2.472.04-1.626.19-3.247.43-4.855.23-1.577.45-3.128.7-4.661.47-3.056 1-6.007 1.5-8.86 1.02-5.705 2.03-10.995 2.96-15.806l2.57-12.971c.3-1.793.7-3.568 1.2-5.316.5-1.442 1.2-2.804 2.1-4.04a14.056 14.056 0 0 1 4.69-4.138c.63-.363 1.3-.66 2-.886 0 0-.17.089-.51.231-.5.207-.98.447-1.45.717a14.252 14.252 0 0 0-4.59 4.156 15.488 15.488 0 0 0-2.04 4.004c-.48 1.734-.87 3.49-1.16 5.263-.74 3.819-1.57 8.169-2.5 12.98-.93 4.811-1.9 10.118-2.9 15.815-.5 2.853-1 5.804-1.48 8.86-.25 1.524-.47 3.075-.69 4.652a40.34 40.34 0 0 0-.41 4.784c.05.81.17 1.616.33 2.41.15.815.33 1.621.54 2.437.37 1.63.82 3.269 1.26 4.917.89 3.313 1.9 6.68 2.92 10.1 2.07 6.849 4.3 13.937 6.67 21.193l-.29-.15 8.52-2.552 7.48-2.25-.16.265c-2.57-14.176-5.01-27.669-7.23-39.87v-.106c3.05-9.808 5.8-18.872 8.18-26.979 1.18-4.049 2.28-7.858 3.19-11.411.5-1.681.82-3.409.97-5.157a18.072 18.072 0 0 0-4.51-11.819 9.444 9.444 0 0 0-5.16-2.924 8.974 8.974 0 0 0-3.74.133c-.31.065-.62.148-.93.248-.11.039-.22.071-.33.098Z" fill="#263238"/><path d="M1764.39 357.401a15.629 15.629 0 0 0-8.69-2.933 9.76 9.76 0 0 1 8.69 2.933Z" fill="#263238"/><path d="M1751.62 391.122c-7.44-11.022-11.35-26.429-7.09-37.389-1.16 6.565-.05 12.563 1.91 18.934 1.95 6.37 4.3 12.722 4.68 19.376" fill="#111827" opacity=".3"/><path d="m1728.73 548.103-22.03-23.222-18.05 1.019-12.78 5.05-8.12 17.153" fill="#F3F4F6"/><path d="m1688.65 525.9 18.7 22.203h21.38l-22.03-23.222-18.05 1.019Z" fill="#E0E0E0"/><path d="M1667.75 548.13c.03-.113.07-.223.13-.328l.4-.93c.39-.842.88-2.011 1.59-3.491l5.82-12.484v-.071h.08l12.77-5.085h.07l8.67-.496 9.39-.523h.1l.08.08 15.69 16.656 4.56 4.909c.5.549.88.992 1.2 1.329.15.143.29.304.4.478a4.641 4.641 0 0 1-.45-.425l-1.27-1.276-4.65-4.82c-3.98-4.146-9.49-9.923-15.81-16.541l.17.071-9.38.531-8.68.479h.07l-12.79 5.014.1-.097c-2.46 5.13-4.51 9.4-5.96 12.404l-1.69 3.446-.46.886c-.04.1-.09.195-.15.284Z" fill="#263238"/><path d="m1568.27 548.103 8.4-14.583 15.33-4.271 14.34 12.183v6.671" fill="#F3F4F6"/><path d="m1576.67 533.52 29.67 7.912-14.34-12.183-15.33 4.271Z" fill="#E0E0E0"/><path d="M1606.34 548.13a1.783 1.783 0 0 1-.04-.461v-1.302c0-1.205 0-2.853-.06-4.909l.04.107-14.39-12.121.21.045-3.53.921-11.84 3.278.12-.097-6.17 10.517c-.74 1.24-1.34 2.232-1.77 2.959l-.48.779c-.06.091-.12.177-.19.257.03-.102.07-.2.13-.292l.42-.806 1.68-3.021 5.99-10.562v-.079h.09l11.86-3.349 3.5-.966h.11l.09.08 14.29 12.244.06.044v.071c0 2.056-.06 3.704-.07 4.909v1.302c0 .152-.02.304-.05.452Z" fill="#263238"/><path d="m1872.64 521.887-21.28-12.112-37.36 13.6-30.18 24.728 106.77-.549-17.95-25.667Z" fill="#F3F4F6"/><path d="m1783.82 548.103 38.28-22.203 50.54-4.013-22.13-13.087-36.51 14.575-30.18 24.728Zm55.01-.283 19.12-13.095 17.44-1.241-14.59 3.243-7.56 11.022-14.41.071Z" fill="#E0E0E0"/><path d="M1783.82 548.13s0-.053.13-.133l.41-.363 1.61-1.365 6.15-5.112 21.75-17.915 26.6-10.809 9.82-3.969.11-.045.09.062 22.17 13.29 12.96 18.677 3.59 5.228.89 1.391c.11.154.21.314.3.478 0 0-.12-.142-.34-.452l-.99-1.346c-.88-1.214-2.1-2.96-3.68-5.166l-13.09-18.606.06.053-22.17-13.245h.2l-9.82 3.978-26.65 10.765h.05l-21.85 17.791-6.2 5.023-1.55 1.32-.44.337-.11.133Z" fill="#263238"/><path d="M1875.99 533.44a7.59 7.59 0 0 1-1.39.186l-3.8.337-12.84.992h.12l-2.11 1.436c-4.7 3.216-8.96 6.113-12.06 8.186l-3.68 2.401-1.02.647c-.23.142-.37.213-.38.195.1-.103.21-.195.32-.275l.97-.717 3.61-2.552c3.06-2.144 7.3-5.086 12-8.302l2.1-1.435h.13l12.84-.833 3.82-.204c.45-.052.91-.073 1.37-.062Z" fill="#263238"/><path d="m1973.25 535.372-12.78-5.059-21.32 3.871-10.33 13.875 50.59.044-6.16-12.731Z" fill="#F3F4F6"/><path d="M1939.15 534.184c.62-.115 34.1 1.188 34.1 1.188l-12.78-5.051-21.32 3.863Z" fill="#E0E0E0"/><path d="M1928.83 548.059c.04-.099.09-.191.16-.275l.53-.762 2.06-2.861 7.41-10.101.05-.062h.08l15.86-2.906 5.45-.992h.13l12.76 5.086h.07v.062l4.44 9.303 1.19 2.587.3.682c.04.079.07.162.09.248a.963.963 0 0 1-.15-.222l-.34-.664c-.32-.62-.75-1.48-1.29-2.543-1.11-2.25-2.66-5.413-4.55-9.223l.1.088-12.79-5.014h.12l-5.45.992-15.86 2.844.12-.071c-3.1 4.102-5.69 7.54-7.55 9.994l-2.15 2.791-.58.727c-.13.201-.2.298-.21.292Z" fill="#263238"/><path d="m1268.49 548.103-22.03-23.222-18.05 1.019-12.79 5.05-8.11 17.153" fill="#F3F4F6"/><path d="m1228.41 525.9 18.7 22.203h21.38l-22.03-23.222-18.05 1.019Z" fill="#E0E0E0"/><path d="M1207.51 548.13c.03-.113.07-.223.12-.328l.4-.93c.39-.842.89-2.011 1.6-3.491l5.82-12.484v-.071h.08l12.76-5.085h.08l8.67-.496 9.39-.523h.1l.07.08 15.7 16.656 4.56 4.909c.5.549.88.992 1.2 1.329.15.143.29.304.4.478a4.641 4.641 0 0 1-.45-.425l-1.27-1.276-4.65-4.82c-3.98-4.146-9.49-9.923-15.81-16.541l.17.071-9.39.531-8.67.479h.07l-12.79 5.014.1-.097c-2.46 5.13-4.51 9.4-5.96 12.404l-1.7 3.446-.45.886c-.04.1-.09.195-.15.284Z" fill="#263238"/><path d="m1108.03 548.103 8.4-14.583 15.33-4.271 14.34 12.183v6.671" fill="#F3F4F6"/><path d="m1116.43 533.52 29.67 7.912-14.34-12.183-15.33 4.271Z" fill="#E0E0E0"/><path d="M1146.1 548.13a1.783 1.783 0 0 1-.04-.461v-1.302c0-1.205 0-2.853-.07-4.909l.05.107-14.39-12.121.21.045-3.53.921-11.84 3.278.12-.097-6.17 10.517c-.75 1.24-1.34 2.232-1.77 2.959l-.48.779c-.06.091-.12.177-.19.257.03-.102.07-.2.12-.292l.43-.806 1.68-3.021 5.99-10.562v-.079h.09l11.86-3.349 3.5-.966h.11l.09.08 14.29 12.244.06.044v.071c0 2.056-.06 3.704-.08 4.909v1.302c.01.152-.01.304-.04.452Z" fill="#263238"/><path d="m1412.4 521.887-21.28-12.112-37.36 13.6-30.18 24.728 106.77-.549-17.95-25.667Z" fill="#F3F4F6"/><path d="m1323.58 548.103 38.28-22.203 50.54-4.013-22.13-13.087-36.51 14.575-30.18 24.728Zm55-.283 19.13-13.095 17.44-1.241-14.59 3.243-7.56 11.022-14.42.071Z" fill="#E0E0E0"/><path d="M1323.58 548.13s0-.053.13-.133l.41-.363 1.61-1.365 6.15-5.112 21.74-17.915 26.6-10.809 9.83-3.969.1-.045.1.062 22.17 13.29 12.96 18.677 3.59 5.228.89 1.391c.11.154.21.314.3.478 0 0-.12-.142-.34-.452l-.99-1.346c-.89-1.214-2.1-2.96-3.68-5.166l-13.09-18.606.06.053-22.17-13.245h.2l-9.82 3.978-26.65 10.765h.05l-21.85 17.791-6.2 5.023-1.56 1.32-.43.337-.11.133Z" fill="#263238"/><path d="M1415.74 533.44a7.37 7.37 0 0 1-1.38.186l-3.8.337-12.84.992h.11l-2.1 1.436c-4.7 3.216-8.96 6.113-12.07 8.186l-3.68 2.401-1.01.647c-.24.142-.37.213-.38.195.1-.103.21-.195.32-.275l.97-.717 3.61-2.552c3.06-2.144 7.29-5.086 11.99-8.302l2.11-1.435h.13l12.84-.833 3.82-.204c.45-.052.91-.073 1.36-.062Z" fill="#263238"/><path d="m1513.01 535.372-12.78-5.059-21.32 3.871-10.33 13.875 50.58.044-6.15-12.731Z" fill="#F3F4F6"/><path d="M1478.91 534.184c.62-.115 34.1 1.188 34.1 1.188l-12.78-5.051-21.32 3.863Z" fill="#E0E0E0"/><path d="M1468.59 548.059c.04-.099.09-.191.16-.275l.53-.762 2.06-2.861 7.41-10.101.05-.062h.08l15.86-2.906 5.45-.992h.12l12.77 5.086h.07v.062l4.44 9.303 1.19 2.587.3.682c.04.079.07.162.09.248a.963.963 0 0 1-.15-.222l-.34-.664c-.32-.62-.76-1.48-1.29-2.543-1.12-2.25-2.66-5.413-4.55-9.223l.1.088-12.79-5.014h.12l-5.45.992-15.87 2.844.13-.071c-3.1 4.102-5.69 7.54-7.56 9.994l-2.14 2.791-.58.727c-.13.201-.2.298-.21.292Z" fill="#263238"/><path d="m380.487 548.103-22.025-23.222-18.053 1.019-12.785 5.05-8.113 17.153" fill="#F3F4F6"/><path d="m340.409 525.9 18.7 22.203h21.378l-22.025-23.222-18.053 1.019Z" fill="#E0E0E0"/><path d="M319.511 548.13c.029-.113.071-.223.124-.328l.399-.93c.39-.842.887-2.011 1.596-3.491l5.816-12.484v-.071h.08l12.768-5.085h.071l8.672-.496 9.39-.523h.106l.071.08 15.694 16.656 4.557 4.909c.506.549.887.992 1.206 1.329.152.143.285.304.399.478a5.039 5.039 0 0 1-.452-.425l-1.268-1.276-4.655-4.82c-3.972-4.146-9.487-9.923-15.809-16.541l.177.071-9.39.531-8.671.479h.071l-12.795 5.014.098-.097c-2.456 5.13-4.505 9.4-5.959 12.404l-1.693 3.446-.453.886c-.04.1-.091.195-.15.284Z" fill="#263238"/><path d="m220.026 548.103 8.406-14.583 15.33-4.271 14.338 12.183v6.671" fill="#F3F4F6"/><path d="m228.432 533.52 29.668 7.912-14.337-12.183-15.331 4.271Z" fill="#E0E0E0"/><path d="M258.1 548.13a1.928 1.928 0 0 1-.044-.461v-1.302c0-1.205 0-2.853-.062-4.909l.044.107-14.391-12.121.213.045-3.529.921-11.846 3.278.125-.097-6.172 10.517a1737.48 1737.48 0 0 0-1.773 2.959l-.479.779a1.89 1.89 0 0 1-.186.257c.029-.102.071-.2.124-.292l.426-.806 1.676-3.021 5.993-10.562v-.079h.089l11.864-3.349 3.493-.966h.115l.089.08 14.293 12.244.053.044v.071c0 2.056-.053 3.704-.071 4.909v1.302c.004.152-.011.304-.044.452Z" fill="#263238"/><path d="m524.401 521.887-21.28-12.112-37.364 13.6-30.182 24.728 106.773-.549-17.947-25.667Z" fill="#F3F4F6"/><path d="m435.575 548.103 38.286-22.203 50.54-4.013L502.27 508.8l-36.513 14.575-30.182 24.728Zm55.009-.283 19.125-13.095 17.441-1.241-14.594 3.243-7.555 11.022-14.417.071Z" fill="#E0E0E0"/><path d="M435.575 548.13s0-.053.133-.133l.408-.363 1.614-1.365 6.153-5.112 21.741-17.915 26.6-10.809 9.825-3.969.106-.045.098.062 22.166 13.29 12.963 18.677 3.591 5.228.887 1.391c.109.154.209.314.301.478 0 0-.124-.142-.345-.452l-.985-1.346c-.886-1.214-2.101-2.96-3.679-5.166l-13.096-18.606.062.053-22.167-13.245h.195l-9.815 3.978-26.653 10.765h.053l-21.848 17.791-6.206 5.023-1.552 1.32-.435.337-.115.133Z" fill="#263238"/><path d="M527.744 533.44a7.492 7.492 0 0 1-1.383.186l-3.804.337-12.839.992h.115l-2.101 1.436a1405.667 1405.667 0 0 1-12.067 8.186l-3.68 2.401-1.02.647c-.23.142-.363.213-.372.195.096-.103.203-.195.319-.275l.966-.717 3.609-2.552c3.059-2.144 7.297-5.086 11.997-8.302l2.101-1.435h.133l12.839-.833 3.822-.204a9.88 9.88 0 0 1 1.365-.062Z" fill="#263238"/><path d="m625.011 535.372-12.785-5.059-21.316 3.871-10.329 13.875 50.584.044-6.154-12.731Z" fill="#F3F4F6"/><path d="M590.91 534.184c.621-.115 34.101 1.188 34.101 1.188l-12.785-5.051-21.316 3.863Z" fill="#E0E0E0"/><path d="M580.59 548.059a1.16 1.16 0 0 1 .159-.275l.532-.762 2.058-2.861 7.412-10.101.044-.062h.08l15.863-2.906 5.453-.992h.124l12.768 5.086h.071v.062l4.433 9.303 1.188 2.587.302.682c.039.079.069.162.088.248a.875.875 0 0 1-.142-.222l-.345-.664c-.32-.62-.754-1.48-1.286-2.543-1.117-2.25-2.66-5.413-4.549-9.223l.098.088-12.795-5.014h.124l-5.453.992-15.862 2.844.124-.071c-3.103 4.102-5.692 7.54-7.554 9.994l-2.146 2.791-.576.727c-.136.201-.207.298-.213.292Z" fill="#263238"/><path d="m2172.49 548.103-22.03-23.222-18.05 1.019-12.79 5.05-8.11 17.153" fill="#F3F4F6"/><path d="m2132.41 525.9 18.7 22.203h21.38l-22.03-23.222-18.05 1.019Z" fill="#E0E0E0"/><path d="M2111.51 548.13c.03-.113.07-.223.12-.328l.4-.93c.39-.842.89-2.011 1.6-3.491l5.82-12.484v-.071h.08l12.76-5.085h.08l8.67-.496 9.39-.523h.1l.07.08 15.7 16.656 4.56 4.909c.5.549.88.992 1.2 1.329.15.143.29.304.4.478a4.641 4.641 0 0 1-.45-.425l-1.27-1.276-4.65-4.82c-3.98-4.146-9.49-9.923-15.81-16.541l.17.071-9.39.531-8.67.479h.07l-12.79 5.014.1-.097c-2.46 5.13-4.51 9.4-5.96 12.404l-1.7 3.446-.45.886c-.04.1-.09.195-.15.284Z" fill="#263238"/><path d="m2012.03 548.103 8.4-14.583 15.33-4.271 14.34 12.183v6.671" fill="#F3F4F6"/><path d="m2020.43 533.52 29.67 7.912-14.34-12.183-15.33 4.271Z" fill="#E0E0E0"/><path d="M2050.1 548.13a1.783 1.783 0 0 1-.04-.461v-1.302c0-1.205 0-2.853-.07-4.909l.05.107-14.39-12.121.21.045-3.53.921-11.84 3.278.12-.097-6.17 10.517c-.75 1.24-1.34 2.232-1.77 2.959l-.48.779c-.06.091-.12.177-.19.257.03-.102.07-.2.12-.292l.43-.806 1.68-3.021 5.99-10.562v-.079h.09l11.86-3.349 3.5-.966h.11l.09.08 14.29 12.244.06.044v.071c0 2.056-.06 3.704-.08 4.909v1.302c.01.152-.01.304-.04.452Z" fill="#263238"/><path d="m2316.4 521.887-21.28-12.112-37.36 13.6-30.18 24.728 106.77-.549-17.95-25.667Z" fill="#F3F4F6"/><path d="m2227.58 548.103 38.28-22.203 50.54-4.013-22.13-13.087-36.51 14.575-30.18 24.728Zm55-.283 19.13-13.095 17.44-1.241-14.59 3.243-7.56 11.022-14.42.071Z" fill="#E0E0E0"/><path d="M2227.58 548.13s0-.053.13-.133l.41-.363 1.61-1.365 6.15-5.112 21.74-17.915 26.6-10.809 9.83-3.969.1-.045.1.062 22.17 13.29 12.96 18.677 3.59 5.228.89 1.391c.11.154.21.314.3.478 0 0-.12-.142-.34-.452l-.99-1.346c-.89-1.214-2.1-2.96-3.68-5.166l-13.09-18.606.06.053-22.17-13.245h.2l-9.82 3.978-26.65 10.765h.05l-21.85 17.791-6.2 5.023-1.56 1.32-.43.337-.11.133Z" fill="#263238"/><path d="M2319.74 533.44a7.37 7.37 0 0 1-1.38.186l-3.8.337-12.84.992h.11l-2.1 1.436c-4.7 3.216-8.96 6.113-12.07 8.186l-3.67 2.401-1.02.647c-.24.142-.37.213-.38.195.1-.103.21-.195.32-.275l.97-.717 3.61-2.552c3.06-2.144 7.29-5.086 11.99-8.302l2.11-1.435h.13l12.84-.833 3.82-.204c.45-.052.91-.073 1.36-.062Z" fill="#263238"/><path d="m2417.01 535.372-12.78-5.059-21.32 3.871-10.33 13.875 50.59.044-6.16-12.731Z" fill="#E2E8F0"/><path d="M2382.91 534.184c.62-.115 34.1 1.188 34.1 1.188l-12.78-5.051-21.32 3.863Z" fill="#E0E0E0"/><path d="M2372.59 548.059c.04-.099.09-.191.16-.275l.53-.762 2.06-2.861 7.41-10.101.05-.062h.07l15.87-2.906 5.45-.992h.12l12.77 5.086h.07v.062l4.44 9.303 1.18 2.587.31.682c.04.079.07.162.09.248a.963.963 0 0 1-.15-.222l-.34-.664c-.32-.62-.76-1.48-1.29-2.543-1.12-2.25-2.66-5.413-4.55-9.223l.1.088-12.79-5.014h.12l-5.45.992-15.87 2.844.13-.071c-3.1 4.102-5.69 7.54-7.56 9.994l-2.14 2.791-.58.727c-.13.201-.2.298-.21.292Z" fill="#263238"/><path d="m2632.49 545.684-22.03-23.222-18.05 1.019-12.79 5.05-8.11 17.153" fill="#F3F4F6"/><path d="m2592.41 523.481 18.7 22.203h21.38l-22.03-23.222-18.05 1.019Z" fill="#E0E0E0"/><path d="M2571.51 545.711c.03-.114.07-.224.12-.328l.4-.931c.39-.841.89-2.011 1.6-3.49l5.82-12.484v-.071h.08l12.76-5.086h.07l8.68-.496 9.39-.523h.1l.07.08 15.7 16.657 4.56 4.908c.5.55.88.993 1.2 1.329.15.144.29.304.4.479a4.9 4.9 0 0 1-.45-.425l-1.27-1.276-4.66-4.82c-3.97-4.147-9.48-9.923-15.8-16.542l.17.071-9.39.532-8.67.478h.07l-12.79 5.015.1-.098c-2.46 5.13-4.51 9.401-5.96 12.404l-1.7 3.447-.45.886c-.04.099-.09.194-.15.284Z" fill="#263238"/><path d="m2472.03 545.684 8.4-14.584 15.33-4.27 14.34 12.182v6.672" fill="#F3F4F6"/><path d="m2480.43 531.1 29.67 7.912-14.34-12.182-15.33 4.27Z" fill="#E0E0E0"/><path d="M2510.1 545.711a1.787 1.787 0 0 1-.04-.461v-1.303c0-1.205 0-2.853-.07-4.908l.05.106-14.39-12.12.21.044-3.53.922-11.84 3.278.12-.098-6.17 10.517c-.75 1.24-1.34 2.233-1.77 2.959l-.48.78c-.06.09-.12.176-.19.257.03-.102.07-.201.12-.292l.43-.807 1.68-3.021 5.99-10.561v-.08h.09l11.86-3.349 3.5-.966h.11l.09.08 14.29 12.245.06.044v.071c0 2.055-.06 3.703-.08 4.908v1.303c.01.152-.01.303-.04.452Z" fill="#263238"/><path d="m2776.4 519.467-21.28-12.111-37.36 13.6-30.18 24.728 106.77-.549-17.95-25.668Z" fill="#F3F4F6"/><path d="m2687.58 545.684 38.28-22.203 50.54-4.014-22.13-13.086-36.51 14.575-30.18 24.728Zm55-.284 19.13-13.095 17.44-1.24-14.59 3.243-7.56 11.022-14.42.07Z" fill="#E0E0E0"/><path d="M2687.58 545.711s0-.054.13-.133l.41-.364 1.61-1.364 6.15-5.112 21.74-17.915 26.6-10.809 9.83-3.97.1-.044.1.062 22.17 13.29 12.96 18.677 3.59 5.227.89 1.391c.11.154.21.314.3.479 0 0-.12-.142-.34-.452l-.99-1.347c-.89-1.214-2.1-2.959-3.68-5.165l-13.09-18.606.06.053-22.17-13.246h.2l-9.82 3.978-26.65 10.765h.05l-21.85 17.791-6.2 5.024-1.56 1.32-.43.337-.11.133Z" fill="#263238"/><path d="M2779.74 531.021a7.37 7.37 0 0 1-1.38.186l-3.8.336-12.84.993h.11l-2.1 1.435c-4.7 3.216-8.96 6.113-12.07 8.187l-3.67 2.401-1.02.647c-.24.141-.37.212-.38.194.1-.103.21-.195.32-.274l.97-.718 3.61-2.552c3.06-2.144 7.29-5.085 11.99-8.301l2.11-1.436h.13l12.84-.833 3.82-.203c.45-.053.91-.074 1.36-.062Z" fill="#263238"/><path d="m2877.01 532.952-12.78-5.059-21.32 3.872-10.33 13.875 50.59.044-6.16-12.732Z" fill="#E2E8F0"/><path d="M2842.91 531.765c.62-.115 34.1 1.187 34.1 1.187l-12.78-5.05-21.32 3.863Z" fill="#E0E0E0"/><path d="M2832.59 545.64c.04-.099.09-.191.16-.275l.53-.762 2.06-2.862 7.41-10.1.05-.062h.07l15.87-2.906 5.45-.993h.12l12.77 5.086h.07v.062l4.44 9.303 1.18 2.587.31.682c.04.079.07.163.09.248a.979.979 0 0 1-.15-.221l-.34-.665c-.32-.62-.76-1.479-1.29-2.542-1.12-2.251-2.66-5.414-4.55-9.224l.1.089-12.79-5.015h.12l-5.45.993-15.87 2.844.13-.071c-3.1 4.102-5.69 7.54-7.56 9.994l-2.14 2.791-.58.726c-.13.201-.2.299-.21.293Z" fill="#263238"/><path d="m2916.03 542.684 8.4-14.584 15.33-4.27 14.34 12.182v6.672" fill="#F3F4F6"/><path d="m2924.43 528.1 29.67 7.912-14.34-12.182-15.33 4.27Z" fill="#E0E0E0"/><path d="M2954.1 542.711a1.787 1.787 0 0 1-.04-.461v-1.303c0-1.205 0-2.853-.07-4.908l.05.106-14.39-12.12.21.044-3.53.922-11.84 3.278.12-.098-6.17 10.517c-.75 1.24-1.34 2.233-1.77 2.959l-.48.78c-.06.09-.12.176-.19.257.03-.102.07-.201.12-.292l.43-.807 1.68-3.021 5.99-10.561v-.08h.09l11.86-3.349 3.5-.966h.11l.09.08 14.29 12.245.06.044v.071c0 2.055-.06 3.703-.08 4.908v1.303c.01.152-.01.303-.04.452Z" fill="#263238"/><path d="m824.487 548.103-22.025-23.222-18.053 1.019-12.785 5.05-8.113 17.153" fill="#F3F4F6"/><path d="m784.409 525.9 18.7 22.203h21.378l-22.025-23.222-18.053 1.019Z" fill="#E0E0E0"/><path d="M763.511 548.13c.029-.113.071-.223.124-.328l.399-.93c.39-.842.887-2.011 1.596-3.491l5.816-12.484v-.071h.08l12.768-5.085h.071l8.672-.496 9.39-.523h.106l.071.08 15.694 16.656 4.557 4.909c.506.549.887.992 1.206 1.329.152.143.285.304.399.478a5.039 5.039 0 0 1-.452-.425l-1.268-1.276-4.655-4.82c-3.972-4.146-9.487-9.923-15.809-16.541l.177.071-9.39.531-8.671.479h.071l-12.795 5.014.098-.097c-2.456 5.13-4.505 9.4-5.959 12.404l-1.693 3.446-.453.886c-.04.1-.091.195-.15.284Z" fill="#263238"/><path d="m664.026 548.103 8.406-14.583 15.33-4.271 14.338 12.183v6.671" fill="#F3F4F6"/><path d="m672.432 533.52 29.668 7.912-14.337-12.183-15.331 4.271Z" fill="#E0E0E0"/><path d="M702.1 548.13a1.928 1.928 0 0 1-.044-.461v-1.302c0-1.205 0-2.853-.062-4.909l.044.107-14.391-12.121.213.045-3.529.921-11.846 3.278.125-.097-6.172 10.517a1737.48 1737.48 0 0 0-1.773 2.959l-.479.779a1.89 1.89 0 0 1-.186.257c.029-.102.071-.2.124-.292l.426-.806 1.676-3.021 5.993-10.562v-.079h.089l11.864-3.349 3.493-.966h.115l.089.08 14.293 12.244.053.044v.071c0 2.056-.053 3.704-.071 4.909v1.302c.004.152-.011.304-.044.452Z" fill="#263238"/><path d="m968.401 521.887-21.28-12.112-37.364 13.6-30.182 24.728 106.773-.549-17.947-25.667Z" fill="#F3F4F6"/><path d="m879.575 548.103 38.286-22.203 50.54-4.013L946.27 508.8l-36.513 14.575-30.182 24.728Zm55.009-.283 19.125-13.095 17.441-1.241-14.594 3.243-7.555 11.022-14.417.071Z" fill="#E0E0E0"/><path d="M879.575 548.13s0-.053.133-.133l.408-.363 1.614-1.365 6.153-5.112 21.741-17.915 26.6-10.809 9.825-3.969.106-.045.098.062 22.166 13.29 12.963 18.677 3.591 5.228.887 1.391c.109.154.209.314.301.478 0 0-.124-.142-.345-.452l-.985-1.346c-.886-1.214-2.101-2.96-3.679-5.166l-13.096-18.606.062.053-22.167-13.245h.195l-9.815 3.978-26.653 10.765h.053l-21.848 17.791-6.206 5.023-1.552 1.32-.435.337-.115.133Z" fill="#263238"/><path d="M971.744 533.44a7.492 7.492 0 0 1-1.383.186l-3.804.337-12.839.992h.115l-2.101 1.436a1405.667 1405.667 0 0 1-12.067 8.186l-3.68 2.401-1.02.647c-.23.142-.363.213-.372.195.096-.103.203-.195.319-.275l.966-.717 3.609-2.552c3.059-2.144 7.297-5.086 11.997-8.302l2.101-1.435h.133l12.839-.833 3.822-.204a9.88 9.88 0 0 1 1.365-.062Z" fill="#263238"/><path d="m1069.01 535.372-12.78-5.059-21.32 3.871-10.33 13.875 50.58.044-6.15-12.731Z" fill="#F3F4F6"/><path d="M1034.91 534.184c.62-.115 34.1 1.188 34.1 1.188l-12.78-5.051-21.32 3.863Z" fill="#E0E0E0"/><path d="M1024.59 548.059c.04-.099.09-.191.16-.275l.53-.762 2.06-2.861 7.41-10.101.05-.062h.08l15.86-2.906 5.45-.992h.12l12.77 5.086h.07v.062l4.44 9.303 1.19 2.587.3.682c.04.079.07.162.09.248a.963.963 0 0 1-.15-.222l-.34-.664c-.32-.62-.76-1.48-1.29-2.543-1.12-2.25-2.66-5.413-4.55-9.223l.1.088-12.79-5.014h.12l-5.45.992-15.87 2.844.13-.071c-3.1 4.102-5.69 7.54-7.56 9.994l-2.14 2.791-.58.727c-.13.201-.2.298-.21.292Z" fill="#263238"/><path d="m80.401 521.887-21.28-12.112-37.364 13.6-30.182 24.728 106.773-.549L80.4 521.887Z" fill="#F3F4F6"/><path d="M-8.425 548.103 29.861 525.9l50.54-4.013-22.13-13.087-36.514 14.575-30.182 24.728Zm55.009-.283 19.125-13.095 17.441-1.241-14.594 3.243L61 547.749l-14.417.071Z" fill="#E0E0E0"/><path d="M-8.425 548.13s0-.053.133-.133l.408-.363 1.614-1.365 6.153-5.112 21.741-17.915 26.6-10.809 9.825-3.969.106-.045.097.062 22.167 13.29 12.963 18.677 3.591 5.228.887 1.391c.109.154.21.314.301.478 0 0-.124-.142-.345-.452l-.985-1.346c-.886-1.214-2.101-2.96-3.68-5.166l-13.095-18.606.062.053-22.167-13.245h.195l-9.815 3.978-26.654 10.765h.054L-.117 541.317l-6.206 5.023-1.552 1.32-.435.337-.115.133Z" fill="#263238"/><path d="M83.744 533.44a7.498 7.498 0 0 1-1.383.186l-3.804.337-12.839.992h.115l-2.1 1.436c-4.7 3.216-8.965 6.113-12.069 8.186l-3.68 2.401-1.019.647c-.23.142-.363.213-.372.195.096-.103.203-.195.319-.275l.967-.717 3.608-2.552c3.06-2.144 7.297-5.086 11.997-8.302l2.101-1.435h.133l12.84-.833 3.82-.204a9.9 9.9 0 0 1 1.366-.062Z" fill="#263238"/><path d="m181.011 535.372-12.785-5.059-21.316 3.871-10.329 13.875 50.584.044-6.154-12.731Z" fill="#F3F4F6"/><path d="M146.91 534.184c.621-.115 34.101 1.188 34.101 1.188l-12.785-5.051-21.316 3.863Z" fill="#E0E0E0"/><path d="M136.59 548.059a1.16 1.16 0 0 1 .159-.275l.532-.762 2.058-2.861 7.412-10.101.044-.062h.08l15.863-2.906 5.453-.992h.124l12.768 5.086h.071v.062l4.433 9.303 1.188 2.587.302.682c.039.079.069.162.088.248a.875.875 0 0 1-.142-.222l-.345-.664c-.32-.62-.754-1.48-1.286-2.543-1.117-2.25-2.66-5.413-4.549-9.223l.098.088-12.795-5.014h.124l-5.453.992-15.862 2.844.124-.071c-3.103 4.102-5.692 7.54-7.554 9.994l-2.146 2.791-.576.727c-.136.201-.207.298-.213.292ZM1436.37 339.41c0-.133 2.38.246 5.32.257 1.77-.09 3.55-.025 5.32.196-1.76.242-3.54.331-5.32.265-1.8.07-3.6-.174-5.32-.718Zm-18.17-10.26c.11-.09 1.73 1.644 4.01 3.514 2.27 1.869 4.3 3.05 4.23 3.174a22 22 0 0 1-8.24-6.688Zm-9.08-18.918c.14-.001.58 2.309 1.46 5.095.89 2.786 1.82 4.951 1.73 5.013a17.445 17.445 0 0 1-2.17-4.876c-.61-1.68-.95-3.446-1.02-5.232Zm-.91-21.229c.27 1.76.38 3.538.35 5.317.12 1.774.08 3.555-.12 5.321a31.527 31.527 0 0 1-.34-5.317c-.12-1.774-.09-3.554.11-5.321Zm.59-6.001a31.517 31.517 0 0 1-.39-5.314c-.13-1.773-.1-3.554.08-5.322.28 1.758.41 3.536.39 5.315.13 1.772.1 3.553-.08 5.321Zm0-13a31.517 31.517 0 0 1-.39-5.314c-.13-1.773-.1-3.554.08-5.322.28 1.758.41 3.536.39 5.315.13 1.772.1 3.553-.08 5.321Z" fill="#263238"/><path d="M1161.85 105.866c.77-5.537-7.09-10.1-12.94-10.57-2.8-.23-5.71.204-8.37-.726-5.76-2.002-8.06-9.436-13.67-11.802-4.21-1.772-9.04-.195-13.12 1.852s-8.12 4.67-12.64 4.917c-3.96.249-8.26-1.213-11.72.718-2.58 1.436-3.92 4.43-6.3 6.158-2.38 1.728-5.32 2.082-8.25 2.241-2.92.16-5.87.187-8.5 1.383-2.62 1.196-4.8 3.978-4.25 6.822l99.76-.993Zm379-21.999c.77-5.538-7.09-10.1-12.94-10.57-2.8-.23-5.71.203-8.37-.727-5.76-2.002-8.06-9.436-13.67-11.802-4.21-1.772-9.04-.194-13.12 1.852-4.08 2.047-8.12 4.67-12.64 4.917-3.96.249-8.26-1.213-11.72.718-2.58 1.436-3.92 4.43-6.3 6.158-2.38 1.728-5.32 2.082-8.25 2.241-2.92.16-5.87.187-8.5 1.383-2.62 1.196-4.8 3.978-4.25 6.822l99.76-.992Zm327-33c.77-5.538-7.09-10.1-12.94-10.57-2.8-.23-5.71.203-8.37-.727-5.76-2.002-8.06-9.436-13.67-11.802-4.21-1.772-9.04-.195-13.12 1.852s-8.12 4.67-12.64 4.918c-3.96.248-8.26-1.214-11.72.717-2.58 1.435-3.92 4.43-6.3 6.158-2.38 1.728-5.32 2.082-8.25 2.241-2.92.16-5.87.186-8.5 1.383-2.62 1.196-4.8 3.978-4.25 6.822l99.76-.992Z" fill="#EBEBEB"/><path d="M923.868 69.763c.665-4.82-6.145-8.79-11.261-9.197-2.438-.204-4.974.177-7.279-.629-5.01-1.772-7.014-8.213-11.899-10.269-3.653-1.541-7.865-.168-11.403 1.613-3.537 1.78-7.04 4.022-11.003 4.27-3.441.222-7.173-1.054-10.188.63-2.243 1.249-3.423 3.836-5.489 5.36-2.065 1.524-4.663 1.772-7.173 1.94-2.509.168-5.107.16-7.394 1.205-2.288 1.045-4.177 3.464-3.707 5.936l86.796-.86Zm-389 3c.665-4.82-6.145-8.79-11.261-9.197-2.438-.204-4.974.177-7.279-.629-5.01-1.772-7.014-8.213-11.899-10.269-3.653-1.541-7.865-.168-11.403 1.613-3.537 1.78-7.04 4.022-11.003 4.27-3.441.222-7.173-1.054-10.188.63-2.243 1.249-3.423 3.836-5.489 5.36-2.065 1.524-4.663 1.772-7.173 1.94-2.509.168-5.107.16-7.394 1.205-2.288 1.045-4.177 3.464-3.707 5.936l86.796-.86Zm-296 8c.665-4.82-6.145-8.79-11.261-9.197-2.438-.204-4.974.177-7.279-.629-5.01-1.772-7.014-8.213-11.899-10.269-3.653-1.541-7.865-.168-11.403 1.613-3.537 1.78-7.04 4.022-11.003 4.27-3.441.222-7.173-1.054-10.188.63-2.243 1.249-3.423 3.836-5.489 5.36-2.065 1.524-4.663 1.772-7.173 1.94-2.509.168-5.107.16-7.394 1.205-2.288 1.045-4.177 3.464-3.707 5.936l86.796-.86Zm2256.002 247c.66-4.82-6.15-8.789-11.26-9.197-2.44-.204-4.98.177-7.28-.629-5.01-1.772-7.02-8.213-11.9-10.269-3.65-1.541-7.87-.168-11.4 1.613-3.54 1.781-7.04 4.022-11.01 4.27-3.44.222-7.17-1.054-10.19.629-2.24 1.25-3.42 3.837-5.48 5.361-2.07 1.524-4.67 1.772-7.18 1.94-2.51.168-5.1.159-7.39 1.205-2.29 1.045-4.18 3.464-3.71 5.936l86.8-.859Zm-127-150c.66-4.82-6.15-8.789-11.26-9.197-2.44-.204-4.98.177-7.28-.629-5.01-1.772-7.02-8.213-11.9-10.269-3.65-1.541-7.87-.168-11.4 1.613-3.54 1.781-7.04 4.022-11.01 4.27-3.44.222-7.17-1.054-10.19.629-2.24 1.25-3.42 3.837-5.48 5.361-2.07 1.524-4.67 1.772-7.18 1.94-2.51.168-5.1.159-7.39 1.205-2.29 1.045-4.18 3.464-3.71 5.936l86.8-.859Zm321-50c.66-4.82-6.15-8.789-11.26-9.197-2.44-.204-4.98.177-7.28-.629-5.01-1.772-7.02-8.213-11.9-10.269-3.65-1.541-7.87-.168-11.4 1.613-3.54 1.781-7.04 4.022-11.01 4.27-3.44.222-7.17-1.054-10.19.629-2.24 1.25-3.42 3.837-5.48 5.361-2.07 1.524-4.67 1.772-7.18 1.94-2.51.168-5.1.159-7.39 1.205-2.29 1.045-4.18 3.464-3.71 5.936l86.8-.859Zm98 197c.66-4.82-6.15-8.789-11.26-9.197-2.44-.204-4.98.177-7.28-.629-5.01-1.772-7.02-8.213-11.9-10.269-3.65-1.541-7.87-.168-11.4 1.613-3.54 1.781-7.04 4.022-11.01 4.27-3.44.222-7.17-1.054-10.19.629-2.24 1.25-3.42 3.837-5.48 5.361-2.07 1.524-4.67 1.772-7.18 1.94-2.51.168-5.1.159-7.39 1.205-2.29 1.045-4.18 3.464-3.71 5.936l86.8-.859Zm80-152c.66-4.82-6.15-8.789-11.26-9.197-2.44-.204-4.98.177-7.28-.629-5.01-1.772-7.02-8.213-11.9-10.269-3.65-1.541-7.87-.168-11.4 1.613-3.54 1.781-7.04 4.022-11.01 4.27-3.44.222-7.17-1.054-10.19.629-2.24 1.25-3.42 3.837-5.48 5.361-2.07 1.524-4.67 1.772-7.18 1.94-2.51.168-5.1.159-7.39 1.205-2.29 1.045-4.18 3.464-3.71 5.936l86.8-.859Z" fill="#F9FAFB"/><path d="M2108.27 106.324c.52-3.792-4.83-6.911-8.87-7.239-1.92-.15-3.91.142-5.73-.487-3.96-1.409-5.54-6.46-9.34-8.072-2.87-1.213-6.21-.133-8.97 1.267-2.75 1.4-5.53 3.163-8.64 3.358-2.7.177-5.65-.833-7.98.487-1.77.984-2.66 3.022-4.32 4.218-1.66 1.196-3.66 1.417-5.64 1.524-1.97.106-4.01.133-5.81.957-1.8.824-3.28 2.72-2.91 4.66l68.21-.673Z" fill="#EBEBEB"/></g><defs><clipPath id="Group 2__a"><path fill="#fff" d="M0 0h3006v588H0z"/></clipPath></defs></svg>